<svg width="146" height="122" viewBox="0 0 146 122" fill="none" xmlns="http://www.w3.org/2000/svg">
<path fill-rule="evenodd" clip-rule="evenodd" d="M86.2699 12.0172L86.2765 17.3798L77.0266 14.6952L86.2633 19.2771L86.2568 24.2221L76.8486 21.879L86.2699 26.1053L86.3281 32.3265L76.9568 29.6534L86.2748 33.9955L86.2715 40.9568L77.3465 38.938L86.224 42.3099L86.2715 49.1902L77.0405 47.4981L86.2592 50.6847L86.2551 56.4113C87.1616 56.5684 88.0565 56.7396 88.9376 56.9241L88.7366 8.70894L72.3524 0L59.2175 6.50646L59.1748 56.0763C60.4414 55.8919 61.7293 55.7347 63.0377 55.6065V9.02156L64.6784 8.22179V55.461C65.8161 55.3717 66.9679 55.303 68.1319 55.2567V7.01512L69.7725 6.21534V55.2071C70.4017 55.1938 71.0333 55.1872 71.6683 55.1872C72.4935 55.1872 73.313 55.1996 74.1268 55.222L74.0702 5.92423L86.2699 12.0172Z" fill="#FF6600"/>
<path fill-rule="evenodd" clip-rule="evenodd" d="M109.756 24.1637L109.761 28.2982L102.539 26.2289L109.752 29.7621L109.747 33.5748L102.4 31.7685L109.757 35.0271L109.803 39.8241L102.485 37.7631L109.761 41.111L109.759 46.4786L102.79 44.9221L109.722 47.5224L109.759 52.8271L102.55 51.522L109.749 53.9784L109.742 65.4969L111.855 67.2816L111.682 21.6147L98.8885 14.9006L88.6321 19.9176L88.6001 56.8557C89.3728 57.0137 90.1349 57.1824 90.8871 57.3619V22.0762L92.4343 21.3219V57.7465C93.5458 58.0376 94.6319 58.3511 95.6901 58.686V20.1847L97.2372 19.4304V59.198C98.2807 59.5586 99.2954 59.9398 100.278 60.3426L100.231 19.4677L109.756 24.1637Z" fill="white"/>
<path fill-rule="evenodd" clip-rule="evenodd" d="M47.2268 62.7332L47.2916 62.7473L47.4458 62.6778L47.2268 62.7332Z" fill="white"/>
<path fill-rule="evenodd" clip-rule="evenodd" d="M57.0711 22.5529L57.0761 26.6874L49.854 24.6181L57.067 28.1513L57.0621 31.9641L49.7154 30.1578L57.072 33.4164L57.1179 38.2125L49.7999 36.1523L57.0761 39.5002L57.0736 44.8679L50.105 43.3113L57.0367 45.9116L57.0736 51.2164L49.8655 49.9121L57.0637 52.3685L57.0613 56.4169C57.7586 56.2962 58.4632 56.1837 59.1752 56.0795L59.2064 20.1206L46.2044 13.2899L35.948 18.3068L35.9111 64.1599L38.2818 62.7894V20.6615L39.8289 19.9072V61.8954L40.8461 61.3073C41.5721 60.9707 42.3194 60.6457 43.0847 60.3322V18.77L44.6318 18.0157V59.7268C45.5924 59.367 46.5801 59.0255 47.5924 58.7037L47.5448 17.8569L57.0711 22.5529Z" fill="white"/>
<path fill-rule="evenodd" clip-rule="evenodd" d="M71.6661 59.8278C89.8049 59.8278 105.794 64.2641 115.226 71.0104C108.64 61.7705 91.6219 55.1896 71.6661 55.1896C51.7102 55.1896 34.6928 61.7697 28.1056 71.0104C37.5376 64.2641 53.5281 59.8278 71.6661 59.8278Z" fill="#FF6600"/>
<path d="M0 94.1301V92.406H1.35621V85.4503H0V83.7263H5.30693C5.9359 83.7263 6.48133 83.8352 6.94323 84.0532C7.41496 84.2613 7.77858 84.5635 8.0341 84.9599C8.29944 85.3463 8.43212 85.812 8.43212 86.3569V86.5056C8.43212 86.9812 8.34367 87.3726 8.16677 87.6797C7.98987 87.977 7.77858 88.2098 7.53289 88.3783C7.29702 88.5368 7.07099 88.6507 6.85478 88.7201V88.9876C7.07099 89.0471 7.30685 89.161 7.56237 89.3295C7.81789 89.488 8.0341 89.7209 8.21099 90.028C8.39772 90.3352 8.49108 90.7365 8.49108 91.2319V91.3805C8.49108 91.9552 8.35841 92.4506 8.09306 92.8668C7.82772 93.273 7.45918 93.5851 6.98745 93.8031C6.52555 94.0211 5.98503 94.1301 5.36589 94.1301H0ZM3.30209 92.3466H5.13003C5.55262 92.3466 5.89167 92.2426 6.14719 92.0345C6.41254 91.8264 6.54521 91.5291 6.54521 91.1427V90.9941C6.54521 90.6077 6.41745 90.3104 6.16193 90.1023C5.90641 89.8943 5.56244 89.7902 5.13003 89.7902H3.30209V92.3466ZM3.30209 88.0067H5.10055C5.50348 88.0067 5.83271 87.9027 6.08822 87.6946C6.35357 87.4865 6.48624 87.1992 6.48624 86.8326V86.6839C6.48624 86.3074 6.35848 86.0201 6.10297 85.8219C5.84745 85.6138 5.51331 85.5098 5.10055 85.5098H3.30209V88.0067Z" fill="white"/>
<path d="M13.224 94.249C12.654 94.249 12.1528 94.1202 11.7204 93.8626C11.2978 93.5951 10.9686 93.2284 10.7327 92.7627C10.4968 92.2971 10.3789 91.762 10.3789 91.1576V86.7582H12.2363V91.009C12.2363 91.5638 12.369 91.98 12.6344 92.2574C12.9095 92.5349 13.2977 92.6736 13.7989 92.6736C14.3689 92.6736 14.8112 92.4853 15.1257 92.1088C15.4401 91.7224 15.5974 91.1873 15.5974 90.5036V86.7582H17.4548V94.1301H15.6269V93.164H15.3615C15.2436 93.4118 15.0225 93.6545 14.6982 93.8923C14.3738 94.1301 13.8825 94.249 13.224 94.249Z" fill="white"/>
<path d="M19.8166 94.1301V86.7582H21.674V94.1301H19.8166ZM20.7453 85.8962C20.4111 85.8962 20.1261 85.7872 19.8903 85.5692C19.6642 85.3512 19.5512 85.0639 19.5512 84.7072C19.5512 84.3505 19.6642 84.0631 19.8903 83.8452C20.1261 83.6272 20.4111 83.5182 20.7453 83.5182C21.0892 83.5182 21.3742 83.6272 21.6003 83.8452C21.8263 84.0631 21.9393 84.3505 21.9393 84.7072C21.9393 85.0639 21.8263 85.3512 21.6003 85.5692C21.3742 85.7872 21.0892 85.8962 20.7453 85.8962Z" fill="white"/>
<path d="M24.0271 94.1301V83.7263H25.8845V94.1301H24.0271Z" fill="white"/>
<path d="M31.1859 94.3382C30.6061 94.3382 30.0606 94.1945 29.5496 93.9072C29.0484 93.6099 28.6455 93.1789 28.3408 92.6141C28.0361 92.0493 27.8838 91.3657 27.8838 90.5631V90.3253C27.8838 89.5227 28.0361 88.839 28.3408 88.2742C28.6455 87.7094 29.0484 87.2834 29.5496 86.996C30.0508 86.6988 30.5962 86.5502 31.1859 86.5502C31.6282 86.5502 31.9967 86.6047 32.2915 86.7136C32.5962 86.8127 32.8419 86.9415 33.0286 87.1001C33.2153 87.2586 33.3578 87.4271 33.4561 87.6054H33.7214V83.7263H35.5789V94.1301H33.7509V93.2383H33.4856C33.3185 93.5158 33.0581 93.7685 32.7043 93.9963C32.3603 94.2242 31.8542 94.3382 31.1859 94.3382ZM31.7461 92.7033C32.3161 92.7033 32.7927 92.52 33.176 92.1534C33.5593 91.7769 33.7509 91.2319 33.7509 90.5185V90.3699C33.7509 89.6565 33.5593 89.1164 33.176 88.7498C32.8026 88.3733 32.3259 88.1851 31.7461 88.1851C31.1761 88.1851 30.6994 88.3733 30.3162 88.7498C29.9329 89.1164 29.7412 89.6565 29.7412 90.3699V90.5185C29.7412 91.2319 29.9329 91.7769 30.3162 92.1534C30.6994 92.52 31.1761 92.7033 31.7461 92.7033Z" fill="white"/>
<path d="M40.2032 94.3382C39.6823 94.3382 39.2155 94.249 38.8027 94.0707C38.39 93.8824 38.0608 93.6149 37.8151 93.2681C37.5792 92.9114 37.4613 92.4804 37.4613 91.975C37.4613 91.4697 37.5792 91.0486 37.8151 90.7117C38.0608 90.3649 38.3949 90.1073 38.8175 89.9389C39.2499 89.7605 39.7413 89.6713 40.2916 89.6713H42.2965V89.2552C42.2965 88.9084 42.1884 88.626 41.9722 88.408C41.756 88.1801 41.412 88.0661 40.9403 88.0661C40.4784 88.0661 40.1344 88.1751 39.9084 88.3931C39.6823 88.6012 39.5349 88.8737 39.4661 89.2106L37.7561 88.6309C37.874 88.2544 38.0608 87.9126 38.3163 87.6054C38.5816 87.2883 38.9305 87.0357 39.3629 86.8474C39.8052 86.6492 40.3408 86.5502 40.9697 86.5502C41.9329 86.5502 42.6945 86.7929 43.2547 87.2784C43.8148 87.7639 44.0949 88.4674 44.0949 89.3889V92.1385C44.0949 92.4358 44.2325 92.5844 44.5077 92.5844H45.0974V94.1301H43.8591C43.4954 94.1301 43.1957 94.0409 42.9598 93.8626C42.724 93.6842 42.606 93.4464 42.606 93.1492V93.1343H42.326C42.2867 93.2532 42.1982 93.4117 42.0606 93.6099C41.923 93.7982 41.7068 93.9666 41.412 94.1152C41.1172 94.2639 40.7142 94.3382 40.2032 94.3382ZM40.5275 92.8222C41.0484 92.8222 41.471 92.6785 41.7953 92.3912C42.1294 92.0939 42.2965 91.7025 42.2965 91.217V91.0684H40.4243C40.0803 91.0684 39.8101 91.1427 39.6135 91.2913C39.417 91.44 39.3187 91.648 39.3187 91.9156C39.3187 92.1831 39.4219 92.4011 39.6283 92.5695C39.8347 92.738 40.1344 92.8222 40.5275 92.8222Z" fill="white"/>
<path d="M54.6503 94.3382C53.3727 94.3382 52.3604 93.9815 51.6135 93.2681C50.8666 92.5448 50.4932 91.5143 50.4932 90.1766V87.6797C50.4932 86.3421 50.8666 85.3166 51.6135 84.6031C52.3604 83.8798 53.3727 83.5182 54.6503 83.5182C55.918 83.5182 56.8959 83.8699 57.5838 84.5734C58.2816 85.267 58.6305 86.2232 58.6305 87.4419V87.5311H56.7141V87.3825C56.7141 86.7681 56.5421 86.2628 56.1981 85.8665C55.864 85.4701 55.348 85.272 54.6503 85.272C53.9623 85.272 53.4218 85.485 53.0287 85.9111C52.6356 86.3371 52.4391 86.9168 52.4391 87.65V90.2064C52.4391 90.9297 52.6356 91.5093 53.0287 91.9453C53.4218 92.3714 53.9623 92.5844 54.6503 92.5844C55.348 92.5844 55.864 92.3862 56.1981 91.9899C56.5421 91.5836 56.7141 91.0783 56.7141 90.4739V90.2064H58.6305V90.4145C58.6305 91.6332 58.2816 92.5943 57.5838 93.2978C56.8959 93.9914 55.918 94.3382 54.6503 94.3382Z" fill="white"/>
<path d="M64.0488 94.3382C63.3215 94.3382 62.668 94.1896 62.0882 93.8923C61.5083 93.5951 61.0513 93.164 60.7172 92.5993C60.3831 92.0345 60.216 91.3557 60.216 90.5631V90.3253C60.216 89.5326 60.3831 88.8539 60.7172 88.2891C61.0513 87.7243 61.5083 87.2933 62.0882 86.996C62.668 86.6988 63.3215 86.5502 64.0488 86.5502C64.776 86.5502 65.4296 86.6988 66.0094 86.996C66.5892 87.2933 67.0462 87.7243 67.3803 88.2891C67.7145 88.8539 67.8815 89.5326 67.8815 90.3253V90.5631C67.8815 91.3557 67.7145 92.0345 67.3803 92.5993C67.0462 93.164 66.5892 93.5951 66.0094 93.8923C65.4296 94.1896 64.776 94.3382 64.0488 94.3382ZM64.0488 92.6736C64.6188 92.6736 65.0905 92.4903 65.4639 92.1236C65.8374 91.7471 66.0241 91.2121 66.0241 90.5185V90.3699C66.0241 89.6763 65.8374 89.1462 65.4639 88.7796C65.1003 88.403 64.6286 88.2148 64.0488 88.2148C63.4788 88.2148 63.007 88.403 62.6336 88.7796C62.2601 89.1462 62.0734 89.6763 62.0734 90.3699V90.5185C62.0734 91.2121 62.2601 91.7471 62.6336 92.1236C63.007 92.4903 63.4788 92.6736 64.0488 92.6736Z" fill="white"/>
<path d="M69.8909 94.1301V86.7582H71.7188V87.7243H71.9842C72.1021 87.4667 72.3232 87.2239 72.6475 86.996C72.9718 86.7582 73.4632 86.6393 74.1217 86.6393C74.6917 86.6393 75.188 86.7731 75.6106 87.0406C76.043 87.2982 76.3771 87.6599 76.613 88.1256C76.8488 88.5814 76.9668 89.1164 76.9668 89.7308V94.1301H75.1094V89.8794C75.1094 89.3245 74.9718 88.9084 74.6966 88.6309C74.4313 88.3535 74.048 88.2148 73.5468 88.2148C72.9768 88.2148 72.5345 88.408 72.22 88.7944C71.9055 89.1709 71.7483 89.701 71.7483 90.3847V94.1301H69.8909Z" fill="white"/>
<path d="M82.3063 94.3382C81.353 94.3382 80.5717 94.1301 79.9624 93.714C79.3531 93.2978 78.9846 92.7033 78.8568 91.9304L80.5668 91.4846C80.6356 91.8314 80.7486 92.1038 80.9059 92.302C81.0729 92.5002 81.2744 92.6438 81.5103 92.733C81.756 92.8123 82.0213 92.8519 82.3063 92.8519C82.7387 92.8519 83.0581 92.7776 83.2645 92.629C83.4709 92.4704 83.5741 92.2772 83.5741 92.0493C83.5741 91.8214 83.4758 91.648 83.2792 91.5291C83.0827 91.4003 82.7682 91.2963 82.3358 91.217L81.923 91.1427C81.412 91.0436 80.9452 90.9099 80.5226 90.7414C80.1 90.5631 79.7609 90.3203 79.5054 90.0132C79.2499 89.706 79.1221 89.3097 79.1221 88.8241C79.1221 88.0909 79.3875 87.5311 79.9182 87.1447C80.4489 86.7483 81.1466 86.5502 82.0115 86.5502C82.8272 86.5502 83.5053 86.7335 84.0458 87.1001C84.5863 87.4667 84.9401 87.9472 85.1072 88.5418L83.3824 89.0768C83.3038 88.7003 83.1416 88.4328 82.896 88.2742C82.6601 88.1157 82.3653 88.0364 82.0115 88.0364C81.6577 88.0364 81.3874 88.1008 81.2007 88.2296C81.014 88.3485 80.9206 88.517 80.9206 88.735C80.9206 88.9728 81.0189 89.1511 81.2154 89.27C81.412 89.379 81.6773 89.4632 82.0115 89.5227L82.4242 89.597C82.9746 89.6961 83.4709 89.8299 83.9131 89.9983C84.3652 90.1568 84.719 90.3897 84.9745 90.6968C85.2399 90.9941 85.3725 91.4003 85.3725 91.9156C85.3725 92.6884 85.0924 93.2879 84.5323 93.714C83.9819 94.1301 83.2399 94.3382 82.3063 94.3382Z" fill="white"/>
<path d="M89.9519 94.1301C89.4704 94.1301 89.0773 93.9815 88.7726 93.6842C88.4778 93.3771 88.3304 92.9708 88.3304 92.4655V88.304H86.5024V86.7582H88.3304V84.4694H90.1878V86.7582H92.1926V88.304H90.1878V92.1385C90.1878 92.4358 90.3254 92.5844 90.6006 92.5844H92.0157V94.1301H89.9519Z" fill="white"/>
<path d="M94.1688 94.1301V86.7582H95.9967V87.5905H96.2621C96.3702 87.2933 96.5471 87.0753 96.7928 86.9366C97.0483 86.7979 97.3431 86.7285 97.6773 86.7285H98.5618V88.3931H97.6478C97.1761 88.3931 96.7879 88.5219 96.4832 88.7796C96.1786 89.0273 96.0262 89.4137 96.0262 89.9389V94.1301H94.1688Z" fill="white"/>
<path d="M103.095 94.249C102.525 94.249 102.023 94.1202 101.591 93.8626C101.168 93.5951 100.839 93.2284 100.603 92.7627C100.367 92.2971 100.249 91.762 100.249 91.1576V86.7582H102.107V91.009C102.107 91.5638 102.24 91.98 102.505 92.2574C102.78 92.5349 103.168 92.6736 103.669 92.6736C104.239 92.6736 104.682 92.4853 104.996 92.1088C105.311 91.7224 105.468 91.1873 105.468 90.5036V86.7582H107.325V94.1301H105.497V93.164H105.232C105.114 93.4118 104.893 93.6545 104.569 93.8923C104.244 94.1301 103.753 94.249 103.095 94.249Z" fill="white"/>
<path d="M113.122 94.3382C112.414 94.3382 111.771 94.1896 111.191 93.8923C110.621 93.5951 110.169 93.164 109.834 92.5993C109.5 92.0345 109.333 91.3508 109.333 90.5482V90.3401C109.333 89.5376 109.5 88.8539 109.834 88.2891C110.169 87.7243 110.621 87.2933 111.191 86.996C111.771 86.6988 112.414 86.5502 113.122 86.5502C113.82 86.5502 114.419 86.674 114.92 86.9217C115.421 87.1694 115.824 87.5113 116.129 87.9473C116.444 88.3733 116.65 88.8588 116.748 89.4038L114.95 89.7902C114.91 89.493 114.822 89.2254 114.684 88.9876C114.547 88.7498 114.35 88.5616 114.095 88.4229C113.849 88.2841 113.539 88.2148 113.166 88.2148C112.793 88.2148 112.454 88.299 112.149 88.4674C111.854 88.626 111.618 88.8687 111.441 89.1957C111.274 89.5128 111.191 89.9042 111.191 90.3699V90.5185C111.191 90.9842 111.274 91.3805 111.441 91.7075C111.618 92.0246 111.854 92.2673 112.149 92.4358C112.454 92.5943 112.793 92.6736 113.166 92.6736C113.726 92.6736 114.149 92.5299 114.434 92.2426C114.729 91.9453 114.915 91.5589 114.994 91.0833L116.792 91.5143C116.665 92.0394 116.444 92.52 116.129 92.956C115.824 93.382 115.421 93.7189 114.92 93.9666C114.419 94.2143 113.82 94.3382 113.122 94.3382Z" fill="white"/>
<path d="M121.176 94.1301C120.694 94.1301 120.301 93.9815 119.996 93.6842C119.701 93.3771 119.554 92.9708 119.554 92.4655V88.304H117.726V86.7582H119.554V84.4694H121.411V86.7582H123.416V88.304H121.411V92.1385C121.411 92.4358 121.549 92.5844 121.824 92.5844H123.239V94.1301H121.176Z" fill="white"/>
<path d="M125.392 94.1301V86.7582H127.25V94.1301H125.392ZM126.321 85.8962C125.987 85.8962 125.702 85.7872 125.466 85.5692C125.24 85.3512 125.127 85.0639 125.127 84.7072C125.127 84.3505 125.24 84.0631 125.466 83.8452C125.702 83.6272 125.987 83.5182 126.321 83.5182C126.665 83.5182 126.95 83.6272 127.176 83.8452C127.402 84.0631 127.515 84.3505 127.515 84.7072C127.515 85.0639 127.402 85.3512 127.176 85.5692C126.95 85.7872 126.665 85.8962 126.321 85.8962Z" fill="white"/>
<path d="M133.082 94.3382C132.355 94.3382 131.701 94.1896 131.121 93.8923C130.542 93.5951 130.085 93.164 129.75 92.5993C129.416 92.0345 129.249 91.3557 129.249 90.5631V90.3253C129.249 89.5326 129.416 88.8539 129.75 88.2891C130.085 87.7243 130.542 87.2933 131.121 86.996C131.701 86.6988 132.355 86.5502 133.082 86.5502C133.809 86.5502 134.463 86.6988 135.043 86.996C135.622 87.2933 136.079 87.7243 136.414 88.2891C136.748 88.8539 136.915 89.5326 136.915 90.3253V90.5631C136.915 91.3557 136.748 92.0345 136.414 92.5993C136.079 93.164 135.622 93.5951 135.043 93.8923C134.463 94.1896 133.809 94.3382 133.082 94.3382ZM133.082 92.6736C133.652 92.6736 134.124 92.4903 134.497 92.1236C134.871 91.7471 135.057 91.2121 135.057 90.5185V90.3699C135.057 89.6763 134.871 89.1462 134.497 88.7796C134.134 88.403 133.662 88.2148 133.082 88.2148C132.512 88.2148 132.04 88.403 131.667 88.7796C131.293 89.1462 131.107 89.6763 131.107 90.3699V90.5185C131.107 91.2121 131.293 91.7471 131.667 92.1236C132.04 92.4903 132.512 92.6736 133.082 92.6736Z" fill="white"/>
<path d="M138.924 94.1301V86.7582H140.752V87.7243H141.017C141.135 87.4667 141.356 87.2239 141.681 86.996C142.005 86.7582 142.496 86.6393 143.155 86.6393C143.725 86.6393 144.221 86.7731 144.644 87.0406C145.076 87.2982 145.41 87.6599 145.646 88.1256C145.882 88.5814 146 89.1164 146 89.7308V94.1301H144.143V89.8794C144.143 89.3245 144.005 88.9084 143.73 88.6309C143.464 88.3535 143.081 88.2148 142.58 88.2148C142.01 88.2148 141.568 88.408 141.253 88.7944C140.939 89.1709 140.782 89.701 140.782 90.3847V94.1301H138.924Z" fill="white"/>
<path d="M28.6727 117.762V118.901H23.4325V117.762H28.6727ZM23.7061 108.335V118.901H22.3168V108.335H23.7061Z" fill="#FF6600"/>
<path d="M31.5087 111.049V118.901H30.1698V111.049H31.5087ZM30.0691 108.966C30.0691 108.748 30.1338 108.565 30.2634 108.415C30.3978 108.265 30.5945 108.19 30.8536 108.19C31.108 108.19 31.3023 108.265 31.4367 108.415C31.5758 108.565 31.6454 108.748 31.6454 108.966C31.6454 109.174 31.5758 109.353 31.4367 109.503C31.3023 109.648 31.108 109.721 30.8536 109.721C30.5945 109.721 30.3978 109.648 30.2634 109.503C30.1338 109.353 30.0691 109.174 30.0691 108.966Z" fill="#FF6600"/>
<path d="M36.0146 117.689L38.1452 111.049H39.5056L36.7056 118.901H35.8131L36.0146 117.689ZM34.2367 111.049L36.4321 117.726L36.5832 118.901H35.6907L32.8691 111.049H34.2367Z" fill="#FF6600"/>
<path d="M42.2337 111.049V118.901H40.8948V111.049H42.2337ZM40.7941 108.966C40.7941 108.748 40.8588 108.565 40.9884 108.415C41.1228 108.265 41.3195 108.19 41.5786 108.19C41.833 108.19 42.0273 108.265 42.1617 108.415C42.3008 108.565 42.3704 108.748 42.3704 108.966C42.3704 109.174 42.3008 109.353 42.1617 109.503C42.0273 109.648 41.833 109.721 41.5786 109.721C41.3195 109.721 41.1228 109.648 40.9884 109.503C40.8588 109.353 40.7941 109.174 40.7941 108.966Z" fill="#FF6600"/>
<path d="M45.7031 112.725V118.901H44.3715V111.049H45.6311L45.7031 112.725ZM45.3864 114.678L44.8321 114.656C44.8417 113.935 44.9785 113.294 45.2424 112.733C45.5063 112.167 45.8734 111.721 46.3437 111.397C46.8188 111.068 47.3706 110.904 47.9992 110.904C48.5127 110.904 48.9542 110.998 49.3237 111.187C49.698 111.376 49.9859 111.68 50.1874 112.101C50.3938 112.517 50.4969 113.069 50.4969 113.756V118.901H49.1581V113.741C49.1581 113.33 49.0981 113.001 48.9782 112.754C48.8582 112.503 48.683 112.321 48.4527 112.21C48.2224 112.094 47.9392 112.036 47.6033 112.036C47.2722 112.036 46.9699 112.106 46.6964 112.246C46.4277 112.387 46.1949 112.58 45.9982 112.827C45.8062 113.074 45.6551 113.357 45.5447 113.676C45.4392 113.991 45.3864 114.324 45.3864 114.678Z" fill="#FF6600"/>
<path d="M57.5653 111.049H58.7746V118.734C58.7746 119.426 58.6354 120.016 58.3571 120.505C58.0788 120.994 57.6901 121.364 57.1911 121.615C56.6968 121.872 56.1258 122 55.4779 122C55.2092 122 54.8925 121.956 54.5278 121.869C54.1679 121.787 53.8128 121.644 53.4625 121.441C53.117 121.243 52.8267 120.974 52.5915 120.636L53.2897 119.837C53.6161 120.234 53.9568 120.51 54.3119 120.665C54.6718 120.819 55.0269 120.897 55.3772 120.897C56.0058 120.897 56.5072 120.718 56.8815 120.36C57.2558 120.007 57.443 119.487 57.443 118.8V112.776L57.5653 111.049ZM52.2029 115.062V114.91C52.2029 114.111 52.3276 113.412 52.5771 112.812C52.8267 112.208 53.1794 111.738 53.6353 111.405C54.0959 111.071 54.643 110.904 55.2764 110.904C55.7658 110.904 56.1929 110.991 56.5576 111.165C56.9271 111.334 57.239 111.584 57.4934 111.913C57.7525 112.237 57.9564 112.629 58.1052 113.088C58.254 113.548 58.3571 114.068 58.4147 114.648V115.316C58.3427 116.081 58.1844 116.743 57.9396 117.305C57.6949 117.861 57.3518 118.292 56.9103 118.596C56.4689 118.896 55.9194 119.046 55.262 119.046C54.6382 119.046 54.0959 118.875 53.6353 118.531C53.1794 118.183 52.8267 117.709 52.5771 117.109C52.3276 116.509 52.2029 115.827 52.2029 115.062ZM53.5345 114.91V115.062C53.5345 115.58 53.6041 116.056 53.7432 116.492C53.8872 116.922 54.1103 117.266 54.4126 117.522C54.7149 117.779 55.106 117.907 55.5859 117.907C56.0274 117.907 56.3921 117.813 56.68 117.624C56.9679 117.435 57.1959 117.186 57.3638 116.876C57.5366 116.567 57.6709 116.231 57.7669 115.868V114.119C57.7141 113.853 57.6325 113.596 57.5222 113.349C57.4166 113.098 57.2774 112.875 57.1047 112.682C56.9367 112.483 56.728 112.326 56.4785 112.21C56.2289 112.094 55.9362 112.036 55.6003 112.036C55.1156 112.036 54.7197 112.167 54.4126 112.428C54.1103 112.689 53.8872 113.037 53.7432 113.473C53.6041 113.908 53.5345 114.387 53.5345 114.91Z" fill="#FF6600"/>
<path d="M70.5433 116.231C70.5433 115.902 70.4737 115.621 70.3346 115.389C70.1954 115.157 69.9459 114.946 69.586 114.757C69.2261 114.569 68.715 114.378 68.0528 114.184C67.3618 113.981 66.762 113.741 66.2533 113.466C65.7446 113.19 65.3512 112.858 65.0728 112.471C64.7945 112.079 64.6554 111.61 64.6554 111.063C64.6554 110.517 64.8017 110.028 65.0944 109.598C65.3919 109.162 65.807 108.819 66.3397 108.567C66.8771 108.315 67.5034 108.19 68.2184 108.19C69.0053 108.19 69.6723 108.342 70.2194 108.647C70.7712 108.947 71.1911 109.341 71.479 109.83C71.767 110.314 71.9109 110.831 71.9109 111.383H70.5289C70.5289 110.986 70.4449 110.635 70.277 110.33C70.109 110.021 69.8547 109.779 69.514 109.605C69.1733 109.426 68.7414 109.336 68.2184 109.336C67.7241 109.336 67.3162 109.411 66.9947 109.561C66.6732 109.711 66.4333 109.914 66.2749 110.171C66.1213 110.427 66.0446 110.72 66.0446 111.049C66.0446 111.344 66.1285 111.605 66.2965 111.833C66.4692 112.06 66.7356 112.266 67.0955 112.45C67.4554 112.633 67.9232 112.805 68.4991 112.965C69.2909 113.192 69.9411 113.453 70.4497 113.749C70.9584 114.044 71.3327 114.392 71.5726 114.794C71.8173 115.195 71.9397 115.669 71.9397 116.216C71.9397 116.787 71.7886 117.285 71.4862 117.711C71.1839 118.137 70.7592 118.466 70.2122 118.698C69.6651 118.93 69.0221 119.046 68.2831 119.046C67.7985 119.046 67.321 118.979 66.8507 118.843C66.3853 118.708 65.9606 118.504 65.5767 118.234C65.1976 117.963 64.8929 117.629 64.6626 117.232C64.437 116.83 64.3242 116.366 64.3242 115.839H65.7063C65.7063 116.202 65.7758 116.514 65.915 116.775C66.0542 117.031 66.2437 117.244 66.4836 117.413C66.7284 117.583 67.0043 117.709 67.3114 117.791C67.6233 117.868 67.9472 117.907 68.2831 117.907C68.7678 117.907 69.1781 117.839 69.514 117.704C69.8499 117.568 70.1042 117.375 70.277 117.123C70.4545 116.872 70.5433 116.574 70.5433 116.231Z" fill="#FF6600"/>
<path d="M73.1562 115.062V114.895C73.1562 114.136 73.3001 113.456 73.5881 112.856C73.876 112.256 74.2839 111.782 74.8117 111.434C75.3396 111.08 75.9658 110.904 76.6904 110.904C77.4246 110.904 78.0556 111.08 78.5834 111.434C79.1161 111.782 79.5264 112.256 79.8143 112.856C80.1022 113.456 80.2462 114.136 80.2462 114.895V115.062C80.2462 115.817 80.1022 116.497 79.8143 117.101C79.5264 117.701 79.1185 118.175 78.5906 118.524C78.0628 118.872 77.4342 119.046 76.7048 119.046C75.9754 119.046 75.3444 118.872 74.8117 118.524C74.2839 118.175 73.876 117.701 73.5881 117.101C73.3001 116.497 73.1562 115.817 73.1562 115.062ZM74.4878 114.895V115.062C74.4878 115.58 74.5694 116.059 74.7325 116.499C74.8957 116.935 75.1404 117.285 75.4667 117.551C75.7978 117.813 76.2105 117.943 76.7048 117.943C77.1942 117.943 77.6021 117.813 77.9284 117.551C78.2547 117.285 78.4995 116.935 78.6626 116.499C78.8258 116.059 78.9074 115.58 78.9074 115.062V114.895C78.9074 114.382 78.8234 113.908 78.6554 113.473C78.4923 113.033 78.2475 112.679 77.9212 112.413C77.5949 112.142 77.1846 112.007 76.6904 112.007C76.2009 112.007 75.793 112.142 75.4667 112.413C75.1404 112.679 74.8957 113.033 74.7325 113.473C74.5694 113.908 74.4878 114.382 74.4878 114.895Z" fill="#FF6600"/>
<path d="M83.3629 107.754V118.901H82.0241V107.754H83.3629Z" fill="#FF6600"/>
<path d="M90.2658 117.087V111.049H91.6046V118.901H90.3305L90.2658 117.087ZM90.5177 115.432L91.0719 115.418C91.0719 116.114 90.9736 116.736 90.7768 117.283C90.5801 117.83 90.2586 118.26 89.8123 118.575C89.366 118.889 88.771 119.046 88.0272 119.046C87.2642 119.046 86.6476 118.819 86.1773 118.364C85.707 117.909 85.4719 117.159 85.4719 116.114V111.049H86.8035V116.129C86.8035 116.598 86.8707 116.964 87.0051 117.225C87.1442 117.481 87.3242 117.66 87.5449 117.762C87.7657 117.859 87.996 117.907 88.2359 117.907C88.8022 117.907 89.2508 117.798 89.582 117.58C89.9131 117.358 90.1506 117.06 90.2946 116.688C90.4433 116.31 90.5177 115.892 90.5177 115.432Z" fill="#FF6600"/>
<path d="M96.8951 111.049V112.079H92.6843V111.049H96.8951ZM94.1095 109.14H95.4411V116.956C95.4411 117.222 95.4819 117.423 95.5635 117.559C95.6451 117.694 95.7506 117.784 95.8802 117.827C96.0098 117.871 96.1489 117.892 96.2977 117.892C96.408 117.892 96.5232 117.883 96.6432 117.863C96.7679 117.839 96.8615 117.82 96.9239 117.805L96.9311 118.901C96.8255 118.935 96.6864 118.967 96.5136 118.996C96.3457 119.029 96.1417 119.046 95.9018 119.046C95.5755 119.046 95.2756 118.981 95.002 118.85C94.7285 118.72 94.5102 118.502 94.347 118.197C94.1887 117.888 94.1095 117.472 94.1095 116.949V109.14Z" fill="#FF6600"/>
<path d="M99.9039 111.049V118.901H98.565V111.049H99.9039ZM98.4643 108.966C98.4643 108.748 98.529 108.565 98.6586 108.415C98.793 108.265 98.9897 108.19 99.2488 108.19C99.5032 108.19 99.6975 108.265 99.8319 108.415C99.971 108.565 100.041 108.748 100.041 108.966C100.041 109.174 99.971 109.353 99.8319 109.503C99.6975 109.648 99.5032 109.721 99.2488 109.721C98.9897 109.721 98.793 109.648 98.6586 109.503C98.529 109.353 98.4643 109.174 98.4643 108.966Z" fill="#FF6600"/>
<path d="M101.689 115.062V114.895C101.689 114.136 101.833 113.456 102.121 112.856C102.409 112.256 102.817 111.782 103.344 111.434C103.872 111.08 104.499 110.904 105.223 110.904C105.957 110.904 106.588 111.08 107.116 111.434C107.649 111.782 108.059 112.256 108.347 112.856C108.635 113.456 108.779 114.136 108.779 114.895V115.062C108.779 115.817 108.635 116.497 108.347 117.101C108.059 117.701 107.651 118.175 107.123 118.524C106.596 118.872 105.967 119.046 105.238 119.046C104.508 119.046 103.877 118.872 103.344 118.524C102.817 118.175 102.409 117.701 102.121 117.101C101.833 116.497 101.689 115.817 101.689 115.062ZM103.021 114.895V115.062C103.021 115.58 103.102 116.059 103.265 116.499C103.428 116.935 103.673 117.285 104 117.551C104.331 117.813 104.743 117.943 105.238 117.943C105.727 117.943 106.135 117.813 106.461 117.551C106.788 117.285 107.032 116.935 107.195 116.499C107.359 116.059 107.44 115.58 107.44 115.062V114.895C107.44 114.382 107.356 113.908 107.188 113.473C107.025 113.033 106.78 112.679 106.454 112.413C106.128 112.142 105.717 112.007 105.223 112.007C104.734 112.007 104.326 112.142 104 112.413C103.673 112.679 103.428 113.033 103.265 113.473C103.102 113.908 103.021 114.382 103.021 114.895Z" fill="#FF6600"/>
<path d="M111.781 112.725V118.901H110.449V111.049H111.709L111.781 112.725ZM111.464 114.678L110.91 114.656C110.919 113.935 111.056 113.294 111.32 112.733C111.584 112.167 111.951 111.721 112.421 111.397C112.896 111.068 113.448 110.904 114.077 110.904C114.59 110.904 115.032 110.998 115.401 111.187C115.775 111.376 116.063 111.68 116.265 112.101C116.471 112.517 116.574 113.069 116.574 113.756V118.901H115.236V113.741C115.236 113.33 115.176 113.001 115.056 112.754C114.936 112.503 114.76 112.321 114.53 112.21C114.3 112.094 114.017 112.036 113.681 112.036C113.35 112.036 113.047 112.106 112.774 112.246C112.505 112.387 112.272 112.58 112.076 112.827C111.884 113.074 111.733 113.357 111.622 113.676C111.517 113.991 111.464 114.324 111.464 114.678Z" fill="#FF6600"/>
<path d="M123.132 116.818C123.132 116.625 123.089 116.446 123.002 116.281C122.921 116.112 122.75 115.96 122.491 115.824C122.237 115.684 121.853 115.563 121.339 115.461C120.764 115.34 120.265 115.186 119.842 114.997C119.425 114.808 119.101 114.569 118.871 114.278C118.645 113.988 118.532 113.628 118.532 113.197C118.532 112.781 118.65 112.401 118.885 112.058C119.125 111.709 119.461 111.431 119.893 111.223C120.329 111.01 120.838 110.904 121.419 110.904C122.042 110.904 122.575 111.015 123.017 111.238C123.458 111.46 123.796 111.758 124.031 112.13C124.267 112.498 124.384 112.907 124.384 113.357H123.053C123.053 113.033 122.911 112.728 122.628 112.442C122.35 112.152 121.946 112.007 121.419 112.007C121.049 112.007 120.749 112.065 120.519 112.181C120.293 112.292 120.128 112.435 120.022 112.609C119.921 112.783 119.871 112.967 119.871 113.161C119.871 113.354 119.919 113.521 120.015 113.662C120.111 113.802 120.286 113.928 120.54 114.039C120.8 114.15 121.174 114.261 121.663 114.373C122.302 114.518 122.827 114.692 123.24 114.895C123.652 115.098 123.96 115.348 124.161 115.643C124.363 115.938 124.463 116.296 124.463 116.717C124.463 117.176 124.339 117.583 124.089 117.936C123.84 118.284 123.489 118.558 123.038 118.756C122.587 118.95 122.059 119.046 121.455 119.046C120.768 119.046 120.188 118.923 119.713 118.676C119.238 118.429 118.878 118.11 118.633 117.718C118.388 117.326 118.266 116.913 118.266 116.477H119.605C119.624 116.845 119.73 117.138 119.921 117.355C120.113 117.568 120.349 117.721 120.627 117.813C120.905 117.9 121.181 117.943 121.455 117.943C121.819 117.943 122.124 117.895 122.369 117.798C122.618 117.701 122.808 117.568 122.937 117.399C123.067 117.23 123.132 117.036 123.132 116.818Z" fill="#FF6600"/>
</svg>
