<svg width="119" height="122" viewBox="0 0 119 122" fill="none" xmlns="http://www.w3.org/2000/svg">
<path d="M102.484 85.6309C102.484 85.6309 101.18 85.1883 98.9229 84.3607C97.8075 83.9045 96.3933 83.5477 94.8177 83.0361C93.2536 82.5025 91.4222 82.0777 89.4513 81.5576C88.9586 81.43 88.4565 81.2971 87.9438 81.1642C87.4239 81.0586 86.8934 80.9518 86.3545 80.843C85.2811 80.616 84.1709 80.3816 83.0303 80.1409C81.8866 79.9149 80.6957 79.7643 79.4901 79.5655C78.2804 79.3834 77.0549 79.1469 75.7864 79.0381C74.5253 78.8948 73.2432 78.7483 71.9453 78.5997C70.6454 78.4794 69.3214 78.4229 67.9931 78.3183C67.3285 78.2733 66.6618 78.2262 65.993 78.1791C65.3231 78.1509 64.65 78.1519 63.976 78.1299C62.6289 78.0996 61.2755 78.0672 59.9221 78.0358C58.5645 78.0682 57.2059 78.0996 55.8535 78.132C55.1732 78.153 54.4855 78.154 53.8146 78.1833C53.1499 78.2304 52.4874 78.2754 51.828 78.3225C50.5071 78.4271 49.1967 78.4836 47.8999 78.6029C46.6021 78.7525 45.32 78.899 44.0588 79.0423C42.7904 79.1501 41.5649 79.3876 40.3562 79.5697C39.1506 79.7674 37.9586 79.9191 36.8149 80.1451C35.6743 80.3847 34.5652 80.6202 33.4907 80.8472C32.9518 80.956 32.4224 81.0638 31.9014 81.1684C31.3888 81.3023 30.8856 81.4331 30.3939 81.5608C28.4231 82.0818 26.5927 82.5066 25.0213 83.0403C23.4414 83.553 22.0251 83.9129 20.9171 84.3638C18.6695 85.1862 17.3591 85.6309 17.3591 85.6309C17.3591 85.6309 18.5531 84.9592 20.6885 83.8292C21.741 83.2307 23.0944 82.672 24.6355 81.9919C25.0223 81.8224 25.4207 81.6487 25.8316 81.4687C26.0371 81.3798 26.2468 81.2887 26.4575 81.1967C26.6724 81.1171 26.8915 81.0366 27.1127 80.9539C28.0048 80.6369 28.9399 80.3021 29.918 79.9537C30.4086 79.78 30.9076 79.6031 31.4181 79.4221C31.9371 79.2694 32.4644 79.1145 33.0011 78.9555C34.0798 78.6531 35.1963 78.3392 36.3432 78.018C37.4963 77.7156 38.6977 77.4844 39.919 77.205C41.1413 76.9309 42.393 76.6578 43.6825 76.4831C44.9688 76.2884 46.2771 76.0907 47.6022 75.8919C48.9346 75.7203 50.2985 75.624 51.6686 75.4974C52.3532 75.4368 53.043 75.3771 53.7328 75.3175C54.4173 75.2704 55.0956 75.2662 55.7781 75.2421C57.1556 75.2013 58.5404 75.1616 59.9231 75.1218C61.3111 75.1626 62.6991 75.2024 64.0829 75.2432C64.7737 75.2662 65.4646 75.2746 66.1512 75.3206C66.8368 75.3813 67.5214 75.4409 68.2018 75.5016C69.5625 75.6282 70.9159 75.7266 72.2451 75.894C73.5702 76.0938 74.8785 76.2926 76.1648 76.4872C77.4532 76.6599 78.7049 76.9382 79.9283 77.2113C81.1486 77.4896 82.35 77.7198 83.5042 78.0222C84.65 78.3444 85.7664 78.6573 86.8462 78.9607C87.384 79.1187 87.9113 79.2746 88.4292 79.4263C88.9387 79.6073 89.4398 79.7841 89.9293 79.9568C90.9074 80.3063 91.8425 80.64 92.7336 80.9581C92.9559 81.0397 93.1749 81.1203 93.3909 81.1998C93.6016 81.2929 93.8113 81.3829 94.0178 81.4729C94.4298 81.6529 94.8292 81.8286 95.2181 81.996C96.7634 82.6761 98.1199 83.2391 99.164 83.8334C101.284 84.9571 102.484 85.6309 102.484 85.6309Z" fill="#555555"/>
<path d="M0.799805 99.7017V98.3223H1.89592V92.7571H0.799805V91.3777H5.08896C5.59731 91.3777 6.03814 91.4649 6.41146 91.6393C6.79271 91.8058 7.0866 92.0476 7.29312 92.3647C7.50757 92.6739 7.6148 93.0465 7.6148 93.4825V93.6014C7.6148 93.9819 7.54332 94.2951 7.40034 94.5408C7.25737 94.7787 7.0866 94.965 6.88803 95.0997C6.6974 95.2266 6.51471 95.3177 6.33997 95.3732V95.5873C6.51471 95.6348 6.70534 95.726 6.91186 95.8608C7.11837 95.9876 7.29312 96.1739 7.43609 96.4197C7.587 96.6654 7.66246 96.9865 7.66246 97.3829V97.5018C7.66246 97.9616 7.55523 98.358 7.34077 98.6909C7.12631 99.016 6.82846 99.2657 6.4472 99.4401C6.07388 99.6145 5.63702 99.7017 5.13662 99.7017H0.799805ZM3.46862 98.2747H4.94599C5.28754 98.2747 5.56157 98.1915 5.76808 98.025C5.98254 97.8585 6.08977 97.6207 6.08977 97.3115V97.1926C6.08977 96.8834 5.98651 96.6456 5.78 96.4791C5.57348 96.3126 5.29548 96.2294 4.94599 96.2294H3.46862V98.2747ZM3.46862 94.8024H4.92216C5.24782 94.8024 5.51391 94.7192 5.72042 94.5527C5.93488 94.3862 6.04211 94.1563 6.04211 93.863V93.7441C6.04211 93.4429 5.93885 93.213 5.73234 93.0544C5.52582 92.8879 5.25576 92.8047 4.92216 92.8047H3.46862V94.8024Z" fill="#0C0A0A"/>
<path d="M11.4877 99.7968C11.027 99.7968 10.6219 99.6938 10.2724 99.4876C9.9309 99.2736 9.66481 98.9803 9.47418 98.6077C9.28355 98.2351 9.18824 97.807 9.18824 97.3234V93.8036H10.6894V97.2045C10.6894 97.6484 10.7967 97.9814 11.0111 98.2034C11.2335 98.4253 11.5473 98.5363 11.9524 98.5363C12.4131 98.5363 12.7705 98.3857 13.0247 98.0845C13.2788 97.7753 13.4059 97.3472 13.4059 96.8002V93.8036H14.9071V99.7017H13.4297V98.9288H13.2153C13.12 99.1269 12.9413 99.3212 12.6791 99.5114C12.417 99.7017 12.0199 99.7968 11.4877 99.7968Z" fill="#0C0A0A"/>
<path d="M16.8159 99.7017V93.8036H18.3171V99.7017H16.8159ZM17.5665 93.1139C17.2965 93.1139 17.0661 93.0267 16.8755 92.8522C16.6928 92.6778 16.6015 92.4479 16.6015 92.1625C16.6015 91.8772 16.6928 91.6473 16.8755 91.4729C17.0661 91.2984 17.2965 91.2112 17.5665 91.2112C17.8445 91.2112 18.0749 91.2984 18.2576 91.4729C18.4402 91.6473 18.5316 91.8772 18.5316 92.1625C18.5316 92.4479 18.4402 92.6778 18.2576 92.8522C18.0749 93.0267 17.8445 93.1139 17.5665 93.1139Z" fill="#0C0A0A"/>
<path d="M20.219 99.7017V91.3777H21.7202V99.7017H20.219Z" fill="#0C0A0A"/>
<path d="M26.0049 99.8682C25.5362 99.8682 25.0954 99.7532 24.6824 99.5233C24.2773 99.2855 23.9516 98.9406 23.7054 98.4888C23.4592 98.0369 23.336 97.4899 23.336 96.8478V96.6575C23.336 96.0154 23.4592 95.4684 23.7054 95.0165C23.9516 94.5646 24.2773 94.2237 24.6824 93.9938C25.0874 93.756 25.5283 93.6371 26.0049 93.6371C26.3623 93.6371 26.6601 93.6807 26.8984 93.7679C27.1447 93.8472 27.3432 93.9502 27.4941 94.0771C27.6451 94.2039 27.7602 94.3387 27.8397 94.4814H28.0541V91.3777H29.5553V99.7017H28.0779V98.9882H27.8635C27.7285 99.2102 27.518 99.4123 27.232 99.5947C26.954 99.777 26.545 99.8682 26.0049 99.8682ZM26.4576 98.5601C26.9183 98.5601 27.3035 98.4135 27.6133 98.1201C27.9231 97.8189 28.0779 97.3829 28.0779 96.8121V96.6932C28.0779 96.1224 27.9231 95.6903 27.6133 95.397C27.3115 95.0958 26.9262 94.9451 26.4576 94.9451C25.9969 94.9451 25.6117 95.0958 25.3019 95.397C24.9921 95.6903 24.8372 96.1224 24.8372 96.6932V96.8121C24.8372 97.3829 24.9921 97.8189 25.3019 98.1201C25.6117 98.4135 25.9969 98.5601 26.4576 98.5601Z" fill="#0C0A0A"/>
<path d="M33.2928 99.8682C32.8718 99.8682 32.4945 99.7968 32.1609 99.6541C31.8273 99.5035 31.5612 99.2895 31.3627 99.012C31.172 98.7266 31.0767 98.3818 31.0767 97.9774C31.0767 97.5731 31.172 97.2362 31.3627 96.9667C31.5612 96.6892 31.8313 96.4831 32.1728 96.3483C32.5223 96.2056 32.9195 96.1343 33.3643 96.1343H34.9846V95.8013C34.9846 95.5238 34.8973 95.2979 34.7225 95.1235C34.5478 94.9412 34.2698 94.85 33.8885 94.85C33.5152 94.85 33.2372 94.9372 33.0545 95.1116C32.8718 95.2781 32.7527 95.4961 32.6971 95.7656L31.315 95.3019C31.4103 95.0006 31.5612 94.7271 31.7678 94.4814C31.9822 94.2277 32.2642 94.0255 32.6137 93.8749C32.9711 93.7164 33.404 93.6371 33.9123 93.6371C34.6907 93.6371 35.3063 93.8313 35.7591 94.2198C36.2118 94.6082 36.4382 95.1711 36.4382 95.9083V98.1082C36.4382 98.3461 36.5494 98.465 36.7718 98.465H37.2484V99.7017H36.2475C35.9537 99.7017 35.7114 99.6303 35.5208 99.4876C35.3301 99.3449 35.2348 99.1547 35.2348 98.9169V98.905H35.0085C34.9767 99.0001 34.9052 99.1269 34.794 99.2855C34.6828 99.4361 34.5081 99.5709 34.2698 99.6898C34.0315 99.8087 33.7058 99.8682 33.2928 99.8682ZM33.5549 98.6553C33.9759 98.6553 34.3174 98.5403 34.5795 98.3104C34.8496 98.0726 34.9846 97.7594 34.9846 97.371V97.2521H33.4715C33.1935 97.2521 32.9751 97.3115 32.8162 97.4304C32.6574 97.5493 32.5779 97.7158 32.5779 97.9299C32.5779 98.1439 32.6613 98.3183 32.8281 98.4531C32.9949 98.5879 33.2372 98.6553 33.5549 98.6553Z" fill="#0C0A0A"/>
<path d="M44.9692 99.8682C43.9366 99.8682 43.1185 99.5828 42.5149 99.012C41.9112 98.4333 41.6094 97.6088 41.6094 96.5386V94.5408C41.6094 93.4706 41.9112 92.6501 42.5149 92.0793C43.1185 91.5006 43.9366 91.2112 44.9692 91.2112C45.9938 91.2112 46.7842 91.4927 47.3402 92.0555C47.9041 92.6105 48.1861 93.3755 48.1861 94.3506V94.4219H46.6372V94.303C46.6372 93.8115 46.4982 93.4072 46.2202 93.0901C45.9502 92.773 45.5332 92.6144 44.9692 92.6144C44.4132 92.6144 43.9764 92.7849 43.6586 93.1258C43.3409 93.4666 43.1821 93.9304 43.1821 94.517V96.5624C43.1821 97.1411 43.3409 97.6049 43.6586 97.9537C43.9764 98.2945 44.4132 98.465 44.9692 98.465C45.5332 98.465 45.9502 98.3064 46.2202 97.9893C46.4982 97.6643 46.6372 97.26 46.6372 96.7764V96.5624H48.1861V96.7288C48.1861 97.7039 47.9041 98.4729 47.3402 99.0358C46.7842 99.5907 45.9938 99.8682 44.9692 99.8682Z" fill="#0C0A0A"/>
<path d="M52.5652 99.8682C51.9775 99.8682 51.4493 99.7493 50.9806 99.5114C50.512 99.2736 50.1427 98.9287 49.8726 98.4769C49.6026 98.025 49.4675 97.482 49.4675 96.8478V96.6575C49.4675 96.0233 49.6026 95.4802 49.8726 95.0284C50.1427 94.5765 50.512 94.2317 50.9806 93.9938C51.4493 93.756 51.9775 93.6371 52.5652 93.6371C53.153 93.6371 53.6812 93.756 54.1499 93.9938C54.6185 94.2317 54.9878 94.5765 55.2579 95.0284C55.5279 95.4802 55.663 96.0233 55.663 96.6575V96.8478C55.663 97.482 55.5279 98.025 55.2579 98.4769C54.9878 98.9287 54.6185 99.2736 54.1499 99.5114C53.6812 99.7493 53.153 99.8682 52.5652 99.8682ZM52.5652 98.5363C53.0259 98.5363 53.4072 98.3897 53.709 98.0964C54.0108 97.7951 54.1618 97.367 54.1618 96.8121V96.6932C54.1618 96.1382 54.0108 95.7141 53.709 95.4208C53.4151 95.1195 53.0339 94.9689 52.5652 94.9689C52.1046 94.9689 51.7233 95.1195 51.4215 95.4208C51.1196 95.7141 50.9687 96.1382 50.9687 96.6932V96.8121C50.9687 97.367 51.1196 97.7951 51.4215 98.0964C51.7233 98.3897 52.1046 98.5363 52.5652 98.5363Z" fill="#0C0A0A"/>
<path d="M57.287 99.7017V93.8036H58.7643V94.5765H58.9788C59.0741 94.3704 59.2528 94.1762 59.5149 93.9938C59.777 93.8036 60.1742 93.7084 60.7064 93.7084C61.1671 93.7084 61.5682 93.8155 61.9097 94.0295C62.2592 94.2356 62.5293 94.525 62.7199 94.8976C62.9105 95.2622 63.0058 95.6903 63.0058 96.1818V99.7017H61.5046V96.3008C61.5046 95.8568 61.3934 95.5238 61.171 95.3019C60.9566 95.0799 60.6468 94.9689 60.2417 94.9689C59.781 94.9689 59.4236 95.1235 59.1694 95.4327C58.9152 95.7339 58.7882 96.1581 58.7882 96.7051V99.7017H57.287Z" fill="#0C0A0A"/>
<path d="M67.3213 99.8682C66.5509 99.8682 65.9194 99.7017 65.427 99.3687C64.9345 99.0358 64.6366 98.5601 64.5334 97.9418L65.9154 97.585C65.971 97.8625 66.0624 98.0805 66.1895 98.2391C66.3245 98.3976 66.4873 98.5126 66.678 98.5839C66.8765 98.6473 67.091 98.679 67.3213 98.679C67.6708 98.679 67.929 98.6196 68.0958 98.5007C68.2626 98.3738 68.346 98.2192 68.346 98.0369C68.346 97.8546 68.2665 97.7158 68.1077 97.6207C67.9488 97.5176 67.6946 97.4344 67.3452 97.371L67.0116 97.3115C66.5985 97.2323 66.2212 97.1252 65.8797 96.9905C65.5382 96.8478 65.2641 96.6535 65.0576 96.4078C64.8511 96.162 64.7478 95.8449 64.7478 95.4565C64.7478 94.8698 64.9623 94.4219 65.3912 94.1127C65.8201 93.7956 66.3841 93.6371 67.083 93.6371C67.7423 93.6371 68.2904 93.7837 68.7272 94.0771C69.1641 94.3704 69.45 94.7549 69.5851 95.2305L68.1911 95.6586C68.1275 95.3574 67.9965 95.1433 67.7979 95.0165C67.6073 94.8896 67.369 94.8262 67.083 94.8262C66.7971 94.8262 66.5787 94.8778 66.4278 94.9808C66.2768 95.0759 66.2014 95.2107 66.2014 95.3851C66.2014 95.5754 66.2808 95.7181 66.4397 95.8132C66.5985 95.9004 66.813 95.9678 67.083 96.0154L67.4166 96.0748C67.8615 96.1541 68.2626 96.2611 68.62 96.3959C68.9854 96.5227 69.2713 96.709 69.4778 96.9548C69.6923 97.1926 69.7995 97.5176 69.7995 97.9299C69.7995 98.5482 69.5731 99.0278 69.1204 99.3687C68.6756 99.7017 68.0759 99.8682 67.3213 99.8682Z" fill="#0C0A0A"/>
<path d="M73.5007 99.7017C73.1115 99.7017 72.7938 99.5828 72.5475 99.345C72.3092 99.0992 72.1901 98.7742 72.1901 98.3699V95.0403H70.7127V93.8036H72.1901V91.9723H73.6913V93.8036H75.3117V95.0403H73.6913V98.1082C73.6913 98.3461 73.8025 98.465 74.0249 98.465H75.1687V99.7017H73.5007Z" fill="#0C0A0A"/>
<path d="M76.9088 99.7017V93.8036H78.3862V94.4695H78.6007C78.688 94.2317 78.831 94.0572 79.0296 93.9463C79.2361 93.8353 79.4744 93.7798 79.7444 93.7798H80.4593V95.1116H79.7206C79.3394 95.1116 79.0256 95.2147 78.7794 95.4208C78.5332 95.619 78.41 95.9282 78.41 96.3483V99.7017H76.9088Z" fill="#0C0A0A"/>
<path d="M84.1228 99.7968C83.6621 99.7968 83.257 99.6938 82.9075 99.4876C82.566 99.2736 82.2999 98.9803 82.1093 98.6077C81.9186 98.2351 81.8233 97.807 81.8233 97.3234V93.8036H83.3245V97.2045C83.3245 97.6484 83.4317 97.9814 83.6462 98.2034C83.8686 98.4253 84.1824 98.5363 84.5874 98.5363C85.0481 98.5363 85.4055 98.3857 85.6597 98.0845C85.9139 97.7753 86.041 97.3472 86.041 96.8002V93.8036H87.5422V99.7017H86.0648V98.9288H85.8503C85.755 99.1269 85.5763 99.3212 85.3142 99.5114C85.0521 99.7017 84.655 99.7968 84.1228 99.7968Z" fill="#0C0A0A"/>
<path d="M92.227 99.8682C91.6551 99.8682 91.1349 99.7493 90.6662 99.5114C90.2056 99.2736 89.8402 98.9287 89.5701 98.4769C89.3001 98.025 89.165 97.478 89.165 96.8359V96.6694C89.165 96.0273 89.3001 95.4802 89.5701 95.0284C89.8402 94.5765 90.2056 94.2317 90.6662 93.9938C91.1349 93.756 91.6551 93.6371 92.227 93.6371C92.791 93.6371 93.2755 93.7362 93.6806 93.9344C94.0857 94.1326 94.4113 94.4061 94.6575 94.7549C94.9117 95.0958 95.0785 95.4842 95.1579 95.9202L93.7044 96.2294C93.6726 95.9916 93.6012 95.7775 93.4899 95.5873C93.3787 95.397 93.2199 95.2464 93.0134 95.1354C92.8148 95.0244 92.5646 94.9689 92.2628 94.9689C91.9609 94.9689 91.6869 95.0363 91.4407 95.1711C91.2024 95.2979 91.0118 95.4921 90.8688 95.7538C90.7338 96.0074 90.6662 96.3206 90.6662 96.6932V96.8121C90.6662 97.1847 90.7338 97.5018 90.8688 97.7634C91.0118 98.0171 91.2024 98.2113 91.4407 98.3461C91.6869 98.4729 91.9609 98.5363 92.2628 98.5363C92.7155 98.5363 93.0571 98.4214 93.2874 98.1915C93.5257 97.9537 93.6766 97.6445 93.7401 97.264L95.1937 97.6088C95.0904 98.029 94.9117 98.4135 94.6575 98.7623C94.4113 99.1032 94.0857 99.3727 93.6806 99.5709C93.2755 99.7691 92.791 99.8682 92.227 99.8682Z" fill="#0C0A0A"/>
<path d="M98.7363 99.7017C98.3471 99.7017 98.0293 99.5828 97.7831 99.345C97.5448 99.0992 97.4257 98.7742 97.4257 98.3699V95.0403H95.9483V93.8036H97.4257V91.9723H98.9269V93.8036H100.547V95.0403H98.9269V98.1082C98.9269 98.3461 99.0381 98.465 99.2605 98.465H100.404V99.7017H98.7363Z" fill="#0C0A0A"/>
<path d="M102.144 99.7017V93.8036H103.646V99.7017H102.144ZM102.895 93.1139C102.625 93.1139 102.395 93.0267 102.204 92.8522C102.021 92.6778 101.93 92.4479 101.93 92.1625C101.93 91.8772 102.021 91.6473 102.204 91.4729C102.395 91.2984 102.625 91.2112 102.895 91.2112C103.173 91.2112 103.403 91.2984 103.586 91.4729C103.769 91.6473 103.86 91.8772 103.86 92.1625C103.86 92.4479 103.769 92.6778 103.586 92.8522C103.403 93.0267 103.173 93.1139 102.895 93.1139Z" fill="#0C0A0A"/>
<path d="M108.359 99.8682C107.771 99.8682 107.243 99.7493 106.775 99.5114C106.306 99.2736 105.937 98.9287 105.667 98.4769C105.397 98.025 105.261 97.482 105.261 96.8478V96.6575C105.261 96.0233 105.397 95.4802 105.667 95.0284C105.937 94.5765 106.306 94.2317 106.775 93.9938C107.243 93.756 107.771 93.6371 108.359 93.6371C108.947 93.6371 109.475 93.756 109.944 93.9938C110.412 94.2317 110.782 94.5765 111.052 95.0284C111.322 95.4802 111.457 96.0233 111.457 96.6575V96.8478C111.457 97.482 111.322 98.025 111.052 98.4769C110.782 98.9287 110.412 99.2736 109.944 99.5114C109.475 99.7493 108.947 99.8682 108.359 99.8682ZM108.359 98.5363C108.82 98.5363 109.201 98.3897 109.503 98.0964C109.805 97.7951 109.956 97.367 109.956 96.8121V96.6932C109.956 96.1382 109.805 95.7141 109.503 95.4208C109.209 95.1195 108.828 94.9689 108.359 94.9689C107.899 94.9689 107.517 95.1195 107.215 95.4208C106.914 95.7141 106.763 96.1382 106.763 96.6932V96.8121C106.763 97.367 106.914 97.7951 107.215 98.0964C107.517 98.3897 107.899 98.5363 108.359 98.5363Z" fill="#0C0A0A"/>
<path d="M113.081 99.7017V93.8036H114.558V94.5765H114.773C114.868 94.3704 115.047 94.1762 115.309 93.9938C115.571 93.8036 115.968 93.7084 116.5 93.7084C116.961 93.7084 117.362 93.8155 117.704 94.0295C118.053 94.2356 118.323 94.525 118.514 94.8976C118.704 95.2622 118.8 95.6903 118.8 96.1818V99.7017H117.299V96.3008C117.299 95.8568 117.187 95.5238 116.965 95.3019C116.751 95.0799 116.441 94.9689 116.036 94.9689C115.575 94.9689 115.218 95.1235 114.963 95.4327C114.709 95.7339 114.582 96.1581 114.582 96.7051V99.7017H113.081Z" fill="#0C0A0A"/>
<path d="M23.9736 118.609V119.521H19.7384V118.609H23.9736ZM19.9595 111.067V119.521H18.8367V111.067H19.9595Z" fill="#555555"/>
<path d="M26.2657 113.238V119.521H25.1836V113.238H26.2657ZM25.1022 111.572C25.1022 111.398 25.1546 111.251 25.2593 111.131C25.3679 111.011 25.5269 110.951 25.7363 110.951C25.9419 110.951 26.0989 111.011 26.2075 111.131C26.32 111.251 26.3762 111.398 26.3762 111.572C26.3762 111.738 26.32 111.881 26.2075 112.001C26.0989 112.118 25.9419 112.176 25.7363 112.176C25.5269 112.176 25.3679 112.118 25.2593 112.001C25.1546 111.881 25.1022 111.738 25.1022 111.572Z" fill="#555555"/>
<path d="M29.9075 118.551L31.6295 113.238H32.729L30.466 119.521H29.7446L29.9075 118.551ZM28.4706 113.238L30.2449 118.58L30.3671 119.521H29.6457L27.3652 113.238H28.4706Z" fill="#555555"/>
<path d="M34.9339 113.238V119.521H33.8518V113.238H34.9339ZM33.7703 111.572C33.7703 111.398 33.8227 111.251 33.9274 111.131C34.036 111.011 34.195 110.951 34.4045 110.951C34.61 110.951 34.7671 111.011 34.8757 111.131C34.9881 111.251 35.0444 111.398 35.0444 111.572C35.0444 111.738 34.9881 111.881 34.8757 112.001C34.7671 112.118 34.61 112.176 34.4045 112.176C34.195 112.176 34.036 112.118 33.9274 112.001C33.8227 111.881 33.7703 111.738 33.7703 111.572Z" fill="#555555"/>
<path d="M37.7379 114.579V119.521H36.6617V113.238H37.6797L37.7379 114.579ZM37.4819 116.141L37.034 116.124C37.0417 115.547 37.1523 115.034 37.3656 114.585C37.5789 114.132 37.8756 113.776 38.2557 113.517C38.6396 113.254 39.0856 113.122 39.5937 113.122C40.0087 113.122 40.3655 113.198 40.6641 113.349C40.9666 113.5 41.1993 113.743 41.3622 114.08C41.529 114.413 41.6124 114.854 41.6124 115.404V119.521H40.5303V115.392C40.5303 115.063 40.4818 114.8 40.3849 114.603C40.2879 114.401 40.1464 114.256 39.9602 114.167C39.774 114.074 39.5452 114.028 39.2737 114.028C39.0061 114.028 38.7618 114.084 38.5407 114.196C38.3235 114.309 38.1354 114.463 37.9764 114.661C37.8213 114.858 37.6991 115.085 37.6099 115.34C37.5246 115.592 37.4819 115.859 37.4819 116.141Z" fill="#555555"/>
<path d="M47.3252 113.238H48.3026V119.387C48.3026 119.941 48.1901 120.413 47.9651 120.804C47.7402 121.195 47.4261 121.491 47.0227 121.692C46.6232 121.897 46.1617 122 45.6381 122C45.4209 122 45.165 121.965 44.8702 121.895C44.5793 121.83 44.2923 121.715 44.0092 121.553C43.73 121.394 43.4953 121.179 43.3053 120.908L43.8696 120.27C44.1333 120.587 44.4087 120.808 44.6957 120.932C44.9866 121.056 45.2736 121.117 45.5567 121.117C46.0648 121.117 46.47 120.974 46.7726 120.688C47.0751 120.405 47.2263 119.989 47.2263 119.439V114.62L47.3252 113.238ZM42.9911 116.449V116.327C42.9911 115.688 43.092 115.129 43.2937 114.649C43.4953 114.165 43.7804 113.79 44.1488 113.523C44.5212 113.256 44.9633 113.122 45.4752 113.122C45.8708 113.122 46.216 113.192 46.5108 113.331C46.8094 113.467 47.0615 113.666 47.267 113.929C47.4765 114.189 47.6413 114.502 47.7615 114.87C47.8818 115.238 47.9651 115.654 48.0117 116.118V116.652C47.9535 117.264 47.8255 117.794 47.6277 118.243C47.4299 118.688 47.1526 119.033 46.7958 119.277C46.439 119.517 45.9949 119.637 45.4636 119.637C44.9594 119.637 44.5212 119.499 44.1488 119.225C43.7804 118.946 43.4953 118.567 43.2937 118.087C43.092 117.607 42.9911 117.061 42.9911 116.449ZM44.0674 116.327V116.449C44.0674 116.863 44.1236 117.245 44.2361 117.593C44.3525 117.937 44.5328 118.212 44.7771 118.417C45.0215 118.623 45.3376 118.725 45.7254 118.725C46.0822 118.725 46.377 118.65 46.6097 118.499C46.8424 118.348 47.0266 118.148 47.1623 117.901C47.3019 117.653 47.4105 117.384 47.4881 117.094V115.694C47.4454 115.481 47.3795 115.276 47.2903 115.079C47.205 114.878 47.0925 114.699 46.9529 114.545C46.8172 114.386 46.6484 114.26 46.4468 114.167C46.2451 114.074 46.0085 114.028 45.737 114.028C45.3453 114.028 45.0254 114.132 44.7771 114.341C44.5328 114.55 44.3525 114.829 44.2361 115.178C44.1236 115.526 44.0674 115.909 44.0674 116.327Z" fill="#555555"/>
<path d="M57.8143 117.384C57.8143 117.121 57.758 116.896 57.6455 116.71C57.5331 116.525 57.3314 116.356 57.0405 116.205C56.7496 116.054 56.3366 115.901 55.8014 115.747C55.2429 115.584 54.7581 115.392 54.347 115.172C53.9359 114.951 53.6179 114.686 53.3929 114.376C53.168 114.063 53.0555 113.687 53.0555 113.25C53.0555 112.812 53.1738 112.421 53.4104 112.077C53.6508 111.729 53.9863 111.454 54.4168 111.252C54.8512 111.051 55.3573 110.951 55.9352 110.951C56.5712 110.951 57.1103 111.072 57.5525 111.316C57.9985 111.556 58.3378 111.872 58.5705 112.263C58.8032 112.65 58.9196 113.064 58.9196 113.505H57.8026C57.8026 113.188 57.7347 112.907 57.599 112.663C57.4633 112.416 57.2577 112.222 56.9823 112.083C56.707 111.94 56.3579 111.868 55.9352 111.868C55.5357 111.868 55.2061 111.928 54.9462 112.048C54.6864 112.168 54.4924 112.33 54.3644 112.536C54.2403 112.741 54.1783 112.975 54.1783 113.238C54.1783 113.474 54.2462 113.683 54.3819 113.865C54.5215 114.047 54.7368 114.212 55.0276 114.359C55.3185 114.506 55.6967 114.643 56.1621 114.771C56.802 114.953 57.3275 115.162 57.7386 115.398C58.1497 115.634 58.4522 115.913 58.6462 116.234C58.844 116.556 58.9429 116.935 58.9429 117.372C58.9429 117.829 58.8207 118.228 58.5764 118.568C58.332 118.909 57.9888 119.172 57.5466 119.358C57.1045 119.544 56.5848 119.637 55.9875 119.637C55.5958 119.637 55.2099 119.583 54.8299 119.474C54.4537 119.366 54.1104 119.203 53.8001 118.987C53.4938 118.77 53.2475 118.503 53.0613 118.185C52.879 117.864 52.7879 117.492 52.7879 117.07H53.9049C53.9049 117.361 53.9611 117.61 54.0736 117.819C54.186 118.025 54.3392 118.195 54.5332 118.33C54.731 118.466 54.954 118.567 55.2022 118.632C55.4543 118.694 55.7161 118.725 55.9875 118.725C56.3793 118.725 56.7109 118.671 56.9823 118.563C57.2538 118.454 57.4594 118.299 57.599 118.098C57.7425 117.897 57.8143 117.659 57.8143 117.384Z" fill="#555555"/>
<path d="M59.926 116.449V116.316C59.926 115.708 60.0424 115.164 60.2751 114.684C60.5078 114.204 60.8374 113.825 61.2641 113.546C61.6907 113.263 62.1968 113.122 62.7824 113.122C63.3758 113.122 63.8858 113.263 64.3125 113.546C64.743 113.825 65.0745 114.204 65.3073 114.684C65.54 115.164 65.6563 115.708 65.6563 116.316V116.449C65.6563 117.053 65.54 117.597 65.3073 118.081C65.0745 118.561 64.7449 118.94 64.3183 119.219C63.8916 119.497 63.3836 119.637 62.7941 119.637C62.2046 119.637 61.6946 119.497 61.2641 119.219C60.8374 118.94 60.5078 118.561 60.2751 118.081C60.0424 117.597 59.926 117.053 59.926 116.449ZM61.0023 116.316V116.449C61.0023 116.863 61.0682 117.247 61.2001 117.599C61.3319 117.947 61.5297 118.228 61.7935 118.441C62.0611 118.65 62.3946 118.754 62.7941 118.754C63.1897 118.754 63.5193 118.65 63.7831 118.441C64.0468 118.228 64.2446 117.947 64.3764 117.599C64.5083 117.247 64.5742 116.863 64.5742 116.449V116.316C64.5742 115.905 64.5064 115.526 64.3706 115.178C64.2388 114.825 64.041 114.543 63.7772 114.33C63.5135 114.113 63.1819 114.005 62.7824 114.005C62.3868 114.005 62.0572 114.113 61.7935 114.33C61.5297 114.543 61.3319 114.825 61.2001 115.178C61.0682 115.526 61.0023 115.905 61.0023 116.316Z" fill="#555555"/>
<path d="M68.1753 110.602V119.521H67.0932V110.602H68.1753Z" fill="#555555"/>
<path d="M73.7543 118.069V113.238H74.8364V119.521H73.8067L73.7543 118.069ZM73.9579 116.745L74.4059 116.734C74.4059 117.291 74.3264 117.788 74.1674 118.226C74.0084 118.663 73.7485 119.008 73.3878 119.259C73.0271 119.511 72.5462 119.637 71.9451 119.637C71.3284 119.637 70.83 119.455 70.45 119.091C70.0699 118.727 69.8798 118.127 69.8798 117.291V113.238H70.9561V117.303C70.9561 117.678 71.0104 117.97 71.119 118.179C71.2315 118.385 71.3769 118.528 71.5553 118.609C71.7337 118.687 71.9199 118.725 72.1138 118.725C72.5714 118.725 72.9341 118.638 73.2017 118.464C73.4693 118.286 73.6612 118.048 73.7776 117.75C73.8978 117.448 73.9579 117.113 73.9579 116.745Z" fill="#555555"/>
<path d="M79.1123 113.238V114.063H75.709V113.238H79.1123ZM76.8609 111.711H77.9371V117.965C77.9371 118.177 77.9701 118.338 78.036 118.447C78.102 118.555 78.1873 118.627 78.292 118.661C78.3967 118.696 78.5092 118.714 78.6294 118.714C78.7186 118.714 78.8117 118.706 78.9087 118.69C79.0095 118.671 79.0851 118.656 79.1356 118.644L79.1414 119.521C79.056 119.548 78.9436 119.573 78.804 119.596C78.6682 119.623 78.5034 119.637 78.3095 119.637C78.0457 119.637 77.8033 119.585 77.5823 119.48C77.3612 119.376 77.1847 119.201 77.0529 118.957C76.9249 118.71 76.8609 118.377 76.8609 117.959V111.711Z" fill="#555555"/>
<path d="M81.544 113.238V119.521H80.462V113.238H81.544ZM80.3805 111.572C80.3805 111.398 80.4329 111.251 80.5376 111.131C80.6462 111.011 80.8052 110.951 81.0146 110.951C81.2202 110.951 81.3773 111.011 81.4858 111.131C81.5983 111.251 81.6545 111.398 81.6545 111.572C81.6545 111.738 81.5983 111.881 81.4858 112.001C81.3773 112.118 81.2202 112.176 81.0146 112.176C80.8052 112.176 80.6462 112.118 80.5376 112.001C80.4329 111.881 80.3805 111.738 80.3805 111.572Z" fill="#555555"/>
<path d="M82.9868 116.449V116.316C82.9868 115.708 83.1031 115.164 83.3358 114.684C83.5685 114.204 83.8982 113.825 84.3248 113.546C84.7514 113.263 85.2576 113.122 85.8432 113.122C86.4366 113.122 86.9466 113.263 87.3732 113.546C87.8037 113.825 88.1353 114.204 88.368 114.684C88.6007 115.164 88.7171 115.708 88.7171 116.316V116.449C88.7171 117.053 88.6007 117.597 88.368 118.081C88.1353 118.561 87.8056 118.94 87.379 119.219C86.9524 119.497 86.4443 119.637 85.8548 119.637C85.2653 119.637 84.7553 119.497 84.3248 119.219C83.8982 118.94 83.5685 118.561 83.3358 118.081C83.1031 117.597 82.9868 117.053 82.9868 116.449ZM84.063 116.316V116.449C84.063 116.863 84.1289 117.247 84.2608 117.599C84.3927 117.947 84.5905 118.228 84.8542 118.441C85.1218 118.65 85.4554 118.754 85.8548 118.754C86.2504 118.754 86.5801 118.65 86.8438 118.441C87.1075 118.228 87.3053 117.947 87.4372 117.599C87.5691 117.247 87.635 116.863 87.635 116.449V116.316C87.635 115.905 87.5671 115.526 87.4314 115.178C87.2995 114.825 87.1017 114.543 86.838 114.33C86.5743 114.113 86.2427 114.005 85.8432 114.005C85.4476 114.005 85.1179 114.113 84.8542 114.33C84.5905 114.543 84.3927 114.825 84.2608 115.178C84.1289 115.526 84.063 115.905 84.063 116.316Z" fill="#555555"/>
<path d="M91.143 114.579V119.521H90.0667V113.238H91.0848L91.143 114.579ZM90.887 116.141L90.439 116.124C90.4468 115.547 90.5573 115.034 90.7707 114.585C90.984 114.132 91.2807 113.776 91.6607 113.517C92.0447 113.254 92.4907 113.122 92.9988 113.122C93.4138 113.122 93.7706 113.198 94.0692 113.349C94.3717 113.5 94.6044 113.743 94.7673 114.08C94.9341 114.413 95.0175 114.854 95.0175 115.404V119.521H93.9354V115.392C93.9354 115.063 93.8869 114.8 93.79 114.603C93.693 114.401 93.5514 114.256 93.3653 114.167C93.1791 114.074 92.9503 114.028 92.6788 114.028C92.4112 114.028 92.1669 114.084 91.9458 114.196C91.7286 114.309 91.5405 114.463 91.3815 114.661C91.2264 114.858 91.1042 115.085 91.015 115.34C90.9297 115.592 90.887 115.859 90.887 116.141Z" fill="#555555"/>
<path d="M100.317 117.854C100.317 117.699 100.282 117.556 100.213 117.425C100.147 117.289 100.009 117.167 99.7995 117.059C99.5939 116.947 99.2837 116.85 98.8687 116.768C98.4033 116.672 97.9999 116.548 97.6586 116.397C97.3212 116.246 97.0594 116.054 96.8733 115.822C96.691 115.59 96.5998 115.301 96.5998 114.957C96.5998 114.624 96.6948 114.32 96.8849 114.045C97.0788 113.767 97.3503 113.544 97.6993 113.378C98.0523 113.207 98.4634 113.122 98.9327 113.122C99.4369 113.122 99.8673 113.211 100.224 113.389C100.581 113.567 100.854 113.805 101.044 114.103C101.234 114.398 101.329 114.725 101.329 115.085H100.253C100.253 114.825 100.139 114.581 99.91 114.353C99.6851 114.121 99.3593 114.005 98.9327 114.005C98.634 114.005 98.3916 114.051 98.2055 114.144C98.0232 114.233 97.8894 114.347 97.8041 114.487C97.7226 114.626 97.6819 114.773 97.6819 114.928C97.6819 115.083 97.7207 115.216 97.7982 115.329C97.8758 115.441 98.0174 115.541 98.2229 115.63C98.4324 115.719 98.7349 115.809 99.1305 115.898C99.6463 116.014 100.071 116.153 100.405 116.316C100.738 116.478 100.986 116.678 101.149 116.914C101.312 117.15 101.393 117.436 101.393 117.773C101.393 118.141 101.293 118.466 101.091 118.748C100.889 119.027 100.606 119.246 100.242 119.405C99.877 119.559 99.4504 119.637 98.9618 119.637C98.4071 119.637 97.9379 119.538 97.5539 119.341C97.1699 119.143 96.8791 118.888 96.6813 118.574C96.4835 118.261 96.3846 117.93 96.3846 117.581H97.4666C97.4822 117.876 97.5675 118.11 97.7226 118.284C97.8777 118.454 98.0678 118.576 98.2927 118.65C98.5177 118.719 98.7407 118.754 98.9618 118.754C99.2565 118.754 99.5028 118.716 99.7006 118.638C99.9023 118.561 100.055 118.454 100.16 118.319C100.265 118.183 100.317 118.028 100.317 117.854Z" fill="#555555"/>
<path d="M67.3032 49.3752V75.9064C68.21 76.0392 69.1053 76.2464 69.9849 76.5069V53.1314L71.0332 53.8481V76.8543C71.3131 76.9548 71.5951 77.0479 71.8697 77.1598C72.0364 77.1985 72.1989 77.2519 72.3656 77.2959C72.5029 77.2833 72.6444 77.2624 72.7807 77.2519V55.0399L73.8291 55.7566V77.1933C74.4193 77.1713 75.0011 77.1713 75.5766 77.1902V56.9494L76.6249 57.6661V77.2498C77.212 77.2948 77.7949 77.3565 78.3725 77.4423V58.8578L79.4208 59.5746V77.615C80.0058 77.7248 80.5866 77.8609 81.1673 78.0105V60.7673L82.2157 61.4841V78.3003C82.7975 78.4719 83.3782 78.6581 83.9622 78.8643V62.6768L85.0105 63.3925V79.2556C85.5902 79.4795 86.171 79.7222 86.7581 79.9775V63.0399L67.3032 49.3752Z" fill="#555555"/>
<path d="M44.9752 8.24699V27.815H45.8505V10.4045L46.8988 9.87086V27.815H48.6464V8.9794L49.6947 8.44579V27.815H51.4423V7.55643L52.4906 7.02176V27.815H54.2371V6.13345L55.2854 5.59879V27.815H57.0319V4.70838L58.0803 4.17581V27.815H59.8278V3.2854L60.8761 2.75074V27.815H61.7064V0L44.9752 8.24699Z" fill="#555555"/>
<path d="M45.8505 76.9034V29.8175L46.8988 29.2285V76.6732C47.4806 76.5466 48.0635 76.4263 48.6464 76.3112V28.246L49.6947 27.6569V76.1061C50.2776 75.9994 50.8583 75.9032 51.4423 75.8142V26.6755L52.4906 26.0864V75.6719C53.0724 75.5955 53.6542 75.5286 54.2371 75.4742V25.105L55.2854 24.5159V75.3748C55.8683 75.3329 56.4501 75.3057 57.0319 75.2921V23.5345L58.0802 22.9443V75.2911C58.6642 75.2932 59.246 75.312 59.8278 75.3455V21.9629L60.8761 21.3738V75.4114C61.46 75.4669 62.0419 75.5422 62.6237 75.6322V20.3924L63.672 19.8033V75.7357C64.2538 75.7106 64.8367 75.7075 65.4185 75.7347V18.8229L66.4668 18.2339V75.8174C67.1126 75.8833 67.7552 75.9795 68.3905 76.1093V12.8987L38.2491 31.2583V78.8014C38.335 78.7774 38.4147 78.7439 38.5017 78.723C39.0856 78.5754 39.6717 78.4268 40.2608 78.2772V32.9585L41.3091 32.3695V78.0104C41.8899 77.8629 42.4717 77.7185 43.0557 77.5731V31.387L44.104 30.7979V77.3146C44.6858 77.1744 45.2666 77.0363 45.8505 76.9034Z" fill="#555555"/>
</svg>
