<svg width="118" height="122" viewBox="0 0 118 122" fill="none" xmlns="http://www.w3.org/2000/svg">
<path d="M101.684 85.6309C101.684 85.6309 100.38 85.1883 98.1231 84.3607C97.0077 83.9045 95.5935 83.5477 94.0179 83.0361C92.4538 82.5025 90.6224 82.0777 88.6515 81.5576C88.1588 81.43 87.6566 81.2971 87.144 81.1642C86.624 81.0586 86.0936 80.9518 85.5547 80.843C84.4813 80.616 83.3711 80.3816 82.2305 80.1409C81.0868 79.9149 79.8959 79.7643 78.6903 79.5655C77.4806 79.3834 76.2551 79.1469 74.9866 79.0381C73.7255 78.8948 72.4434 78.7483 71.1455 78.5997C69.8456 78.4794 68.5216 78.4229 67.1933 78.3183C66.5287 78.2733 65.862 78.2262 65.1931 78.1791C64.5233 78.1509 63.8502 78.1519 63.1762 78.1299C61.8291 78.0996 60.4757 78.0672 59.1223 78.0358C57.7647 78.0682 56.4061 78.0996 55.0537 78.132C54.3734 78.153 53.6857 78.154 53.0148 78.1833C52.3501 78.2304 51.6876 78.2754 51.0282 78.3225C49.7073 78.4271 48.3969 78.4836 47.1001 78.6029C45.8023 78.7525 44.5202 78.899 43.259 79.0423C41.9906 79.1501 40.7651 79.3876 39.5564 79.5697C38.3508 79.7674 37.1588 79.9191 36.0151 80.1451C34.8745 80.3847 33.7654 80.6202 32.6909 80.8472C32.152 80.956 31.6226 81.0638 31.1016 81.1684C30.589 81.3023 30.0858 81.4331 29.5941 81.5608C27.6233 82.0818 25.7929 82.5066 24.2215 83.0403C22.6416 83.553 21.2253 83.9129 20.1173 84.3638C17.8697 85.1862 16.5593 85.6309 16.5593 85.6309C16.5593 85.6309 17.7533 84.9592 19.8887 83.8292C20.9412 83.2307 22.2946 82.672 23.8357 81.9919C24.2225 81.8224 24.6209 81.6487 25.0318 81.4687C25.2373 81.3798 25.4469 81.2887 25.6577 81.1967C25.8726 81.1171 26.0917 81.0366 26.3129 80.9539C27.205 80.6369 28.1401 80.3021 29.1182 79.9537C29.6088 79.78 30.1078 79.6031 30.6183 79.4221C31.1373 79.2694 31.6646 79.1145 32.2013 78.9555C33.28 78.6531 34.3965 78.3392 35.5434 78.018C36.6965 77.7156 37.8979 77.4844 39.1192 77.205C40.3415 76.9309 41.5932 76.6578 42.8827 76.4831C44.169 76.2884 45.4773 76.0907 46.8024 75.8919C48.1348 75.7203 49.4987 75.624 50.8688 75.4974C51.5534 75.4368 52.2432 75.3771 52.933 75.3175C53.6175 75.2704 54.2958 75.2662 54.9783 75.2421C56.3558 75.2013 57.7406 75.1616 59.1233 75.1218C60.5113 75.1626 61.8993 75.2024 63.2831 75.2432C63.9739 75.2662 64.6648 75.2746 65.3514 75.3206C66.037 75.3813 66.7216 75.4409 67.402 75.5016C68.7627 75.6282 70.1161 75.7266 71.4453 75.894C72.7704 76.0938 74.0787 76.2926 75.365 76.4872C76.6534 76.6599 77.9051 76.9382 79.1285 77.2113C80.3488 77.4896 81.5502 77.7198 82.7044 78.0222C83.8502 78.3444 84.9666 78.6573 86.0464 78.9607C86.5842 79.1187 87.1115 79.2746 87.6294 79.4263C88.1389 79.6073 88.64 79.7841 89.1295 79.9568C90.1076 80.3063 91.0427 80.64 91.9338 80.9581C92.1561 81.0397 92.3751 81.1203 92.5911 81.1998C92.8018 81.2929 93.0115 81.3829 93.218 81.4729C93.63 81.6529 94.0294 81.8286 94.4183 81.996C95.9636 82.6761 97.3201 83.2391 98.3642 83.8334C100.484 84.9571 101.684 85.6309 101.684 85.6309Z" fill="#FF6600"/>
<path d="M0 99.7017V98.3223H1.09612V92.7571H0V91.3777H4.28916C4.7975 91.3777 5.23834 91.4649 5.61165 91.6393C5.99291 91.8058 6.2868 92.0476 6.49331 92.3647C6.70777 92.6739 6.815 93.0465 6.815 93.4825V93.6014C6.815 93.9819 6.74351 94.2951 6.60054 94.5408C6.45757 94.7787 6.2868 94.965 6.08822 95.0997C5.89759 95.2266 5.71491 95.3177 5.54016 95.3732V95.5873C5.71491 95.6348 5.90554 95.726 6.11205 95.8608C6.31857 95.9876 6.49331 96.1739 6.63628 96.4197C6.7872 96.6654 6.86266 96.9865 6.86266 97.3829V97.5018C6.86266 97.9616 6.75543 98.358 6.54097 98.6909C6.32651 99.016 6.02865 99.2657 5.64739 99.4401C5.27408 99.6145 4.83722 99.7017 4.33682 99.7017H0ZM2.66881 98.2747H4.14619C4.48773 98.2747 4.76176 98.1915 4.96828 98.025C5.18273 97.8585 5.28996 97.6207 5.28996 97.3115V97.1926C5.28996 96.8834 5.18671 96.6456 4.98019 96.4791C4.77368 96.3126 4.49567 96.2294 4.14619 96.2294H2.66881V98.2747ZM2.66881 94.8024H4.12236C4.44802 94.8024 4.7141 94.7192 4.92062 94.5527C5.13508 94.3862 5.24231 94.1563 5.24231 93.863V93.7441C5.24231 93.4429 5.13905 93.213 4.93253 93.0544C4.72602 92.8879 4.45596 92.8047 4.12236 92.8047H2.66881V94.8024Z" fill="white"/>
<path d="M10.6879 99.7968C10.2272 99.7968 9.82213 99.6938 9.47264 99.4876C9.13109 99.2736 8.86501 98.9803 8.67438 98.6077C8.48375 98.2351 8.38843 97.807 8.38843 97.3234V93.8036H9.88964V97.2045C9.88964 97.6484 9.99687 97.9814 10.2113 98.2034C10.4337 98.4253 10.7475 98.5363 11.1526 98.5363C11.6132 98.5363 11.9707 98.3857 12.2248 98.0845C12.479 97.7753 12.6061 97.3472 12.6061 96.8002V93.8036H14.1073V99.7017H12.6299V98.9288H12.4155C12.3202 99.1269 12.1414 99.3212 11.8793 99.5114C11.6172 99.7017 11.2201 99.7968 10.6879 99.7968Z" fill="white"/>
<path d="M16.0161 99.7017V93.8036H17.5173V99.7017H16.0161ZM16.7667 93.1139C16.4967 93.1139 16.2663 93.0267 16.0757 92.8522C15.893 92.6778 15.8017 92.4479 15.8017 92.1625C15.8017 91.8772 15.893 91.6473 16.0757 91.4729C16.2663 91.2984 16.4967 91.2112 16.7667 91.2112C17.0447 91.2112 17.2751 91.2984 17.4578 91.4729C17.6404 91.6473 17.7318 91.8772 17.7318 92.1625C17.7318 92.4479 17.6404 92.6778 17.4578 92.8522C17.2751 93.0267 17.0447 93.1139 16.7667 93.1139Z" fill="white"/>
<path d="M19.4191 99.7017V91.3777H20.9204V99.7017H19.4191Z" fill="white"/>
<path d="M25.205 99.8682C24.7364 99.8682 24.2956 99.7532 23.8826 99.5233C23.4775 99.2855 23.1518 98.9406 22.9056 98.4888C22.6594 98.0369 22.5362 97.4899 22.5362 96.8478V96.6575C22.5362 96.0154 22.6594 95.4684 22.9056 95.0165C23.1518 94.5646 23.4775 94.2237 23.8826 93.9938C24.2876 93.756 24.7285 93.6371 25.205 93.6371C25.5625 93.6371 25.8603 93.6807 26.0986 93.7679C26.3449 93.8472 26.5434 93.9502 26.6943 94.0771C26.8453 94.2039 26.9604 94.3387 27.0399 94.4814H27.2543V91.3777H28.7555V99.7017H27.2781V98.9882H27.0637C26.9287 99.2102 26.7182 99.4123 26.4322 99.5947C26.1542 99.777 25.7452 99.8682 25.205 99.8682ZM25.6578 98.5601C26.1185 98.5601 26.5037 98.4135 26.8135 98.1201C27.1233 97.8189 27.2781 97.3829 27.2781 96.8121V96.6932C27.2781 96.1224 27.1233 95.6903 26.8135 95.397C26.5117 95.0958 26.1264 94.9451 25.6578 94.9451C25.1971 94.9451 24.8119 95.0958 24.5021 95.397C24.1923 95.6903 24.0374 96.1224 24.0374 96.6932V96.8121C24.0374 97.3829 24.1923 97.8189 24.5021 98.1201C24.8119 98.4135 25.1971 98.5601 25.6578 98.5601Z" fill="white"/>
<path d="M32.493 99.8682C32.072 99.8682 31.6947 99.7968 31.3611 99.6541C31.0275 99.5035 30.7614 99.2895 30.5629 99.012C30.3722 98.7266 30.2769 98.3818 30.2769 97.9774C30.2769 97.5731 30.3722 97.2362 30.5629 96.9667C30.7614 96.6892 31.0315 96.4831 31.373 96.3483C31.7225 96.2056 32.1197 96.1343 32.5645 96.1343H34.1848V95.8013C34.1848 95.5238 34.0975 95.2979 33.9227 95.1235C33.748 94.9412 33.47 94.85 33.0887 94.85C32.7154 94.85 32.4374 94.9372 32.2547 95.1116C32.072 95.2781 31.9529 95.4961 31.8973 95.7656L30.5152 95.3019C30.6105 95.0006 30.7614 94.7271 30.968 94.4814C31.1824 94.2277 31.4644 94.0255 31.8139 93.8749C32.1713 93.7164 32.6042 93.6371 33.1125 93.6371C33.8909 93.6371 34.5065 93.8313 34.9593 94.2198C35.412 94.6082 35.6384 95.1711 35.6384 95.9083V98.1082C35.6384 98.3461 35.7496 98.465 35.972 98.465H36.4485V99.7017H35.4477C35.1539 99.7017 34.9116 99.6303 34.721 99.4876C34.5303 99.3449 34.435 99.1547 34.435 98.9169V98.905H34.2087C34.1769 99.0001 34.1054 99.1269 33.9942 99.2855C33.883 99.4361 33.7083 99.5709 33.47 99.6898C33.2317 99.8087 32.906 99.8682 32.493 99.8682ZM32.7551 98.6553C33.1761 98.6553 33.5176 98.5403 33.7797 98.3104C34.0498 98.0726 34.1848 97.7594 34.1848 97.371V97.2521H32.6717C32.3937 97.2521 32.1753 97.3115 32.0164 97.4304C31.8576 97.5493 31.7781 97.7158 31.7781 97.9299C31.7781 98.1439 31.8615 98.3183 32.0283 98.4531C32.1951 98.5879 32.4374 98.6553 32.7551 98.6553Z" fill="white"/>
<path d="M44.1694 99.8682C43.1368 99.8682 42.3187 99.5828 41.7151 99.012C41.1114 98.4333 40.8096 97.6088 40.8096 96.5386V94.5408C40.8096 93.4706 41.1114 92.6501 41.7151 92.0793C42.3187 91.5006 43.1368 91.2112 44.1694 91.2112C45.194 91.2112 45.9844 91.4927 46.5404 92.0555C47.1043 92.6105 47.3863 93.3755 47.3863 94.3506V94.4219H45.8374V94.303C45.8374 93.8115 45.6984 93.4072 45.4204 93.0901C45.1504 92.773 44.7333 92.6144 44.1694 92.6144C43.6134 92.6144 43.1765 92.7849 42.8588 93.1258C42.5411 93.4666 42.3823 93.9304 42.3823 94.517V96.5624C42.3823 97.1411 42.5411 97.6049 42.8588 97.9537C43.1765 98.2945 43.6134 98.465 44.1694 98.465C44.7333 98.465 45.1504 98.3064 45.4204 97.9893C45.6984 97.6643 45.8374 97.26 45.8374 96.7764V96.5624H47.3863V96.7288C47.3863 97.7039 47.1043 98.4729 46.5404 99.0358C45.9844 99.5907 45.194 99.8682 44.1694 99.8682Z" fill="white"/>
<path d="M51.7654 99.8682C51.1777 99.8682 50.6495 99.7493 50.1808 99.5114C49.7122 99.2736 49.3429 98.9287 49.0728 98.4769C48.8027 98.025 48.6677 97.482 48.6677 96.8478V96.6575C48.6677 96.0233 48.8027 95.4802 49.0728 95.0284C49.3429 94.5765 49.7122 94.2317 50.1808 93.9938C50.6495 93.756 51.1777 93.6371 51.7654 93.6371C52.3532 93.6371 52.8814 93.756 53.35 93.9938C53.8187 94.2317 54.188 94.5765 54.4581 95.0284C54.7281 95.4802 54.8632 96.0233 54.8632 96.6575V96.8478C54.8632 97.482 54.7281 98.025 54.4581 98.4769C54.188 98.9287 53.8187 99.2736 53.35 99.5114C52.8814 99.7493 52.3532 99.8682 51.7654 99.8682ZM51.7654 98.5363C52.2261 98.5363 52.6074 98.3897 52.9092 98.0964C53.211 97.7951 53.362 97.367 53.362 96.8121V96.6932C53.362 96.1382 53.211 95.7141 52.9092 95.4208C52.6153 95.1195 52.2341 94.9689 51.7654 94.9689C51.3048 94.9689 50.9235 95.1195 50.6217 95.4208C50.3198 95.7141 50.1689 96.1382 50.1689 96.6932V96.8121C50.1689 97.367 50.3198 97.7951 50.6217 98.0964C50.9235 98.3897 51.3048 98.5363 51.7654 98.5363Z" fill="white"/>
<path d="M56.4871 99.7017V93.8036H57.9645V94.5765H58.179C58.2743 94.3704 58.453 94.1762 58.7151 93.9938C58.9772 93.8036 59.3744 93.7084 59.9066 93.7084C60.3672 93.7084 60.7684 93.8155 61.1099 94.0295C61.4594 94.2356 61.7295 94.525 61.9201 94.8976C62.1107 95.2622 62.206 95.6903 62.206 96.1818V99.7017H60.7048V96.3008C60.7048 95.8568 60.5936 95.5238 60.3712 95.3019C60.1568 95.0799 59.847 94.9689 59.4419 94.9689C58.9812 94.9689 58.6238 95.1235 58.3696 95.4327C58.1154 95.7339 57.9884 96.1581 57.9884 96.7051V99.7017H56.4871Z" fill="white"/>
<path d="M66.5215 99.8682C65.7511 99.8682 65.1196 99.7017 64.6272 99.3687C64.1347 99.0358 63.8368 98.5601 63.7336 97.9418L65.1156 97.585C65.1712 97.8625 65.2626 98.0805 65.3897 98.2391C65.5247 98.3976 65.6875 98.5126 65.8782 98.5839C66.0767 98.6473 66.2912 98.679 66.5215 98.679C66.871 98.679 67.1292 98.6196 67.296 98.5007C67.4628 98.3738 67.5462 98.2192 67.5462 98.0369C67.5462 97.8546 67.4667 97.7158 67.3079 97.6207C67.149 97.5176 66.8948 97.4344 66.5454 97.371L66.2118 97.3115C65.7987 97.2323 65.4214 97.1252 65.0799 96.9905C64.7383 96.8478 64.4643 96.6535 64.2578 96.4078C64.0513 96.162 63.948 95.8449 63.948 95.4565C63.948 94.8698 64.1625 94.4219 64.5914 94.1127C65.0203 93.7956 65.5843 93.6371 66.2832 93.6371C66.9425 93.6371 67.4906 93.7837 67.9274 94.0771C68.3643 94.3704 68.6502 94.7549 68.7852 95.2305L67.3913 95.6586C67.3277 95.3574 67.1967 95.1433 66.9981 95.0165C66.8075 94.8896 66.5692 94.8262 66.2832 94.8262C65.9973 94.8262 65.7789 94.8778 65.628 94.9808C65.477 95.0759 65.4016 95.2107 65.4016 95.3851C65.4016 95.5754 65.481 95.7181 65.6399 95.8132C65.7987 95.9004 66.0132 95.9678 66.2832 96.0154L66.6168 96.0748C67.0616 96.1541 67.4628 96.2611 67.8202 96.3959C68.1856 96.5227 68.4715 96.709 68.678 96.9548C68.8925 97.1926 68.9997 97.5176 68.9997 97.9299C68.9997 98.5482 68.7733 99.0278 68.3206 99.3687C67.8758 99.7017 67.2761 99.8682 66.5215 99.8682Z" fill="white"/>
<path d="M72.7009 99.7017C72.3117 99.7017 71.994 99.5828 71.7477 99.345C71.5094 99.0992 71.3903 98.7742 71.3903 98.3699V95.0403H69.9129V93.8036H71.3903V91.9723H72.8915V93.8036H74.5119V95.0403H72.8915V98.1082C72.8915 98.3461 73.0027 98.465 73.2251 98.465H74.3689V99.7017H72.7009Z" fill="white"/>
<path d="M76.109 99.7017V93.8036H77.5864V94.4695H77.8009C77.8882 94.2317 78.0312 94.0572 78.2298 93.9463C78.4363 93.8353 78.6746 93.7798 78.9446 93.7798H79.6595V95.1116H78.9208C78.5396 95.1116 78.2258 95.2147 77.9796 95.4208C77.7334 95.619 77.6102 95.9282 77.6102 96.3483V99.7017H76.109Z" fill="white"/>
<path d="M83.323 99.7968C82.8623 99.7968 82.4572 99.6938 82.1077 99.4876C81.7662 99.2736 81.5001 98.9803 81.3094 98.6077C81.1188 98.2351 81.0235 97.807 81.0235 97.3234V93.8036H82.5247V97.2045C82.5247 97.6484 82.6319 97.9814 82.8464 98.2034C83.0688 98.4253 83.3825 98.5363 83.7876 98.5363C84.2483 98.5363 84.6057 98.3857 84.8599 98.0845C85.1141 97.7753 85.2412 97.3472 85.2412 96.8002V93.8036H86.7424V99.7017H85.265V98.9288H85.0505C84.9552 99.1269 84.7765 99.3212 84.5144 99.5114C84.2523 99.7017 83.8551 99.7968 83.323 99.7968Z" fill="white"/>
<path d="M91.4272 99.8682C90.8553 99.8682 90.3351 99.7493 89.8664 99.5114C89.4058 99.2736 89.0404 98.9287 88.7703 98.4769C88.5003 98.025 88.3652 97.478 88.3652 96.8359V96.6694C88.3652 96.0273 88.5003 95.4802 88.7703 95.0284C89.0404 94.5765 89.4058 94.2317 89.8664 93.9938C90.3351 93.756 90.8553 93.6371 91.4272 93.6371C91.9912 93.6371 92.4757 93.7362 92.8808 93.9344C93.2859 94.1326 93.6115 94.4061 93.8577 94.7549C94.1119 95.0958 94.2787 95.4842 94.3581 95.9202L92.9046 96.2294C92.8728 95.9916 92.8013 95.7775 92.6901 95.5873C92.5789 95.397 92.4201 95.2464 92.2136 95.1354C92.015 95.0244 91.7648 94.9689 91.463 94.9689C91.1611 94.9689 90.8871 95.0363 90.6409 95.1711C90.4026 95.2979 90.212 95.4921 90.069 95.7538C89.934 96.0074 89.8664 96.3206 89.8664 96.6932V96.8121C89.8664 97.1847 89.934 97.5018 90.069 97.7634C90.212 98.0171 90.4026 98.2113 90.6409 98.3461C90.8871 98.4729 91.1611 98.5363 91.463 98.5363C91.9157 98.5363 92.2573 98.4214 92.4876 98.1915C92.7259 97.9537 92.8768 97.6445 92.9403 97.264L94.3939 97.6088C94.2906 98.029 94.1119 98.4135 93.8577 98.7623C93.6115 99.1032 93.2859 99.3727 92.8808 99.5709C92.4757 99.7691 91.9912 99.8682 91.4272 99.8682Z" fill="white"/>
<path d="M97.9365 99.7017C97.5473 99.7017 97.2295 99.5828 96.9833 99.345C96.745 99.0992 96.6259 98.7742 96.6259 98.3699V95.0403H95.1485V93.8036H96.6259V91.9723H98.1271V93.8036H99.7474V95.0403H98.1271V98.1082C98.1271 98.3461 98.2383 98.465 98.4607 98.465H99.6045V99.7017H97.9365Z" fill="white"/>
<path d="M101.345 99.7017V93.8036H102.846V99.7017H101.345ZM102.095 93.1139C101.825 93.1139 101.595 93.0267 101.404 92.8522C101.221 92.6778 101.13 92.4479 101.13 92.1625C101.13 91.8772 101.221 91.6473 101.404 91.4729C101.595 91.2984 101.825 91.2112 102.095 91.2112C102.373 91.2112 102.604 91.2984 102.786 91.4729C102.969 91.6473 103.06 91.8772 103.06 92.1625C103.06 92.4479 102.969 92.6778 102.786 92.8522C102.604 93.0267 102.373 93.1139 102.095 93.1139Z" fill="white"/>
<path d="M107.559 99.8682C106.972 99.8682 106.443 99.7493 105.975 99.5114C105.506 99.2736 105.137 98.9287 104.867 98.4769C104.597 98.025 104.462 97.482 104.462 96.8478V96.6575C104.462 96.0233 104.597 95.4802 104.867 95.0284C105.137 94.5765 105.506 94.2317 105.975 93.9938C106.443 93.756 106.972 93.6371 107.559 93.6371C108.147 93.6371 108.675 93.756 109.144 93.9938C109.613 94.2317 109.982 94.5765 110.252 95.0284C110.522 95.4802 110.657 96.0233 110.657 96.6575V96.8478C110.657 97.482 110.522 98.025 110.252 98.4769C109.982 98.9287 109.613 99.2736 109.144 99.5114C108.675 99.7493 108.147 99.8682 107.559 99.8682ZM107.559 98.5363C108.02 98.5363 108.401 98.3897 108.703 98.0964C109.005 97.7951 109.156 97.367 109.156 96.8121V96.6932C109.156 96.1382 109.005 95.7141 108.703 95.4208C108.409 95.1195 108.028 94.9689 107.559 94.9689C107.099 94.9689 106.717 95.1195 106.416 95.4208C106.114 95.7141 105.963 96.1382 105.963 96.6932V96.8121C105.963 97.367 106.114 97.7951 106.416 98.0964C106.717 98.3897 107.099 98.5363 107.559 98.5363Z" fill="white"/>
<path d="M112.281 99.7017V93.8036H113.758V94.5765H113.973C114.068 94.3704 114.247 94.1762 114.509 93.9938C114.771 93.8036 115.168 93.7084 115.701 93.7084C116.161 93.7084 116.562 93.8155 116.904 94.0295C117.253 94.2356 117.523 94.525 117.714 94.8976C117.905 95.2622 118 95.6903 118 96.1818V99.7017H116.499V96.3008C116.499 95.8568 116.388 95.5238 116.165 95.3019C115.951 95.0799 115.641 94.9689 115.236 94.9689C114.775 94.9689 114.418 95.1235 114.164 95.4327C113.909 95.7339 113.782 96.1581 113.782 96.7051V99.7017H112.281Z" fill="white"/>
<path d="M23.1738 118.609V119.521H18.9386V118.609H23.1738ZM19.1597 111.067V119.521H18.0369V111.067H19.1597Z" fill="#FF6600"/>
<path d="M25.4659 113.238V119.521H24.3838V113.238H25.4659ZM24.3024 111.572C24.3024 111.398 24.3548 111.251 24.4595 111.131C24.5681 111.011 24.7271 110.951 24.9365 110.951C25.1421 110.951 25.2991 111.011 25.4077 111.131C25.5202 111.251 25.5764 111.398 25.5764 111.572C25.5764 111.738 25.5202 111.881 25.4077 112.001C25.2991 112.118 25.1421 112.176 24.9365 112.176C24.7271 112.176 24.5681 112.118 24.4595 112.001C24.3548 111.881 24.3024 111.738 24.3024 111.572Z" fill="#FF6600"/>
<path d="M29.1077 118.551L30.8297 113.238H31.9292L29.6662 119.521H28.9448L29.1077 118.551ZM27.6708 113.238L29.4451 118.58L29.5673 119.521H28.8459L26.5654 113.238H27.6708Z" fill="#FF6600"/>
<path d="M34.134 113.238V119.521H33.052V113.238H34.134ZM32.9705 111.572C32.9705 111.398 33.0229 111.251 33.1276 111.131C33.2362 111.011 33.3952 110.951 33.6047 110.951C33.8102 110.951 33.9673 111.011 34.0759 111.131C34.1883 111.251 34.2446 111.398 34.2446 111.572C34.2446 111.738 34.1883 111.881 34.0759 112.001C33.9673 112.118 33.8102 112.176 33.6047 112.176C33.3952 112.176 33.2362 112.118 33.1276 112.001C33.0229 111.881 32.9705 111.738 32.9705 111.572Z" fill="#FF6600"/>
<path d="M36.9381 114.579V119.521H35.8619V113.238H36.8799L36.9381 114.579ZM36.6821 116.141L36.2342 116.124C36.2419 115.547 36.3525 115.034 36.5658 114.585C36.7791 114.132 37.0758 113.776 37.4559 113.517C37.8398 113.254 38.2858 113.122 38.7939 113.122C39.2089 113.122 39.5657 113.198 39.8643 113.349C40.1668 113.5 40.3995 113.743 40.5624 114.08C40.7292 114.413 40.8126 114.854 40.8126 115.404V119.521H39.7305V115.392C39.7305 115.063 39.682 114.8 39.5851 114.603C39.4881 114.401 39.3466 114.256 39.1604 114.167C38.9742 114.074 38.7454 114.028 38.4739 114.028C38.2063 114.028 37.962 114.084 37.7409 114.196C37.5237 114.309 37.3356 114.463 37.1766 114.661C37.0215 114.858 36.8993 115.085 36.8101 115.34C36.7248 115.592 36.6821 115.859 36.6821 116.141Z" fill="#FF6600"/>
<path d="M46.5254 113.238H47.5028V119.387C47.5028 119.941 47.3903 120.413 47.1653 120.804C46.9404 121.195 46.6263 121.491 46.2229 121.692C45.8234 121.897 45.3619 122 44.8383 122C44.6211 122 44.3652 121.965 44.0704 121.895C43.7795 121.83 43.4925 121.715 43.2094 121.553C42.9302 121.394 42.6955 121.179 42.5055 120.908L43.0698 120.27C43.3335 120.587 43.6089 120.808 43.8959 120.932C44.1868 121.056 44.4738 121.117 44.7569 121.117C45.2649 121.117 45.6702 120.974 45.9727 120.688C46.2753 120.405 46.4265 119.989 46.4265 119.439V114.62L46.5254 113.238ZM42.1913 116.449V116.327C42.1913 115.688 42.2922 115.129 42.4939 114.649C42.6955 114.165 42.9806 113.79 43.349 113.523C43.7214 113.256 44.1635 113.122 44.6754 113.122C45.071 113.122 45.4162 113.192 45.711 113.331C46.0096 113.467 46.2617 113.666 46.4672 113.929C46.6767 114.189 46.8415 114.502 46.9617 114.87C47.082 115.238 47.1653 115.654 47.2119 116.118V116.652C47.1537 117.264 47.0257 117.794 46.8279 118.243C46.6301 118.688 46.3528 119.033 45.996 119.277C45.6392 119.517 45.1951 119.637 44.6638 119.637C44.1596 119.637 43.7214 119.499 43.349 119.225C42.9806 118.946 42.6955 118.567 42.4939 118.087C42.2922 117.607 42.1913 117.061 42.1913 116.449ZM43.2676 116.327V116.449C43.2676 116.863 43.3238 117.245 43.4363 117.593C43.5527 117.937 43.733 118.212 43.9773 118.417C44.2217 118.623 44.5378 118.725 44.9256 118.725C45.2824 118.725 45.5772 118.65 45.8099 118.499C46.0426 118.348 46.2268 118.148 46.3625 117.901C46.5021 117.653 46.6107 117.384 46.6883 117.094V115.694C46.6456 115.481 46.5797 115.276 46.4905 115.079C46.4052 114.878 46.2927 114.699 46.1531 114.545C46.0173 114.386 45.8486 114.26 45.647 114.167C45.4453 114.074 45.2087 114.028 44.9372 114.028C44.5455 114.028 44.2255 114.132 43.9773 114.341C43.733 114.55 43.5527 114.829 43.4363 115.178C43.3238 115.526 43.2676 115.909 43.2676 116.327Z" fill="#FF6600"/>
<path d="M57.0145 117.384C57.0145 117.121 56.9582 116.896 56.8457 116.71C56.7333 116.525 56.5316 116.356 56.2407 116.205C55.9498 116.054 55.5368 115.901 55.0016 115.747C54.4431 115.584 53.9583 115.392 53.5472 115.172C53.1361 114.951 52.8181 114.686 52.5931 114.376C52.3682 114.063 52.2557 113.687 52.2557 113.25C52.2557 112.812 52.374 112.421 52.6106 112.077C52.851 111.729 53.1865 111.454 53.617 111.252C54.0514 111.051 54.5575 110.951 55.1354 110.951C55.7714 110.951 56.3105 111.072 56.7527 111.316C57.1987 111.556 57.538 111.872 57.7707 112.263C58.0034 112.65 58.1198 113.064 58.1198 113.505H57.0028C57.0028 113.188 56.9349 112.907 56.7992 112.663C56.6635 112.416 56.4579 112.222 56.1825 112.083C55.9072 111.94 55.5581 111.868 55.1354 111.868C54.7359 111.868 54.4062 111.928 54.1464 112.048C53.8865 112.168 53.6926 112.33 53.5646 112.536C53.4405 112.741 53.3785 112.975 53.3785 113.238C53.3785 113.474 53.4464 113.683 53.5821 113.865C53.7217 114.047 53.937 114.212 54.2278 114.359C54.5187 114.506 54.8969 114.643 55.3623 114.771C56.0022 114.953 56.5277 115.162 56.9388 115.398C57.3499 115.634 57.6524 115.913 57.8464 116.234C58.0442 116.556 58.1431 116.935 58.1431 117.372C58.1431 117.829 58.0209 118.228 57.7765 118.568C57.5322 118.909 57.189 119.172 56.7468 119.358C56.3047 119.544 55.785 119.637 55.1877 119.637C54.796 119.637 54.4101 119.583 54.03 119.474C53.6538 119.366 53.3106 119.203 53.0003 118.987C52.694 118.77 52.4477 118.503 52.2615 118.185C52.0792 117.864 51.9881 117.492 51.9881 117.07H53.1051C53.1051 117.361 53.1613 117.61 53.2738 117.819C53.3862 118.025 53.5394 118.195 53.7334 118.33C53.9311 118.466 54.1542 118.567 54.4024 118.632C54.6545 118.694 54.9163 118.725 55.1877 118.725C55.5795 118.725 55.9111 118.671 56.1825 118.563C56.454 118.454 56.6596 118.299 56.7992 118.098C56.9427 117.897 57.0145 117.659 57.0145 117.384Z" fill="#FF6600"/>
<path d="M59.1262 116.449V116.316C59.1262 115.708 59.2426 115.164 59.4753 114.684C59.708 114.204 60.0376 113.825 60.4643 113.546C60.8909 113.263 61.397 113.122 61.9826 113.122C62.576 113.122 63.086 113.263 63.5126 113.546C63.9431 113.825 64.2747 114.204 64.5074 114.684C64.7402 115.164 64.8565 115.708 64.8565 116.316V116.449C64.8565 117.053 64.7402 117.597 64.5074 118.081C64.2747 118.561 63.9451 118.94 63.5185 119.219C63.0918 119.497 62.5838 119.637 61.9943 119.637C61.4048 119.637 60.8948 119.497 60.4643 119.219C60.0376 118.94 59.708 118.561 59.4753 118.081C59.2426 117.597 59.1262 117.053 59.1262 116.449ZM60.2025 116.316V116.449C60.2025 116.863 60.2684 117.247 60.4003 117.599C60.5321 117.947 60.7299 118.228 60.9936 118.441C61.2613 118.65 61.5948 118.754 61.9943 118.754C62.3899 118.754 62.7195 118.65 62.9832 118.441C63.247 118.228 63.4448 117.947 63.5766 117.599C63.7085 117.247 63.7744 116.863 63.7744 116.449V116.316C63.7744 115.905 63.7066 115.526 63.5708 115.178C63.439 114.825 63.2412 114.543 62.9774 114.33C62.7137 114.113 62.3821 114.005 61.9826 114.005C61.587 114.005 61.2574 114.113 60.9936 114.33C60.7299 114.543 60.5321 114.825 60.4003 115.178C60.2684 115.526 60.2025 115.905 60.2025 116.316Z" fill="#FF6600"/>
<path d="M67.3755 110.602V119.521H66.2934V110.602H67.3755Z" fill="#FF6600"/>
<path d="M72.9545 118.069V113.238H74.0366V119.521H73.0069L72.9545 118.069ZM73.1581 116.745L73.6061 116.734C73.6061 117.291 73.5266 117.788 73.3676 118.226C73.2086 118.663 72.9487 119.008 72.588 119.259C72.2273 119.511 71.7464 119.637 71.1453 119.637C70.5286 119.637 70.0302 119.455 69.6502 119.091C69.2701 118.727 69.08 118.127 69.08 117.291V113.238H70.1563V117.303C70.1563 117.678 70.2106 117.97 70.3192 118.179C70.4316 118.385 70.5771 118.528 70.7555 118.609C70.9339 118.687 71.1201 118.725 71.314 118.725C71.7716 118.725 72.1342 118.638 72.4019 118.464C72.6695 118.286 72.8614 118.048 72.9778 117.75C73.098 117.448 73.1581 117.113 73.1581 116.745Z" fill="#FF6600"/>
<path d="M78.3125 113.238V114.063H74.9092V113.238H78.3125ZM76.0611 111.711H77.1373V117.965C77.1373 118.177 77.1703 118.338 77.2362 118.447C77.3022 118.555 77.3875 118.627 77.4922 118.661C77.5969 118.696 77.7094 118.714 77.8296 118.714C77.9188 118.714 78.0119 118.706 78.1089 118.69C78.2097 118.671 78.2853 118.656 78.3357 118.644L78.3416 119.521C78.2562 119.548 78.1438 119.573 78.0042 119.596C77.8684 119.623 77.7036 119.637 77.5097 119.637C77.2459 119.637 77.0035 119.585 76.7825 119.48C76.5614 119.376 76.3849 119.201 76.2531 118.957C76.1251 118.71 76.0611 118.377 76.0611 117.959V111.711Z" fill="#FF6600"/>
<path d="M80.7442 113.238V119.521H79.6621V113.238H80.7442ZM79.5807 111.572C79.5807 111.398 79.6331 111.251 79.7378 111.131C79.8464 111.011 80.0054 110.951 80.2148 110.951C80.4204 110.951 80.5774 111.011 80.686 111.131C80.7985 111.251 80.8547 111.398 80.8547 111.572C80.8547 111.738 80.7985 111.881 80.686 112.001C80.5774 112.118 80.4204 112.176 80.2148 112.176C80.0054 112.176 79.8464 112.118 79.7378 112.001C79.6331 111.881 79.5807 111.738 79.5807 111.572Z" fill="#FF6600"/>
<path d="M82.187 116.449V116.316C82.187 115.708 82.3033 115.164 82.536 114.684C82.7687 114.204 83.0984 113.825 83.525 113.546C83.9516 113.263 84.4577 113.122 85.0434 113.122C85.6368 113.122 86.1468 113.263 86.5734 113.546C87.0039 113.825 87.3355 114.204 87.5682 114.684C87.8009 115.164 87.9173 115.708 87.9173 116.316V116.449C87.9173 117.053 87.8009 117.597 87.5682 118.081C87.3355 118.561 87.0058 118.94 86.5792 119.219C86.1526 119.497 85.6445 119.637 85.055 119.637C84.4655 119.637 83.9555 119.497 83.525 119.219C83.0984 118.94 82.7687 118.561 82.536 118.081C82.3033 117.597 82.187 117.053 82.187 116.449ZM83.2632 116.316V116.449C83.2632 116.863 83.3291 117.247 83.461 117.599C83.5929 117.947 83.7907 118.228 84.0544 118.441C84.322 118.65 84.6555 118.754 85.055 118.754C85.4506 118.754 85.7803 118.65 86.044 118.441C86.3077 118.228 86.5055 117.947 86.6374 117.599C86.7693 117.247 86.8352 116.863 86.8352 116.449V116.316C86.8352 115.905 86.7673 115.526 86.6316 115.178C86.4997 114.825 86.3019 114.543 86.0382 114.33C85.7745 114.113 85.4429 114.005 85.0434 114.005C84.6478 114.005 84.3181 114.113 84.0544 114.33C83.7907 114.543 83.5929 114.825 83.461 115.178C83.3291 115.526 83.2632 115.905 83.2632 116.316Z" fill="#FF6600"/>
<path d="M90.3432 114.579V119.521H89.2669V113.238H90.285L90.3432 114.579ZM90.0872 116.141L89.6392 116.124C89.647 115.547 89.7575 115.034 89.9708 114.585C90.1842 114.132 90.4809 113.776 90.8609 113.517C91.2449 113.254 91.6909 113.122 92.199 113.122C92.614 113.122 92.9708 113.198 93.2694 113.349C93.5719 113.5 93.8046 113.743 93.9675 114.08C94.1343 114.413 94.2177 114.854 94.2177 115.404V119.521H93.1356V115.392C93.1356 115.063 93.0871 114.8 92.9902 114.603C92.8932 114.401 92.7516 114.256 92.5655 114.167C92.3793 114.074 92.1505 114.028 91.879 114.028C91.6114 114.028 91.3671 114.084 91.146 114.196C90.9288 114.309 90.7407 114.463 90.5817 114.661C90.4266 114.858 90.3044 115.085 90.2152 115.34C90.1299 115.592 90.0872 115.859 90.0872 116.141Z" fill="#FF6600"/>
<path d="M99.5174 117.854C99.5174 117.699 99.4825 117.556 99.4127 117.425C99.3468 117.289 99.2091 117.167 98.9997 117.059C98.7941 116.947 98.4838 116.85 98.0689 116.768C97.6035 116.672 97.2001 116.548 96.8588 116.397C96.5214 116.246 96.2596 116.054 96.0734 115.822C95.8912 115.59 95.8 115.301 95.8 114.957C95.8 114.624 95.895 114.32 96.0851 114.045C96.279 113.767 96.5505 113.544 96.8995 113.378C97.2525 113.207 97.6636 113.122 98.1329 113.122C98.637 113.122 99.0675 113.211 99.4244 113.389C99.7812 113.567 100.055 113.805 100.245 114.103C100.435 114.398 100.53 114.725 100.53 115.085H99.4534C99.4534 114.825 99.339 114.581 99.1102 114.353C98.8853 114.121 98.5595 114.005 98.1329 114.005C97.8342 114.005 97.5918 114.051 97.4057 114.144C97.2234 114.233 97.0896 114.347 97.0043 114.487C96.9228 114.626 96.8821 114.773 96.8821 114.928C96.8821 115.083 96.9209 115.216 96.9984 115.329C97.076 115.441 97.2176 115.541 97.4231 115.63C97.6326 115.719 97.9351 115.809 98.3307 115.898C98.8465 116.014 99.2712 116.153 99.6047 116.316C99.9382 116.478 100.186 116.678 100.349 116.914C100.512 117.15 100.594 117.436 100.594 117.773C100.594 118.141 100.493 118.466 100.291 118.748C100.089 119.027 99.8064 119.246 99.4418 119.405C99.0772 119.559 98.6506 119.637 98.1619 119.637C97.6073 119.637 97.1381 119.538 96.7541 119.341C96.3701 119.143 96.0793 118.888 95.8815 118.574C95.6837 118.261 95.5848 117.93 95.5848 117.581H96.6668C96.6824 117.876 96.7677 118.11 96.9228 118.284C97.0779 118.454 97.268 118.576 97.4929 118.65C97.7179 118.719 97.9409 118.754 98.1619 118.754C98.4567 118.754 98.703 118.716 98.9008 118.638C99.1024 118.561 99.2556 118.454 99.3604 118.319C99.4651 118.183 99.5174 118.028 99.5174 117.854Z" fill="#FF6600"/>
<path d="M66.5034 49.3752V75.9064C67.4102 76.0392 68.3055 76.2464 69.1851 76.5069V53.1314L70.2334 53.8481V76.8543C70.5133 76.9548 70.7953 77.0479 71.0699 77.1598C71.2366 77.1985 71.3991 77.2519 71.5658 77.2959C71.7031 77.2833 71.8446 77.2624 71.9809 77.2519V55.0399L73.0293 55.7566V77.1933C73.6195 77.1713 74.2013 77.1713 74.7768 77.1902V56.9494L75.8251 57.6661V77.2498C76.4122 77.2948 76.9951 77.3565 77.5727 77.4423V58.8578L78.621 59.5746V77.615C79.206 77.7248 79.7868 77.8609 80.3675 78.0105V60.7673L81.4159 61.4841V78.3003C81.9977 78.4719 82.5784 78.6581 83.1624 78.8643V62.6768L84.2107 63.3925V79.2556C84.7904 79.4795 85.3712 79.7222 85.9583 79.9775V63.0399L66.5034 49.3752Z" fill="#FF6600"/>
<path d="M44.1754 8.24699V27.815H45.0507V10.4045L46.099 9.87086V27.815H47.8466V8.9794L48.8949 8.44579V27.815H50.6425V7.55643L51.6908 7.02176V27.815H53.4373V6.13345L54.4856 5.59879V27.815H56.2321V4.70838L57.2805 4.17581V27.815H59.028V3.2854L60.0763 2.75074V27.815H60.9066V0L44.1754 8.24699Z" fill="#FF6600"/>
<path d="M45.0507 76.9034V29.8175L46.099 29.2285V76.6732C46.6808 76.5466 47.2637 76.4263 47.8466 76.3112V28.246L48.8949 27.6569V76.1061C49.4778 75.9994 50.0585 75.9032 50.6424 75.8142V26.6755L51.6908 26.0864V75.6719C52.2726 75.5955 52.8544 75.5286 53.4373 75.4742V25.105L54.4856 24.5159V75.3748C55.0685 75.3329 55.6503 75.3057 56.2321 75.2921V23.5345L57.2804 22.9443V75.2911C57.8644 75.2932 58.4462 75.312 59.028 75.3455V21.9629L60.0763 21.3738V75.4114C60.6602 75.4669 61.2421 75.5422 61.8239 75.6322V20.3924L62.8722 19.8033V75.7357C63.454 75.7106 64.0369 75.7075 64.6187 75.7347V18.8229L65.667 18.2339V75.8174C66.3128 75.8833 66.9554 75.9795 67.5907 76.1093V12.8987L37.4493 31.2583V78.8014C37.5352 78.7774 37.6149 78.7439 37.7019 78.723C38.2858 78.5754 38.8719 78.4268 39.461 78.2772V32.9585L40.5093 32.3695V78.0104C41.0901 77.8629 41.6719 77.7185 42.2558 77.5731V31.387L43.3042 30.7979V77.3146C43.886 77.1744 44.4668 77.0363 45.0507 76.9034Z" fill="#FF6600"/>
</svg>
