<svg width="128" height="122" viewBox="0 0 128 122" fill="none" xmlns="http://www.w3.org/2000/svg">
<path fill-rule="evenodd" clip-rule="evenodd" d="M27.6721 75.2468C37.9179 52.2526 77.1 36.4097 108.478 29.2583C75.4591 37.7685 49.0441 59.2801 65.2533 75.2468H27.6721Z" fill="white"/>
<path fill-rule="evenodd" clip-rule="evenodd" d="M59.4913 44.1149V22.9935C44.9911 30.2001 40.1156 38.0213 40.1156 52.2016V56.4061C44.1931 53.0881 48.7941 50.0286 53.7113 47.2254V38.7124C53.7113 38.1134 54.2652 37.6241 54.9424 37.6241C55.6195 37.6241 56.1734 38.1141 56.1734 38.7124V45.8574C57.2661 45.2641 58.3731 44.6834 59.4913 44.1149Z" fill="#FF6600"/>
<path fill-rule="evenodd" clip-rule="evenodd" d="M68.7639 13.0092V39.7682C72.7269 38.054 76.7524 36.48 80.7546 35.0447V29.2075C80.7546 15.0272 76.2073 7.20593 62.6853 0V42.5367C63.8811 41.9632 65.0882 41.4024 66.3017 40.8551V13.0099C66.3017 12.4109 66.8556 11.9216 67.5328 11.9216C68.21 11.9209 68.7639 12.4102 68.7639 13.0092Z" fill="#FF6600"/>
<path fill-rule="evenodd" clip-rule="evenodd" d="M75.6179 46.4311C71.911 49.1529 68.3202 52.4113 65.846 56.0918C63.9441 58.9198 62.6178 62.1535 62.8571 65.4871C63.0861 68.6804 64.7126 71.4291 67.1011 73.7813L68.5716 75.23L80.7552 75.1939V43.0012C78.9686 44.0888 77.2501 45.2323 75.6179 46.4311Z" fill="#FF6600"/>
<path d="M0 97.8369V96.3422H1.18901V90.3116H0V88.8169H4.65265C5.20407 88.8169 5.68226 88.9114 6.08721 89.1003C6.50078 89.2808 6.81958 89.5428 7.04359 89.8864C7.27622 90.2214 7.39254 90.6252 7.39254 91.0977V91.2265C7.39254 91.6389 7.315 91.9782 7.15991 92.2445C7.00482 92.5022 6.81958 92.7041 6.60418 92.8501C6.39739 92.9876 6.19922 93.0864 6.00967 93.1465V93.3784C6.19922 93.43 6.40601 93.5288 6.63002 93.6748C6.85404 93.8123 7.04359 94.0142 7.19868 94.2805C7.36238 94.5468 7.44424 94.8947 7.44424 95.3242V95.4531C7.44424 95.9513 7.32792 96.3809 7.09529 96.7417C6.86266 97.0939 6.53956 97.3645 6.12599 97.5535C5.72103 97.7425 5.24715 97.8369 4.70434 97.8369H0ZM2.89498 96.2907H4.49756C4.86805 96.2907 5.1653 96.2004 5.38932 96.0201C5.62195 95.8396 5.73827 95.5819 5.73827 95.2469V95.118C5.73827 94.783 5.62626 94.5253 5.40224 94.3449C5.17822 94.1645 4.87666 94.0743 4.49756 94.0743H2.89498V96.2907ZM2.89498 92.528H4.47171C4.82497 92.528 5.11361 92.4378 5.33762 92.2574C5.57025 92.077 5.68657 91.8279 5.68657 91.51V91.3811C5.68657 91.0547 5.57456 90.8056 5.35054 90.6338C5.12653 90.4534 4.83358 90.3632 4.47171 90.3632H2.89498V92.528Z" fill="white"/>
<path d="M11.5937 97.94C11.0939 97.94 10.6545 97.8284 10.2754 97.605C9.90492 97.3731 9.61628 97.0552 9.4095 96.6515C9.20271 96.2477 9.09932 95.7838 9.09932 95.2598V91.4456H10.7277V95.1309C10.7277 95.612 10.8441 95.9728 11.0767 96.2133C11.3179 96.4539 11.6583 96.5741 12.0977 96.5741C12.5974 96.5741 12.9851 96.4109 13.2609 96.0845C13.5366 95.7494 13.6744 95.2856 13.6744 94.6928V91.4456H15.3028V97.8369H13.7003V96.9994H13.4676C13.3642 97.2141 13.1704 97.4246 12.8861 97.6308C12.6017 97.837 12.1709 97.94 11.5937 97.94Z" fill="white"/>
<path d="M17.3734 97.8369V91.4456H19.0018V97.8369H17.3734ZM18.1876 90.6982C17.8947 90.6982 17.6448 90.6037 17.438 90.4147C17.2399 90.2257 17.1408 89.9766 17.1408 89.6673C17.1408 89.3581 17.2399 89.1089 17.438 88.92C17.6448 88.731 17.8947 88.6365 18.1876 88.6365C18.4892 88.6365 18.7391 88.731 18.9372 88.92C19.1354 89.1089 19.2345 89.3581 19.2345 89.6673C19.2345 89.9766 19.1354 90.2257 18.9372 90.4147C18.7391 90.6037 18.4892 90.6982 18.1876 90.6982Z" fill="white"/>
<path d="M21.0648 97.8369V88.8169H22.6933V97.8369H21.0648Z" fill="white"/>
<path d="M27.3411 98.0174C26.8327 98.0174 26.3545 97.8928 25.9065 97.6437C25.4671 97.3859 25.1138 97.0123 24.8467 96.5226C24.5796 96.0329 24.4461 95.4402 24.4461 94.7444V94.5382C24.4461 93.8423 24.5796 93.2496 24.8467 92.7599C25.1138 92.2703 25.4671 91.9009 25.9065 91.6517C26.3459 91.394 26.8241 91.2652 27.3411 91.2652C27.7288 91.2652 28.0519 91.3124 28.3104 91.4069C28.5775 91.4928 28.7929 91.6045 28.9566 91.742C29.1203 91.8794 29.2452 92.0254 29.3314 92.1801H29.564V88.8169H31.1924V97.8369H29.5898V97.0638H29.3572C29.2107 97.3043 28.9824 97.5234 28.6722 97.721C28.3707 97.9186 27.927 98.0174 27.3411 98.0174ZM27.8322 96.5999C28.3319 96.5999 28.7498 96.441 29.0858 96.1231C29.4218 95.7967 29.5898 95.3242 29.5898 94.7057V94.5768C29.5898 93.9583 29.4218 93.4901 29.0858 93.1723C28.7584 92.8458 28.3405 92.6826 27.8322 92.6826C27.3325 92.6826 26.9146 92.8458 26.5786 93.1723C26.2425 93.4901 26.0745 93.9583 26.0745 94.5768V94.7057C26.0745 95.3242 26.2425 95.7967 26.5786 96.1231C26.9146 96.441 27.3325 96.5999 27.8322 96.5999Z" fill="white"/>
<path d="M35.2466 98.0174C34.79 98.0174 34.3807 97.94 34.0189 97.7854C33.657 97.6222 33.3683 97.3902 33.1529 97.0896C32.9462 96.7803 32.8428 96.4066 32.8428 95.9685C32.8428 95.5304 32.9462 95.1653 33.1529 94.8732C33.3683 94.5725 33.6613 94.3492 34.0318 94.2031C34.4109 94.0485 34.8417 93.9712 35.3242 93.9712H37.0818V93.6104C37.0818 93.3097 36.9871 93.0649 36.7975 92.8759C36.608 92.6783 36.3064 92.5795 35.8928 92.5795C35.4879 92.5795 35.1863 92.674 34.9882 92.863C34.79 93.0434 34.6607 93.2797 34.6004 93.5717L33.1012 93.0692C33.2046 92.7428 33.3683 92.4464 33.5924 92.1801C33.825 91.9052 34.1309 91.6861 34.51 91.5229C34.8977 91.3511 35.3673 91.2652 35.9187 91.2652C36.7631 91.2652 37.4308 91.4756 37.9219 91.8966C38.413 92.3175 38.6586 92.9275 38.6586 93.7264V96.1103C38.6586 96.368 38.7792 96.4968 39.0204 96.4968H39.5374V97.8369H38.4518C38.133 97.8369 37.8702 97.7596 37.6634 97.605C37.4566 97.4504 37.3532 97.2442 37.3532 96.9865V96.9736H37.1077C37.0732 97.0767 36.9957 97.2141 36.8751 97.3859C36.7544 97.5492 36.5649 97.6952 36.3064 97.8241C36.0479 97.9529 35.6947 98.0174 35.2466 98.0174ZM35.531 96.703C35.9876 96.703 36.3581 96.5784 36.6424 96.3293C36.9354 96.0716 37.0818 95.7323 37.0818 95.3113V95.1825H35.4405C35.1389 95.1825 34.902 95.2469 34.7297 95.3758C34.5574 95.5046 34.4712 95.685 34.4712 95.917C34.4712 96.1489 34.5617 96.3379 34.7426 96.4839C34.9235 96.63 35.1863 96.703 35.531 96.703Z" fill="white"/>
<path d="M47.9126 98.0174C46.7925 98.0174 45.905 97.7081 45.2502 97.0896C44.5954 96.4625 44.268 95.569 44.268 94.4093V92.2445C44.268 91.0848 44.5954 90.1956 45.2502 89.5771C45.905 88.95 46.7925 88.6365 47.9126 88.6365C49.024 88.6365 49.8813 88.9414 50.4845 89.5514C51.0962 90.1527 51.4021 90.9817 51.4021 92.0383V92.1156H49.7219V91.9868C49.7219 91.4542 49.5712 91.016 49.2696 90.6724C48.9767 90.3288 48.5243 90.157 47.9126 90.157C47.3095 90.157 46.8356 90.3417 46.4909 90.7111C46.1463 91.0805 45.974 91.583 45.974 92.2187V94.4351C45.974 95.0622 46.1463 95.5647 46.4909 95.9427C46.8356 96.3121 47.3095 96.4968 47.9126 96.4968C48.5243 96.4968 48.9767 96.325 49.2696 95.9814C49.5712 95.6292 49.7219 95.1911 49.7219 94.667V94.4351H51.4021V94.6155C51.4021 95.6721 51.0962 96.5054 50.4845 97.1153C49.8813 97.7167 49.024 98.0174 47.9126 98.0174Z" fill="white"/>
<path d="M56.1523 98.0174C55.5148 98.0174 54.9418 97.8885 54.4335 97.6308C53.9251 97.3731 53.5245 96.9994 53.2315 96.5097C52.9386 96.0201 52.7921 95.4316 52.7921 94.7444V94.5382C52.7921 93.8509 52.9386 93.2625 53.2315 92.7728C53.5245 92.2832 53.9251 91.9095 54.4335 91.6517C54.9418 91.394 55.5148 91.2652 56.1523 91.2652C56.7899 91.2652 57.3629 91.394 57.8712 91.6517C58.3796 91.9095 58.7802 92.2832 59.0732 92.7728C59.3661 93.2625 59.5126 93.8509 59.5126 94.5382V94.7444C59.5126 95.4316 59.3661 96.0201 59.0732 96.5097C58.7802 96.9994 58.3796 97.3731 57.8712 97.6308C57.3629 97.8885 56.7899 98.0174 56.1523 98.0174ZM56.1523 96.5741C56.6521 96.5741 57.0656 96.4152 57.3931 96.0974C57.7205 95.7709 57.8842 95.307 57.8842 94.7057V94.5768C57.8842 93.9755 57.7205 93.5159 57.3931 93.198C57.0743 92.8716 56.6607 92.7084 56.1523 92.7084C55.6526 92.7084 55.2391 92.8716 54.9116 93.198C54.5842 93.5159 54.4205 93.9755 54.4205 94.5768V94.7057C54.4205 95.307 54.5842 95.7709 54.9116 96.0974C55.2391 96.4152 55.6526 96.5741 56.1523 96.5741Z" fill="white"/>
<path d="M61.2742 97.8369V91.4456H62.8768V92.2831H63.1094C63.2128 92.0598 63.4067 91.8493 63.691 91.6517C63.9753 91.4456 64.4061 91.3425 64.9834 91.3425C65.4831 91.3425 65.9182 91.4585 66.2887 91.6904C66.6678 91.9138 66.9608 92.2273 67.1675 92.6311C67.3743 93.0262 67.4777 93.4901 67.4777 94.0227V97.8369H65.8493V94.1516C65.8493 93.6705 65.7287 93.3097 65.4874 93.0692C65.2548 92.8287 64.9188 92.7084 64.4794 92.7084C63.9796 92.7084 63.5919 92.8759 63.3162 93.2109C63.0405 93.5374 62.9026 93.997 62.9026 94.5897V97.8369H61.2742Z" fill="white"/>
<path d="M72.159 98.0174C71.3232 98.0174 70.6382 97.837 70.104 97.4761C69.5698 97.1153 69.2467 96.5999 69.1347 95.9299L70.6339 95.5433C70.6942 95.8439 70.7933 96.0802 70.9312 96.252C71.0776 96.4238 71.2543 96.5484 71.4611 96.6257C71.6765 96.6944 71.9091 96.7288 72.159 96.7288C72.5381 96.7288 72.8181 96.6643 72.999 96.5355C73.1799 96.398 73.2704 96.2305 73.2704 96.0329C73.2704 95.8354 73.1843 95.685 73.0119 95.5819C72.8396 95.4703 72.5639 95.38 72.1848 95.3113L71.8229 95.2469C71.3749 95.161 70.9656 95.045 70.5951 94.899C70.2247 94.7444 69.9274 94.5339 69.7034 94.2676C69.4794 94.0013 69.3674 93.6576 69.3674 93.2367C69.3674 92.601 69.6 92.1156 70.0653 91.7806C70.5305 91.437 71.1423 91.2652 71.9005 91.2652C72.6156 91.2652 73.2101 91.4241 73.684 91.742C74.1579 92.0598 74.468 92.4764 74.6145 92.9919L73.1024 93.4558C73.0335 93.1293 72.8913 92.8974 72.6759 92.7599C72.4691 92.6225 72.2106 92.5538 71.9005 92.5538C71.5903 92.5538 71.3534 92.6096 71.1897 92.7213C71.0259 92.8244 70.9441 92.9704 70.9441 93.1594C70.9441 93.3656 71.0303 93.5202 71.2026 93.6233C71.3749 93.7178 71.6075 93.7908 71.9005 93.8423L72.2623 93.9068C72.7448 93.9927 73.1799 94.1086 73.5677 94.2547C73.964 94.3921 74.2742 94.594 74.4982 94.8603C74.7308 95.118 74.8471 95.4703 74.8471 95.917C74.8471 96.587 74.6016 97.1068 74.1105 97.4761C73.628 97.837 72.9775 98.0174 72.159 98.0174Z" fill="white"/>
<path d="M78.862 97.8369C78.4398 97.8369 78.0952 97.7081 77.8281 97.4504C77.5696 97.1841 77.4403 96.8319 77.4403 96.3937V92.7857H75.8378V91.4456H77.4403V89.4612H79.0688V91.4456H80.8264V92.7857H79.0688V96.1103C79.0688 96.368 79.1894 96.4968 79.4306 96.4968H80.6713V97.8369H78.862Z" fill="white"/>
<path d="M82.559 97.8369V91.4456H84.1615V92.1672H84.3942C84.4889 91.9095 84.644 91.7205 84.8594 91.6002C85.0834 91.4799 85.3419 91.4198 85.6349 91.4198H86.4103V92.863H85.609C85.1954 92.863 84.8551 92.9747 84.588 93.198C84.3209 93.4128 84.1874 93.7478 84.1874 94.2031V97.8369H82.559Z" fill="white"/>
<path d="M90.3842 97.94C89.8845 97.94 89.4451 97.8284 89.066 97.605C88.6955 97.3731 88.4069 97.0552 88.2001 96.6515C87.9933 96.2477 87.8899 95.7838 87.8899 95.2598V91.4456H89.5183V95.1309C89.5183 95.612 89.6347 95.9728 89.8673 96.2133C90.1085 96.4539 90.4489 96.5741 90.8883 96.5741C91.388 96.5741 91.7757 96.4109 92.0514 96.0845C92.3272 95.7494 92.465 95.2856 92.465 94.6928V91.4456H94.0934V97.8369H92.4909V96.9994H92.2582C92.1548 97.2141 91.961 97.4246 91.6767 97.6308C91.3923 97.837 90.9615 97.94 90.3842 97.94Z" fill="white"/>
<path d="M99.1753 98.0174C98.5549 98.0174 97.9906 97.8885 97.4822 97.6308C96.9825 97.3731 96.5862 96.9994 96.2932 96.5097C96.0003 96.0201 95.8538 95.4273 95.8538 94.7315V94.5511C95.8538 93.8552 96.0003 93.2625 96.2932 92.7728C96.5862 92.2832 96.9825 91.9095 97.4822 91.6517C97.9906 91.394 98.5549 91.2652 99.1753 91.2652C99.787 91.2652 100.313 91.3726 100.752 91.5873C101.191 91.8021 101.545 92.0985 101.812 92.4764C102.088 92.8458 102.268 93.2668 102.355 93.7393L100.778 94.0743C100.743 93.8166 100.666 93.5846 100.545 93.3784C100.425 93.1723 100.252 93.0091 100.028 92.8888C99.8129 92.7685 99.5415 92.7084 99.2141 92.7084C98.8867 92.7084 98.5894 92.7814 98.3223 92.9275C98.0638 93.0649 97.857 93.2754 97.702 93.5588C97.5555 93.8337 97.4822 94.1731 97.4822 94.5768V94.7057C97.4822 95.1095 97.5555 95.4531 97.702 95.7366C97.857 96.0115 98.0638 96.2219 98.3223 96.368C98.5894 96.5054 98.8867 96.5741 99.2141 96.5741C99.7052 96.5741 100.076 96.4496 100.326 96.2004C100.584 95.9427 100.748 95.6077 100.817 95.1954L102.393 95.569C102.281 96.0243 102.088 96.441 101.812 96.819C101.545 97.1884 101.191 97.4804 100.752 97.6952C100.313 97.91 99.787 98.0174 99.1753 98.0174Z" fill="white"/>
<path d="M106.236 97.8369C105.814 97.8369 105.469 97.7081 105.202 97.4504C104.944 97.1841 104.815 96.8319 104.815 96.3937V92.7857H103.212V91.4456H104.815V89.4612H106.443V91.4456H108.201V92.7857H106.443V96.1103C106.443 96.368 106.564 96.4968 106.805 96.4968H108.046V97.8369H106.236Z" fill="white"/>
<path d="M109.933 97.8369V91.4456H111.562V97.8369H109.933ZM110.747 90.6982C110.454 90.6982 110.205 90.6037 109.998 90.4147C109.8 90.2257 109.7 89.9766 109.7 89.6673C109.7 89.3581 109.8 89.1089 109.998 88.92C110.205 88.731 110.454 88.6365 110.747 88.6365C111.049 88.6365 111.299 88.731 111.497 88.92C111.695 89.1089 111.794 89.3581 111.794 89.6673C111.794 89.9766 111.695 90.2257 111.497 90.4147C111.299 90.6037 111.049 90.6982 110.747 90.6982Z" fill="white"/>
<path d="M116.675 98.0174C116.037 98.0174 115.464 97.8885 114.956 97.6308C114.447 97.3731 114.047 96.9994 113.754 96.5097C113.461 96.0201 113.314 95.4316 113.314 94.7444V94.5382C113.314 93.8509 113.461 93.2625 113.754 92.7728C114.047 92.2832 114.447 91.9095 114.956 91.6517C115.464 91.394 116.037 91.2652 116.675 91.2652C117.312 91.2652 117.885 91.394 118.394 91.6517C118.902 91.9095 119.303 92.2832 119.595 92.7728C119.888 93.2625 120.035 93.8509 120.035 94.5382V94.7444C120.035 95.4316 119.888 96.0201 119.595 96.5097C119.303 96.9994 118.902 97.3731 118.394 97.6308C117.885 97.8885 117.312 98.0174 116.675 98.0174ZM116.675 96.5741C117.174 96.5741 117.588 96.4152 117.915 96.0974C118.243 95.7709 118.406 95.307 118.406 94.7057V94.5768C118.406 93.9755 118.243 93.5159 117.915 93.198C117.597 92.8716 117.183 92.7084 116.675 92.7084C116.175 92.7084 115.761 92.8716 115.434 93.198C115.107 93.5159 114.943 93.9755 114.943 94.5768V94.7057C114.943 95.307 115.107 95.7709 115.434 96.0974C115.761 96.4152 116.175 96.5741 116.675 96.5741Z" fill="white"/>
<path d="M121.796 97.8369V91.4456H123.399V92.2831H123.632C123.735 92.0598 123.929 91.8493 124.213 91.6517C124.498 91.4456 124.928 91.3425 125.506 91.3425C126.005 91.3425 126.441 91.4585 126.811 91.6904C127.19 91.9138 127.483 92.2273 127.69 92.6311C127.897 93.0262 128 93.4901 128 94.0227V97.8369H126.372V94.1516C126.372 93.6705 126.251 93.3097 126.01 93.0692C125.777 92.8287 125.441 92.7084 125.002 92.7084C124.502 92.7084 124.114 92.8759 123.838 93.2109C123.563 93.5374 123.425 93.997 123.425 94.5897V97.8369H121.796Z" fill="white"/>
<path d="M25.1377 118.326V119.313H20.5436V118.326H25.1377ZM20.7834 110.152V119.313H19.5655V110.152H20.7834Z" fill="#FF6600"/>
<path d="M27.624 112.506V119.313H26.4503V112.506H27.624ZM26.3619 110.7C26.3619 110.511 26.4187 110.352 26.5323 110.222C26.6501 110.091 26.8226 110.026 27.0498 110.026C27.2727 110.026 27.4431 110.091 27.5609 110.222C27.6829 110.352 27.7439 110.511 27.7439 110.7C27.7439 110.88 27.6829 111.035 27.5609 111.165C27.4431 111.291 27.2727 111.354 27.0498 111.354C26.8226 111.354 26.6501 111.291 26.5323 111.165C26.4187 111.035 26.3619 110.88 26.3619 110.7Z" fill="#FF6600"/>
<path d="M31.5744 118.263L33.4424 112.506H34.6351L32.1803 119.313H31.3977L31.5744 118.263ZM30.0157 112.506L31.9405 118.294L32.073 119.313H31.2905L28.8167 112.506H30.0157Z" fill="#FF6600"/>
<path d="M37.0268 112.506V119.313H35.853V112.506H37.0268ZM35.7647 110.7C35.7647 110.511 35.8214 110.352 35.935 110.222C36.0528 110.091 36.2253 110.026 36.4525 110.026C36.6755 110.026 36.8459 110.091 36.9637 110.222C37.0857 110.352 37.1467 110.511 37.1467 110.7C37.1467 110.88 37.0857 111.035 36.9637 111.165C36.8459 111.291 36.6755 111.354 36.4525 111.354C36.2253 111.354 36.0528 111.291 35.935 111.165C35.8214 111.035 35.7647 110.88 35.7647 110.7Z" fill="#FF6600"/>
<path d="M40.0685 113.959V119.313H38.901V112.506H40.0053L40.0685 113.959ZM39.7908 115.651L39.3049 115.633C39.3133 115.008 39.4332 114.452 39.6646 113.965C39.896 113.474 40.2178 113.089 40.6301 112.808C41.0466 112.522 41.5304 112.38 42.0815 112.38C42.5317 112.38 42.9187 112.461 43.2427 112.625C43.5708 112.789 43.8232 113.053 43.9999 113.418C44.1808 113.779 44.2713 114.257 44.2713 114.852V119.313H43.0975V114.84C43.0975 114.483 43.0449 114.198 42.9398 113.984C42.8346 113.766 42.681 113.609 42.4791 113.512C42.2771 113.412 42.0289 113.361 41.7344 113.361C41.4442 113.361 41.1791 113.422 40.9393 113.544C40.7037 113.665 40.4997 113.833 40.3272 114.047C40.1589 114.261 40.0264 114.506 39.9296 114.783C39.8371 115.056 39.7908 115.345 39.7908 115.651Z" fill="#FF6600"/>
<path d="M50.4683 112.506H51.5284V119.169C51.5284 119.768 51.4064 120.28 51.1624 120.704C50.9184 121.128 50.5776 121.448 50.1401 121.667C49.7068 121.889 49.2061 122 48.6382 122C48.4026 122 48.1249 121.962 47.8052 121.887C47.4897 121.815 47.1783 121.692 46.8712 121.516C46.5683 121.344 46.3138 121.111 46.1077 120.817L46.7198 120.125C47.0059 120.469 47.3046 120.708 47.6159 120.842C47.9314 120.977 48.2427 121.044 48.5498 121.044C49.101 121.044 49.5406 120.888 49.8687 120.578C50.1969 120.272 50.361 119.821 50.361 119.225V114.003L50.4683 112.506ZM45.7669 115.985V115.853C45.7669 115.161 45.8763 114.555 46.095 114.034C46.3138 113.51 46.623 113.103 47.0227 112.814C47.4266 112.524 47.9062 112.38 48.4615 112.38C48.8906 112.38 49.265 112.455 49.5848 112.606C49.9087 112.753 50.1822 112.969 50.4051 113.254C50.6323 113.535 50.8111 113.875 50.9415 114.274C51.072 114.672 51.1624 115.123 51.2129 115.626V116.205C51.1498 116.868 51.011 117.443 50.7964 117.929C50.5818 118.412 50.281 118.785 49.894 119.049C49.5069 119.309 49.0252 119.439 48.4489 119.439C47.902 119.439 47.4266 119.29 47.0227 118.992C46.623 118.69 46.3138 118.279 46.095 117.759C45.8763 117.239 45.7669 116.648 45.7669 115.985ZM46.9343 115.853V115.985C46.9343 116.434 46.9953 116.847 47.1173 117.224C47.2436 117.598 47.4392 117.896 47.7042 118.118C47.9693 118.34 48.3121 118.451 48.7328 118.451C49.1199 118.451 49.4396 118.37 49.6921 118.206C49.9445 118.042 50.1443 117.826 50.2916 117.558C50.443 117.289 50.5608 116.998 50.6449 116.683V115.167C50.5987 114.936 50.5271 114.714 50.4304 114.5C50.3378 114.282 50.2158 114.089 50.0644 113.921C49.9171 113.749 49.7341 113.613 49.5154 113.512C49.2966 113.412 49.04 113.361 48.7455 113.361C48.3206 113.361 47.9735 113.474 47.7042 113.701C47.4392 113.927 47.2436 114.229 47.1173 114.607C46.9953 114.985 46.9343 115.4 46.9343 115.853Z" fill="#FF6600"/>
<path d="M61.8462 116.998C61.8462 116.713 61.7852 116.469 61.6632 116.268C61.5412 116.067 61.3224 115.884 61.0069 115.721C60.6914 115.557 60.2433 115.391 59.6627 115.224C59.0569 115.047 58.531 114.84 58.0851 114.601C57.6391 114.362 57.2942 114.074 57.0502 113.739C56.8062 113.399 56.6841 112.992 56.6841 112.518C56.6841 112.044 56.8125 111.62 57.0691 111.247C57.3299 110.87 57.6938 110.572 58.1608 110.354C58.632 110.136 59.181 110.026 59.8079 110.026C60.4978 110.026 61.0826 110.159 61.5622 110.423C62.046 110.683 62.4141 111.025 62.6666 111.448C62.919 111.868 63.0452 112.317 63.0452 112.795H61.8336C61.8336 112.451 61.7599 112.147 61.6127 111.883C61.4654 111.614 61.2425 111.404 60.9438 111.253C60.6451 111.098 60.2664 111.021 59.8079 111.021C59.3745 111.021 59.017 111.086 58.7351 111.216C58.4532 111.346 58.2429 111.522 58.104 111.744C57.9694 111.966 57.9021 112.22 57.9021 112.506C57.9021 112.761 57.9757 112.988 58.123 113.185C58.2744 113.382 58.5079 113.56 58.8234 113.72C59.139 113.879 59.5491 114.028 60.054 114.167C60.7481 114.364 61.3182 114.59 61.7641 114.846C62.2101 115.102 62.5382 115.404 62.7486 115.752C62.9632 116.1 63.0704 116.511 63.0704 116.985C63.0704 117.48 62.9379 117.912 62.6729 118.281C62.4078 118.651 62.0355 118.936 61.5559 119.137C61.0763 119.339 60.5126 119.439 59.8647 119.439C59.4398 119.439 59.0212 119.38 58.6089 119.263C58.2008 119.146 57.8285 118.969 57.4919 118.734C57.1595 118.5 56.8924 118.21 56.6905 117.866C56.4927 117.518 56.3939 117.115 56.3939 116.658H57.6055C57.6055 116.973 57.6665 117.243 57.7885 117.47C57.9105 117.692 58.0767 117.877 58.287 118.024C58.5016 118.17 58.7435 118.279 59.0127 118.351C59.2862 118.418 59.5702 118.451 59.8647 118.451C60.2896 118.451 60.6493 118.393 60.9438 118.275C61.2383 118.158 61.4612 117.99 61.6127 117.772C61.7684 117.554 61.8462 117.296 61.8462 116.998Z" fill="#FF6600"/>
<path d="M64.1369 115.985V115.84C64.1369 115.182 64.2631 114.592 64.5155 114.072C64.768 113.552 65.1256 113.141 65.5883 112.839C66.0511 112.533 66.6001 112.38 67.2354 112.38C67.8791 112.38 68.4323 112.533 68.8951 112.839C69.3621 113.141 69.7218 113.552 69.9742 114.072C70.2266 114.592 70.3528 115.182 70.3528 115.84V115.985C70.3528 116.639 70.2266 117.229 69.9742 117.753C69.7218 118.273 69.3642 118.684 68.9014 118.986C68.4386 119.288 67.8875 119.439 67.248 119.439C66.6086 119.439 66.0553 119.288 65.5883 118.986C65.1256 118.684 64.768 118.273 64.5155 117.753C64.2631 117.229 64.1369 116.639 64.1369 115.985ZM65.3044 115.84V115.985C65.3044 116.434 65.3759 116.849 65.5189 117.231C65.662 117.608 65.8765 117.912 66.1626 118.143C66.4529 118.37 66.8147 118.483 67.248 118.483C67.6771 118.483 68.0347 118.37 68.3208 118.143C68.6069 117.912 68.8215 117.608 68.9645 117.231C69.1075 116.849 69.1791 116.434 69.1791 115.985V115.84C69.1791 115.396 69.1054 114.985 68.9582 114.607C68.8151 114.225 68.6006 113.919 68.3145 113.688C68.0284 113.453 67.6687 113.336 67.2354 113.336C66.8063 113.336 66.4487 113.453 66.1626 113.688C65.8765 113.919 65.662 114.225 65.5189 114.607C65.3759 114.985 65.3044 115.396 65.3044 115.84Z" fill="#FF6600"/>
<path d="M73.0853 109.649V119.313H71.9115V109.649H73.0853Z" fill="#FF6600"/>
<path d="M79.1371 117.74V112.506H80.3109V119.313H79.1939L79.1371 117.74ZM79.358 116.306L79.8439 116.293C79.8439 116.897 79.7577 117.436 79.5852 117.91C79.4127 118.384 79.1308 118.758 78.7395 119.03C78.3483 119.303 77.8266 119.439 77.1745 119.439C76.5056 119.439 75.965 119.242 75.5527 118.848C75.1404 118.453 74.9343 117.803 74.9343 116.897V112.506H76.1017V116.91C76.1017 117.317 76.1606 117.633 76.2784 117.86C76.4004 118.082 76.5582 118.237 76.7517 118.326C76.9452 118.409 77.1472 118.451 77.3575 118.451C77.854 118.451 78.2473 118.357 78.5376 118.168C78.8279 117.975 79.0361 117.717 79.1624 117.394C79.2928 117.067 79.358 116.704 79.358 116.306Z" fill="#FF6600"/>
<path d="M84.9491 112.506V113.399H81.2575V112.506H84.9491ZM82.507 110.851H83.6744V117.627C83.6744 117.858 83.7102 118.032 83.7817 118.149C83.8532 118.267 83.9458 118.344 84.0593 118.382C84.1729 118.42 84.2949 118.439 84.4254 118.439C84.5221 118.439 84.6231 118.43 84.7283 118.414C84.8376 118.393 84.9197 118.376 84.9744 118.363L84.9807 119.313C84.8881 119.343 84.7661 119.37 84.6147 119.395C84.4674 119.425 84.2886 119.439 84.0783 119.439C83.7922 119.439 83.5293 119.383 83.2895 119.269C83.0497 119.156 82.8582 118.967 82.7152 118.703C82.5764 118.435 82.507 118.074 82.507 117.621V110.851Z" fill="#FF6600"/>
<path d="M87.5869 112.506V119.313H86.4132V112.506H87.5869ZM86.3248 110.7C86.3248 110.511 86.3816 110.352 86.4952 110.222C86.613 110.091 86.7855 110.026 87.0127 110.026C87.2357 110.026 87.406 110.091 87.5238 110.222C87.6458 110.352 87.7068 110.511 87.7068 110.7C87.7068 110.88 87.6458 111.035 87.5238 111.165C87.406 111.291 87.2357 111.354 87.0127 111.354C86.7855 111.354 86.613 111.291 86.4952 111.165C86.3816 111.035 86.3248 110.88 86.3248 110.7Z" fill="#FF6600"/>
<path d="M89.152 115.985V115.84C89.152 115.182 89.2782 114.592 89.5306 114.072C89.783 113.552 90.1406 113.141 90.6034 112.839C91.0662 112.533 91.6152 112.38 92.2505 112.38C92.8941 112.38 93.4474 112.533 93.9101 112.839C94.3771 113.141 94.7368 113.552 94.9892 114.072C95.2417 114.592 95.3679 115.182 95.3679 115.84V115.985C95.3679 116.639 95.2417 117.229 94.9892 117.753C94.7368 118.273 94.3792 118.684 93.9164 118.986C93.4537 119.288 92.9025 119.439 92.2631 119.439C91.6236 119.439 91.0704 119.288 90.6034 118.986C90.1406 118.684 89.783 118.273 89.5306 117.753C89.2782 117.229 89.152 116.639 89.152 115.985ZM90.3194 115.84V115.985C90.3194 116.434 90.3909 116.849 90.534 117.231C90.677 117.608 90.8916 117.912 91.1777 118.143C91.4679 118.37 91.8298 118.483 92.2631 118.483C92.6922 118.483 93.0498 118.37 93.3359 118.143C93.6219 117.912 93.8365 117.608 93.9795 117.231C94.1226 116.849 94.1941 116.434 94.1941 115.985V115.84C94.1941 115.396 94.1205 114.985 93.9732 114.607C93.8302 114.225 93.6156 113.919 93.3296 113.688C93.0435 113.453 92.6838 113.336 92.2505 113.336C91.8213 113.336 91.4637 113.453 91.1777 113.688C90.8916 113.919 90.677 114.225 90.534 114.607C90.3909 114.985 90.3194 115.396 90.3194 115.84Z" fill="#FF6600"/>
<path d="M97.9994 113.959V119.313H96.8319V112.506H97.9363L97.9994 113.959ZM97.7217 115.651L97.2358 115.633C97.2442 115.008 97.3641 114.452 97.5955 113.965C97.8269 113.474 98.1487 113.089 98.561 112.808C98.9775 112.522 99.4613 112.38 100.012 112.38C100.463 112.38 100.85 112.461 101.174 112.625C101.502 112.789 101.754 113.053 101.931 113.418C102.112 113.779 102.202 114.257 102.202 114.852V119.313H101.028V114.84C101.028 114.483 100.976 114.198 100.871 113.984C100.766 113.766 100.612 113.609 100.41 113.512C100.208 113.412 99.9599 113.361 99.6654 113.361C99.3751 113.361 99.11 113.422 98.8702 113.544C98.6346 113.665 98.4306 113.833 98.2581 114.047C98.0898 114.261 97.9573 114.506 97.8605 114.783C97.768 115.056 97.7217 115.345 97.7217 115.651Z" fill="#FF6600"/>
<path d="M107.951 117.508C107.951 117.34 107.913 117.185 107.838 117.042C107.766 116.895 107.617 116.763 107.389 116.646C107.167 116.524 106.83 116.419 106.38 116.331C105.875 116.226 105.437 116.092 105.067 115.928C104.701 115.765 104.417 115.557 104.215 115.305C104.018 115.054 103.919 114.741 103.919 114.368C103.919 114.007 104.022 113.678 104.228 113.38C104.438 113.078 104.733 112.837 105.111 112.657C105.494 112.472 105.94 112.38 106.449 112.38C106.996 112.38 107.463 112.476 107.85 112.669C108.237 112.862 108.534 113.12 108.74 113.443C108.946 113.762 109.049 114.116 109.049 114.506H107.882C107.882 114.225 107.758 113.961 107.509 113.714C107.265 113.462 106.912 113.336 106.449 113.336C106.125 113.336 105.862 113.386 105.66 113.487C105.463 113.584 105.318 113.707 105.225 113.858C105.137 114.009 105.092 114.169 105.092 114.336C105.092 114.504 105.135 114.649 105.219 114.771C105.303 114.892 105.456 115.001 105.679 115.098C105.907 115.194 106.235 115.291 106.664 115.387C107.223 115.513 107.684 115.664 108.046 115.84C108.408 116.016 108.677 116.232 108.854 116.488C109.03 116.744 109.119 117.055 109.119 117.419C109.119 117.818 109.009 118.17 108.79 118.477C108.572 118.779 108.265 119.016 107.869 119.188C107.474 119.355 107.011 119.439 106.481 119.439C105.879 119.439 105.37 119.332 104.954 119.118C104.537 118.904 104.222 118.628 104.007 118.288C103.792 117.948 103.685 117.589 103.685 117.212H104.859C104.876 117.531 104.968 117.784 105.137 117.973C105.305 118.158 105.511 118.29 105.755 118.37C105.999 118.445 106.241 118.483 106.481 118.483C106.8 118.483 107.068 118.441 107.282 118.357C107.501 118.273 107.667 118.158 107.781 118.011C107.894 117.864 107.951 117.696 107.951 117.508Z" fill="#FF6600"/>
</svg>
