<svg width="129" height="122" viewBox="0 0 129 122" fill="none" xmlns="http://www.w3.org/2000/svg">
<path fill-rule="evenodd" clip-rule="evenodd" d="M27.8713 75.2468C38.1171 52.2526 77.2992 36.4097 108.677 29.2583C75.6583 37.7685 49.2434 59.2801 65.4525 75.2468H27.8713Z" fill="#0C0A0A"/>
<path fill-rule="evenodd" clip-rule="evenodd" d="M59.6905 44.1149V22.9935C45.1904 30.2001 40.3148 38.0213 40.3148 52.2016V56.4061C44.3923 53.0881 48.9933 50.0286 53.9105 47.2254V38.7124C53.9105 38.1134 54.4644 37.6241 55.1416 37.6241C55.8188 37.6241 56.3727 38.1141 56.3727 38.7124V45.8574C57.4653 45.2641 58.5723 44.6834 59.6905 44.1149Z" fill="#F0A538"/>
<path fill-rule="evenodd" clip-rule="evenodd" d="M68.9631 13.0092V39.7682C72.9261 38.054 76.9516 36.48 80.9538 35.0447V29.2075C80.9538 15.0272 76.4065 7.20593 62.8845 0V42.5367C64.0804 41.9632 65.2874 41.4024 66.5009 40.8551V13.0099C66.5009 12.4109 67.0548 11.9216 67.732 11.9216C68.4092 11.9209 68.9631 12.4102 68.9631 13.0092Z" fill="#F0A538"/>
<path fill-rule="evenodd" clip-rule="evenodd" d="M75.8172 46.4311C72.1103 49.1529 68.5194 52.4113 66.0452 56.0918C64.1434 58.9198 62.817 62.1535 63.0563 65.4871C63.2853 68.6804 64.9118 71.4291 67.3003 73.7813L68.7708 75.23L80.9544 75.1939V43.0012C79.1678 44.0888 77.4493 45.2323 75.8172 46.4311Z" fill="#F0A538"/>
<path d="M0.199219 97.8369V96.3422H1.38823V90.3116H0.199219V88.8169H4.85187C5.40329 88.8169 5.88148 88.9114 6.28643 89.1003C6.7 89.2808 7.01879 89.5428 7.24281 89.8864C7.47544 90.2214 7.59176 90.6252 7.59176 91.0977V91.2265C7.59176 91.6389 7.51421 91.9782 7.35913 92.2445C7.20404 92.5022 7.01879 92.7041 6.80339 92.8501C6.59661 92.9876 6.39844 93.0864 6.20889 93.1465V93.3784C6.39844 93.43 6.60523 93.5288 6.82924 93.6748C7.05326 93.8123 7.24281 94.0142 7.3979 94.2805C7.5616 94.5468 7.64346 94.8947 7.64346 95.3242V95.4531C7.64346 95.9513 7.52714 96.3809 7.29451 96.7417C7.06187 97.0939 6.73877 97.3645 6.32521 97.5535C5.92025 97.7425 5.44637 97.8369 4.90356 97.8369H0.199219ZM3.0942 96.2907H4.69678C5.06727 96.2907 5.36452 96.2004 5.58854 96.0201C5.82117 95.8396 5.93748 95.5819 5.93748 95.2469V95.118C5.93748 94.783 5.82548 94.5253 5.60146 94.3449C5.37744 94.1645 5.07588 94.0743 4.69678 94.0743H3.0942V96.2907ZM3.0942 92.528H4.67093C5.02419 92.528 5.31282 92.4378 5.53684 92.2574C5.76947 92.077 5.88579 91.8279 5.88579 91.51V91.3811C5.88579 91.0547 5.77378 90.8056 5.54976 90.6338C5.32575 90.4534 5.0328 90.3632 4.67093 90.3632H3.0942V92.528Z" fill="#0C0A0A"/>
<path d="M11.7929 97.94C11.2931 97.94 10.8537 97.8284 10.4746 97.605C10.1041 97.3731 9.8155 97.0552 9.60871 96.6515C9.40193 96.2477 9.29854 95.7838 9.29854 95.2598V91.4456H10.927V95.1309C10.927 95.612 11.0433 95.9728 11.2759 96.2133C11.5172 96.4539 11.8575 96.5741 12.2969 96.5741C12.7966 96.5741 13.1844 96.4109 13.4601 96.0845C13.7358 95.7494 13.8736 95.2856 13.8736 94.6928V91.4456H15.5021V97.8369H13.8995V96.9994H13.6669C13.5635 97.2141 13.3696 97.4246 13.0853 97.6308C12.8009 97.837 12.3701 97.94 11.7929 97.94Z" fill="#0C0A0A"/>
<path d="M17.5726 97.8369V91.4456H19.2011V97.8369H17.5726ZM18.3869 90.6982C18.0939 90.6982 17.844 90.6037 17.6373 90.4147C17.4391 90.2257 17.34 89.9766 17.34 89.6673C17.34 89.3581 17.4391 89.1089 17.6373 88.92C17.844 88.731 18.0939 88.6365 18.3869 88.6365C18.6884 88.6365 18.9383 88.731 19.1364 88.92C19.3346 89.1089 19.4337 89.3581 19.4337 89.6673C19.4337 89.9766 19.3346 90.2257 19.1364 90.4147C18.9383 90.6037 18.6884 90.6982 18.3869 90.6982Z" fill="#0C0A0A"/>
<path d="M21.2641 97.8369V88.8169H22.8925V97.8369H21.2641Z" fill="#0C0A0A"/>
<path d="M27.5403 98.0174C27.0319 98.0174 26.5538 97.8928 26.1057 97.6437C25.6663 97.3859 25.313 97.0123 25.0459 96.5226C24.7789 96.0329 24.6453 95.4402 24.6453 94.7444V94.5382C24.6453 93.8423 24.7789 93.2496 25.0459 92.7599C25.313 92.2703 25.6663 91.9009 26.1057 91.6517C26.5451 91.394 27.0233 91.2652 27.5403 91.2652C27.928 91.2652 28.2511 91.3124 28.5096 91.4069C28.7767 91.4928 28.9921 91.6045 29.1558 91.742C29.3195 91.8794 29.4444 92.0254 29.5306 92.1801H29.7632V88.8169H31.3916V97.8369H29.7891V97.0638H29.5564C29.41 97.3043 29.1816 97.5234 28.8715 97.721C28.5699 97.9186 28.1262 98.0174 27.5403 98.0174ZM28.0314 96.5999C28.5311 96.5999 28.949 96.441 29.285 96.1231C29.6211 95.7967 29.7891 95.3242 29.7891 94.7057V94.5768C29.7891 93.9583 29.6211 93.4901 29.285 93.1723C28.9576 92.8458 28.5397 92.6826 28.0314 92.6826C27.5317 92.6826 27.1138 92.8458 26.7778 93.1723C26.4417 93.4901 26.2737 93.9583 26.2737 94.5768V94.7057C26.2737 95.3242 26.4417 95.7967 26.7778 96.1231C27.1138 96.441 27.5317 96.5999 28.0314 96.5999Z" fill="#0C0A0A"/>
<path d="M35.4459 98.0174C34.9892 98.0174 34.5799 97.94 34.2181 97.7854C33.8562 97.6222 33.5676 97.3902 33.3522 97.0896C33.1454 96.7803 33.042 96.4066 33.042 95.9685C33.042 95.5304 33.1454 95.1653 33.3522 94.8732C33.5676 94.5725 33.8605 94.3492 34.231 94.2031C34.6101 94.0485 35.0409 93.9712 35.5234 93.9712H37.2811V93.6104C37.2811 93.3097 37.1863 93.0649 36.9967 92.8759C36.8072 92.6783 36.5056 92.5795 36.0921 92.5795C35.6871 92.5795 35.3855 92.674 35.1874 92.863C34.9892 93.0434 34.86 93.2797 34.7997 93.5717L33.3005 93.0692C33.4039 92.7428 33.5676 92.4464 33.7916 92.1801C34.0242 91.9052 34.3301 91.6861 34.7092 91.5229C35.0969 91.3511 35.5665 91.2652 36.1179 91.2652C36.9623 91.2652 37.63 91.4756 38.1211 91.8966C38.6122 92.3175 38.8578 92.9275 38.8578 93.7264V96.1103C38.8578 96.368 38.9784 96.4968 39.2197 96.4968H39.7366V97.8369H38.651C38.3322 97.8369 38.0694 97.7596 37.8626 97.605C37.6559 97.4504 37.5525 97.2442 37.5525 96.9865V96.9736H37.3069C37.2724 97.0767 37.1949 97.2141 37.0743 97.3859C36.9537 97.5492 36.7641 97.6952 36.5056 97.8241C36.2471 97.9529 35.8939 98.0174 35.4459 98.0174ZM35.7302 96.703C36.1868 96.703 36.5573 96.5784 36.8416 96.3293C37.1346 96.0716 37.2811 95.7323 37.2811 95.3113V95.1825H35.6397C35.3382 95.1825 35.1012 95.2469 34.9289 95.3758C34.7566 95.5046 34.6704 95.685 34.6704 95.917C34.6704 96.1489 34.7609 96.3379 34.9418 96.4839C35.1227 96.63 35.3855 96.703 35.7302 96.703Z" fill="#0C0A0A"/>
<path d="M48.1118 98.0174C46.9917 98.0174 46.1043 97.7081 45.4494 97.0896C44.7946 96.4625 44.4672 95.569 44.4672 94.4093V92.2445C44.4672 91.0848 44.7946 90.1956 45.4494 89.5771C46.1043 88.95 46.9917 88.6365 48.1118 88.6365C49.2233 88.6365 50.0806 88.9414 50.6837 89.5514C51.2954 90.1527 51.6013 90.9817 51.6013 92.0383V92.1156H49.9212V91.9868C49.9212 91.4542 49.7704 91.016 49.4688 90.6724C49.1759 90.3288 48.7235 90.157 48.1118 90.157C47.5087 90.157 47.0348 90.3417 46.6902 90.7111C46.3455 91.0805 46.1732 91.583 46.1732 92.2187V94.4351C46.1732 95.0622 46.3455 95.5647 46.6902 95.9427C47.0348 96.3121 47.5087 96.4968 48.1118 96.4968C48.7235 96.4968 49.1759 96.325 49.4688 95.9814C49.7704 95.6292 49.9212 95.1911 49.9212 94.667V94.4351H51.6013V94.6155C51.6013 95.6721 51.2954 96.5054 50.6837 97.1153C50.0806 97.7167 49.2233 98.0174 48.1118 98.0174Z" fill="#0C0A0A"/>
<path d="M56.3516 98.0174C55.714 98.0174 55.141 97.8885 54.6327 97.6308C54.1243 97.3731 53.7237 96.9994 53.4307 96.5097C53.1378 96.0201 52.9913 95.4316 52.9913 94.7444V94.5382C52.9913 93.8509 53.1378 93.2625 53.4307 92.7728C53.7237 92.2832 54.1243 91.9095 54.6327 91.6517C55.141 91.394 55.714 91.2652 56.3516 91.2652C56.9892 91.2652 57.5621 91.394 58.0705 91.6517C58.5788 91.9095 58.9795 92.2832 59.2724 92.7728C59.5653 93.2625 59.7118 93.8509 59.7118 94.5382V94.7444C59.7118 95.4316 59.5653 96.0201 59.2724 96.5097C58.9795 96.9994 58.5788 97.3731 58.0705 97.6308C57.5621 97.8885 56.9892 98.0174 56.3516 98.0174ZM56.3516 96.5741C56.8513 96.5741 57.2649 96.4152 57.5923 96.0974C57.9197 95.7709 58.0834 95.307 58.0834 94.7057V94.5768C58.0834 93.9755 57.9197 93.5159 57.5923 93.198C57.2735 92.8716 56.8599 92.7084 56.3516 92.7084C55.8518 92.7084 55.4383 92.8716 55.1109 93.198C54.7835 93.5159 54.6197 93.9755 54.6197 94.5768V94.7057C54.6197 95.307 54.7835 95.7709 55.1109 96.0974C55.4383 96.4152 55.8518 96.5741 56.3516 96.5741Z" fill="#0C0A0A"/>
<path d="M61.4734 97.8369V91.4456H63.076V92.2831H63.3086C63.412 92.0598 63.6059 91.8493 63.8902 91.6517C64.1745 91.4456 64.6053 91.3425 65.1826 91.3425C65.6823 91.3425 66.1174 91.4585 66.4879 91.6904C66.867 91.9138 67.16 92.2273 67.3668 92.6311C67.5736 93.0262 67.6769 93.4901 67.6769 94.0227V97.8369H66.0485V94.1516C66.0485 93.6705 65.9279 93.3097 65.6866 93.0692C65.454 92.8287 65.118 92.7084 64.6786 92.7084C64.1788 92.7084 63.7911 92.8759 63.5154 93.2109C63.2397 93.5374 63.1018 93.997 63.1018 94.5897V97.8369H61.4734Z" fill="#0C0A0A"/>
<path d="M72.3582 98.0174C71.5224 98.0174 70.8374 97.837 70.3032 97.4761C69.7691 97.1153 69.446 96.5999 69.3339 95.9299L70.8331 95.5433C70.8934 95.8439 70.9925 96.0802 71.1304 96.252C71.2769 96.4238 71.4535 96.5484 71.6603 96.6257C71.8757 96.6944 72.1083 96.7288 72.3582 96.7288C72.7373 96.7288 73.0173 96.6643 73.1982 96.5355C73.3792 96.398 73.4696 96.2305 73.4696 96.0329C73.4696 95.8354 73.3835 95.685 73.2112 95.5819C73.0388 95.4703 72.7631 95.38 72.384 95.3113L72.0221 95.2469C71.5741 95.161 71.1648 95.045 70.7944 94.899C70.4239 94.7444 70.1266 94.5339 69.9026 94.2676C69.6786 94.0013 69.5666 93.6576 69.5666 93.2367C69.5666 92.601 69.7992 92.1156 70.2645 91.7806C70.7297 91.437 71.3415 91.2652 72.0997 91.2652C72.8148 91.2652 73.4093 91.4241 73.8832 91.742C74.3571 92.0598 74.6673 92.4764 74.8137 92.9919L73.3016 93.4558C73.2327 93.1293 73.0905 92.8974 72.8751 92.7599C72.6683 92.6225 72.4099 92.5538 72.0997 92.5538C71.7895 92.5538 71.5526 92.6096 71.3889 92.7213C71.2252 92.8244 71.1433 92.9704 71.1433 93.1594C71.1433 93.3656 71.2295 93.5202 71.4018 93.6233C71.5741 93.7178 71.8067 93.7908 72.0997 93.8423L72.4616 93.9068C72.9441 93.9927 73.3792 94.1086 73.7669 94.2547C74.1632 94.3921 74.4734 94.594 74.6974 94.8603C74.9301 95.118 75.0464 95.4703 75.0464 95.917C75.0464 96.587 74.8008 97.1068 74.3097 97.4761C73.8272 97.837 73.1767 98.0174 72.3582 98.0174Z" fill="#0C0A0A"/>
<path d="M79.0612 97.8369C78.639 97.8369 78.2944 97.7081 78.0273 97.4504C77.7688 97.1841 77.6395 96.8319 77.6395 96.3937V92.7857H76.037V91.4456H77.6395V89.4612H79.268V91.4456H81.0256V92.7857H79.268V96.1103C79.268 96.368 79.3886 96.4968 79.6298 96.4968H80.8706V97.8369H79.0612Z" fill="#0C0A0A"/>
<path d="M82.7582 97.8369V91.4456H84.3607V92.1672H84.5934C84.6882 91.9095 84.8432 91.7205 85.0586 91.6002C85.2827 91.4799 85.5411 91.4198 85.8341 91.4198H86.6095V92.863H85.8082C85.3947 92.863 85.0543 92.9747 84.7872 93.198C84.5201 93.4128 84.3866 93.7478 84.3866 94.2031V97.8369H82.7582Z" fill="#0C0A0A"/>
<path d="M90.5835 97.94C90.0837 97.94 89.6443 97.8284 89.2652 97.605C88.8947 97.3731 88.6061 97.0552 88.3993 96.6515C88.1925 96.2477 88.0891 95.7838 88.0891 95.2598V91.4456H89.7176V95.1309C89.7176 95.612 89.8339 95.9728 90.0665 96.2133C90.3077 96.4539 90.6481 96.5741 91.0875 96.5741C91.5872 96.5741 91.9749 96.4109 92.2507 96.0845C92.5264 95.7494 92.6642 95.2856 92.6642 94.6928V91.4456H94.2926V97.8369H92.6901V96.9994H92.4574C92.354 97.2141 92.1602 97.4246 91.8759 97.6308C91.5915 97.837 91.1607 97.94 90.5835 97.94Z" fill="#0C0A0A"/>
<path d="M99.3745 98.0174C98.7542 98.0174 98.1898 97.8885 97.6815 97.6308C97.1817 97.3731 96.7854 96.9994 96.4925 96.5097C96.1995 96.0201 96.053 95.4273 96.053 94.7315V94.5511C96.053 93.8552 96.1995 93.2625 96.4925 92.7728C96.7854 92.2832 97.1817 91.9095 97.6815 91.6517C98.1898 91.394 98.7542 91.2652 99.3745 91.2652C99.9863 91.2652 100.512 91.3726 100.951 91.5873C101.391 91.8021 101.744 92.0985 102.011 92.4764C102.287 92.8458 102.468 93.2668 102.554 93.7393L100.977 94.0743C100.943 93.8166 100.865 93.5846 100.744 93.3784C100.624 93.1723 100.452 93.0091 100.228 92.8888C100.012 92.7685 99.7407 92.7084 99.4133 92.7084C99.0859 92.7084 98.7886 92.7814 98.5215 92.9275C98.263 93.0649 98.0563 93.2754 97.9012 93.5588C97.7547 93.8337 97.6815 94.1731 97.6815 94.5768V94.7057C97.6815 95.1095 97.7547 95.4531 97.9012 95.7366C98.0563 96.0115 98.263 96.2219 98.5215 96.368C98.7886 96.5054 99.0859 96.5741 99.4133 96.5741C99.9044 96.5741 100.275 96.4496 100.525 96.2004C100.783 95.9427 100.947 95.6077 101.016 95.1954L102.593 95.569C102.481 96.0243 102.287 96.441 102.011 96.819C101.744 97.1884 101.391 97.4804 100.951 97.6952C100.512 97.91 99.9863 98.0174 99.3745 98.0174Z" fill="#0C0A0A"/>
<path d="M106.435 97.8369C106.013 97.8369 105.669 97.7081 105.401 97.4504C105.143 97.1841 105.014 96.8319 105.014 96.3937V92.7857H103.411V91.4456H105.014V89.4612H106.642V91.4456H108.4V92.7857H106.642V96.1103C106.642 96.368 106.763 96.4968 107.004 96.4968H108.245V97.8369H106.435Z" fill="#0C0A0A"/>
<path d="M110.132 97.8369V91.4456H111.761V97.8369H110.132ZM110.947 90.6982C110.654 90.6982 110.404 90.6037 110.197 90.4147C109.999 90.2257 109.9 89.9766 109.9 89.6673C109.9 89.3581 109.999 89.1089 110.197 88.92C110.404 88.731 110.654 88.6365 110.947 88.6365C111.248 88.6365 111.498 88.731 111.696 88.92C111.894 89.1089 111.993 89.3581 111.993 89.6673C111.993 89.9766 111.894 90.2257 111.696 90.4147C111.498 90.6037 111.248 90.6982 110.947 90.6982Z" fill="#0C0A0A"/>
<path d="M116.874 98.0174C116.236 98.0174 115.663 97.8885 115.155 97.6308C114.647 97.3731 114.246 96.9994 113.953 96.5097C113.66 96.0201 113.514 95.4316 113.514 94.7444V94.5382C113.514 93.8509 113.66 93.2625 113.953 92.7728C114.246 92.2832 114.647 91.9095 115.155 91.6517C115.663 91.394 116.236 91.2652 116.874 91.2652C117.511 91.2652 118.084 91.394 118.593 91.6517C119.101 91.9095 119.502 92.2832 119.795 92.7728C120.088 93.2625 120.234 93.8509 120.234 94.5382V94.7444C120.234 95.4316 120.088 96.0201 119.795 96.5097C119.502 96.9994 119.101 97.3731 118.593 97.6308C118.084 97.8885 117.511 98.0174 116.874 98.0174ZM116.874 96.5741C117.374 96.5741 117.787 96.4152 118.115 96.0974C118.442 95.7709 118.606 95.307 118.606 94.7057V94.5768C118.606 93.9755 118.442 93.5159 118.115 93.198C117.796 92.8716 117.382 92.7084 116.874 92.7084C116.374 92.7084 115.961 92.8716 115.633 93.198C115.306 93.5159 115.142 93.9755 115.142 94.5768V94.7057C115.142 95.307 115.306 95.7709 115.633 96.0974C115.961 96.4152 116.374 96.5741 116.874 96.5741Z" fill="#0C0A0A"/>
<path d="M121.996 97.8369V91.4456H123.598V92.2831H123.831C123.934 92.0598 124.128 91.8493 124.412 91.6517C124.697 91.4456 125.128 91.3425 125.705 91.3425C126.205 91.3425 126.64 91.4585 127.01 91.6904C127.389 91.9138 127.682 92.2273 127.889 92.6311C128.096 93.0262 128.199 93.4901 128.199 94.0227V97.8369H126.571V94.1516C126.571 93.6705 126.45 93.3097 126.209 93.0692C125.976 92.8287 125.64 92.7084 125.201 92.7084C124.701 92.7084 124.313 92.8759 124.038 93.2109C123.762 93.5374 123.624 93.997 123.624 94.5897V97.8369H121.996Z" fill="#0C0A0A"/>
<path d="M25.3369 118.326V119.313H20.7428V118.326H25.3369ZM20.9826 110.152V119.313H19.7647V110.152H20.9826Z" fill="#F0A538"/>
<path d="M27.8233 112.506V119.313H26.6495V112.506H27.8233ZM26.5611 110.7C26.5611 110.511 26.6179 110.352 26.7315 110.222C26.8493 110.091 27.0218 110.026 27.249 110.026C27.472 110.026 27.6424 110.091 27.7601 110.222C27.8822 110.352 27.9432 110.511 27.9432 110.7C27.9432 110.88 27.8822 111.035 27.7601 111.165C27.6424 111.291 27.472 111.354 27.249 111.354C27.0218 111.354 26.8493 111.291 26.7315 111.165C26.6179 111.035 26.5611 110.88 26.5611 110.7Z" fill="#F0A538"/>
<path d="M31.7737 118.263L33.6416 112.506H34.8343L32.3795 119.313H31.597L31.7737 118.263ZM30.215 112.506L32.1397 118.294L32.2722 119.313H31.4897L29.0159 112.506H30.215Z" fill="#F0A538"/>
<path d="M37.226 112.506V119.313H36.0522V112.506H37.226ZM35.9639 110.7C35.9639 110.511 36.0207 110.352 36.1343 110.222C36.2521 110.091 36.4245 110.026 36.6517 110.026C36.8747 110.026 37.0451 110.091 37.1629 110.222C37.2849 110.352 37.3459 110.511 37.3459 110.7C37.3459 110.88 37.2849 111.035 37.1629 111.165C37.0451 111.291 36.8747 111.354 36.6517 111.354C36.4245 111.354 36.2521 111.291 36.1343 111.165C36.0207 111.035 35.9639 110.88 35.9639 110.7Z" fill="#F0A538"/>
<path d="M40.2677 113.959V119.313H39.1002V112.506H40.2046L40.2677 113.959ZM39.99 115.651L39.5041 115.633C39.5125 115.008 39.6324 114.452 39.8638 113.965C40.0952 113.474 40.417 113.089 40.8293 112.808C41.2458 112.522 41.7296 112.38 42.2807 112.38C42.7309 112.38 43.1179 112.461 43.4419 112.625C43.77 112.789 44.0225 113.053 44.1992 113.418C44.3801 113.779 44.4705 114.257 44.4705 114.852V119.313H43.2967V114.84C43.2967 114.483 43.2442 114.198 43.139 113.984C43.0338 113.766 42.8802 113.609 42.6783 113.512C42.4764 113.412 42.2282 113.361 41.9337 113.361C41.6434 113.361 41.3783 113.422 41.1385 113.544C40.9029 113.665 40.6989 113.833 40.5264 114.047C40.3581 114.261 40.2256 114.506 40.1288 114.783C40.0363 115.056 39.99 115.345 39.99 115.651Z" fill="#F0A538"/>
<path d="M50.6675 112.506H51.7276V119.169C51.7276 119.768 51.6056 120.28 51.3616 120.704C51.1176 121.128 50.7769 121.448 50.3393 121.667C49.906 121.889 49.4054 122 48.8374 122C48.6018 122 48.3241 121.962 48.0044 121.887C47.6889 121.815 47.3776 121.692 47.0704 121.516C46.7675 121.344 46.513 121.111 46.3069 120.817L46.919 120.125C47.2051 120.469 47.5038 120.708 47.8151 120.842C48.1306 120.977 48.4419 121.044 48.7491 121.044C49.3002 121.044 49.7398 120.888 50.068 120.578C50.3961 120.272 50.5602 119.821 50.5602 119.225V114.003L50.6675 112.506ZM45.9661 115.985V115.853C45.9661 115.161 46.0755 114.555 46.2943 114.034C46.513 113.51 46.8222 113.103 47.2219 112.814C47.6258 112.524 48.1054 112.38 48.6607 112.38C49.0898 112.38 49.4643 112.455 49.784 112.606C50.1079 112.753 50.3814 112.969 50.6044 113.254C50.8315 113.535 51.0103 113.875 51.1408 114.274C51.2712 114.672 51.3616 115.123 51.4121 115.626V116.205C51.349 116.868 51.2102 117.443 50.9956 117.929C50.7811 118.412 50.4803 118.785 50.0932 119.049C49.7062 119.309 49.2245 119.439 48.6481 119.439C48.1012 119.439 47.6258 119.29 47.2219 118.992C46.8222 118.69 46.513 118.279 46.2943 117.759C46.0755 117.239 45.9661 116.648 45.9661 115.985ZM47.1336 115.853V115.985C47.1336 116.434 47.1946 116.847 47.3166 117.224C47.4428 117.598 47.6384 117.896 47.9034 118.118C48.1685 118.34 48.5114 118.451 48.9321 118.451C49.3191 118.451 49.6388 118.37 49.8913 118.206C50.1437 118.042 50.3435 117.826 50.4908 117.558C50.6422 117.289 50.76 116.998 50.8442 116.683V115.167C50.7979 114.936 50.7264 114.714 50.6296 114.5C50.537 114.282 50.415 114.089 50.2636 113.921C50.1163 113.749 49.9333 113.613 49.7146 113.512C49.4958 113.412 49.2392 113.361 48.9447 113.361C48.5198 113.361 48.1727 113.474 47.9034 113.701C47.6384 113.927 47.4428 114.229 47.3166 114.607C47.1946 114.985 47.1336 115.4 47.1336 115.853Z" fill="#F0A538"/>
<path d="M62.0454 116.998C62.0454 116.713 61.9844 116.469 61.8624 116.268C61.7404 116.067 61.5216 115.884 61.2061 115.721C60.8906 115.557 60.4425 115.391 59.8619 115.224C59.2561 115.047 58.7303 114.84 58.2843 114.601C57.8384 114.362 57.4934 114.074 57.2494 113.739C57.0054 113.399 56.8834 112.992 56.8834 112.518C56.8834 112.044 57.0117 111.62 57.2683 111.247C57.5291 110.87 57.8931 110.572 58.36 110.354C58.8312 110.136 59.3802 110.026 60.0071 110.026C60.697 110.026 61.2818 110.159 61.7614 110.423C62.2452 110.683 62.6134 111.025 62.8658 111.448C63.1182 111.868 63.2444 112.317 63.2444 112.795H62.0328C62.0328 112.451 61.9592 112.147 61.8119 111.883C61.6647 111.614 61.4417 111.404 61.143 111.253C60.8443 111.098 60.4657 111.021 60.0071 111.021C59.5738 111.021 59.2162 111.086 58.9343 111.216C58.6524 111.346 58.4421 111.522 58.3032 111.744C58.1686 111.966 58.1013 112.22 58.1013 112.506C58.1013 112.761 58.1749 112.988 58.3222 113.185C58.4736 113.382 58.7071 113.56 59.0226 113.72C59.3382 113.879 59.7484 114.028 60.2532 114.167C60.9474 114.364 61.5174 114.59 61.9634 114.846C62.4093 115.102 62.7375 115.404 62.9478 115.752C63.1624 116.1 63.2696 116.511 63.2696 116.985C63.2696 117.48 63.1371 117.912 62.8721 118.281C62.607 118.651 62.2347 118.936 61.7551 119.137C61.2755 119.339 60.7118 119.439 60.0639 119.439C59.639 119.439 59.2204 119.38 58.8081 119.263C58.4 119.146 58.0277 118.969 57.6911 118.734C57.3588 118.5 57.0916 118.21 56.8897 117.866C56.6919 117.518 56.5931 117.115 56.5931 116.658H57.8047C57.8047 116.973 57.8657 117.243 57.9877 117.47C58.1097 117.692 58.2759 117.877 58.4862 118.024C58.7008 118.17 58.9427 118.279 59.212 118.351C59.4854 118.418 59.7694 118.451 60.0639 118.451C60.4888 118.451 60.8485 118.393 61.143 118.275C61.4375 118.158 61.6605 117.99 61.8119 117.772C61.9676 117.554 62.0454 117.296 62.0454 116.998Z" fill="#F0A538"/>
<path d="M64.3361 115.985V115.84C64.3361 115.182 64.4623 114.592 64.7148 114.072C64.9672 113.552 65.3248 113.141 65.7876 112.839C66.2503 112.533 66.7994 112.38 67.4346 112.38C68.0783 112.38 68.6315 112.533 69.0943 112.839C69.5613 113.141 69.921 113.552 70.1734 114.072C70.4258 114.592 70.552 115.182 70.552 115.84V115.985C70.552 116.639 70.4258 117.229 70.1734 117.753C69.921 118.273 69.5634 118.684 69.1006 118.986C68.6378 119.288 68.0867 119.439 67.4472 119.439C66.8078 119.439 66.2545 119.288 65.7876 118.986C65.3248 118.684 64.9672 118.273 64.7148 117.753C64.4623 117.229 64.3361 116.639 64.3361 115.985ZM65.5036 115.84V115.985C65.5036 116.434 65.5751 116.849 65.7181 117.231C65.8612 117.608 66.0757 117.912 66.3618 118.143C66.6521 118.37 67.0139 118.483 67.4472 118.483C67.8764 118.483 68.234 118.37 68.52 118.143C68.8061 117.912 69.0207 117.608 69.1637 117.231C69.3067 116.849 69.3783 116.434 69.3783 115.985V115.84C69.3783 115.396 69.3046 114.985 69.1574 114.607C69.0144 114.225 68.7998 113.919 68.5137 113.688C68.2276 113.453 67.8679 113.336 67.4346 113.336C67.0055 113.336 66.6479 113.453 66.3618 113.688C66.0757 113.919 65.8612 114.225 65.7181 114.607C65.5751 114.985 65.5036 115.396 65.5036 115.84Z" fill="#F0A538"/>
<path d="M73.2845 109.649V119.313H72.1107V109.649H73.2845Z" fill="#F0A538"/>
<path d="M79.3363 117.74V112.506H80.5101V119.313H79.3931L79.3363 117.74ZM79.5572 116.306L80.0431 116.293C80.0431 116.897 79.9569 117.436 79.7844 117.91C79.6119 118.384 79.33 118.758 78.9388 119.03C78.5475 119.303 78.0258 119.439 77.3737 119.439C76.7048 119.439 76.1642 119.242 75.7519 118.848C75.3396 118.453 75.1335 117.803 75.1335 116.897V112.506H76.3009V116.91C76.3009 117.317 76.3598 117.633 76.4776 117.86C76.5997 118.082 76.7574 118.237 76.9509 118.326C77.1445 118.409 77.3464 118.451 77.5568 118.451C78.0532 118.451 78.4465 118.357 78.7368 118.168C79.0271 117.975 79.2354 117.717 79.3616 117.394C79.492 117.067 79.5572 116.704 79.5572 116.306Z" fill="#F0A538"/>
<path d="M85.1484 112.506V113.399H81.4567V112.506H85.1484ZM82.7062 110.851H83.8736V117.627C83.8736 117.858 83.9094 118.032 83.9809 118.149C84.0524 118.267 84.145 118.344 84.2586 118.382C84.3722 118.42 84.4942 118.439 84.6246 118.439C84.7213 118.439 84.8223 118.43 84.9275 118.414C85.0369 118.393 85.1189 118.376 85.1736 118.363L85.1799 119.313C85.0873 119.343 84.9653 119.37 84.8139 119.395C84.6666 119.425 84.4878 119.439 84.2775 119.439C83.9914 119.439 83.7285 119.383 83.4887 119.269C83.2489 119.156 83.0575 118.967 82.9144 118.703C82.7756 118.435 82.7062 118.074 82.7062 117.621V110.851Z" fill="#F0A538"/>
<path d="M87.7862 112.506V119.313H86.6124V112.506H87.7862ZM86.5241 110.7C86.5241 110.511 86.5808 110.352 86.6944 110.222C86.8122 110.091 86.9847 110.026 87.2119 110.026C87.4349 110.026 87.6053 110.091 87.7231 110.222C87.8451 110.352 87.9061 110.511 87.9061 110.7C87.9061 110.88 87.8451 111.035 87.7231 111.165C87.6053 111.291 87.4349 111.354 87.2119 111.354C86.9847 111.354 86.8122 111.291 86.6944 111.165C86.5808 111.035 86.5241 110.88 86.5241 110.7Z" fill="#F0A538"/>
<path d="M89.3512 115.985V115.84C89.3512 115.182 89.4774 114.592 89.7298 114.072C89.9822 113.552 90.3398 113.141 90.8026 112.839C91.2654 112.533 91.8144 112.38 92.4497 112.38C93.0934 112.38 93.6466 112.533 94.1094 112.839C94.5763 113.141 94.936 113.552 95.1885 114.072C95.4409 114.592 95.5671 115.182 95.5671 115.84V115.985C95.5671 116.639 95.4409 117.229 95.1885 117.753C94.936 118.273 94.5784 118.684 94.1157 118.986C93.6529 119.288 93.1018 119.439 92.4623 119.439C91.8228 119.439 91.2696 119.288 90.8026 118.986C90.3398 118.684 89.9822 118.273 89.7298 117.753C89.4774 117.229 89.3512 116.639 89.3512 115.985ZM90.5186 115.84V115.985C90.5186 116.434 90.5902 116.849 90.7332 117.231C90.8762 117.608 91.0908 117.912 91.3769 118.143C91.6672 118.37 92.029 118.483 92.4623 118.483C92.8914 118.483 93.249 118.37 93.5351 118.143C93.8212 117.912 94.0357 117.608 94.1788 117.231C94.3218 116.849 94.3933 116.434 94.3933 115.985V115.84C94.3933 115.396 94.3197 114.985 94.1725 114.607C94.0294 114.225 93.8149 113.919 93.5288 113.688C93.2427 113.453 92.883 113.336 92.4497 113.336C92.0206 113.336 91.6629 113.453 91.3769 113.688C91.0908 113.919 90.8762 114.225 90.7332 114.607C90.5902 114.985 90.5186 115.396 90.5186 115.84Z" fill="#F0A538"/>
<path d="M98.1986 113.959V119.313H97.0311V112.506H98.1355L98.1986 113.959ZM97.9209 115.651L97.435 115.633C97.4434 115.008 97.5633 114.452 97.7947 113.965C98.0261 113.474 98.3479 113.089 98.7602 112.808C99.1767 112.522 99.6605 112.38 100.212 112.38C100.662 112.38 101.049 112.461 101.373 112.625C101.701 112.789 101.953 113.053 102.13 113.418C102.311 113.779 102.401 114.257 102.401 114.852V119.313H101.228V114.84C101.228 114.483 101.175 114.198 101.07 113.984C100.965 113.766 100.811 113.609 100.609 113.512C100.407 113.412 100.159 113.361 99.8646 113.361C99.5743 113.361 99.3092 113.422 99.0695 113.544C98.8339 113.665 98.6298 113.833 98.4573 114.047C98.289 114.261 98.1565 114.506 98.0598 114.783C97.9672 115.056 97.9209 115.345 97.9209 115.651Z" fill="#F0A538"/>
<path d="M108.15 117.508C108.15 117.34 108.112 117.185 108.037 117.042C107.965 116.895 107.816 116.763 107.589 116.646C107.366 116.524 107.029 116.419 106.579 116.331C106.074 116.226 105.637 116.092 105.266 115.928C104.9 115.765 104.616 115.557 104.414 115.305C104.217 115.054 104.118 114.741 104.118 114.368C104.118 114.007 104.221 113.678 104.427 113.38C104.637 113.078 104.932 112.837 105.311 112.657C105.693 112.472 106.139 112.38 106.648 112.38C107.195 112.38 107.662 112.476 108.049 112.669C108.436 112.862 108.733 113.12 108.939 113.443C109.145 113.762 109.248 114.116 109.248 114.506H108.081C108.081 114.225 107.957 113.961 107.709 113.714C107.465 113.462 107.111 113.336 106.648 113.336C106.324 113.336 106.062 113.386 105.86 113.487C105.662 113.584 105.517 113.707 105.424 113.858C105.336 114.009 105.292 114.169 105.292 114.336C105.292 114.504 105.334 114.649 105.418 114.771C105.502 114.892 105.656 115.001 105.879 115.098C106.106 115.194 106.434 115.291 106.863 115.387C107.423 115.513 107.883 115.664 108.245 115.84C108.607 116.016 108.876 116.232 109.053 116.488C109.229 116.744 109.318 117.055 109.318 117.419C109.318 117.818 109.208 118.17 108.99 118.477C108.771 118.779 108.464 119.016 108.068 119.188C107.673 119.355 107.21 119.439 106.68 119.439C106.078 119.439 105.569 119.332 105.153 119.118C104.736 118.904 104.421 118.628 104.206 118.288C103.992 117.948 103.884 117.589 103.884 117.212H105.058C105.075 117.531 105.168 117.784 105.336 117.973C105.504 118.158 105.71 118.29 105.954 118.37C106.198 118.445 106.44 118.483 106.68 118.483C107 118.483 107.267 118.441 107.481 118.357C107.7 118.273 107.866 118.158 107.98 118.011C108.094 117.864 108.15 117.696 108.15 117.508Z" fill="#F0A538"/>
</svg>
