<svg width="152" height="55" viewBox="0 0 152 55" fill="none" xmlns="http://www.w3.org/2000/svg">
<mask id="mask0_127_21585" style="mask-type:luminance" maskUnits="userSpaceOnUse" x="1" y="0" width="151" height="55">
<path d="M151.6 0H1.19971V54.144H151.6V0Z" fill="white"/>
</mask>
<g mask="url(#mask0_127_21585)">
<path d="M31.1672 42.6435H21.0474L31.1672 27.3403H41.2871L31.1672 42.6435Z" fill="#FF6600"/>
<path d="M27.4648 11.5437H37.8314L27.4648 27.3404H17.0981L27.4648 11.5437Z" fill="#FF6600"/>
<path d="M61.9322 24.8564C61.9322 25.7948 61.7059 26.6747 61.2534 27.496C60.8177 28.317 60.1223 28.979 59.1672 29.4818C58.2286 29.9845 57.0388 30.2359 55.5976 30.2359H52.6563V36.9726H49.1372V19.4268H55.5976C56.955 19.4268 58.1113 19.6614 59.0665 20.1306C60.0219 20.5998 60.7339 21.245 61.2033 22.0662C61.6894 22.8873 61.9322 23.8175 61.9322 24.8564ZM55.4466 27.3953C56.4187 27.3953 57.1392 27.1776 57.6086 26.7416C58.0778 26.2894 58.3124 25.6609 58.3124 24.8564C58.3124 23.1471 57.3572 22.2924 55.4466 22.2924H52.6563V27.3953H55.4466Z" fill="#FF6600"/>
<path d="M66.9435 25.2084C67.396 24.4711 67.9824 23.8928 68.7031 23.4739C69.4405 23.055 70.2783 22.8455 71.2169 22.8455V26.5406H70.2867C69.1807 26.5406 68.3428 26.8003 67.7731 27.3201C67.2201 27.8396 66.9435 28.7444 66.9435 30.0348V36.9727H63.4243V23.0466H66.9435V25.2084Z" fill="#FF6600"/>
<path d="M78.7656 37.1989C77.4248 37.1989 76.218 36.9057 75.1456 36.3193C74.0731 35.716 73.2266 34.8695 72.6068 33.7802C72.0034 32.6908 71.7017 31.4342 71.7017 30.0096C71.7017 28.5853 72.0118 27.3283 72.632 26.2391C73.2688 25.1497 74.1317 24.3118 75.2211 23.7253C76.3104 23.1219 77.5256 22.8203 78.8664 22.8203C80.2065 22.8203 81.4217 23.1219 82.5106 23.7253C83.6003 24.3118 84.4545 25.1497 85.0749 26.2391C85.7119 27.3283 86.03 28.5853 86.03 30.0096C86.03 31.4342 85.7036 32.6908 85.0501 33.7802C84.4132 34.8695 83.5416 35.716 82.4354 36.3193C81.3465 36.9057 80.123 37.1989 78.7656 37.1989ZM78.7656 34.132C79.4018 34.132 79.9974 33.9813 80.5501 33.6798C81.1202 33.3614 81.5729 32.892 81.9075 32.272C82.2429 31.6519 82.4106 30.8978 82.4106 30.0096C82.4106 28.6857 82.0587 27.6719 81.3548 26.9679C80.6675 26.2473 79.8215 25.8872 78.816 25.8872C77.8106 25.8872 76.9639 26.2473 76.277 26.9679C75.6064 27.6719 75.2715 28.6857 75.2715 30.0096C75.2715 31.3335 75.5981 32.3559 76.2518 33.0765C76.9217 33.7802 77.7602 34.132 78.7656 34.132Z" fill="#FF6600"/>
<path d="M91.1273 34.1824H94.9068V36.9726H87.6079V17.2649H91.1273V34.1824Z" fill="#FF6600"/>
<path d="M97.6351 21.3875C97.0155 21.3875 96.4959 21.1948 96.077 20.8093C95.6747 20.4071 95.4731 19.9128 95.4731 19.3262C95.4731 18.7396 95.6747 18.2537 96.077 17.8682C96.4959 17.4661 97.0155 17.2649 97.6351 17.2649C98.2555 17.2649 98.7662 17.4661 99.1685 17.8682C99.5873 18.2537 99.7971 18.7396 99.7971 19.3262C99.7971 19.9128 99.5873 20.4071 99.1685 20.8093C98.7662 21.1948 98.2555 21.3875 97.6351 21.3875ZM99.3693 23.0466V36.9726H95.8507V23.0466H99.3693Z" fill="#FF6600"/>
<path d="M109.56 22.8455C111.219 22.8455 112.56 23.3734 113.582 24.4292C114.604 25.4681 115.115 26.9262 115.115 28.803V36.9727H111.596V29.2808C111.596 28.1746 111.319 27.3284 110.766 26.7416C110.213 26.1384 109.459 25.8368 108.504 25.8368C107.532 25.8368 106.761 26.1384 106.191 26.7416C105.638 27.3284 105.362 28.1746 105.362 29.2808V36.9727H101.842V23.0466H105.362V24.7811C105.831 24.1778 106.426 23.7085 107.147 23.3734C107.884 23.0214 108.688 22.8455 109.56 22.8455Z" fill="#FF6600"/>
<path d="M130.4 29.7081C130.4 30.2107 130.367 30.6633 130.3 31.0655H120.119C120.202 32.071 120.555 32.8585 121.175 33.4283C121.795 33.9982 122.558 34.2831 123.462 34.2831C124.769 34.2831 125.7 33.7215 126.253 32.5988H130.048C129.646 33.9395 128.875 35.0454 127.736 35.9171C126.596 36.7716 125.197 37.1989 123.538 37.1989C122.197 37.1989 120.991 36.9057 119.918 36.3193C118.862 35.716 118.033 34.8695 117.429 33.7802C116.843 32.6908 116.549 31.4342 116.549 30.0096C116.549 28.5684 116.843 27.3032 117.429 26.2139C118.016 25.1246 118.837 24.2866 119.893 23.7002C120.948 23.1136 122.164 22.8203 123.538 22.8203C124.862 22.8203 126.043 23.1052 127.082 23.675C128.138 24.2448 128.951 25.0575 129.52 26.1135C130.107 27.1524 130.4 28.3504 130.4 29.7081ZM126.755 28.7026C126.739 27.7975 126.412 27.0769 125.775 26.5405C125.139 25.9876 124.359 25.7112 123.438 25.7112C122.566 25.7112 121.828 25.9793 121.225 26.5156C120.639 27.0351 120.278 27.764 120.144 28.7026H126.755Z" fill="#FF6600"/>
</g>
</svg>
