<svg width="119" height="122" viewBox="0 0 119 122" fill="none" xmlns="http://www.w3.org/2000/svg">
<path d="M102.485 85.6309C102.485 85.6309 101.181 85.1883 98.9239 84.3607C97.8085 83.9045 96.3943 83.5477 94.8186 83.0361C93.2545 82.5025 91.4231 82.0777 89.4523 81.5576C88.9596 81.43 88.4574 81.2971 87.9448 81.1642C87.4248 81.0586 86.8944 80.9518 86.3555 80.843C85.282 80.616 84.1719 80.3816 83.0313 80.1409C81.8876 79.9149 80.6967 79.7643 79.4911 79.5655C78.2813 79.3834 77.0558 79.1469 75.7874 79.0381C74.5262 78.8948 73.2441 78.7483 71.9463 78.5997C70.6464 78.4794 69.3223 78.4229 67.9941 78.3183C67.3295 78.2733 66.6628 78.2262 65.9939 78.1791C65.324 78.1509 64.651 78.1519 63.9769 78.1299C62.6298 78.0996 61.2765 78.0672 59.9231 78.0358C58.5655 78.0682 57.2069 78.0996 55.8545 78.132C55.1742 78.153 54.4865 78.154 53.8155 78.1833C53.1509 78.2304 52.4883 78.2754 51.829 78.3225C50.5081 78.4271 49.1977 78.4836 47.9009 78.6029C46.6031 78.7525 45.321 78.899 44.0598 79.0423C42.7913 79.1501 41.5659 79.3876 40.3571 79.5697C39.1516 79.7674 37.9596 79.9191 36.8159 80.1451C35.6753 80.3847 34.5662 80.6202 33.4917 80.8472C32.9528 80.956 32.4234 81.0638 31.9024 81.1684C31.3898 81.3023 30.8866 81.4331 30.3949 81.5608C28.4241 82.0818 26.5937 82.5066 25.0222 83.0403C23.4424 83.553 22.0261 83.9129 20.918 84.3638C18.6704 85.1862 17.36 85.6309 17.36 85.6309C17.36 85.6309 18.5541 84.9592 20.6895 83.8292C21.742 83.2307 23.0954 82.672 24.6365 81.9919C25.0233 81.8224 25.4217 81.6487 25.8326 81.4687C26.0381 81.3798 26.2477 81.2887 26.4584 81.1967C26.6734 81.1172 26.8925 81.0366 27.1136 80.9539C28.0058 80.6369 28.9409 80.3021 29.919 79.9537C30.4096 79.78 30.9086 79.6031 31.4191 79.4221C31.938 79.2694 32.4653 79.1145 33.0021 78.9555C34.0808 78.6531 35.1973 78.3392 36.3442 78.018C37.4973 77.7156 38.6987 77.4844 39.92 77.205C41.1423 76.9309 42.394 76.6578 43.6835 76.4831C44.9698 76.2884 46.2781 76.0907 47.6031 75.8919C48.9356 75.7203 50.2995 75.624 51.6696 75.4974C52.3542 75.4368 53.044 75.3771 53.7338 75.3175C54.4183 75.2704 55.0966 75.2662 55.779 75.2421C57.1565 75.2013 58.5414 75.1616 59.9241 75.1218C61.3121 75.1626 62.7001 75.2024 64.0839 75.2432C64.7747 75.2662 65.4656 75.2746 66.1522 75.3206C66.8378 75.3813 67.5224 75.4409 68.2027 75.5016C69.5635 75.6282 70.9168 75.7266 72.2461 75.894C73.5712 76.0938 74.8795 76.2926 76.1658 76.4872C77.4542 76.6599 78.7059 76.9382 79.9293 77.2113C81.1496 77.4896 82.3509 77.7198 83.5051 78.0222C84.651 78.3444 85.7674 78.6573 86.8472 78.9607C87.385 79.1187 87.9123 79.2746 88.4302 79.4263C88.9397 79.6073 89.4407 79.7842 89.9303 79.9568C90.9084 80.3063 91.8435 80.64 92.7346 80.9581C92.9568 81.0397 93.1759 81.1203 93.3919 81.1998C93.6026 81.2929 93.8123 81.3829 94.0188 81.4729C94.4308 81.6529 94.8302 81.8286 95.2191 81.996C96.7643 82.6761 98.1209 83.2391 99.165 83.8334C101.285 84.9571 102.485 85.6309 102.485 85.6309Z" fill="#F0A538"/>
<path d="M0.800781 99.7017V98.3223H1.8969V92.7571H0.800781V91.3777H5.08994C5.59829 91.3777 6.03912 91.4649 6.41243 91.6393C6.79369 91.8058 7.08758 92.0476 7.29409 92.3647C7.50855 92.6739 7.61578 93.0465 7.61578 93.4825V93.6014C7.61578 93.9819 7.54429 94.2951 7.40132 94.5408C7.25835 94.7787 7.08758 94.965 6.88901 95.0997C6.69838 95.2266 6.51569 95.3177 6.34095 95.3732V95.5873C6.51569 95.6348 6.70632 95.726 6.91283 95.8608C7.11935 95.9876 7.29409 96.1739 7.43706 96.4197C7.58798 96.6654 7.66344 96.9865 7.66344 97.3829V97.5018C7.66344 97.9616 7.55621 98.358 7.34175 98.6909C7.12729 99.016 6.82943 99.2657 6.44817 99.4401C6.07486 99.6145 5.638 99.7017 5.1376 99.7017H0.800781ZM3.46959 98.2747H4.94697C5.28851 98.2747 5.56254 98.1915 5.76906 98.025C5.98352 97.8585 6.09074 97.6207 6.09074 97.3115V97.1926C6.09074 96.8834 5.98749 96.6456 5.78097 96.4791C5.57446 96.3126 5.29646 96.2294 4.94697 96.2294H3.46959V98.2747ZM3.46959 94.8024H4.92314C5.2488 94.8024 5.51489 94.7192 5.7214 94.5527C5.93586 94.3862 6.04309 94.1563 6.04309 93.863V93.7441C6.04309 93.4429 5.93983 93.213 5.73331 93.0544C5.5268 92.8879 5.25674 92.8047 4.92314 92.8047H3.46959V94.8024Z" fill="#0C0A0A"/>
<path d="M11.4887 99.7968C11.028 99.7968 10.6229 99.6938 10.2734 99.4876C9.93188 99.2736 9.66579 98.9803 9.47516 98.6077C9.28453 98.2351 9.18921 97.807 9.18921 97.3234V93.8036H10.6904V97.2045C10.6904 97.6485 10.7976 97.9814 11.0121 98.2034C11.2345 98.4253 11.5483 98.5363 11.9533 98.5363C12.414 98.5363 12.7715 98.3857 13.0256 98.0845C13.2798 97.7753 13.4069 97.3472 13.4069 96.8002V93.8036H14.9081V99.7017H13.4307V98.9288H13.2163C13.1209 99.1269 12.9422 99.3212 12.6801 99.5114C12.418 99.7017 12.0209 99.7968 11.4887 99.7968Z" fill="#0C0A0A"/>
<path d="M16.8169 99.7017V93.8036H18.3181V99.7017H16.8169ZM17.5675 93.1139C17.2974 93.1139 17.0671 93.0267 16.8765 92.8522C16.6938 92.6778 16.6024 92.4479 16.6024 92.1625C16.6024 91.8772 16.6938 91.6473 16.8765 91.4729C17.0671 91.2984 17.2974 91.2112 17.5675 91.2112C17.8455 91.2112 18.0758 91.2984 18.2585 91.4729C18.4412 91.6473 18.5326 91.8772 18.5326 92.1625C18.5326 92.4479 18.4412 92.6778 18.2585 92.8522C18.0758 93.0267 17.8455 93.1139 17.5675 93.1139Z" fill="#0C0A0A"/>
<path d="M20.2199 99.7017V91.3777H21.7211V99.7017H20.2199Z" fill="#0C0A0A"/>
<path d="M26.0058 99.8682C25.5372 99.8682 25.0964 99.7532 24.6833 99.5233C24.2783 99.2855 23.9526 98.9407 23.7064 98.4888C23.4601 98.0369 23.337 97.4899 23.337 96.8478V96.6575C23.337 96.0154 23.4601 95.4684 23.7064 95.0165C23.9526 94.5646 24.2783 94.2237 24.6833 93.9938C25.0884 93.756 25.5293 93.6371 26.0058 93.6371C26.3633 93.6371 26.6611 93.6807 26.8994 93.7679C27.1456 93.8472 27.3442 93.9502 27.4951 94.0771C27.646 94.2039 27.7612 94.3387 27.8406 94.4814H28.0551V91.3777H29.5563V99.7017H28.0789V98.9882H27.8645C27.7294 99.2102 27.5189 99.4123 27.233 99.5947C26.955 99.777 26.5459 99.8682 26.0058 99.8682ZM26.4586 98.5601C26.9193 98.5601 27.3045 98.4135 27.6143 98.1201C27.924 97.8189 28.0789 97.3829 28.0789 96.8121V96.6932C28.0789 96.1224 27.924 95.6903 27.6143 95.397C27.3124 95.0958 26.9272 94.9451 26.4586 94.9451C25.9979 94.9451 25.6127 95.0958 25.3029 95.397C24.9931 95.6903 24.8382 96.1224 24.8382 96.6932V96.8121C24.8382 97.3829 24.9931 97.8189 25.3029 98.1201C25.6127 98.4135 25.9979 98.5601 26.4586 98.5601Z" fill="#0C0A0A"/>
<path d="M33.2938 99.8682C32.8728 99.8682 32.4955 99.7968 32.1619 99.6541C31.8283 99.5035 31.5622 99.2895 31.3636 99.012C31.173 98.7266 31.0777 98.3817 31.0777 97.9774C31.0777 97.5731 31.173 97.2362 31.3636 96.9667C31.5622 96.6892 31.8323 96.4831 32.1738 96.3483C32.5233 96.2056 32.9205 96.1343 33.3653 96.1343H34.9856V95.8013C34.9856 95.5238 34.8982 95.2979 34.7235 95.1235C34.5487 94.9412 34.2707 94.85 33.8895 94.85C33.5162 94.85 33.2382 94.9372 33.0555 95.1116C32.8728 95.2781 32.7537 95.4961 32.6981 95.7656L31.316 95.3019C31.4113 95.0006 31.5622 94.7271 31.7687 94.4814C31.9832 94.2277 32.2652 94.0255 32.6147 93.8749C32.9721 93.7164 33.405 93.6371 33.9133 93.6371C34.6917 93.6371 35.3073 93.8313 35.76 94.2198C36.2128 94.6082 36.4392 95.1711 36.4392 95.9083V98.1082C36.4392 98.3461 36.5504 98.465 36.7728 98.465H37.2493V99.7017H36.2485C35.9546 99.7017 35.7124 99.6303 35.5217 99.4876C35.3311 99.345 35.2358 99.1547 35.2358 98.9169V98.905H35.0094C34.9777 99.0001 34.9062 99.1269 34.795 99.2855C34.6838 99.4361 34.509 99.5709 34.2707 99.6898C34.0325 99.8087 33.7068 99.8682 33.2938 99.8682ZM33.5559 98.6553C33.9769 98.6553 34.3184 98.5403 34.5805 98.3104C34.8506 98.0726 34.9856 97.7594 34.9856 97.371V97.2521H33.4725C33.1945 97.2521 32.9761 97.3115 32.8172 97.4304C32.6583 97.5493 32.5789 97.7158 32.5789 97.9299C32.5789 98.1439 32.6623 98.3183 32.8291 98.4531C32.9959 98.5879 33.2382 98.6553 33.5559 98.6553Z" fill="#0C0A0A"/>
<path d="M44.9702 99.8682C43.9376 99.8682 43.1195 99.5828 42.5158 99.012C41.9122 98.4333 41.6103 97.6088 41.6103 96.5386V94.5408C41.6103 93.4706 41.9122 92.6501 42.5158 92.0793C43.1195 91.5006 43.9376 91.2112 44.9702 91.2112C45.9948 91.2112 46.7851 91.4927 47.3411 92.0555C47.9051 92.6105 48.1871 93.3755 48.1871 94.3506V94.4219H46.6382V94.303C46.6382 93.8115 46.4992 93.4072 46.2212 93.0901C45.9511 92.773 45.5341 92.6144 44.9702 92.6144C44.4142 92.6144 43.9773 92.7849 43.6596 93.1258C43.3419 93.4666 43.183 93.9304 43.183 94.517V96.5624C43.183 97.1411 43.3419 97.6048 43.6596 97.9537C43.9773 98.2945 44.4142 98.465 44.9702 98.465C45.5341 98.465 45.9511 98.3064 46.2212 97.9893C46.4992 97.6643 46.6382 97.26 46.6382 96.7764V96.5624H48.1871V96.7288C48.1871 97.7039 47.9051 98.4729 47.3411 99.0358C46.7851 99.5907 45.9948 99.8682 44.9702 99.8682Z" fill="#0C0A0A"/>
<path d="M52.5662 99.8682C51.9784 99.8682 51.4503 99.7493 50.9816 99.5114C50.513 99.2736 50.1436 98.9287 49.8736 98.4769C49.6035 98.025 49.4685 97.482 49.4685 96.8478V96.6575C49.4685 96.0233 49.6035 95.4802 49.8736 95.0284C50.1436 94.5765 50.513 94.2317 50.9816 93.9938C51.4503 93.756 51.9784 93.6371 52.5662 93.6371C53.154 93.6371 53.6822 93.756 54.1508 93.9938C54.6195 94.2317 54.9888 94.5765 55.2589 95.0284C55.5289 95.4802 55.664 96.0233 55.664 96.6575V96.8478C55.664 97.482 55.5289 98.025 55.2589 98.4769C54.9888 98.9287 54.6195 99.2736 54.1508 99.5114C53.6822 99.7493 53.154 99.8682 52.5662 99.8682ZM52.5662 98.5363C53.0269 98.5363 53.4082 98.3897 53.71 98.0964C54.0118 97.7951 54.1627 97.367 54.1627 96.8121V96.6932C54.1627 96.1382 54.0118 95.7141 53.71 95.4208C53.4161 95.1195 53.0349 94.9689 52.5662 94.9689C52.1055 94.9689 51.7243 95.1195 51.4225 95.4208C51.1206 95.7141 50.9697 96.1382 50.9697 96.6932V96.8121C50.9697 97.367 51.1206 97.7951 51.4225 98.0964C51.7243 98.3897 52.1055 98.5363 52.5662 98.5363Z" fill="#0C0A0A"/>
<path d="M57.2879 99.7017V93.8036H58.7653V94.5765H58.9798C59.0751 94.3704 59.2538 94.1762 59.5159 93.9938C59.778 93.8036 60.1752 93.7084 60.7073 93.7084C61.168 93.7084 61.5691 93.8155 61.9107 94.0295C62.2602 94.2356 62.5302 94.525 62.7209 94.8976C62.9115 95.2622 63.0068 95.6903 63.0068 96.1818V99.7017H61.5056V96.3008C61.5056 95.8568 61.3944 95.5238 61.172 95.3019C60.9575 95.0799 60.6478 94.9689 60.2427 94.9689C59.782 94.9689 59.4246 95.1235 59.1704 95.4327C58.9162 95.7339 58.7891 96.1581 58.7891 96.7051V99.7017H57.2879Z" fill="#0C0A0A"/>
<path d="M67.3223 99.8682C66.5519 99.8682 65.9204 99.7017 65.4279 99.3687C64.9355 99.0358 64.6376 98.5601 64.5344 97.9418L65.9164 97.585C65.972 97.8625 66.0634 98.0805 66.1905 98.2391C66.3255 98.3976 66.4883 98.5126 66.6789 98.5839C66.8775 98.6473 67.092 98.679 67.3223 98.679C67.6718 98.679 67.9299 98.6196 68.0967 98.5007C68.2635 98.3738 68.3469 98.2192 68.3469 98.0369C68.3469 97.8546 68.2675 97.7158 68.1087 97.6207C67.9498 97.5176 67.6956 97.4344 67.3461 97.371L67.0125 97.3115C66.5995 97.2322 66.2222 97.1252 65.8807 96.9905C65.5391 96.8478 65.2651 96.6535 65.0586 96.4078C64.8521 96.162 64.7488 95.8449 64.7488 95.4565C64.7488 94.8698 64.9633 94.4219 65.3922 94.1127C65.8211 93.7956 66.385 93.6371 67.084 93.6371C67.7433 93.6371 68.2913 93.7837 68.7282 94.0771C69.1651 94.3704 69.451 94.7549 69.586 95.2305L68.1921 95.6586C68.1285 95.3574 67.9975 95.1433 67.7989 95.0165C67.6083 94.8896 67.37 94.8262 67.084 94.8262C66.7981 94.8262 66.5796 94.8778 66.4287 94.9808C66.2778 95.0759 66.2024 95.2107 66.2024 95.3851C66.2024 95.5754 66.2818 95.7181 66.4407 95.8132C66.5995 95.9004 66.814 95.9678 67.084 96.0154L67.4176 96.0748C67.8624 96.1541 68.2635 96.2611 68.621 96.3959C68.9863 96.5227 69.2723 96.709 69.4788 96.9548C69.6933 97.1926 69.8005 97.5176 69.8005 97.9299C69.8005 98.5482 69.5741 99.0278 69.1214 99.3687C68.6766 99.7017 68.0769 99.8682 67.3223 99.8682Z" fill="#0C0A0A"/>
<path d="M73.5017 99.7017C73.1125 99.7017 72.7947 99.5828 72.5485 99.345C72.3102 99.0992 72.1911 98.7742 72.1911 98.3699V95.0403H70.7137V93.8036H72.1911V91.9723H73.6923V93.8036H75.3126V95.0403H73.6923V98.1082C73.6923 98.3461 73.8035 98.465 74.0259 98.465H75.1697V99.7017H73.5017Z" fill="#0C0A0A"/>
<path d="M76.9098 99.7017V93.8036H78.3872V94.4695H78.6016C78.689 94.2317 78.832 94.0572 79.0306 93.9463C79.2371 93.8353 79.4754 93.7798 79.7454 93.7798H80.4603V95.1116H79.7216C79.3403 95.1116 79.0266 95.2147 78.7804 95.4208C78.5341 95.619 78.411 95.9282 78.411 96.3483V99.7017H76.9098Z" fill="#0C0A0A"/>
<path d="M84.1238 99.7968C83.6631 99.7968 83.258 99.6938 82.9085 99.4876C82.5669 99.2736 82.3009 98.9803 82.1102 98.6077C81.9196 98.2351 81.8243 97.807 81.8243 97.3234V93.8036H83.3255V97.2045C83.3255 97.6485 83.4327 97.9814 83.6472 98.2034C83.8696 98.4253 84.1833 98.5363 84.5884 98.5363C85.0491 98.5363 85.4065 98.3857 85.6607 98.0845C85.9149 97.7753 86.042 97.3472 86.042 96.8002V93.8036H87.5432V99.7017H86.0658V98.9288H85.8513C85.756 99.1269 85.5773 99.3212 85.3152 99.5114C85.0531 99.7017 84.6559 99.7968 84.1238 99.7968Z" fill="#0C0A0A"/>
<path d="M92.228 99.8682C91.6561 99.8682 91.1359 99.7493 90.6672 99.5114C90.2065 99.2736 89.8412 98.9287 89.5711 98.4769C89.3011 98.025 89.166 97.478 89.166 96.8359V96.6694C89.166 96.0273 89.3011 95.4802 89.5711 95.0284C89.8412 94.5765 90.2065 94.2317 90.6672 93.9938C91.1359 93.756 91.6561 93.6371 92.228 93.6371C92.7919 93.6371 93.2765 93.7362 93.6815 93.9344C94.0866 94.1326 94.4123 94.4061 94.6585 94.7549C94.9127 95.0958 95.0795 95.4842 95.1589 95.9202L93.7054 96.2294C93.6736 95.9916 93.6021 95.7775 93.4909 95.5873C93.3797 95.397 93.2209 95.2464 93.0144 95.1354C92.8158 95.0244 92.5656 94.9689 92.2637 94.9689C91.9619 94.9689 91.6879 95.0363 91.4417 95.1711C91.2034 95.2979 91.0127 95.4921 90.8698 95.7538C90.7347 96.0074 90.6672 96.3206 90.6672 96.6932V96.8121C90.6672 97.1847 90.7347 97.5018 90.8698 97.7634C91.0127 98.0171 91.2034 98.2113 91.4417 98.3461C91.6879 98.4729 91.9619 98.5363 92.2637 98.5363C92.7165 98.5363 93.058 98.4214 93.2884 98.1915C93.5267 97.9537 93.6776 97.6445 93.7411 97.264L95.1947 97.6088C95.0914 98.029 94.9127 98.4135 94.6585 98.7623C94.4123 99.1032 94.0866 99.3727 93.6815 99.5709C93.2765 99.7691 92.7919 99.8682 92.228 99.8682Z" fill="#0C0A0A"/>
<path d="M98.7372 99.7017C98.348 99.7017 98.0303 99.5828 97.7841 99.345C97.5458 99.0992 97.4267 98.7742 97.4267 98.3699V95.0403H95.9493V93.8036H97.4267V91.9723H98.9279V93.8036H100.548V95.0403H98.9279V98.1082C98.9279 98.3461 99.0391 98.465 99.2615 98.465H100.405V99.7017H98.7372Z" fill="#0C0A0A"/>
<path d="M102.145 99.7017V93.8036H103.647V99.7017H102.145ZM102.896 93.1139C102.626 93.1139 102.396 93.0267 102.205 92.8522C102.022 92.6778 101.931 92.4479 101.931 92.1625C101.931 91.8772 102.022 91.6473 102.205 91.4729C102.396 91.2984 102.626 91.2112 102.896 91.2112C103.174 91.2112 103.404 91.2984 103.587 91.4729C103.77 91.6473 103.861 91.8772 103.861 92.1625C103.861 92.4479 103.77 92.6778 103.587 92.8522C103.404 93.0267 103.174 93.1139 102.896 93.1139Z" fill="#0C0A0A"/>
<path d="M108.36 99.8682C107.772 99.8682 107.244 99.7493 106.776 99.5114C106.307 99.2736 105.938 98.9287 105.668 98.4769C105.398 98.025 105.262 97.482 105.262 96.8478V96.6575C105.262 96.0233 105.398 95.4802 105.668 95.0284C105.938 94.5765 106.307 94.2317 106.776 93.9938C107.244 93.756 107.772 93.6371 108.36 93.6371C108.948 93.6371 109.476 93.756 109.945 93.9938C110.413 94.2317 110.783 94.5765 111.053 95.0284C111.323 95.4802 111.458 96.0233 111.458 96.6575V96.8478C111.458 97.482 111.323 98.025 111.053 98.4769C110.783 98.9287 110.413 99.2736 109.945 99.5114C109.476 99.7493 108.948 99.8682 108.36 99.8682ZM108.36 98.5363C108.821 98.5363 109.202 98.3897 109.504 98.0964C109.806 97.7951 109.957 97.367 109.957 96.8121V96.6932C109.957 96.1382 109.806 95.7141 109.504 95.4208C109.21 95.1195 108.829 94.9689 108.36 94.9689C107.9 94.9689 107.518 95.1195 107.216 95.4208C106.915 95.7141 106.764 96.1382 106.764 96.6932V96.8121C106.764 97.367 106.915 97.7951 107.216 98.0964C107.518 98.3897 107.9 98.5363 108.36 98.5363Z" fill="#0C0A0A"/>
<path d="M113.082 99.7017V93.8036H114.559V94.5765H114.774C114.869 94.3704 115.048 94.1762 115.31 93.9938C115.572 93.8036 115.969 93.7084 116.501 93.7084C116.962 93.7084 117.363 93.8155 117.705 94.0295C118.054 94.2356 118.324 94.525 118.515 94.8976C118.705 95.2622 118.801 95.6903 118.801 96.1818V99.7017H117.3V96.3008C117.3 95.8568 117.188 95.5238 116.966 95.3019C116.752 95.0799 116.442 94.9689 116.037 94.9689C115.576 94.9689 115.219 95.1235 114.964 95.4327C114.71 95.7339 114.583 96.1581 114.583 96.7051V99.7017H113.082Z" fill="#0C0A0A"/>
<path d="M23.9746 118.609V119.521H19.7394V118.609H23.9746ZM19.9605 111.067V119.521H18.8377V111.067H19.9605Z" fill="#F0A538"/>
<path d="M26.2667 113.238V119.521H25.1846V113.238H26.2667ZM25.1032 111.572C25.1032 111.398 25.1555 111.251 25.2603 111.131C25.3688 111.011 25.5279 110.951 25.7373 110.951C25.9428 110.951 26.0999 111.011 26.2085 111.131C26.321 111.251 26.3772 111.398 26.3772 111.572C26.3772 111.738 26.321 111.881 26.2085 112.001C26.0999 112.118 25.9428 112.176 25.7373 112.176C25.5279 112.176 25.3688 112.118 25.2603 112.001C25.1555 111.881 25.1032 111.738 25.1032 111.572Z" fill="#F0A538"/>
<path d="M29.9085 118.551L31.6305 113.238H32.73L30.467 119.521H29.7456L29.9085 118.551ZM28.4715 113.238L30.2459 118.58L30.3681 119.521H29.6467L27.3662 113.238H28.4715Z" fill="#F0A538"/>
<path d="M34.9348 113.238V119.521H33.8528V113.238H34.9348ZM33.7713 111.572C33.7713 111.398 33.8237 111.251 33.9284 111.131C34.037 111.011 34.196 110.951 34.4054 110.951C34.611 110.951 34.7681 111.011 34.8767 111.131C34.9891 111.251 35.0454 111.398 35.0454 111.572C35.0454 111.738 34.9891 111.881 34.8767 112.001C34.7681 112.118 34.611 112.176 34.4054 112.176C34.196 112.176 34.037 112.118 33.9284 112.001C33.8237 111.881 33.7713 111.738 33.7713 111.572Z" fill="#F0A538"/>
<path d="M37.7389 114.579V119.521H36.6626V113.238H37.6807L37.7389 114.579ZM37.4829 116.141L37.035 116.124C37.0427 115.547 37.1533 115.034 37.3666 114.585C37.5799 114.132 37.8766 113.776 38.2566 113.517C38.6406 113.254 39.0866 113.122 39.5947 113.122C40.0097 113.122 40.3665 113.198 40.6651 113.349C40.9676 113.5 41.2003 113.743 41.3632 114.08C41.53 114.413 41.6134 114.854 41.6134 115.404V119.521H40.5313V115.392C40.5313 115.063 40.4828 114.8 40.3859 114.603C40.2889 114.401 40.1474 114.256 39.9612 114.167C39.775 114.074 39.5462 114.028 39.2747 114.028C39.0071 114.028 38.7628 114.084 38.5417 114.196C38.3245 114.309 38.1364 114.463 37.9774 114.661C37.8223 114.858 37.7001 115.085 37.6109 115.34C37.5256 115.592 37.4829 115.859 37.4829 116.141Z" fill="#F0A538"/>
<path d="M47.3262 113.238H48.3035V119.387C48.3035 119.941 48.1911 120.413 47.9661 120.804C47.7412 121.195 47.427 121.491 47.0237 121.692C46.6242 121.897 46.1627 122 45.6391 122C45.4219 122 45.1659 121.965 44.8712 121.895C44.5803 121.83 44.2933 121.715 44.0102 121.553C43.731 121.394 43.4963 121.179 43.3063 120.908L43.8706 120.27C44.1343 120.587 44.4097 120.808 44.6967 120.932C44.9875 121.056 45.2745 121.117 45.5577 121.117C46.0657 121.117 46.471 120.974 46.7735 120.688C47.076 120.405 47.2273 119.989 47.2273 119.439V114.62L47.3262 113.238ZM42.9921 116.449V116.327C42.9921 115.689 43.093 115.129 43.2946 114.649C43.4963 114.165 43.7814 113.79 44.1498 113.523C44.5221 113.256 44.9643 113.122 45.4762 113.122C45.8718 113.122 46.217 113.192 46.5117 113.331C46.8104 113.467 47.0625 113.666 47.268 113.929C47.4775 114.189 47.6423 114.502 47.7625 114.87C47.8827 115.238 47.9661 115.654 48.0127 116.118V116.652C47.9545 117.264 47.8265 117.794 47.6287 118.243C47.4309 118.688 47.1536 119.033 46.7968 119.277C46.44 119.517 45.9959 119.637 45.4646 119.637C44.9604 119.637 44.5221 119.499 44.1498 119.225C43.7814 118.946 43.4963 118.567 43.2946 118.087C43.093 117.607 42.9921 117.061 42.9921 116.449ZM44.0684 116.327V116.449C44.0684 116.863 44.1246 117.245 44.2371 117.593C44.3534 117.937 44.5338 118.212 44.7781 118.417C45.0224 118.623 45.3385 118.725 45.7264 118.725C46.0832 118.725 46.3779 118.65 46.6106 118.499C46.8433 118.348 47.0276 118.148 47.1633 117.901C47.3029 117.653 47.4115 117.384 47.4891 117.094V115.694C47.4464 115.481 47.3805 115.276 47.2913 115.079C47.206 114.878 47.0935 114.699 46.9539 114.545C46.8181 114.386 46.6494 114.26 46.4477 114.167C46.2461 114.074 46.0095 114.028 45.738 114.028C45.3463 114.028 45.0263 114.132 44.7781 114.341C44.5338 114.55 44.3534 114.829 44.2371 115.178C44.1246 115.526 44.0684 115.909 44.0684 116.327Z" fill="#F0A538"/>
<path d="M57.8152 117.384C57.8152 117.121 57.759 116.896 57.6465 116.71C57.534 116.525 57.3324 116.356 57.0415 116.205C56.7506 116.054 56.3376 115.901 55.8024 115.747C55.2439 115.584 54.7591 115.392 54.348 115.172C53.9369 114.951 53.6188 114.686 53.3939 114.376C53.1689 114.063 53.0565 113.687 53.0565 113.25C53.0565 112.812 53.1748 112.421 53.4114 112.077C53.6518 111.729 53.9873 111.454 54.4178 111.252C54.8522 111.051 55.3583 110.951 55.9362 110.951C56.5722 110.951 57.1113 111.072 57.5534 111.316C57.9995 111.556 58.3388 111.872 58.5715 112.263C58.8042 112.65 58.9206 113.064 58.9206 113.505H57.8036C57.8036 113.188 57.7357 112.907 57.6 112.663C57.4642 112.416 57.2587 112.222 56.9833 112.083C56.708 111.94 56.3589 111.868 55.9362 111.868C55.5367 111.868 55.207 111.928 54.9472 112.048C54.6873 112.168 54.4934 112.33 54.3654 112.536C54.2413 112.741 54.1793 112.975 54.1793 113.238C54.1793 113.474 54.2471 113.683 54.3829 113.865C54.5225 114.047 54.7377 114.212 55.0286 114.359C55.3195 114.506 55.6976 114.643 56.163 114.771C56.803 114.953 57.3285 115.162 57.7396 115.398C58.1507 115.634 58.4532 115.913 58.6471 116.234C58.8449 116.556 58.9438 116.935 58.9438 117.372C58.9438 117.829 58.8217 118.228 58.5773 118.568C58.333 118.909 57.9898 119.172 57.5476 119.358C57.1055 119.544 56.5858 119.637 55.9885 119.637C55.5968 119.637 55.2109 119.583 54.8308 119.474C54.4546 119.366 54.1114 119.203 53.8011 118.987C53.4947 118.77 53.2485 118.503 53.0623 118.185C52.88 117.864 52.7889 117.492 52.7889 117.07H53.9058C53.9058 117.361 53.9621 117.61 54.0745 117.819C54.187 118.025 54.3402 118.195 54.5341 118.33C54.7319 118.466 54.9549 118.567 55.2032 118.632C55.4552 118.694 55.717 118.725 55.9885 118.725C56.3802 118.725 56.7118 118.671 56.9833 118.563C57.2548 118.454 57.4604 118.299 57.6 118.098C57.7435 117.897 57.8152 117.659 57.8152 117.384Z" fill="#F0A538"/>
<path d="M59.927 116.449V116.316C59.927 115.708 60.0433 115.164 60.2761 114.684C60.5088 114.204 60.8384 113.825 61.265 113.546C61.6917 113.263 62.1978 113.122 62.7834 113.122C63.3768 113.122 63.8868 113.263 64.3134 113.546C64.7439 113.825 65.0755 114.204 65.3082 114.684C65.5409 115.164 65.6573 115.708 65.6573 116.316V116.449C65.6573 117.053 65.5409 117.597 65.3082 118.081C65.0755 118.561 64.7459 118.94 64.3192 119.219C63.8926 119.497 63.3846 119.637 62.795 119.637C62.2055 119.637 61.6955 119.497 61.265 119.219C60.8384 118.94 60.5088 118.561 60.2761 118.081C60.0433 117.597 59.927 117.053 59.927 116.449ZM61.0032 116.316V116.449C61.0032 116.863 61.0692 117.247 61.201 117.599C61.3329 117.947 61.5307 118.228 61.7944 118.441C62.062 118.65 62.3956 118.754 62.795 118.754C63.1906 118.754 63.5203 118.65 63.784 118.441C64.0478 118.228 64.2456 117.947 64.3774 117.599C64.5093 117.247 64.5752 116.863 64.5752 116.449V116.316C64.5752 115.905 64.5073 115.526 64.3716 115.178C64.2397 114.825 64.0419 114.543 63.7782 114.33C63.5145 114.113 63.1829 114.005 62.7834 114.005C62.3878 114.005 62.0582 114.113 61.7944 114.33C61.5307 114.543 61.3329 114.825 61.201 115.178C61.0692 115.526 61.0032 115.905 61.0032 116.316Z" fill="#F0A538"/>
<path d="M68.1763 110.602V119.521H67.0942V110.602H68.1763Z" fill="#F0A538"/>
<path d="M73.7553 118.069V113.238H74.8374V119.521H73.8077L73.7553 118.069ZM73.9589 116.745L74.4069 116.734C74.4069 117.291 74.3274 117.788 74.1684 118.226C74.0093 118.663 73.7495 119.008 73.3888 119.259C73.0281 119.511 72.5472 119.637 71.946 119.637C71.3294 119.637 70.831 119.455 70.4509 119.091C70.0709 118.727 69.8808 118.127 69.8808 117.291V113.238H70.9571V117.303C70.9571 117.678 71.0114 117.97 71.12 118.179C71.2324 118.385 71.3779 118.528 71.5563 118.609C71.7347 118.687 71.9208 118.725 72.1148 118.725C72.5724 118.725 72.935 118.638 73.2026 118.464C73.4702 118.286 73.6622 118.048 73.7786 117.75C73.8988 117.448 73.9589 117.113 73.9589 116.745Z" fill="#F0A538"/>
<path d="M79.1133 113.238V114.063H75.71V113.238H79.1133ZM76.8619 111.711H77.9381V117.965C77.9381 118.177 77.9711 118.338 78.037 118.447C78.1029 118.555 78.1883 118.627 78.293 118.661C78.3977 118.696 78.5102 118.714 78.6304 118.714C78.7196 118.714 78.8127 118.706 78.9096 118.69C79.0105 118.671 79.0861 118.656 79.1365 118.644L79.1423 119.521C79.057 119.548 78.9446 119.573 78.8049 119.596C78.6692 119.623 78.5044 119.637 78.3104 119.637C78.0467 119.637 77.8043 119.585 77.5832 119.48C77.3622 119.376 77.1857 119.201 77.0538 118.957C76.9259 118.71 76.8619 118.377 76.8619 117.959V111.711Z" fill="#F0A538"/>
<path d="M81.545 113.238V119.521H80.4629V113.238H81.545ZM80.3815 111.572C80.3815 111.398 80.4338 111.251 80.5386 111.131C80.6472 111.011 80.8062 110.951 81.0156 110.951C81.2211 110.951 81.3782 111.011 81.4868 111.131C81.5993 111.251 81.6555 111.398 81.6555 111.572C81.6555 111.738 81.5993 111.881 81.4868 112.001C81.3782 112.118 81.2211 112.176 81.0156 112.176C80.8062 112.176 80.6472 112.118 80.5386 112.001C80.4338 111.881 80.3815 111.738 80.3815 111.572Z" fill="#F0A538"/>
<path d="M82.9877 116.449V116.316C82.9877 115.708 83.1041 115.164 83.3368 114.684C83.5695 114.204 83.8992 113.825 84.3258 113.546C84.7524 113.263 85.2585 113.122 85.8442 113.122C86.4376 113.122 86.9476 113.263 87.3742 113.546C87.8047 113.825 88.1363 114.204 88.369 114.684C88.6017 115.164 88.718 115.708 88.718 116.316V116.449C88.718 117.053 88.6017 117.597 88.369 118.081C88.1363 118.561 87.8066 118.94 87.38 119.219C86.9534 119.497 86.4453 119.637 85.8558 119.637C85.2663 119.637 84.7563 119.497 84.3258 119.219C83.8992 118.94 83.5695 118.561 83.3368 118.081C83.1041 117.597 82.9877 117.053 82.9877 116.449ZM84.064 116.316V116.449C84.064 116.863 84.1299 117.247 84.2618 117.599C84.3937 117.947 84.5915 118.228 84.8552 118.441C85.1228 118.65 85.4563 118.754 85.8558 118.754C86.2514 118.754 86.5811 118.65 86.8448 118.441C87.1085 118.228 87.3063 117.947 87.4382 117.599C87.57 117.247 87.636 116.863 87.636 116.449V116.316C87.636 115.905 87.5681 115.526 87.4324 115.178C87.3005 114.825 87.1027 114.543 86.839 114.33C86.5752 114.113 86.2436 114.005 85.8442 114.005C85.4486 114.005 85.1189 114.113 84.8552 114.33C84.5915 114.543 84.3937 114.825 84.2618 115.178C84.1299 115.526 84.064 115.905 84.064 116.316Z" fill="#F0A538"/>
<path d="M91.144 114.579V119.521H90.0677V113.238H91.0858L91.144 114.579ZM90.888 116.141L90.44 116.124C90.4478 115.547 90.5583 115.034 90.7716 114.585C90.9849 114.132 91.2816 113.776 91.6617 113.517C92.0457 113.254 92.4917 113.122 92.9997 113.122C93.4147 113.122 93.7715 113.198 94.0702 113.349C94.3727 113.5 94.6054 113.743 94.7683 114.08C94.935 114.413 95.0184 114.854 95.0184 115.404V119.521H93.9364V115.392C93.9364 115.063 93.8879 114.8 93.7909 114.603C93.694 114.401 93.5524 114.256 93.3662 114.167C93.1801 114.074 92.9513 114.028 92.6798 114.028C92.4122 114.028 92.1678 114.084 91.9468 114.196C91.7296 114.309 91.5415 114.463 91.3825 114.661C91.2273 114.858 91.1052 115.085 91.016 115.34C90.9306 115.592 90.888 115.859 90.888 116.141Z" fill="#F0A538"/>
<path d="M100.318 117.854C100.318 117.699 100.283 117.556 100.214 117.425C100.148 117.289 100.01 117.167 99.8005 117.059C99.5949 116.947 99.2846 116.85 98.8697 116.768C98.4042 116.672 98.0009 116.548 97.6596 116.397C97.3222 116.246 97.0604 116.054 96.8742 115.822C96.6919 115.59 96.6008 115.301 96.6008 114.957C96.6008 114.624 96.6958 114.32 96.8859 114.045C97.0798 113.767 97.3513 113.544 97.7003 113.378C98.0533 113.207 98.4644 113.122 98.9336 113.122C99.4378 113.122 99.8683 113.211 100.225 113.389C100.582 113.567 100.855 113.805 101.045 114.103C101.235 114.398 101.33 114.725 101.33 115.085H100.254C100.254 114.825 100.14 114.581 99.911 114.353C99.686 114.121 99.3603 114.005 98.9336 114.005C98.635 114.005 98.3926 114.051 98.2065 114.144C98.0242 114.233 97.8904 114.347 97.805 114.487C97.7236 114.626 97.6829 114.773 97.6829 114.928C97.6829 115.083 97.7216 115.216 97.7992 115.329C97.8768 115.441 98.0183 115.541 98.2239 115.63C98.4333 115.719 98.7358 115.808 99.1314 115.898C99.6473 116.014 100.072 116.153 100.405 116.316C100.739 116.478 100.987 116.678 101.15 116.914C101.313 117.15 101.394 117.436 101.394 117.773C101.394 118.141 101.294 118.466 101.092 118.748C100.89 119.027 100.607 119.246 100.243 119.405C99.878 119.559 99.4514 119.637 98.9627 119.637C98.4081 119.637 97.9388 119.538 97.5549 119.341C97.1709 119.143 96.88 118.888 96.6823 118.574C96.4845 118.261 96.3856 117.93 96.3856 117.581H97.4676C97.4831 117.876 97.5685 118.11 97.7236 118.284C97.8787 118.454 98.0688 118.576 98.2937 118.65C98.5187 118.719 98.7417 118.754 98.9627 118.754C99.2575 118.754 99.5038 118.716 99.7016 118.638C99.9032 118.561 100.056 118.454 100.161 118.319C100.266 118.183 100.318 118.028 100.318 117.854Z" fill="#F0A538"/>
<path d="M67.3042 49.3752V75.9064C68.211 76.0392 69.1063 76.2464 69.9858 76.5069V53.1314L71.0342 53.8481V76.8543C71.3141 76.9548 71.5961 77.0479 71.8707 77.1598C72.0374 77.1985 72.1999 77.2519 72.3666 77.2959C72.5039 77.2833 72.6454 77.2624 72.7817 77.2519V55.0399L73.83 55.7566V77.1933C74.4202 77.1713 75.0021 77.1713 75.5776 77.1902V56.9494L76.6259 57.6661V77.2498C77.213 77.2948 77.7958 77.3565 78.3735 77.4423V58.8578L79.4218 59.5746V77.615C80.0068 77.7248 80.5875 77.8609 81.1683 78.0105V60.7673L82.2166 61.4841V78.3003C82.7985 78.4719 83.3792 78.6581 83.9631 78.8643V62.6768L85.0115 63.3925V79.2556C85.5912 79.4795 86.172 79.7222 86.759 79.9775V63.0399L67.3042 49.3752Z" fill="#0C0A0A"/>
<path d="M44.9761 8.24699V27.815H45.8515V10.4045L46.8998 9.87086V27.815H48.6474V8.9794L49.6957 8.44579V27.815H51.4433V7.55643L52.4916 7.02176V27.815H54.2381V6.13345L55.2864 5.59879V27.815H57.0329V4.70838L58.0812 4.17581V27.815H59.8288V3.2854L60.8771 2.75074V27.815H61.7074V0L44.9761 8.24699Z" fill="#0C0A0A"/>
<path d="M45.8515 76.9034V29.8175L46.8998 29.2285V76.6732C47.4816 76.5466 48.0645 76.4263 48.6473 76.3112V28.246L49.6957 27.6569V76.1061C50.2785 75.9994 50.8593 75.9032 51.4432 75.8142V26.6755L52.4916 26.0864V75.6719C53.0734 75.5955 53.6552 75.5286 54.2381 75.4742V25.105L55.2864 24.5159V75.3748C55.8693 75.3329 56.4511 75.3057 57.0329 75.2921V23.5345L58.0812 22.9443V75.2911C58.6651 75.2932 59.247 75.312 59.8288 75.3455V21.9629L60.8771 21.3738V75.4114C61.461 75.4668 62.0428 75.5422 62.6247 75.6322V20.3924L63.673 19.8033V75.7357C64.2548 75.7106 64.8377 75.7075 65.4195 75.7347V18.8229L66.4678 18.2339V75.8174C67.1136 75.8833 67.7562 75.9795 68.3915 76.1093V12.8987L38.2501 31.2583V78.8014C38.336 78.7774 38.4157 78.7439 38.5027 78.723C39.0866 78.5754 39.6726 78.4269 40.2618 78.2772V32.9585L41.3101 32.3695V78.0104C41.8909 77.8629 42.4727 77.7185 43.0566 77.5731V31.387L44.105 30.7979V77.3146C44.6868 77.1744 45.2675 77.0363 45.8515 76.9034Z" fill="#F0A538"/>
</svg>
