<svg width="56" height="56" viewBox="0 0 56 56" fill="none" xmlns="http://www.w3.org/2000/svg">
<path d="M27.6766 44.8561L48.6456 8.68302C49.3941 7.39169 48.9193 5.76736 47.5778 5.02984C46.2604 4.30555 44.5776 4.69697 43.7593 5.91807L20.0953 41.2275C19.2162 42.5393 17.4086 42.9598 15.9934 42.1816C14.1166 41.1498 14.3974 39.3112 15.0402 37.6771C15.654 36.1171 14.9934 34.3631 13.4782 33.5301C11.4676 32.4248 9.404 33.434 8.33258 35.201C5.25548 40.276 7.82457 47.4946 12.7952 50.2274C18.0855 53.1357 24.7245 49.9486 27.6766 44.8561Z" stroke="#FF6600" stroke-width="1.5" stroke-linecap="round" stroke-linejoin="round"/>
<path d="M43.1668 51.3334C46.3885 51.3334 49.0002 48.7217 49.0002 45.5001C49.0002 42.2784 46.3885 39.6667 43.1668 39.6667C39.9452 39.6667 37.3335 42.2784 37.3335 45.5001C37.3335 48.7217 39.9452 51.3334 43.1668 51.3334Z" stroke="#FF6600" stroke-width="1.5" stroke-linejoin="round"/>
<path d="M37.3335 16.3333L42.0002 19.8333" stroke="#FF6600" stroke-width="1.5" stroke-linecap="round" stroke-linejoin="round"/>
</svg>
