<svg width="56" height="56" viewBox="0 0 56 56" fill="none" xmlns="http://www.w3.org/2000/svg">
<path d="M42 7V18.6667M14 7V18.6667" stroke="#FF6600" stroke-width="1.5" stroke-linecap="round" stroke-linejoin="round"/>
<path d="M47.8332 9.33325V12.8333M47.8332 12.8333V16.3333M47.8332 12.8333H51.3332M8.1665 9.33325V12.8333M8.1665 12.8333V16.3333M8.1665 12.8333H4.6665" stroke="#FF6600" stroke-width="1.5" stroke-linecap="round" stroke-linejoin="round"/>
<path d="M42 12.8333H14" stroke="#FF6600" stroke-width="1.5" stroke-linecap="round" stroke-linejoin="round"/>
<path d="M16.9784 44.3333H39.0213C41.9088 44.3333 43.3525 44.3332 43.9496 43.6272C45.3045 42.0249 42.7087 39.9072 41.7616 38.8397C40.6943 37.6371 39.9136 37.3333 38.3363 37.3333H17.6635C16.086 37.3333 15.3054 37.6371 14.2382 38.8397C13.2909 39.9072 10.6952 42.0249 12.0502 43.6272C12.6471 44.3332 14.0909 44.3333 16.9784 44.3333Z" stroke="#FF6600" stroke-width="1.5" stroke-linecap="round" stroke-linejoin="round"/>
<path d="M21 18.6667V37.3334M35 18.6667V37.3334" stroke="#FF6600" stroke-width="1.5" stroke-linecap="round" stroke-linejoin="round"/>
<path d="M37.3332 44.3333V48.9999M18.6665 44.3333V48.9999" stroke="#FF6600" stroke-width="1.5" stroke-linecap="round" stroke-linejoin="round"/>
</svg>
