<svg width="57" height="56" viewBox="0 0 57 56" fill="none" xmlns="http://www.w3.org/2000/svg">
<path fill-rule="evenodd" clip-rule="evenodd" d="M10.5366 5.53224H6.06341C3.91763 5.53224 2.17822 3.79283 2.17822 1.64705C2.17822 1.22254 2.52235 0.878418 2.94685 0.878418H18.4811C20.9017 0.878418 22.9407 2.52449 23.5389 4.75735C24.7604 4.7848 26.025 4.91525 27.2102 5.21381C30.4037 6.01823 33.1675 6.78576 36.3177 10.7954C37.2318 11.9588 38.2719 13.6955 39.1136 15.2065L40.1867 14.796C40.844 14.5445 41.5861 14.8137 41.9291 15.4281L46.0749 22.853C46.2753 23.2119 46.3097 23.64 46.1696 24.0263C46.0294 24.4127 45.7283 24.719 45.3445 24.8659L39.4595 27.1173C39.0756 27.2641 38.647 27.237 38.2847 27.0428C37.9225 26.8487 37.6625 26.5069 37.5721 26.1059L35.7036 17.8099C35.549 17.1234 35.9218 16.4275 36.579 16.1762L37.663 15.7615C36.8807 14.3659 35.9421 12.8054 35.1089 11.7451C32.2516 8.10835 29.7312 7.43415 26.8348 6.7045C25.8271 6.45075 24.7563 6.3337 23.7135 6.29988C23.6571 7.91213 22.8702 9.34002 21.674 10.2625V12.8291H23.1424C26.7132 12.8291 29.608 15.7239 29.608 19.2947V53.0581C29.608 54.1978 28.6842 55.1216 27.5447 55.1216H9.41759C8.27794 55.1216 7.35416 54.1978 7.35416 53.0581V19.2947C7.35416 15.7239 10.2489 12.8291 13.8197 12.8291H15.2882V10.2625C14.7944 9.88168 14.3703 9.41469 14.0386 8.88422L9.9732 11.2313C8.11499 12.3042 5.73883 11.6674 4.66605 9.80921C4.4538 9.44159 4.57974 8.97152 4.94737 8.75927L10.5366 5.53224ZM14.7767 2.41567C10.4404 2.41567 3.84417 2.41567 3.84417 2.41567C4.16249 3.33495 5.03587 3.99498 6.06341 3.99498H13.6927C13.9555 3.4027 14.325 2.86817 14.7767 2.41567ZM20.1368 11.0821C19.6163 11.2557 19.0596 11.3496 18.4811 11.3496C17.9026 11.3496 17.3459 11.2557 16.8254 11.0821V12.8291H20.1368V11.0821ZM13.4218 7.46523C13.3069 7.03414 13.2455 6.58119 13.2455 6.11398C13.2455 5.98672 13.2501 5.86055 13.259 5.73559C11.5802 6.70483 6.49308 9.64187 6.49308 9.64187C7.22832 10.2788 8.31472 10.4138 9.20458 9.90002L13.4218 7.46523ZM18.4811 2.41567C16.4399 2.41567 14.7827 4.07283 14.7827 6.11398C14.7827 8.15523 16.4399 9.81239 18.4811 9.81239C20.5223 9.81239 22.1794 8.15523 22.1794 6.11398C22.1794 4.07283 20.5223 2.41567 18.4811 2.41567ZM37.2263 17.5744L39.041 25.6315L44.6643 23.4801L40.638 16.2692L37.2263 17.5744ZM28.0708 23.7171V19.2947C28.0708 16.5729 25.8642 14.3664 23.1424 14.3664H13.8197C11.0979 14.3664 8.89141 16.5729 8.89141 19.2947V23.7171H28.0708ZM28.0708 42.6964V25.2543H8.89141V42.6964H28.0708ZM28.0708 49.9422V44.2336H8.89141V49.9422H28.0708ZM8.89141 51.4795V53.0581C8.89141 53.3488 9.12694 53.5843 9.41759 53.5843H27.5447C27.8352 53.5843 28.0708 53.3488 28.0708 53.0581V51.4795H8.89141ZM51.3546 41.0235C51.7338 40.6984 52.0867 40.3131 52.6006 39.7198C52.7772 39.516 53.0475 39.4196 53.3131 39.4658C53.5789 39.5119 53.8009 39.6939 53.8983 39.9453C55.3191 43.6117 55.0559 47.2357 53.4139 49.9313C51.7579 52.6501 48.6972 54.4623 44.4498 54.409C41.7669 54.3755 39.6948 53.4474 38.2343 51.9747C36.0744 49.7968 35.246 46.3849 35.874 42.7751V42.7748C36.4771 39.3175 37.7401 37.6039 38.9328 34.4705C39.0056 34.2795 39.1514 34.1253 39.3381 34.0419C39.5248 33.9587 39.737 33.9532 39.9277 34.0268C41.0491 34.4592 41.686 34.837 42.2022 35.4406C43.701 33.2634 44.057 31.0597 44.4004 28.6724C44.4399 28.3973 44.6249 28.165 44.884 28.0649C45.1433 27.9646 45.4364 28.0122 45.6507 28.1892C49.9975 31.7801 51.6099 36.0888 51.3546 41.0235ZM49.6797 42.4723C50.2815 37.8111 49.2378 33.721 45.7047 30.2975C45.2924 32.7202 44.6429 34.9811 42.7587 37.2481C42.597 37.4426 42.35 37.5451 42.0981 37.5223C41.8462 37.4995 41.6218 37.3541 41.4977 37.1337C41.1146 36.4528 40.7518 36.0945 40.0743 35.761C39.0096 38.3393 37.9221 39.9795 37.3884 43.0387C36.8536 46.1131 37.4861 49.0373 39.3258 50.8922C40.5315 52.108 42.254 52.8442 44.469 52.8719C48.0718 52.917 50.6964 51.4376 52.1011 49.1316C53.3383 47.1006 53.6279 44.4576 52.8678 41.7138C52.2577 42.3364 51.7545 42.7009 50.8261 43.2364C50.573 43.3824 50.2588 43.3723 50.0157 43.2101C49.7725 43.0481 49.6423 42.7621 49.6797 42.4723ZM46.3268 41.4804C46.9624 43.3243 47.2927 43.855 48.0808 45.0477C48.9137 46.3069 48.913 47.6539 48.3492 48.6782C47.7881 49.6979 46.6503 50.4318 45.104 50.4113C42.6963 50.3795 41.3293 48.0894 41.8629 45.831C42.1229 44.727 42.6796 43.9098 43.3236 43.1714C43.8713 42.5434 44.4877 41.9805 44.9702 41.2903C45.1358 41.0535 45.4204 40.9295 45.7067 40.9697C45.993 41.0098 46.2325 41.2071 46.3268 41.4804ZM45.3405 43.2467C45.0539 43.5579 44.7605 43.8626 44.4822 44.1817C43.9951 44.7403 43.5557 45.3485 43.3591 46.1837L43.359 46.1844C43.053 47.4793 43.7437 48.8559 45.1243 48.8742C46.0065 48.8859 46.6823 48.5188 47.0025 47.937C47.3202 47.3598 47.268 46.6054 46.7986 45.8957L46.7985 45.8954C46.1467 44.909 45.78 44.3354 45.3405 43.2467Z" fill="#FF6600"/>
</svg>
