<svg width="56" height="56" viewBox="0 0 56 56" fill="none" xmlns="http://www.w3.org/2000/svg">
<g clip-path="url(#clip0_46_521)">
<path fill-rule="evenodd" clip-rule="evenodd" d="M11.0557 19.5525C10.5636 19.5525 10.1699 19.1588 10.1699 18.6667V17.6825C8.72644 17.2889 7.67665 15.9766 7.67665 14.4347C7.67665 13.9426 8.07032 13.549 8.56241 13.549C9.0545 13.549 9.44818 13.9426 9.44818 14.4347C9.44818 15.3205 10.1699 16.0422 11.0557 16.0422C11.9414 16.0422 12.6632 15.3205 12.6632 14.4347C12.6632 13.2865 12.2039 13.1225 10.8588 12.7944C9.5794 12.4992 7.67665 12.0399 7.67665 9.4482C7.67665 7.90631 8.72644 6.59407 10.1699 6.20039V5.21621C10.1699 4.72412 10.5636 4.33045 11.0557 4.33045C11.5478 4.33045 11.9414 4.72412 11.9414 5.21621V6.20039C13.3521 6.59407 14.4019 7.90631 14.4019 9.4482C14.4019 9.94029 14.041 10.334 13.5489 10.334C13.0568 10.334 12.6632 9.94029 12.6632 9.4482C12.6632 8.56243 11.9414 7.8407 11.0557 7.8407C10.1699 7.8407 9.44818 8.56243 9.44818 9.4482C9.44818 10.5964 9.90746 10.7604 11.2525 11.0885C12.4991 11.3838 14.4019 11.843 14.4019 14.4347C14.4019 15.9766 13.3521 17.2889 11.9414 17.6825V18.6667C11.9414 19.1588 11.5478 19.5525 11.0557 19.5525ZM55.1143 54.7534H1.4763C0.984206 54.7534 0.590532 54.3925 0.590532 53.9004V50.2918C0.590532 49.7997 0.984206 49.406 1.4763 49.406H2.91976V36.1524L1.5091 37.5958C1.14824 37.9239 0.590532 37.9239 0.262472 37.5958C-0.0983955 37.235 -0.0983955 36.7101 0.262472 36.3492L13.3849 23.2268C13.713 22.8987 14.3035 22.8987 14.6315 23.2268L19.5525 28.1477V25.9169C19.5525 25.0967 20.2414 24.4078 21.0615 24.4078H22.9971C23.8172 24.4078 24.5062 25.0967 24.5062 25.9169V33.1014L27.754 36.3492C28.082 36.7101 28.082 37.235 27.754 37.5958C27.5899 37.7599 27.3603 37.8583 27.1307 37.8583C26.901 37.8583 26.6714 37.7599 26.5073 37.5958L25.0967 36.1524V49.406H28.5085V6.72529C28.5085 6.2332 28.9022 5.87233 29.3943 5.87233H52.785C53.2771 5.87233 53.6708 6.2332 53.6708 6.72529V49.406H55.1143C55.6063 49.406 56 49.7997 56 50.2918V53.9004C56 54.3925 55.6063 54.7534 55.1143 54.7534ZM2.36206 53.0147H54.2285V51.1447H52.785H47.536H41.1061H34.6433H29.3943H24.2109H17.5513H10.4324H3.80553H2.36206V53.0147ZM4.65849 34.4136V49.406H9.5794V42.1559C9.5794 40.8764 10.5964 39.8266 11.8758 39.8266H16.1406C17.4201 39.8266 18.437 40.8764 18.437 42.1559V49.406H23.3252V34.4136L23.0299 34.0856H22.9971L19.8149 30.9034V30.8706L14.0082 25.0967L4.65849 34.4136ZM11.3181 49.406H16.6983V42.1559C16.6983 41.8278 16.4359 41.5982 16.1406 41.5982H11.8758C11.5806 41.5982 11.3181 41.8278 11.3181 42.1559V49.406ZM21.2912 29.9192L22.7675 31.3627V26.1793H21.2912V29.9192ZM14.0082 36.1195C12.2039 36.1195 10.7604 34.6433 10.7604 32.8717C10.7604 31.0674 12.2039 29.6239 14.0082 29.6239C15.7798 29.6239 17.256 31.0674 17.256 32.8717C17.256 34.6433 15.7798 36.1195 14.0082 36.1195ZM14.0082 31.3627C13.1881 31.3627 12.4991 32.0516 12.4991 32.8717C12.4991 33.6919 13.1881 34.348 14.0082 34.348C14.8284 34.348 15.4845 33.6919 15.4845 32.8717C15.4845 32.0516 14.8284 31.3627 14.0082 31.3627ZM30.28 49.406H33.7575V38.0551C33.7575 37.563 34.1512 37.1693 34.6433 37.1693H41.1061H47.536C48.0281 37.1693 48.4218 37.563 48.4218 38.0551V49.406H51.8993V7.61105H30.28V49.406ZM35.4962 49.406H40.2203V38.9081H35.4962V49.406ZM41.959 49.406H46.6831V38.9081H41.959V49.406ZM42.9432 14.5003H39.2361C38.744 14.5003 38.3831 14.1067 38.3831 13.6146V9.94029C38.3831 9.4482 38.744 9.05452 39.2361 9.05452H42.9432C43.4353 9.05452 43.829 9.4482 43.829 9.94029V13.6146C43.829 14.1067 43.4353 14.5003 42.9432 14.5003ZM40.1219 12.7616H42.0574V10.7932H40.1219V12.7616ZM36.2836 14.5003H32.6093C32.1172 14.5003 31.7235 14.1067 31.7235 13.6146V9.94029C31.7235 9.4482 32.1172 9.05452 32.6093 9.05452H36.2836C36.7757 9.05452 37.1693 9.4482 37.1693 9.94029V13.6146C37.1693 14.1067 36.7757 14.5003 36.2836 14.5003ZM33.4622 12.7616H35.4306V10.7932H33.4622V12.7616ZM49.57 14.5003H45.8957C45.4037 14.5003 45.01 14.1067 45.01 13.6146V9.94029C45.01 9.4482 45.4037 9.05452 45.8957 9.05452H49.57C50.0621 9.05452 50.4558 9.4482 50.4558 9.94029V13.6146C50.4558 14.1067 50.0621 14.5003 49.57 14.5003ZM46.7487 12.7616H48.7171V10.7932H46.7487V12.7616ZM42.9432 21.3896H39.2361C38.744 21.3896 38.3831 20.9959 38.3831 20.5367V16.8296C38.3831 16.3375 38.744 15.9438 39.2361 15.9438H42.9432C43.4353 15.9438 43.829 16.3375 43.829 16.8296V20.5367C43.829 20.9959 43.4353 21.3896 42.9432 21.3896ZM40.1219 19.6509H42.0574V17.6825H40.1219V19.6509ZM36.2836 21.3896H32.6093C32.1172 21.3896 31.7235 20.9959 31.7235 20.5367V16.8296C31.7235 16.3375 32.1172 15.9438 32.6093 15.9438H36.2836C36.7757 15.9438 37.1693 16.3375 37.1693 16.8296V20.5367C37.1693 20.9959 36.7757 21.3896 36.2836 21.3896ZM33.4622 19.6509H35.4306V17.6825H33.4622V19.6509ZM49.57 21.3896H45.8957C45.4037 21.3896 45.01 20.9959 45.01 20.5367V16.8296C45.01 16.3375 45.4037 15.9438 45.8957 15.9438H49.57C50.0621 15.9438 50.4558 16.3375 50.4558 16.8296V20.5367C50.4558 20.9959 50.0621 21.3896 49.57 21.3896ZM46.7487 19.6509H48.7171V17.6825H46.7487V19.6509ZM42.9432 28.2789H39.2361C38.744 28.2789 38.3831 27.8852 38.3831 27.4259V23.7188C38.3831 23.2268 38.744 22.8331 39.2361 22.8331H42.9432C43.4353 22.8331 43.829 23.2268 43.829 23.7188V27.4259C43.829 27.8852 43.4353 28.2789 42.9432 28.2789ZM40.1219 26.5402H42.0574V24.6046H40.1219V26.5402ZM36.2836 28.2789H32.6093C32.1172 28.2789 31.7235 27.8852 31.7235 27.4259V23.7188C31.7235 23.2268 32.1172 22.8331 32.6093 22.8331H36.2836C36.7757 22.8331 37.1693 23.2268 37.1693 23.7188V27.4259C37.1693 27.8852 36.7757 28.2789 36.2836 28.2789ZM33.4622 26.5402H35.4306V24.6046H33.4622V26.5402ZM49.57 28.2789H45.8957C45.4037 28.2789 45.01 27.8852 45.01 27.4259V23.7188C45.01 23.2268 45.4037 22.8331 45.8957 22.8331H49.57C50.0621 22.8331 50.4558 23.2268 50.4558 23.7188V27.4259C50.4558 27.8852 50.0621 28.2789 49.57 28.2789ZM46.7487 26.5402H48.7171V24.6046H46.7487V26.5402ZM42.9432 35.201H39.2361C38.744 35.201 38.3831 34.8073 38.3831 34.3152V30.6081C38.3831 30.116 38.744 29.7552 39.2361 29.7552H42.9432C43.4353 29.7552 43.829 30.116 43.829 30.6081V34.3152C43.829 34.8073 43.4353 35.201 42.9432 35.201ZM40.1219 33.4294H42.0574V31.4939H40.1219V33.4294ZM36.2836 35.201H32.6093C32.1172 35.201 31.7235 34.8073 31.7235 34.3152V30.6081C31.7235 30.116 32.1172 29.7552 32.6093 29.7552H36.2836C36.7757 29.7552 37.1693 30.116 37.1693 30.6081V34.3152C37.1693 34.8073 36.7757 35.201 36.2836 35.201ZM33.4622 33.4294H35.4306V31.4939H33.4622V33.4294ZM49.57 35.201H45.8957C45.4037 35.201 45.01 34.8073 45.01 34.3152V30.6081C45.01 30.116 45.4037 29.7552 45.8957 29.7552H49.57C50.0621 29.7552 50.4558 30.116 50.4558 30.6081V34.3152C50.4558 34.8073 50.0621 35.201 49.57 35.201ZM46.7487 33.4294H48.7171V31.4939H46.7487V33.4294ZM11.0557 22.6362C5.15058 22.6362 0.328084 17.8466 0.328084 11.9415C0.328084 6.03636 5.15058 1.21387 11.0557 1.21387C16.9608 1.21387 21.7833 6.03636 21.7833 11.9415C21.7833 17.8466 16.9608 22.6362 11.0557 22.6362ZM11.0557 2.9854C6.10196 2.9854 2.09961 6.98774 2.09961 11.9415C2.09961 16.8952 6.10196 20.8975 11.0557 20.8975C16.0094 20.8975 20.0117 16.8952 20.0117 11.9415C20.0117 6.98774 16.0094 2.9854 11.0557 2.9854Z" fill="white"/>
</g>
<defs>
<clipPath id="clip0_46_521">
<rect width="56" height="56" fill="white"/>
</clipPath>
</defs>
</svg>
