<svg width="56" height="56" viewBox="0 0 56 56" fill="none" xmlns="http://www.w3.org/2000/svg">
<path d="M34.6584 28.1973C34.3865 28.1966 34.1306 28.3254 33.9692 28.5443C31.1725 32.3486 25.8213 33.1654 22.017 30.3688C20.529 29.2749 19.4352 27.7285 18.8994 25.9612C18.8189 25.5623 18.4678 25.2758 18.0609 25.2769H13.6802C13.2091 25.2769 12.8271 25.6588 12.8271 26.1299V31.4648H13.738C14.0061 31.465 14.2736 31.4876 14.538 31.5323V26.9925H17.4295C18.907 31.0423 22.7572 33.7374 27.0681 33.7395L27.0777 33.7443C30.19 33.7402 33.1316 32.3216 35.0728 29.8889H44.6198V28.1973H34.6584Z" fill="white"/>
<path d="M52.3884 11.1467C51.7253 10.4748 50.8217 10.0949 49.8776 10.0913C47.908 10.0913 46.3113 11.6879 46.3113 13.6576V33.3249C46.3166 35.287 47.9059 36.8763 49.868 36.8816L49.8776 36.8767C51.8396 36.8714 53.4289 35.2822 53.4342 33.3201V13.6576C53.4336 12.7148 53.0572 11.8112 52.3884 11.1467ZM51.7185 33.3249C51.7029 34.3328 50.8855 35.1437 49.8776 35.1514C48.8604 35.1461 48.0371 34.3229 48.0318 33.3057V13.6576C48.0371 12.6403 48.8604 11.8171 49.8776 11.8118C50.3664 11.8133 50.8346 12.0093 51.1788 12.3564C51.5248 12.7029 51.719 13.1726 51.7185 13.6624V33.3249Z" fill="white"/>
<path d="M33.2994 0.934936L33.2415 0.881924C32.6694 0.325059 31.905 0.00927707 31.1066 0H23.0584C22.2275 0.00506022 21.433 0.341685 20.8512 0.934936C19.6322 2.14746 19.627 4.11866 20.8395 5.33769C20.8434 5.34154 20.8474 5.34552 20.8512 5.34937L20.9091 5.40239C21.4924 5.94516 22.2617 6.24347 23.0584 6.23612H31.1066C31.9284 6.23491 32.7163 5.90925 33.2994 5.3301C34.5101 4.11516 34.5101 2.14987 33.2994 0.934936ZM32.1092 4.12022C32.1076 4.12191 32.1059 4.1236 32.1042 4.12528C31.8401 4.3907 31.4811 4.53986 31.1066 4.53974H23.0584C22.7004 4.5401 22.3558 4.40396 22.0946 4.15902L22.0609 4.12046C21.5099 3.57227 21.5076 2.68131 22.0558 2.13035C22.0575 2.12867 22.0592 2.12698 22.0609 2.12529C22.3249 1.85987 22.684 1.71072 23.0584 1.71084H31.1066C31.4647 1.71047 31.8092 1.84662 32.0705 2.09156L32.1042 2.13011C32.6551 2.6783 32.6574 3.56926 32.1092 4.12022Z" fill="white"/>
<path d="M35.0777 16.3131C34.2548 15.2177 33.2146 14.3038 32.0223 13.6287C30.7595 12.9526 29.3616 12.5673 27.9307 12.501V7.95166H26.2295V12.501C24.3216 12.7308 22.5098 13.4662 20.9814 14.6311C19.3887 15.8028 18.1633 17.4044 17.4489 19.248H11.0344C7.64155 19.2453 4.88434 21.9852 4.86578 25.3781V31.5323C5.13012 31.4876 5.39771 31.4651 5.66578 31.4648H6.5959V25.3781C6.60385 22.93 8.58637 20.9475 11.0344 20.9396H18.0609C18.4409 20.9394 18.775 20.6879 18.8802 20.3227C19.4345 18.5887 20.5309 17.0785 22.0079 16.0143C23.4628 14.8858 25.2374 14.2466 27.0777 14.1878C28.5091 14.1434 29.9277 14.4671 31.1982 15.1275C32.2824 15.7513 33.2169 16.605 33.9355 17.6287C34.0926 17.8758 34.3657 18.025 34.6584 18.0239H44.6198V16.3131H35.0777Z" fill="white"/>
<path d="M15.95 34.0865L15.8922 34.0335C15.3141 33.4784 14.5443 33.1677 13.7428 33.166H5.68502C4.85852 33.1673 4.06635 33.4966 3.48262 34.0817C2.26624 35.2894 2.25925 37.2544 3.46696 38.4708C3.47214 38.4761 3.47744 38.4813 3.48262 38.4865L3.4778 38.5009C4.0625 39.0876 4.85671 39.4171 5.68502 39.4166H13.7332C15.4579 39.4208 16.8594 38.0261 16.8638 36.3014C16.8657 35.4709 16.5369 34.674 15.95 34.0865ZM14.7241 37.2979C14.4598 37.5618 14.1017 37.7102 13.7284 37.7106H5.68502C5.31056 37.7107 4.95153 37.5615 4.68743 37.2961C4.13719 36.7449 4.13719 35.8521 4.68743 35.3009L4.68261 35.2961C4.94671 35.0307 5.30574 34.8815 5.6802 34.8817H13.7284C14.0864 34.8813 14.431 35.0175 14.6922 35.2624L14.7259 35.3009C15.2769 35.8529 15.2761 36.747 14.7241 37.2979Z" fill="white"/>
<path d="M11.314 43.2913C10.9429 42.8624 10.6055 42.4769 10.3742 42.1925C10.0808 41.8238 9.5442 41.7629 9.17553 42.0561C9.12504 42.0963 9.07938 42.142 9.03926 42.1925C8.81276 42.4769 8.47541 42.8672 8.10914 43.2913C6.43686 45.219 4.13326 47.8985 4.13326 50.2551C4.04266 53.336 6.46674 55.9068 9.54757 55.9974C12.6284 56.088 15.1992 53.6639 15.2898 50.5831C15.2931 50.4738 15.2931 50.3644 15.2898 50.2551C15.2898 47.8985 12.9814 45.2238 11.314 43.2913ZM12.4465 52.9828C10.9606 54.508 8.51974 54.5398 6.99457 53.054C6.24277 52.3216 5.82205 51.3144 5.82964 50.2648C5.82964 48.5347 7.89228 46.1443 9.38625 44.4142L9.6995 44.0528L10.0128 44.4142C11.5067 46.1443 13.5694 48.5347 13.5694 50.2648C13.5689 51.2836 13.1651 52.2608 12.4465 52.9828Z" fill="white"/>
</svg>
