<svg width="56" height="56" viewBox="0 0 56 56" fill="none" xmlns="http://www.w3.org/2000/svg">
<path d="M37.3335 23.3333L42.3488 24.8378C45.5529 25.7991 47.155 26.2798 48.0776 27.5197C49.0002 28.7597 49.0002 30.4324 49.0002 33.7775V51.3333" stroke="#FF6600" stroke-width="1.5" stroke-linejoin="round"/>
<path d="M18.6665 21H25.6665M18.6665 30.3333H25.6665" stroke="#FF6600" stroke-width="1.5" stroke-linecap="round" stroke-linejoin="round"/>
<path d="M28.0002 51.3334V44.3334C28.0002 42.1335 28.0002 41.0336 27.3167 40.3502C26.6333 39.6667 25.5334 39.6667 23.3335 39.6667H21.0002C18.8003 39.6667 17.7003 39.6667 17.0169 40.3502C16.3335 41.0336 16.3335 42.1335 16.3335 44.3334V51.3334" stroke="#FF6600" stroke-width="1.5" stroke-linejoin="round"/>
<path d="M4.6665 51.3333H51.3332" stroke="#FF6600" stroke-width="1.5" stroke-linecap="round"/>
<path d="M7 51.3334V15.6736C7 9.81523 7 6.88601 8.84609 5.43265C10.6922 3.97928 13.4106 4.76837 18.8475 6.34652L30.5142 9.73293C33.7951 10.6853 35.4356 11.1614 36.3844 12.4593C37.3333 13.7571 37.3333 15.5248 37.3333 19.0601V51.3334" stroke="#FF6600" stroke-width="1.5" stroke-linecap="round" stroke-linejoin="round"/>
</svg>
