<svg width="27" height="26" viewBox="0 0 27 26" fill="none" xmlns="http://www.w3.org/2000/svg">
<rect opacity="0.1" x="0.5" width="26" height="26" rx="10" fill="white"/>
<path fill-rule="evenodd" clip-rule="evenodd" d="M16.9996 9.56685L10.1012 14.1326L10.101 17.0845C10.1008 18.708 10.0881 20.2556 10.0727 20.5235C10.0536 20.8537 10.0589 21.0053 10.0891 20.9941C10.1135 20.985 13.199 17.4257 16.9458 13.0845C20.6926 8.74332 23.7977 5.14811 23.8461 5.09519C23.8946 5.04227 23.9261 4.99941 23.9161 5.00001C23.9061 5.00056 20.7937 7.05566 16.9996 9.56685Z" fill="#FF6600"/>
<path fill-rule="evenodd" clip-rule="evenodd" d="M8.15352 12.5393L10.1309 14.1335V18.2074C10.1309 19.3669 10.0933 20.472 10.0995 20.6634C10.1072 20.8992 10.1051 21.0074 10.0929 20.9994C10.083 20.9929 8.83504 18.4511 7.31965 15.3509C5.80425 12.2507 4.54836 9.68317 4.52877 9.64537C4.50918 9.60758 4.49645 9.57697 4.5005 9.5774C4.50453 9.57779 4.90616 9.87686 8.15352 12.5393Z" fill="#FF6600"/>
</svg>
