<svg width="140" height="140" viewBox="0 0 140 140" fill="none" xmlns="http://www.w3.org/2000/svg">
<mask id="mask0_185_2821" style="mask-type:luminance" maskUnits="userSpaceOnUse" x="0" y="0" width="140" height="140">
<path d="M0 0.000244141H140V140H0V0.000244141Z" fill="white"/>
</mask>
<g mask="url(#mask0_185_2821)">
<path d="M37.1875 74.3752L69.7812 44.4065L102.594 74.3752L105.656 71.094L69.7812 38.5002L34.125 71.094L37.1875 74.3752Z" fill="#FF6600"/>
<path d="M96.251 104.343V73.718H91.876V99.968H80.9385V80.4993H59.2822V99.968H47.9072V73.718H43.5322V104.343H63.6572V84.8743H76.5635V104.343H96.251Z" fill="#FF6600"/>
<path d="M85.9687 121.625C87.5 121.187 88.8125 120.531 90.125 119.875L88.1562 115.938C86.8437 116.594 85.5312 117.031 84.2188 117.469L85.9687 121.625Z" fill="#FF6600"/>
<path d="M92.0938 113.969L94.2812 117.687C95.5938 116.812 96.9063 116.156 98 115.062L95.5938 111.562C94.5 112.438 93.1875 113.094 92.0938 113.969Z" fill="#FF6600"/>
<path d="M66.9375 28.2185C65.4063 28.2185 63.875 28.4373 62.3438 28.656L63 33.031C64.3125 32.8123 65.8438 32.5935 67.1563 32.5935L66.9375 28.2185Z" fill="#FF6600"/>
<path d="M112.438 53.812C111.781 52.4995 110.906 51.187 110.031 49.8745L106.312 52.2808C106.969 53.3745 107.844 54.687 108.5 55.7808L112.438 53.812Z" fill="#FF6600"/>
<path d="M81.5947 122.937L80.501 118.781C79.1885 119.218 77.876 119.437 76.3447 119.656L77.001 124.031C78.751 123.593 80.2822 123.156 81.5947 122.937Z" fill="#FF6600"/>
<path d="M46.1572 118.125L48.3447 114.406C47.251 113.75 45.9385 112.875 44.8447 112.218L42.4385 115.718C43.5322 116.593 44.8447 117.468 46.1572 118.125Z" fill="#FF6600"/>
<path d="M80.7188 29.3123L79.8438 33.4685C81.1562 33.6873 82.4687 34.1248 83.7812 34.5623L85.0938 30.406C83.5625 30.1873 82.0313 29.7498 80.7188 29.3123Z" fill="#FF6600"/>
<path d="M71.5313 28.2185L71.3125 32.5935C72.625 32.5935 74.1563 32.8123 75.4688 33.031L76.125 28.656C74.5938 28.2185 73.0625 28.2185 71.5313 28.2185Z" fill="#FF6600"/>
<path d="M69.7812 119.875C69.3437 119.875 68.6875 119.875 68.25 119.875L68.0312 124.25H69.7812H70.4375H72.625L72.4062 119.875C71.75 119.875 71.0938 119.875 70.4375 119.875H69.7812Z" fill="#FF6600"/>
<path d="M101.063 45.7185C101.938 46.8123 103.032 47.6873 103.907 48.781L107.407 45.9373C106.532 44.8435 105.438 43.531 104.344 42.4373L101.063 45.7185Z" fill="#FF6600"/>
<path d="M54.6875 121.844L56 117.688C54.6875 117.25 53.375 116.813 52.0625 116.156L50.3125 120.313C51.625 120.75 53.1562 121.406 54.6875 121.844Z" fill="#FF6600"/>
<path d="M59.0625 123.156C60.5938 123.594 62.125 123.812 63.6563 124.031L64.3125 119.656C63 119.437 61.4688 119.219 60.1562 119L59.0625 123.156Z" fill="#FF6600"/>
<path d="M117.25 84.8748L112.875 83.9998C112.657 85.3123 112.219 86.6248 112 88.156L116.157 89.2498C116.594 87.7185 116.813 86.1873 117.25 84.8748Z" fill="#FF6600"/>
<path d="M28.0005 89.031C27.563 87.7185 27.3442 86.406 26.9067 85.0935L22.5317 85.9685C22.7505 87.4998 23.188 89.031 23.6255 90.3435L28.0005 89.031Z" fill="#FF6600"/>
<path d="M21.875 72.1873L26.25 72.6248C26.4688 71.3123 26.4687 69.781 26.6875 68.4685L22.3125 67.5935C22.0937 69.1248 21.875 70.656 21.875 72.1873Z" fill="#FF6600"/>
<path d="M21.876 81.3752L26.251 80.9377C26.0322 79.6252 26.0322 78.094 26.0322 76.7815H21.6572C21.6572 78.3127 21.876 79.844 21.876 81.3752Z" fill="#FF6600"/>
<path d="M35.6562 103.687C34.7812 102.594 33.9062 101.5 33.25 100.406L29.5312 102.812C30.4062 104.125 31.2812 105.219 32.1562 106.531L35.6562 103.687Z" fill="#FF6600"/>
<path d="M49.438 32.5935C48.1255 33.2498 46.5942 33.906 45.2817 34.781L47.4692 38.4998C48.563 37.8435 49.8755 37.1873 51.188 36.531L49.438 32.5935Z" fill="#FF6600"/>
<path d="M23.4067 63.2185L27.563 64.3123C28.0005 62.9998 28.438 61.6873 28.8755 60.3748L24.7192 58.8435C24.2817 60.156 23.8442 61.6873 23.4067 63.2185Z" fill="#FF6600"/>
<path d="M53.5938 30.8438L55.125 35C56.4375 34.5625 57.75 34.125 59.0625 33.6875L57.9688 29.5312C56.4375 29.9688 54.9062 30.4063 53.5938 30.8438Z" fill="#FF6600"/>
<path d="M38.7192 112.875L41.563 109.593C40.4692 108.718 39.3755 107.843 38.5005 106.75L35.438 109.812C36.313 110.906 37.6255 112 38.7192 112.875Z" fill="#FF6600"/>
<path d="M41.5635 37.4065C40.251 38.2815 39.1572 39.3752 38.0635 40.2502L40.9072 43.5315L44.1885 40.9065L41.5635 37.4065Z" fill="#FF6600"/>
<path d="M31.0625 96.6875C30.4062 95.375 29.75 94.2812 29.3125 92.9688L25.375 94.7187C26.0312 96.0312 26.6875 97.5625 27.3437 98.875L31.0625 96.6875Z" fill="#FF6600"/>
<path d="M26.688 54.6877L30.6255 56.6565C31.2817 55.344 31.938 54.2502 32.5942 52.9377L28.8755 50.5315C28.2192 51.844 27.563 53.3752 26.688 54.6877Z" fill="#FF6600"/>
<path d="M87.5 36.3123C88.8125 36.9685 89.9063 37.406 91.2188 38.281L93.4063 34.5623C92.0938 33.906 90.7812 33.031 89.25 32.5935L87.5 36.3123Z" fill="#FF6600"/>
<path d="M94.7192 40.2495C95.813 41.1245 96.9067 41.9995 98.0005 42.8745L100.844 39.5933C99.7505 38.4995 98.438 37.6245 97.1255 36.7495L94.7192 40.2495Z" fill="#FF6600"/>
<path d="M108.938 95.8127L112.875 97.7815C113.532 96.469 114.188 94.9377 114.625 93.6252L110.469 92.094C110.032 93.1877 109.594 94.5002 108.938 95.8127Z" fill="#FF6600"/>
<path d="M98.8755 108.937L101.719 112.219L105 108.937L101.719 105.875C100.844 106.969 99.7505 108.062 98.8755 108.937Z" fill="#FF6600"/>
<path d="M117.907 76.344V75.6877H113.532V76.1252C113.532 77.4377 113.532 78.5315 113.313 79.844L117.688 80.2815C117.907 78.969 117.907 77.6565 117.907 76.344Z" fill="#FF6600"/>
<path d="M37.8447 46.3745L34.5635 43.312C33.4697 44.4058 32.5947 45.4995 31.501 46.812L35.001 49.437C35.876 48.562 36.9697 47.4683 37.8447 46.3745Z" fill="#FF6600"/>
<path d="M112.656 67.5937C112.875 68.9062 113.094 70.4375 113.312 71.75L117.687 71.3125C117.469 69.7812 117.25 68.25 117.031 66.7188L112.656 67.5937Z" fill="#FF6600"/>
<path d="M108.063 105.437C108.938 104.125 109.813 103.031 110.688 101.719L106.969 99.3123C106.313 100.406 105.438 101.719 104.563 102.812L108.063 105.437Z" fill="#FF6600"/>
<path d="M110.251 59.4998C110.688 60.8123 111.345 62.1248 111.563 63.4373L115.72 62.1248C115.282 60.5935 114.845 59.281 114.188 57.7498L110.251 59.4998Z" fill="#FF6600"/>
<path d="M2.62549 72.625H0.437988V74.8125C0.437988 75.4688 0.437988 76.125 0.656738 76.7812C1.75049 85.5312 7.87549 93.1875 16.4067 96.6875L16.6255 96.9062C17.5005 98.6562 18.3755 100.625 19.4692 102.375C14.6567 100.844 9.18799 101.719 5.03174 105.219L3.93799 106.094L4.81299 108.5L5.03174 108.719C9.84424 114.406 16.8442 117.469 24.7192 117.469L30.188 116.812C31.5005 118.125 32.813 119.219 34.3442 120.531C28.8755 120.969 23.8442 123.812 21.2192 128.844L20.1255 130.812L22.0942 131.906C25.813 133.875 29.9692 134.75 33.9067 134.75C37.4067 134.75 40.688 134.094 43.9692 132.781L50.313 129.719C52.938 130.594 55.7817 131.469 58.6255 132.125L59.5005 127.75C41.3442 124.25 26.9067 111.344 20.563 94.9375L18.3755 87.5C18.3755 85.9688 17.938 84.4375 17.5005 83.125C17.5005 80.9375 17.2817 78.9687 17.2817 76.7812C17.2817 75.25 17.2817 73.9375 17.5005 72.4062L18.5942 64.75C21.438 51.625 29.313 39.8125 40.9067 32.1562L46.5942 28.4375C54.0317 23.625 56.0005 14 51.188 7L49.8755 5.25L48.1255 6.5625C41.7817 10.7187 37.6255 17.7188 36.7505 25.375L36.0942 30.4062C34.1255 31.7188 32.3755 33.25 30.6255 34.7812C30.8442 29.0938 28.0005 23.4062 22.5317 20.5625L21.0005 19.4687L19.9067 21.4375C16.188 28.2188 15.9692 36.3125 18.813 43.3125L20.563 48.125C19.688 49.6562 19.0317 50.9688 18.1567 52.5C17.7192 51.625 17.2817 50.75 16.8442 50.0938C14.6567 46.5938 11.1567 44.1875 7.00049 43.3125L4.81299 42.875L4.37549 45.0625C2.84424 52.7188 4.81299 60.375 9.62549 66.2812L13.3442 69.5625C13.1255 71.75 12.9067 73.9375 12.9067 76.125C10.063 73.5 6.34424 72.4062 2.62549 72.625ZM42.2192 128.625C37.188 130.812 31.5005 130.812 26.2505 128.844C29.5317 124.906 35.6567 123.594 40.688 126L43.7505 127.75L42.2192 128.625ZM41.1255 25.5937C41.7817 20.125 44.4067 15.0938 48.563 11.5938C50.5317 16.4062 48.7817 21.875 43.9692 24.9375L40.688 27.125L41.1255 25.5937ZM22.7505 25.5937C26.688 28.875 27.7817 34.5625 25.1567 39.375L23.188 42.6562L22.7505 41.5625C20.7817 36.5312 20.563 30.8437 22.7505 25.5937ZM5.03174 77C7.21924 77.4375 9.18799 78.3125 10.7192 79.8438C11.813 80.9375 12.9067 82.4688 13.3442 84C13.7817 86.4062 14.2192 88.8125 14.8755 91C9.62549 87.9375 6.12549 82.9062 5.03174 77ZM24.5005 113.312C18.5942 113.312 13.3442 111.125 9.62549 107.406C14.2192 104.781 20.1255 105.875 23.6255 110.25L26.0317 112.875L24.5005 113.312ZM12.9067 63.2188C9.40674 58.8438 7.87549 53.5938 8.31299 48.125C10.2817 49 12.0317 50.3125 13.1255 52.2812C14.6567 54.6875 15.313 57.75 14.6567 61.0312L14.2192 64.0938V64.3125L12.9067 63.2188Z" fill="#FF6600"/>
<path d="M103.25 25.3748C102.375 17.7185 98.2192 10.9373 91.8755 6.56226L90.1255 5.24976L88.813 6.99976C84.0005 14.2185 86.188 23.6248 93.4067 28.4373L99.9692 32.8123C113.75 42.4373 122.063 58.406 122.282 75.2498C122.5 100.844 104.563 122.718 79.4067 127.531L80.2817 131.906C83.3442 131.25 86.4067 130.375 89.4692 129.5L96.0317 132.562C99.313 133.875 102.594 134.531 106.094 134.531C110.25 134.531 114.188 133.656 117.907 131.687L119.875 130.594L118.782 128.625C116.157 123.593 110.907 120.531 105.438 120.312C106.969 119.219 108.282 117.906 109.594 116.593L115.063 117.25H115.282C123.157 117.25 130.157 114.187 134.969 108.5L135.188 108.281L136.063 105.875L134.969 105C130.594 101.5 125.125 100.625 120.313 102.156C121.188 100.406 122.063 98.4372 122.938 96.4685L123.594 96.2498C132.344 92.7498 138.469 85.0935 139.344 76.3435C139.344 75.6873 139.563 75.031 139.563 74.3748V72.1873H137.375C133.438 71.9685 129.5 73.281 126.657 75.906C126.657 75.6873 126.657 75.4685 126.657 75.031C126.657 73.0623 126.438 71.0935 126.219 69.3435L129.938 66.0623L130.157 65.8435C134.969 59.9373 136.938 52.0623 135.407 44.6248L134.969 42.4373L132.782 42.8748C127.313 43.9685 123.157 47.6873 121.407 52.4998C120.75 50.9685 119.875 49.4373 119.219 48.1248L121.188 42.8748C124.032 35.656 123.594 27.781 120.094 20.9998L119 19.031L117.032 20.1248C111.563 23.1873 108.5 28.8748 108.938 34.781C107.188 33.2498 105.438 31.7185 103.469 30.1873L103.25 25.3748ZM95.813 25.156C91.2192 22.0935 89.4692 16.6248 91.2192 11.8123C95.3755 15.3123 98.2192 20.3435 98.6567 25.8123L98.8755 27.1248L95.813 25.156ZM113.532 129.062C108.5 131.031 102.813 131.031 97.563 128.844L95.813 127.969L98.8755 126.219C104.125 123.594 110.25 124.906 113.532 129.062ZM129.282 79.8435C130.813 78.3123 132.782 77.4373 134.969 76.9998C134.094 82.906 130.375 87.9372 124.907 90.9997L125.782 88.156V87.7185C125.782 84.656 127.094 81.8123 129.282 79.8435ZM131.688 48.1248C132.125 53.5935 130.594 58.8435 127.094 63.2185L125.782 64.3123L125.344 60.8123C124.25 55.3435 126.875 50.3123 131.688 48.1248ZM130.375 107.406C126.657 111.125 121.407 113.312 115.5 113.312L113.969 113.094L116.375 110.469C120.094 106.094 125.782 105 130.375 107.406ZM117.25 25.5935C119.219 30.6248 119.219 36.3123 117.032 41.5623L116.594 42.656L114.625 39.3748C112.219 34.781 113.313 28.8748 117.25 25.5935Z" fill="#FF6600"/>
</g>
</svg>
