<svg width="140" height="140" viewBox="0 0 140 140" fill="none" xmlns="http://www.w3.org/2000/svg">
<path d="M122.5 76.3438V71.9688C123.707 71.9688 124.688 70.9895 124.688 69.7813V56.6563C124.688 55.448 123.707 54.4688 122.5 54.4688H110.688L110.264 52.8256C109.296 49.0675 107.794 45.4675 105.801 42.1376L104.926 40.6738L113.313 32.2725C114.157 31.4265 114.157 30.0559 113.313 29.21L104.022 19.9063C103.165 19.0885 101.817 19.0885 100.959 19.9063L92.5569 28.3085L91.094 27.4335C87.7589 25.4391 84.1555 23.9369 80.3923 22.9688L78.75 22.5415V10.7188C78.75 9.5105 77.7708 8.53125 76.5625 8.53125H63.4375C62.2293 8.53125 61.25 9.5105 61.25 10.7188V22.5313L59.6068 22.9559C55.8488 23.9224 52.2488 25.4246 48.9171 27.4155L47.4534 28.2914L39.0537 19.9063C38.195 19.0817 36.8389 19.0817 35.9801 19.9063L26.6875 29.1963C26.2791 29.6039 26.0492 30.1576 26.0492 30.7344C26.0492 31.312 26.2791 31.8649 26.6875 32.2725L35.0897 40.6738L34.2147 42.1376C32.222 45.4675 30.719 49.0675 29.7526 52.8256L29.3236 54.4688H17.5C16.2917 54.4688 15.3125 55.448 15.3125 56.6563V69.7813C15.3125 70.9895 16.2917 71.9688 17.5 71.9688V76.3438C13.8761 76.3438 10.9375 73.4052 10.9375 69.7813V56.6563C10.9375 53.0324 13.8761 50.0938 17.5 50.0938H25.9637C26.8661 47.0689 28.0863 44.1482 29.6039 41.3814L23.5883 35.3657C22.3578 34.1378 21.6665 32.4716 21.6665 30.7344C21.6665 28.9972 22.3578 27.3309 23.5883 26.1039L32.8851 16.807C35.4751 14.3281 39.5587 14.3281 42.1487 16.807L48.1626 22.8201C50.9295 21.3033 53.851 20.0857 56.875 19.1842V10.7188C56.875 7.09485 59.8136 4.15625 63.4375 4.15625H76.5625C80.1864 4.15625 83.125 7.09485 83.125 10.7188V19.1842C86.1499 20.0857 89.0697 21.3059 91.8374 22.8226L97.853 16.807C100.444 14.3281 104.527 14.3281 107.117 16.807L116.413 26.1013C117.642 27.3292 118.333 28.9938 118.333 30.7318C118.333 32.4699 117.642 34.1361 116.413 35.3632L110.397 41.3788C111.914 44.1473 113.133 47.0689 114.036 50.0938H122.5C126.124 50.0938 129.063 53.0324 129.063 56.6563V69.7813C129.063 73.4052 126.124 76.3438 122.5 76.3438Z" fill="#FF6600"/>
<path d="M100.625 63.2188H96.25C96.25 48.7214 84.4973 36.9688 70 36.9688C55.5027 36.9688 43.75 48.7214 43.75 63.2188H39.375C39.375 46.3049 53.0862 32.5938 70 32.5938C86.913 32.5938 100.625 46.3049 100.625 63.2188Z" fill="#FF6600"/>
<path d="M70 80.7188C62.7513 80.7188 56.875 74.8416 56.875 67.5938C56.875 60.3451 62.7513 54.4688 70 54.4688C77.2495 54.4688 83.125 60.3451 83.125 67.5938C83.1173 74.8398 77.2461 80.7111 70 80.7188ZM70 58.8438C65.1678 58.8438 61.25 62.7616 61.25 67.5938C61.25 72.4259 65.1678 76.3438 70 76.3438C74.8322 76.3438 78.75 72.4259 78.75 67.5938C78.75 62.7616 74.8322 58.8438 70 58.8438Z" fill="#FF6600"/>
<path d="M107.188 89.4688C99.9388 89.4688 94.0625 83.5916 94.0625 76.3438C94.0625 69.0951 99.9388 63.2188 107.188 63.2188C114.436 63.2188 120.313 69.0951 120.313 76.3438C120.305 83.5898 114.434 89.4611 107.188 89.4688ZM107.188 67.5938C102.355 67.5938 98.4375 71.5116 98.4375 76.3438C98.4375 81.1759 102.355 85.0938 107.188 85.0938C112.02 85.0938 115.938 81.1759 115.938 76.3438C115.938 71.5116 112.02 67.5938 107.188 67.5938Z" fill="#FF6600"/>
<path d="M32.8125 89.4688C25.5638 89.4688 19.6875 83.5916 19.6875 76.3438C19.6875 69.0951 25.5638 63.2188 32.8125 63.2188C40.062 63.2188 45.9375 69.0951 45.9375 76.3438C45.9298 83.5898 40.0586 89.4611 32.8125 89.4688ZM32.8125 67.5938C27.9803 67.5938 24.0625 71.5116 24.0625 76.3438C24.0625 81.1759 27.9803 85.0938 32.8125 85.0938C37.6447 85.0938 41.5625 81.1759 41.5625 76.3438C41.5625 71.5116 37.6447 67.5938 32.8125 67.5938Z" fill="#FF6600"/>
<path d="M127.019 95.0812C123.759 92.8407 119.894 91.6453 115.938 91.6564H98.4375C97.3737 91.6658 96.3115 91.7623 95.2631 91.9443C93.8634 89.7551 92.0425 87.8667 89.9063 86.3859C89.5858 86.144 89.2492 85.9244 88.898 85.7305C85.838 83.8771 82.3269 82.9012 78.75 82.9064H61.25C54.5602 82.8824 48.3267 86.2961 44.7429 91.9443C43.6919 91.7623 42.6281 91.6658 41.5625 91.6564H24.0625C20.1096 91.6453 16.2456 92.839 12.9874 95.0769C7.60242 98.741 4.37842 104.831 4.375 111.344V120.094C4.38269 126.067 7.85791 131.491 13.2831 133.993C15.286 134.936 17.4744 135.419 19.6875 135.406H41.5625V131.031H21.875V106.969H17.5V130.812C16.6763 130.647 15.8765 130.38 15.1177 130.021C11.2426 128.234 8.75855 124.36 8.75 120.094V111.344C8.75513 106.275 11.2665 101.537 15.4569 98.6863C17.9888 96.9482 20.9906 96.0228 24.0625 96.0314H41.5625C41.9479 96.0314 42.3196 96.0724 42.6956 96.098C41.9556 98.1847 41.5719 100.381 41.5625 102.594V124.469C41.5702 130.507 46.463 135.399 52.5 135.406H59.0625V100.406H54.6875V131.031H52.5C48.8761 131.031 45.9375 128.093 45.9375 124.469V102.594C45.9375 94.1361 52.794 87.2814 61.25 87.2814H78.75C81.5647 87.2831 84.323 88.0624 86.7233 89.5321C86.9454 89.6534 87.1591 89.7902 87.3616 89.9406C89.4115 91.3445 91.094 93.2201 92.2664 95.4093C93.4447 97.6207 94.0625 100.088 94.0625 102.594V124.469C94.0625 128.093 91.1239 131.031 87.5 131.031H85.3125V100.406H80.9375V135.406H87.5C93.5379 135.399 98.4298 130.507 98.4375 124.469V102.594C98.4273 100.381 98.0453 98.1856 97.3062 96.098C97.683 96.0724 98.0547 96.0314 98.4375 96.0314H115.938C119.011 96.0228 122.016 96.9508 124.549 98.6906C128.736 101.543 131.244 106.278 131.25 111.344V120.094C131.242 124.376 128.74 128.26 124.846 130.038C124.098 130.391 123.31 130.651 122.5 130.812V106.969H118.125V131.031H98.4375V135.406H120.313C122.513 135.42 124.688 134.943 126.68 134.01C132.123 131.516 135.616 126.081 135.625 120.094V111.344C135.622 104.833 132.4 98.7461 127.019 95.0812Z" fill="#FF6600"/>
<path d="M61.25 131.031H78.75V135.406H61.25V131.031Z" fill="#FF6600"/>
</svg>
