<svg width="141" height="140" viewBox="0 0 141 140" fill="none" xmlns="http://www.w3.org/2000/svg">
<g clip-path="url(#clip0_185_2799)">
<path d="M58.7103 31.6824H37.9644C36.0791 31.6824 34.5464 33.2151 34.5464 35.1003V68.9884C34.5464 70.8726 36.0791 72.4064 37.9644 72.4064H58.7103C60.5956 72.4064 62.1283 70.8726 62.1283 68.9884V35.1003C62.1283 33.2151 60.5956 31.6824 58.7103 31.6824ZM46.286 68.3048H38.6479V59.918H46.286V68.3048ZM46.286 55.8164H38.6479V48.2713H46.286V55.8164ZM46.286 44.1697H38.6479V35.7839H46.286V44.1697ZM58.0267 68.3048H50.3876V59.918H58.0267V68.3048ZM58.0267 55.8164H50.3876V48.2713H58.0267V55.8164ZM58.0267 44.1697H50.3876V35.7839H58.0267V44.1697Z" fill="#FF6600"/>
<path d="M86.2153 113.558C85.0821 113.558 84.1646 114.476 84.1646 115.608V120.532C84.1646 121.665 85.0821 122.583 86.2153 122.583C87.3486 122.583 88.2661 121.665 88.2661 120.532V115.608C88.2661 114.476 87.3486 113.558 86.2153 113.558Z" fill="#FF6600"/>
<path d="M140.48 92.847C140.385 92.1271 140.017 91.4851 139.443 91.0408L95.9956 57.424C95.0322 56.6795 93.8808 56.2854 92.6652 56.2854C91.4487 56.2854 90.2972 56.6795 89.3327 57.4251L82.7617 62.5093V56.6197C82.7617 55.4865 81.8442 54.5689 80.7109 54.5689C79.5776 54.5689 78.6601 55.4865 78.6601 56.6197V65.6827L45.8883 91.0397C45.3179 91.4798 44.9387 92.1431 44.849 92.8555C44.7561 93.5765 44.9494 94.2921 45.3926 94.87L48.7177 99.1948C49.24 99.8709 50.0283 100.259 50.8817 100.259C51.482 100.259 52.0748 100.057 52.5512 99.6883L92.6652 68.651L122.986 92.1111V134.84H106.468V130.995C106.468 129.861 105.551 128.944 104.418 128.944C103.284 128.944 102.367 129.861 102.367 130.995V134.84H82.9604V103.422H102.367V121.356C102.367 122.489 103.284 123.407 104.418 123.407C105.551 123.407 106.468 122.489 106.468 121.356V102.739C106.468 100.855 104.935 99.3208 103.051 99.3208H82.2778C80.3926 99.3208 78.8588 100.855 78.8588 102.739V134.84H63.275V129.246C63.275 127.361 61.7423 125.828 59.8571 125.828H57.8939C58.0573 125.012 58.1459 124.169 58.1459 123.306C58.1459 116.209 52.3706 110.435 45.273 110.435C41.4203 110.435 37.8154 112.202 35.4047 115.069C34.4925 114.781 33.5227 114.624 32.5165 114.624C31.7774 114.624 31.0511 114.706 30.3451 114.87C28.1116 111.044 23.9438 108.584 19.4385 108.584C18.959 108.584 18.4847 108.613 18.0169 108.668V40.0201L48.3385 16.5579L78.6612 40.0201V47.0483C78.6612 48.1816 79.5787 49.0991 80.712 49.0991C81.8442 49.0991 82.7628 48.1816 82.7628 47.0483V43.1935L88.4537 47.5963C88.929 47.9648 89.5218 48.1667 90.1221 48.1667C90.9776 48.1667 91.767 47.7779 92.2871 47.1007C92.2946 47.0911 92.3021 47.0804 92.3096 47.0708L95.4947 42.7684L95.515 42.7428C95.7254 42.4789 96.284 41.7793 96.1537 40.755C96.0586 40.0319 95.6891 39.39 95.1166 38.9488L51.67 5.33203C50.7065 4.58755 49.5551 4.19342 48.3385 4.19342C47.1219 4.19342 45.9705 4.58756 45.006 5.3331L33.0773 14.5627V11.9778C34.6901 11.7044 35.9227 10.3009 35.9227 8.61221V4.51172C35.9227 2.6265 34.3889 1.09375 32.5048 1.09375H15.886C14.0018 1.09375 12.468 2.6265 12.468 4.51172V8.61115C12.468 10.3009 13.7006 11.7033 15.3135 11.9778V28.3072L1.56471 38.9456C0.992203 39.3857 0.613023 40.05 0.523301 40.7603C0.429307 41.4824 0.621568 42.198 1.0659 42.7769L4.39094 47.1017C4.91218 47.7789 5.70045 48.1667 6.55494 48.1667C7.15522 48.1667 7.74696 47.9648 8.22547 47.5963L13.9153 43.1935V109.874C10.6597 111.476 8.15284 114.445 7.22145 118.067C4.12926 119.259 2.00478 122.263 2.00478 125.672C2.00478 126.048 2.03148 126.418 2.08061 126.781C1.43013 127.404 1.02425 128.277 1.02425 129.246V135.525C1.02425 137.409 2.55699 138.943 4.44221 138.943H133.031C134.165 138.943 135.082 138.024 135.082 136.892C135.082 135.759 134.165 134.841 133.031 134.841H127.087V95.2844L132.779 99.6883C133.255 100.056 133.847 100.259 134.448 100.259C135.303 100.259 136.093 99.8698 136.613 99.1916C136.62 99.182 136.628 99.1724 136.635 99.1628L139.821 94.8593L139.843 94.8326C140.052 94.5699 140.61 93.8702 140.48 92.847ZM45.273 114.536C50.1094 114.536 54.0444 118.471 54.0444 123.306C54.0444 124.183 53.9119 125.029 53.6716 125.828H41.9736C42.0623 125.307 42.1114 124.771 42.1114 124.224C42.1114 121.441 40.9205 118.934 39.0246 117.178C40.6459 115.532 42.889 114.536 45.273 114.536ZM16.5696 5.19531H31.8212V7.92755H16.5696V5.19531ZM28.9757 12.0291V17.7361L19.415 25.1338V12.0291H28.9757ZM6.80381 43.5107L5.1493 41.3585L47.515 8.57697C47.7575 8.39005 48.0341 8.29498 48.3385 8.29498C48.6429 8.29498 48.9196 8.39005 49.161 8.5759L91.469 41.3126L89.854 43.4947L49.5935 12.3431C48.8544 11.7717 47.8226 11.7717 47.0835 12.3431L6.80381 43.5107ZM59.1735 134.841H5.12581V129.93H24.0165C25.1487 129.93 26.0673 129.012 26.0673 127.879C26.0673 126.746 25.1487 125.828 24.0165 125.828H6.11168C6.10954 125.776 6.10633 125.725 6.10633 125.672C6.10633 123.738 7.481 122.066 9.3769 121.699C10.2346 121.532 10.8926 120.841 11.0165 119.977C11.6146 115.821 15.2355 112.686 19.4385 112.686C22.9291 112.686 26.1207 114.877 27.38 118.137C27.585 118.669 28.0016 119.091 28.5314 119.303C29.0612 119.515 29.654 119.495 30.1699 119.252C30.9069 118.904 31.6973 118.726 32.5165 118.726C35.5457 118.726 38.0098 121.193 38.0098 124.225C38.0098 124.784 37.9223 125.321 37.7663 125.828H33.8602C32.7269 125.828 31.8094 126.747 31.8094 127.879C31.8094 129.012 32.7269 129.93 33.8602 129.93H59.1735V134.841ZM134.181 95.5867L93.9203 64.4362C93.1811 63.8637 92.1493 63.8637 91.4102 64.4362L51.1295 95.6027L49.475 93.4505L91.8417 60.67C92.0842 60.482 92.3608 60.387 92.6652 60.387C92.9686 60.387 93.2463 60.482 93.4877 60.6689L135.796 93.4045L134.181 95.5867Z" fill="#FF6600"/>
</g>
<defs>
<clipPath id="clip0_185_2799">
<rect width="140" height="140" fill="white" transform="translate(0.5)"/>
</clipPath>
</defs>
</svg>
