<svg width="49" height="48" viewBox="0 0 49 48" fill="none" xmlns="http://www.w3.org/2000/svg">
<path d="M32.5 20L36.7988 21.2896C39.5452 22.1136 40.9184 22.5256 41.7092 23.5884C42.5 24.6512 42.5 26.085 42.5 28.9522V44" stroke="#FF6600" stroke-width="1.5" stroke-linejoin="round"/>
<path d="M16.5 18H22.5M16.5 26H22.5" stroke="#FF6600" stroke-width="1.5" stroke-linecap="round" stroke-linejoin="round"/>
<path d="M24.5 44V38C24.5 36.1144 24.5 35.1716 23.9142 34.5858C23.3284 34 22.3856 34 20.5 34H18.5C16.6144 34 15.6716 34 15.0858 34.5858C14.5 35.1716 14.5 36.1144 14.5 38V44" stroke="#FF6600" stroke-width="1.5" stroke-linejoin="round"/>
<path d="M4.5 44H44.5" stroke="#FF6600" stroke-width="1.5" stroke-linecap="round"/>
<path d="M6.5 44V13.4345C6.5 8.41299 6.5 5.90223 8.08236 4.65649C9.66474 3.41075 11.9948 4.08711 16.655 5.43981L26.655 8.34245C29.4672 9.15875 30.8734 9.56689 31.6866 10.6793C32.5 11.7917 32.5 13.3069 32.5 16.3371V44" stroke="#FF6600" stroke-width="1.5" stroke-linecap="round" stroke-linejoin="round"/>
</svg>
