<svg width="140" height="140" viewBox="0 0 140 140" fill="none" xmlns="http://www.w3.org/2000/svg">
<path d="M8.52412 139.934H23.2387C24.4679 139.934 25.4655 138.944 25.4655 137.721C25.4655 136.497 24.4679 135.507 23.2387 135.507H10.7509V93.4565C11.2586 93.1622 11.724 92.8081 12.136 92.3965L61.3167 45.3174C64.0089 46.3797 66.9326 46.9839 70.0011 46.9839C73.0696 46.9839 75.9934 46.3819 78.6878 45.3196L100.584 66.2798C101.016 66.6936 101.572 66.8973 102.129 66.8973C102.713 66.8973 103.296 66.6693 103.732 66.2178C104.585 65.3392 104.559 63.9384 103.675 63.0885L82.8697 43.1707C84.3639 42.2036 85.74 41.0749 86.9736 39.8046L105.85 57.8457C106.073 58.2441 106.4 58.5694 106.814 58.7686L123.669 74.8799C123.891 75.2694 124.21 75.5903 124.617 75.7872L134.765 85.485C135.27 85.9874 135.549 86.6535 135.549 87.3617C135.549 88.0699 135.27 88.736 134.765 89.2384C134.068 89.9311 133.057 90.1878 132.111 89.8957C131.679 89.7695 131.3 89.5504 130.959 89.2074L112.19 71.2416C111.303 70.3961 109.894 70.4205 109.041 71.3013C108.188 72.1799 108.215 73.5808 109.099 74.4306L127.837 92.3655C128.267 92.7948 128.741 93.1556 129.254 93.4543V135.507H116.764C115.534 135.507 114.537 136.497 114.537 137.721C114.537 138.944 115.534 139.934 116.764 139.934H131.478C132.707 139.934 133.705 138.944 133.705 137.721V94.3639C135.264 94.1824 136.753 93.5185 137.911 92.3655C139.258 91.0288 140 89.2517 140 87.3595C140 85.4673 139.258 83.6924 137.88 82.3247L127.806 72.6955V40.2539H130.033C131.262 40.2539 132.26 39.2646 132.26 38.0408V29.1884C132.26 27.9646 131.262 26.9753 130.033 26.9753H103.312C102.082 26.9753 101.085 27.9646 101.085 29.1884V38.0408C101.085 39.2646 102.082 40.2539 103.312 40.2539H105.538V51.4123L89.766 36.3367C92.2066 32.6408 93.6362 28.2324 93.6362 23.4919C93.6362 15.288 89.4387 7.8122 82.4087 3.49447C81.3599 2.85046 79.9905 3.17136 79.3447 4.21372C78.6967 5.25387 79.0218 6.61714 80.0684 7.25893C85.7756 10.7667 89.1826 16.8328 89.1826 23.4919C89.1826 34.0041 80.5761 42.5555 69.9989 42.5555C59.4217 42.5555 50.8152 34.0041 50.8152 23.4919C50.8152 12.9798 59.4239 4.42618 70.0011 4.42618C71.2303 4.42618 72.2279 3.43693 72.2279 2.21309C72.2279 0.989251 71.2303 0 70.0011 0C56.9678 0 46.3638 10.5387 46.3638 23.4919C46.3638 28.1925 47.7756 32.5656 50.1761 36.2415L24.4835 60.8821C23.5994 61.7319 23.5727 63.1328 24.4278 64.0114C24.8642 64.4606 25.4477 64.6886 26.0311 64.6886C26.5878 64.6886 27.1445 64.4828 27.5765 64.0689L52.9596 39.7294C54.2132 41.0285 55.6117 42.1859 57.137 43.1752L9.01401 89.2384C8.70226 89.5482 8.32594 89.7673 7.86499 89.9023C6.94311 90.1812 5.9366 89.9289 5.23962 89.2362C4.73414 88.7338 4.45579 88.0677 4.45579 87.3595C4.45579 86.6513 4.73414 85.9851 5.21067 85.5115L20.3305 71.0114C21.2146 70.1616 21.2413 68.7607 20.3862 67.8821C19.5311 67.0035 18.1216 66.9791 17.2375 67.8268L2.08872 82.3535C0.741519 83.6902 0 85.4673 0 87.3595C0 89.2517 0.741519 91.0266 2.08872 92.3655C3.24888 93.5185 4.74082 94.1824 6.29511 94.3639V137.721C6.29734 138.942 7.29271 139.934 8.52412 139.934ZM105.538 31.4015H127.806V35.8277H105.538V31.4015ZM109.992 40.2539H123.353V68.4398L109.992 55.6702V40.2539Z" fill="#FF6600"/>
<path d="M34.1253 120.046C32.4374 122.523 31.5444 125.42 31.5444 128.416V137.784C31.5444 139.008 32.542 139.997 33.7712 139.997C35.0004 139.997 35.998 139.008 35.998 137.784V128.416C35.998 126.307 36.626 124.271 37.8128 122.527C38.5031 121.516 38.2359 120.139 37.2183 119.453C36.2006 118.767 34.8156 119.033 34.1253 120.046Z" fill="#FF6600"/>
<path d="M50.7592 137.787V130.515C50.7592 129.291 49.7616 128.302 48.5324 128.302C47.3033 128.302 46.3057 129.291 46.3057 130.515V137.787C46.3057 139.011 47.3033 140 48.5324 140C49.7616 140 50.7592 139.011 50.7592 137.787Z" fill="#FF6600"/>
<path d="M106.231 140C107.46 140 108.457 139.011 108.457 137.787V128.419C108.457 121.319 103.376 115.158 96.3726 113.768L81.2862 110.77V106.261C83.7757 104.626 85.9379 102.468 87.5546 99.8147C88.1914 98.7679 87.8552 97.4069 86.8041 96.7739C85.7487 96.1432 84.3836 96.4752 83.7445 97.5198C80.8052 102.344 75.668 105.221 70.0008 105.221C61.1472 105.221 53.9435 98.0642 53.9435 89.2627V83.6902C55.1994 83.8384 56.796 83.9712 58.6064 83.9712C63.63 83.9712 70.1434 82.9643 74.5524 78.5536C76.552 80.386 80.2151 82.723 86.0582 83.2143V89.2627C86.0582 90.4866 87.0558 91.4758 88.285 91.4758C89.5141 91.4758 90.5117 90.4866 90.5117 89.2627V78.3101C90.5117 67.2668 81.5578 58.1777 70.5575 58.0537L70.0008 58.0493L69.511 58.0515C58.4706 58.1622 49.49 67.2491 49.49 78.3079V89.2605C49.49 96.3579 53.1641 102.614 58.7177 106.266V110.767L43.6313 113.766C42.4244 114.005 41.6428 115.171 41.8855 116.371C42.097 117.424 43.0278 118.15 44.0655 118.15C44.2103 118.15 44.3572 118.137 44.5042 118.106L59.5951 115.107C61.303 119.148 65.3224 121.997 70.0008 121.997C74.6815 121.997 78.7009 119.148 80.4088 115.107L95.4997 118.106C100.428 119.084 104.004 123.42 104.004 128.417V137.785C104.004 139.011 104.999 140 106.231 140ZM69.5644 62.4777L70.0008 62.4755L70.5041 62.4777C79.0817 62.5751 86.0582 69.6769 86.0582 78.3079V78.7683C79.0906 78.0556 76.5075 74.1695 76.4028 74.0057C76.0109 73.3595 75.3139 72.9545 74.5546 72.9368C73.7819 72.9523 73.076 73.282 72.6529 73.9083C68.2573 80.3661 58.0363 79.7575 53.9457 79.2197V78.3057C53.9435 69.6658 60.9468 62.564 69.5644 62.4777ZM70.0008 117.57C66.2354 117.57 63.1713 114.525 63.1713 110.781V108.459C65.3112 109.214 67.6048 109.645 70.0008 109.645C72.3813 109.645 74.6749 109.211 76.8326 108.459V110.781C76.8304 114.525 73.7663 117.57 70.0008 117.57Z" fill="#FF6600"/>
<path d="M89.2432 130.515V137.787C89.2432 139.011 90.2408 140 91.4699 140C92.6991 140 93.6967 139.011 93.6967 137.787V130.515C93.6967 129.291 92.6991 128.302 91.4699 128.302C90.2408 128.302 89.2432 129.291 89.2432 130.515Z" fill="#FF6600"/>
<path d="M83.3598 20.3004C83.0614 19.3886 82.2063 18.7712 81.2421 18.7712H74.2745L72.1212 12.1828C71.8228 11.2732 70.9677 10.6558 70.0035 10.6558C69.0393 10.6558 68.1842 11.2732 67.8859 12.1828L65.7326 18.7712H58.765C57.8008 18.7712 56.9457 19.3886 56.6473 20.3004C56.3489 21.21 56.6762 22.2103 57.4556 22.7724L63.0938 26.8445L60.9405 33.4351C60.6421 34.3469 60.9695 35.345 61.7488 35.9071C62.5304 36.4737 63.5859 36.4737 64.3675 35.9071L70.0013 31.8372L75.6395 35.9071C76.0292 36.1904 76.4901 36.3298 76.9489 36.3298C77.4076 36.3298 77.8685 36.1904 78.2582 35.9071C79.0376 35.345 79.3649 34.3469 79.0665 33.4351L76.9132 26.8445L82.5514 22.7724C83.3308 22.2103 83.6581 21.21 83.3598 20.3004ZM72.9852 24.2109C72.2036 24.7731 71.8785 25.7712 72.1769 26.683L72.7135 28.3229L71.3106 27.3115C70.921 27.0282 70.46 26.8888 70.0013 26.8888C69.5426 26.8888 69.0816 27.0282 68.6919 27.3115L67.2891 28.3229L67.8257 26.683C68.1241 25.7712 67.7968 24.7731 67.0174 24.2109L65.6145 23.1973H67.347C68.3112 23.1973 69.1662 22.5799 69.4646 21.6703L70.0013 20.0282L70.538 21.6681C70.8363 22.5777 71.6914 23.1951 72.6556 23.1951H74.3881L72.9852 24.2109Z" fill="#FF6600"/>
</svg>
