<svg width="48" height="48" viewBox="0 0 48 48" fill="none" xmlns="http://www.w3.org/2000/svg">
<path d="M37.2322 40H38.2126C40.5122 40 42.3414 38.9522 43.9838 37.4872C48.156 33.7652 38.3482 30 35 30M31 10.1375C31.4542 10.0475 31.9258 10 32.4096 10C36.0494 10 39 12.6863 39 16C39 19.3137 36.0494 22 32.4096 22C31.9258 22 31.4542 21.9526 31 21.8624" stroke="#FF6600" stroke-width="1.5" stroke-linecap="round"/>
<path d="M8.96262 32.2224C6.60468 33.486 0.422278 36.0662 4.18776 39.2948C6.02718 40.872 8.07582 42 10.6514 42H25.3486C27.9242 42 29.9728 40.872 31.8122 39.2948C35.5778 36.0662 29.3954 33.486 27.0374 32.2224C21.508 29.2592 14.492 29.2592 8.96262 32.2224Z" stroke="#FF6600" stroke-width="1.5"/>
<path d="M26 15C26 19.4183 22.4182 23 18 23C13.5817 23 10 19.4183 10 15C10 10.5817 13.5817 7 18 7C22.4182 7 26 10.5817 26 15Z" stroke="#FF6600" stroke-width="1.5"/>
</svg>
