<svg width="56" height="56" viewBox="0 0 56 56" fill="none" xmlns="http://www.w3.org/2000/svg">
<path d="M30.332 38.9744C30.332 36.8326 30.332 35.7618 30.8066 34.8348C31.281 33.9078 32.1658 33.2502 33.9352 31.9354L35.1018 31.0683C37.8545 29.0227 39.2309 28 40.832 28C42.4332 28 43.8096 29.0227 46.5622 31.0683L47.7289 31.9354C49.4983 33.2502 50.3831 33.9078 50.8574 34.8348C51.332 35.7618 51.332 36.8326 51.332 38.9744V42.4158C51.332 46.6195 51.332 48.7214 49.9652 50.0274C48.5983 51.3333 46.3984 51.3333 41.9987 51.3333H30.332V38.9744Z" stroke="#F68A0A" stroke-width="1.5" stroke-linejoin="round"/>
<path d="M42.0013 28.0005V11.6667C42.0013 5.87541 40.7926 4.66675 35.0013 4.66675H25.668C19.8766 4.66675 18.668 5.87541 18.668 11.6667V51.3334" stroke="#F68A0A" stroke-width="1.5" stroke-linecap="round" stroke-linejoin="round"/>
<path d="M8.16797 37.3333C10.101 37.3333 11.668 35.244 11.668 32.6667C11.668 30.0893 10.101 28 8.16797 28C6.23497 28 4.66797 30.0893 4.66797 32.6667C4.66797 35.244 6.23497 37.3333 8.16797 37.3333Z" stroke="#F68A0A" stroke-width="1.5"/>
<path d="M8.16797 37.3333V51.3333" stroke="#F68A0A" stroke-width="1.5" stroke-linecap="round"/>
<path d="M4.66797 51.3333H46.668" stroke="#F68A0A" stroke-width="1.5" stroke-linecap="round"/>
<path d="M28 14H32.6667M28 21H32.6667" stroke="#F68A0A" stroke-width="1.5" stroke-linecap="round"/>
<path d="M40.832 51.3334V46.6667" stroke="#F68A0A" stroke-width="1.5" stroke-linecap="round" stroke-linejoin="round"/>
</svg>
