<svg width="56" height="56" viewBox="0 0 56 56" fill="none" xmlns="http://www.w3.org/2000/svg">
<path d="M24.5 18.6667H43.1667M24.5 28.0001H30.3333M43.1667 28.0001H37.3333M24.5 37.3334H30.3333M43.1667 37.3334H37.3333" stroke="#F68A0A" stroke-width="1.5" stroke-linecap="round" stroke-linejoin="round"/>
<path d="M16.3346 17.5H14.0013C9.60152 17.5 7.40163 17.5 6.03481 18.8668C4.66797 20.2337 4.66797 22.4336 4.66797 26.8333V42C4.66797 45.2216 7.27965 47.8333 10.5013 47.8333C13.723 47.8333 16.3346 45.2216 16.3346 42V17.5Z" stroke="#F68A0A" stroke-width="1.5" stroke-linecap="round" stroke-linejoin="round"/>
<path d="M37.3333 8.16675H25.6667C23.4967 8.16675 22.4118 8.16675 21.5216 8.40526C19.106 9.05253 17.2191 10.9394 16.5718 13.355C16.3333 14.2452 16.3333 15.3302 16.3333 17.5001V42.0001C16.3333 45.2217 13.7217 47.8334 10.5 47.8334H37.3333C43.9329 47.8334 47.2327 47.8334 49.283 45.7831C51.3333 43.7328 51.3333 40.433 51.3333 33.8334V22.1667C51.3333 15.5671 51.3333 12.2673 49.283 10.217C47.2327 8.16675 43.9329 8.16675 37.3333 8.16675Z" stroke="#F68A0A" stroke-width="1.5" stroke-linecap="round" stroke-linejoin="round"/>
</svg>
