<svg width="50" height="50" viewBox="0 0 50 50" fill="none" xmlns="http://www.w3.org/2000/svg">
<path d="M48.5555 20.9375L40.8289 14.6953V3.98437C40.8289 2.96094 39.993 2.125 38.9696 2.125H34.1024C33.0789 2.125 32.243 2.96094 32.243 3.98437V7.75781L26.1102 2.80469C25.4539 2.27344 24.5321 2.27344 23.8758 2.80469L1.45394 20.9297C0.860195 21.4063 0.633632 22.1797 0.883632 22.8984C1.13363 23.625 1.79769 24.0859 2.56332 24.0859H7.88363V41.8359C7.88363 43.2969 9.07113 44.4844 10.5321 44.4844H23.1805V45.0469C23.1805 46.6016 24.4461 47.8672 26.0008 47.8672C27.5555 47.8672 28.8211 46.6016 28.8211 45.0469V44.4844H39.4696C40.9305 44.4844 42.118 43.2969 42.118 41.8359V24.0859H47.4383C48.2039 24.0859 48.8602 23.6172 49.118 22.8984C49.368 22.1797 49.1493 21.4062 48.5555 20.9375ZM33.8133 3.98437C33.8133 3.82031 33.9461 3.6875 34.1102 3.6875H38.9774C39.1414 3.6875 39.2743 3.82031 39.2743 3.98437V13.4219L35.4227 10.3125L33.8211 9.01562V3.97656L33.8133 3.98437ZM27.2586 45.0469C27.2586 45.7422 26.6961 46.3047 26.0008 46.3047C25.3055 46.3047 24.743 45.7422 24.743 45.0469V36.2031H25.993H27.243V45.0469H27.2586ZM47.6414 22.375C47.618 22.4375 47.5633 22.5234 47.4383 22.5234H41.3368C40.9071 22.5234 40.5555 22.875 40.5555 23.3047V41.8359C40.5555 42.4375 40.0711 42.9219 39.4696 42.9219H28.8211V35.4219C28.8211 34.9922 28.4696 34.6406 28.0399 34.6406H26.7821V31.9609C26.7821 31.5781 27.0555 31.25 27.4383 31.1875L35.6649 29.8672C36.8055 29.6875 37.6414 28.7109 37.6414 27.5547V23.6797C37.6414 22.3906 36.5868 21.3359 35.2977 21.3359H34.0477V20.1875C34.0477 18.8984 32.993 17.8438 31.7039 17.8438H14.7039C13.4149 17.8438 12.3602 18.8984 12.3602 20.1875V24.0469C12.3602 25.0625 13.0164 25.9219 13.9227 26.25V34.0781C13.9227 35.1953 14.8289 36.1016 15.9461 36.1016C17.0633 36.1016 17.9618 35.1953 17.9618 34.0781V30.1328C17.9618 29.875 18.1649 29.6719 18.4227 29.6719C18.6805 29.6719 18.8836 29.875 18.8836 30.1328V30.4141C18.8836 31.5469 19.8055 32.4688 20.9383 32.4688C22.0711 32.4688 22.993 31.5469 22.993 30.4141V26.3984H31.7039C32.993 26.3984 34.0477 25.3438 34.0477 24.0547V22.9062H35.2977C35.7274 22.9062 36.0789 23.2578 36.0789 23.6875V27.5625C36.0789 27.9453 35.8055 28.2734 35.4227 28.3359L27.1961 29.6562C26.0555 29.8359 25.2196 30.8125 25.2196 31.9687V34.6484H23.9618C23.5321 34.6484 23.1805 35 23.1805 35.4297V42.9297H10.5321C9.93051 42.9297 9.44613 42.4453 9.44613 41.8438V23.3125C9.44613 22.8828 9.09457 22.5312 8.66488 22.5312H2.56332C2.43832 22.5312 2.38363 22.4531 2.36019 22.3828C2.32894 22.2891 2.35238 22.2109 2.43051 22.1484L24.868 4.02344C24.9461 3.96094 25.0555 3.96094 25.1336 4.02344L32.5321 10L34.5789 11.6562L47.5633 22.1484C47.6414 22.2109 47.6649 22.2891 47.6258 22.375H47.6414ZM18.4227 28.1094C17.3055 28.1094 16.3993 29.0156 16.3993 30.1328V34.0781C16.3993 34.3359 16.1961 34.5391 15.9461 34.5391C15.6961 34.5391 15.4852 34.3359 15.4852 34.0781V26.3984H21.4305V30.4141C21.4305 30.6875 21.2118 30.9062 20.9383 30.9062C20.6649 30.9062 20.4461 30.6875 20.4461 30.4141V30.1328C20.4461 29.0156 19.5399 28.1094 18.4227 28.1094ZM22.2118 24.8359H14.7039C14.2743 24.8359 13.9227 24.4844 13.9227 24.0547V20.1953C13.9227 19.7656 14.2743 19.4141 14.7039 19.4141H31.7039C32.1336 19.4141 32.4852 19.7656 32.4852 20.1953V24.0547C32.4852 24.4844 32.1336 24.8359 31.7039 24.8359H22.2118Z" fill="#FF6600"/>
</svg>
