<svg width="50" height="50" viewBox="0 0 50 50" fill="none" xmlns="http://www.w3.org/2000/svg">
<path d="M4.74824 45.4077H45.2579C47.5443 45.4077 49.4043 43.5491 49.4043 41.265V8.73892C49.4043 6.37192 47.47 4.59253 45.2579 4.59253H42.2936C40.8999 4.59253 39.7663 5.72485 39.7663 7.11606V9.98091H10.2357V7.11606C10.2357 5.72476 9.10205 4.59253 7.7085 4.59253H4.74824C2.45566 4.59253 0.597656 6.4522 0.597656 8.73892V41.265C0.597656 43.5491 2.45947 45.4077 4.74824 45.4077ZM40.9566 7.11606C40.9566 6.38091 41.5565 5.78286 42.2936 5.78286H45.2579C46.8271 5.78286 48.214 7.04399 48.214 8.73892V38.3573C48.2056 38.3485 48.1973 38.3396 48.1889 38.3312C47.3998 37.5467 46.3586 37.1143 45.2579 37.1143H42.2936C41.5565 37.1143 40.9566 36.5164 40.9566 35.7811C40.9566 28.1519 40.9566 14.1155 40.9566 7.11606ZM1.78799 8.73892C1.78799 7.10093 3.12344 5.78286 4.74824 5.78286H7.7085C8.44551 5.78286 9.04541 6.38081 9.04541 7.11606V35.7812C9.04541 36.5164 8.44551 37.1144 7.7085 37.1144H4.74824C3.64248 37.1144 2.60088 37.5468 1.80801 38.3402C1.80146 38.3471 1.79453 38.3541 1.78799 38.3611V8.73892ZM4.74824 38.3047H7.7085C9.10215 38.3047 10.2357 37.1724 10.2357 35.7812V11.1713H39.7662V35.7812C39.7662 37.1725 40.8999 38.3047 42.2935 38.3047H45.2578C49.093 38.3047 49.2058 44.2172 45.2578 44.2172H4.74824C0.809277 44.2172 0.995801 38.3047 4.74824 38.3047Z" fill="#FF6600"/>
<path d="M25.8821 20.987C25.6668 20.7963 25.346 20.7851 25.1195 20.9627L16.9959 27.3282C16.8518 27.4412 16.7676 27.6141 16.7676 27.7969V37.17C16.7676 37.4987 17.034 37.7652 17.3628 37.7652H32.64C32.9688 37.7652 33.2353 37.4988 33.2353 37.17V27.7969C33.2353 27.6272 33.1627 27.4654 33.0357 27.3524L25.8821 20.987ZM32.0447 36.5748C28.4563 36.5748 19.0708 36.5748 17.9579 36.5748V28.0867L25.4621 22.2067L32.0447 28.0639V36.5748Z" fill="#FF6600"/>
<path d="M14.7976 27.5307L19.4049 23.7721C19.5434 23.6591 19.6239 23.4899 19.6239 23.3108V18.8137H21.1012V21.4317C21.1012 21.6624 21.2342 21.872 21.443 21.9702C21.6523 22.0687 21.8983 22.0375 22.0759 21.8902L25.5634 19.002L35.1848 27.5153C35.4295 27.7315 35.8065 27.7106 36.0251 27.4636C36.2426 27.2176 36.2199 26.8415 35.9734 26.6234L25.9708 17.7726C25.7504 17.5778 25.422 17.5741 25.197 17.76L22.2917 20.166V18.2185C22.2917 17.8898 22.0253 17.6233 21.6965 17.6233H19.0288C18.7001 17.6233 18.4336 17.8897 18.4336 18.2185V23.0281L14.0453 26.6082C13.7905 26.816 13.7523 27.1908 13.9602 27.4457C14.1689 27.7014 14.5449 27.7375 14.7976 27.5307Z" fill="#FF6600"/>
</svg>
