<svg width="50" height="50" viewBox="0 0 50 50" fill="none" xmlns="http://www.w3.org/2000/svg">
<g clip-path="url(#clip0_368_2978)">
<path d="M25.1979 34.1868C25.4529 34.1868 25.6975 34.0855 25.8778 33.9051C26.0581 33.7248 26.1594 33.4802 26.1594 33.2252V28.6373C26.1594 28.3823 26.0581 28.1377 25.8778 27.9574C25.6975 27.7771 25.4529 27.6758 25.1979 27.6758C24.9429 27.6758 24.6983 27.7771 24.518 27.9574C24.3376 28.1377 24.2363 28.3823 24.2363 28.6373V33.2252C24.2363 33.4802 24.3376 33.7248 24.518 33.9051C24.6983 34.0855 24.9429 34.1868 25.1979 34.1868Z" fill="#FF6600"/>
<path d="M25.1979 13.7363C25.4529 13.7363 25.6975 13.635 25.8778 13.4547C26.0581 13.2744 26.1594 13.0298 26.1594 12.7748V8.20885C26.1594 7.95384 26.0581 7.70927 25.8778 7.52894C25.6975 7.34862 25.4529 7.24731 25.1979 7.24731C24.9429 7.24731 24.6983 7.34862 24.518 7.52894C24.3376 7.70927 24.2363 7.95384 24.2363 8.20885V12.7968C24.2421 13.048 24.3459 13.2869 24.5256 13.4625C24.7053 13.6381 24.9466 13.7364 25.1979 13.7363Z" fill="#FF6600"/>
<path d="M25.1979 23.9727C25.4529 23.9727 25.6975 23.8714 25.8778 23.691C26.0581 23.5107 26.1594 23.2661 26.1594 23.0111V18.4232C26.1594 18.1682 26.0581 17.9236 25.8778 17.7433C25.6975 17.563 25.4529 17.4617 25.1979 17.4617C24.9429 17.4617 24.6983 17.563 24.518 17.7433C24.3376 17.9236 24.2363 18.1682 24.2363 18.4232V23.0111C24.2363 23.2661 24.3376 23.5107 24.518 23.691C24.6983 23.8714 24.9429 23.9727 25.1979 23.9727Z" fill="#FF6600"/>
<path d="M32.0174 13.7363C32.2668 13.7335 32.5053 13.634 32.6827 13.4587C32.86 13.2834 32.9623 13.0461 32.968 12.7968V8.20885C32.968 7.95384 32.8667 7.70927 32.6864 7.52894C32.506 7.34862 32.2615 7.24731 32.0065 7.24731C31.7514 7.24731 31.5069 7.34862 31.3265 7.52894C31.1462 7.70927 31.0449 7.95384 31.0449 8.20885V12.7968C31.0507 13.0499 31.156 13.2905 31.3381 13.4664C31.5202 13.6423 31.7643 13.7393 32.0174 13.7363Z" fill="#FF6600"/>
<path d="M32.0174 23.9727C32.2706 23.9698 32.5123 23.8672 32.6903 23.6872C32.8682 23.5072 32.968 23.2642 32.968 23.0111V18.4232C32.968 18.1682 32.8667 17.9236 32.6864 17.7433C32.506 17.563 32.2615 17.4617 32.0065 17.4617C31.7514 17.4617 31.5069 17.563 31.3265 17.7433C31.1462 17.9236 31.0449 18.1682 31.0449 18.4232V23.0111C31.0449 23.1383 31.0701 23.2643 31.1192 23.3816C31.1682 23.499 31.24 23.6055 31.3304 23.6949C31.4209 23.7844 31.5282 23.855 31.6461 23.9026C31.764 23.9503 31.8903 23.9741 32.0174 23.9727Z" fill="#FF6600"/>
<path d="M32.0174 34.1868C32.2706 34.1839 32.5123 34.0813 32.6903 33.9013C32.8682 33.7213 32.968 33.4784 32.968 33.2252V28.6373C32.968 28.3823 32.8667 28.1377 32.6864 27.9574C32.506 27.7771 32.2615 27.6758 32.0065 27.6758C31.7514 27.6758 31.5069 27.7771 31.3265 27.9574C31.1462 28.1377 31.0449 28.3823 31.0449 28.6373V33.2252C31.0449 33.3524 31.0701 33.4784 31.1192 33.5958C31.1682 33.7131 31.24 33.8196 31.3304 33.9091C31.4209 33.9985 31.5282 34.0691 31.6461 34.1168C31.764 34.1644 31.8903 34.1882 32.0174 34.1868Z" fill="#FF6600"/>
<path d="M43.2858 37.8408H44.0989C44.354 37.8408 44.5985 37.7395 44.7789 37.5592C44.9592 37.3788 45.0605 37.1343 45.0605 36.8793C45.0605 36.6242 44.9592 36.3797 44.7789 36.1993C44.5985 36.019 44.354 35.9177 44.0989 35.9177H43.2858C43.0307 35.9177 42.7862 36.019 42.6058 36.1993C42.4255 36.3797 42.3242 36.6242 42.3242 36.8793C42.3242 37.1343 42.4255 37.3788 42.6058 37.5592C42.7862 37.7395 43.0307 37.8408 43.2858 37.8408Z" fill="#FF6600"/>
<path d="M43.2858 32.3352H44.0989C44.354 32.3352 44.5985 32.2339 44.7789 32.0536C44.9592 31.8732 45.0605 31.6287 45.0605 31.3736C45.0605 31.1186 44.9592 30.8741 44.7789 30.6937C44.5985 30.5134 44.354 30.4121 44.0989 30.4121H43.2858C43.0307 30.4121 42.7862 30.5134 42.6058 30.6937C42.4255 30.8741 42.3242 31.1186 42.3242 31.3736C42.3242 31.6287 42.4255 31.8732 42.6058 32.0536C42.7862 32.2339 43.0307 32.3352 43.2858 32.3352Z" fill="#FF6600"/>
<path d="M43.2858 43.2969H44.0989C44.354 43.2969 44.5985 43.1956 44.7789 43.0152C44.9592 42.8349 45.0605 42.5903 45.0605 42.3353C45.0605 42.0803 44.9592 41.8357 44.7789 41.6554C44.5985 41.4751 44.354 41.3738 44.0989 41.3738H43.2858C43.0307 41.3738 42.7862 41.4751 42.6058 41.6554C42.4255 41.8357 42.3242 42.0803 42.3242 42.3353C42.3242 42.5903 42.4255 42.8349 42.6058 43.0152C42.7862 43.1956 43.0307 43.2969 43.2858 43.2969Z" fill="#FF6600"/>
<path d="M13.6158 26.8791H14.4235C14.6785 26.8791 14.9231 26.7778 15.1034 26.5975C15.2838 26.4172 15.3851 26.1726 15.3851 25.9176C15.3851 25.6626 15.2838 25.418 15.1034 25.2377C14.9231 25.0574 14.6785 24.9561 14.4235 24.9561H13.6158C13.3608 24.9561 13.1162 25.0574 12.9359 25.2377C12.7556 25.418 12.6543 25.6626 12.6543 25.9176C12.6543 26.1726 12.7556 26.4172 12.9359 26.5975C13.1162 26.7778 13.3608 26.8791 13.6158 26.8791Z" fill="#FF6600"/>
<path d="M13.6158 21.3738H14.4235C14.6785 21.3738 14.9231 21.2725 15.1034 21.0921C15.2838 20.9118 15.3851 20.6672 15.3851 20.4122C15.3851 20.1572 15.2838 19.9126 15.1034 19.7323C14.9231 19.552 14.6785 19.4507 14.4235 19.4507H13.6158C13.3608 19.4507 13.1162 19.552 12.9359 19.7323C12.7556 19.9126 12.6543 20.1572 12.6543 20.4122C12.6543 20.6672 12.7556 20.9118 12.9359 21.0921C13.1162 21.2725 13.3608 21.3738 13.6158 21.3738Z" fill="#FF6600"/>
<path d="M13.6158 32.3352H14.4235C14.6785 32.3352 14.9231 32.2339 15.1034 32.0536C15.2838 31.8732 15.3851 31.6287 15.3851 31.3736C15.3851 31.1186 15.2838 30.8741 15.1034 30.6937C14.9231 30.5134 14.6785 30.4121 14.4235 30.4121H13.6158C13.3608 30.4121 13.1162 30.5134 12.9359 30.6937C12.7556 30.8741 12.6543 31.1186 12.6543 31.3736C12.6543 31.6287 12.7556 31.8732 12.9359 32.0536C13.1162 32.2339 13.3608 32.3352 13.6158 32.3352Z" fill="#FF6600"/>
<path d="M48.6485 22.5605H39.6594V1.80773C39.6594 1.55271 39.5581 1.30814 39.3778 1.12782C39.1975 0.947496 38.9529 0.846191 38.6979 0.846191H18.5166C18.2664 0.853344 18.0288 0.957797 17.8544 1.13735C17.6799 1.31691 17.5824 1.5574 17.5825 1.80773V13.8132H9.52209C9.26707 13.8132 9.0225 13.9145 8.84218 14.0949C8.66185 14.2752 8.56055 14.5197 8.56055 14.7748V26.7308C8.56055 26.9858 8.66185 27.2304 8.84218 27.4107C9.0225 27.591 9.26707 27.6923 9.52209 27.6923C9.7771 27.6923 10.0217 27.591 10.202 27.4107C10.3823 27.2304 10.4836 26.9858 10.4836 26.7308V15.7418H17.5825V47.9121H10.4397C10.1847 47.9121 9.94008 48.0134 9.75976 48.1938C9.57943 48.3741 9.47813 48.6186 9.47813 48.8737C9.47813 49.1287 9.57943 49.3733 9.75976 49.5536C9.94008 49.7339 10.1847 49.8352 10.4397 49.8352H45.3627C46.4859 49.8338 47.5629 49.3881 48.3586 48.5954C49.1543 47.8028 49.6042 46.7276 49.61 45.6044V23.522C49.61 23.267 49.5087 23.0224 49.3284 22.8421C49.148 22.6618 48.9035 22.5605 48.6485 22.5605ZM26.1594 47.9121V40.2583H31.0551V47.9121H26.1594ZM37.7364 47.9121H32.9671V39.2967C32.9671 39.0417 32.8658 38.7972 32.6855 38.6168C32.5052 38.4365 32.2606 38.3352 32.0056 38.3352H25.1979C24.9429 38.3352 24.6983 38.4365 24.518 38.6168C24.3377 38.7972 24.2364 39.0417 24.2364 39.2967V47.9121H19.4781V2.74729H37.7364V47.9121ZM47.6869 45.6044C47.6869 46.2214 47.4422 46.8131 47.0065 47.2498C46.5708 47.6866 45.9797 47.9326 45.3627 47.9341H39.6649V24.4836H47.6869V45.6044Z" fill="#FF6600"/>
<path d="M12.248 36.5275C12.248 32.6099 7.11609 29.6539 6.89631 29.533C6.75283 29.4495 6.58979 29.4055 6.42379 29.4055C6.25778 29.4055 6.09474 29.4495 5.95126 29.533C5.73148 29.6539 0.599609 32.6099 0.599609 36.5275C0.599609 40.055 2.7095 42.9835 5.46225 43.544V48.9011C5.46225 49.1561 5.56355 49.4007 5.74388 49.581C5.9242 49.7614 6.16877 49.8627 6.42379 49.8627C6.6788 49.8627 6.92337 49.7614 7.1037 49.581C7.28402 49.4007 7.38532 49.1561 7.38532 48.9011V43.5715C10.1381 42.9835 12.248 40.055 12.248 36.5275ZM2.52269 36.5275C2.52269 34.4671 5.0117 32.4121 6.42379 31.4945C7.83587 32.4121 10.3249 34.4561 10.3249 36.5275C10.3249 38.9506 9.07214 40.989 7.38532 41.5605V39.2967C7.38532 39.0417 7.28402 38.7971 7.1037 38.6168C6.92337 38.4365 6.6788 38.3352 6.42379 38.3352C6.16877 38.3352 5.9242 38.4365 5.74388 38.6168C5.56355 38.7971 5.46225 39.0417 5.46225 39.2967V41.5605C3.77543 40.989 2.52269 38.9561 2.52269 36.5275Z" fill="#FF6600"/>
</g>
<defs>
<clipPath id="clip0_368_2978">
<rect width="50" height="50" fill="white"/>
</clipPath>
</defs>
</svg>
