<svg width="50" height="50" viewBox="0 0 50 50" fill="none" xmlns="http://www.w3.org/2000/svg">
<path d="M42.9351 31.2242L36.6715 27.1081C36.3296 26.8833 35.8666 26.9776 35.6403 27.3215C35.4145 27.6649 35.5103 28.1269 35.8537 28.3522L41.0313 31.7547L19.3187 39.4659L3.83233 29.2197L12.6854 25.9979C13.0715 25.8575 13.2715 25.4302 13.1301 25.0436C12.9897 24.6575 12.5619 24.4575 12.1763 24.5989L1.92315 28.3304C1.54896 28.4664 1.35243 28.8719 1.46905 29.2485V33.6723C1.46905 33.7592 1.48692 33.8411 1.51422 33.9185C1.51918 34.1542 1.63531 34.3835 1.84672 34.5235L18.8065 45.7443C18.9331 45.8277 19.076 45.8679 19.2169 45.8679C19.3643 45.8679 19.5068 45.8192 19.6308 45.7364L42.9921 37.4401C43.2671 37.3423 43.4462 37.0986 43.479 36.8272C43.5202 36.7349 43.544 36.6331 43.544 36.5254V31.9552C43.5435 31.5905 43.281 31.2882 42.9351 31.2242ZM2.95789 30.4267L18.473 40.6917V43.7384L2.95789 33.4733V30.4267ZM19.9619 40.8173L42.0552 32.9711V36.1924L19.9619 44.0386V40.8173Z" fill="#FF6600"/>
<path d="M48.1938 15.7295C48.1938 15.3653 47.9317 15.063 47.5858 14.999L30.7948 3.88388C30.7814 3.87494 30.7665 3.86998 30.7531 3.86204C30.7302 3.84914 30.7079 3.83623 30.6836 3.82581C30.6608 3.81589 30.6379 3.80794 30.6151 3.8005C30.5928 3.79306 30.5709 3.78611 30.5481 3.78115C30.5233 3.77569 30.4985 3.77221 30.4732 3.76923C30.4508 3.76675 30.4285 3.76378 30.4057 3.76328C30.3799 3.76278 30.3546 3.76427 30.3288 3.76626C30.3064 3.76775 30.2841 3.76973 30.2613 3.77321C30.235 3.77767 30.2092 3.78462 30.1833 3.79206C30.168 3.79653 30.1526 3.79802 30.1372 3.80298L6.57987 12.0953C6.19923 12.2293 5.99774 12.6412 6.11933 13.0228V17.4407C6.11933 17.5251 6.1362 17.605 6.1625 17.6804C6.16598 17.9181 6.2826 18.1504 6.49551 18.2913L23.4523 29.5161C23.5789 29.5995 23.7213 29.6397 23.8628 29.6397C24.0106 29.6397 24.1536 29.5911 24.2776 29.5072L47.6394 21.2154C47.9134 21.1181 48.0915 20.8764 48.1258 20.6065C48.1685 20.5127 48.1938 20.4089 48.1938 20.2993V15.7295ZM30.2821 5.33003L45.6861 15.5271L23.9645 23.2362L8.49799 12.998L30.2821 5.33003ZM7.60816 14.1945L23.1188 24.462V27.5092L7.60816 17.2417V14.1945ZM24.6077 24.5876L46.7049 16.7449V19.9663L24.6077 27.8094V24.5876Z" fill="#FF6600"/>
</svg>
