<svg width="116" height="94" viewBox="0 0 116 94" fill="none" xmlns="http://www.w3.org/2000/svg">
<path d="M46.6666 24.3337C46.6666 35.0188 46.6667 40.3613 43.3472 43.6808C40.0278 47.0003 34.6852 47.0003 24 47.0003C13.3148 47.0003 7.97221 47.0003 4.65279 43.6808C1.33331 40.3613 1.33331 35.0188 1.33331 24.3337C1.33331 13.6485 1.33331 8.30589 4.65279 4.98647C7.97221 1.66699 13.3148 1.66699 24 1.66699C34.6852 1.66699 40.0278 1.66699 43.3472 4.98647C46.6667 8.30589 46.6666 13.6485 46.6666 24.3337Z" stroke="#FF6600" stroke-width="1.5"/>
<path d="M46.6667 18.667V44.0656C46.6667 66.577 32.411 85.668 12.6667 92.3337" stroke="#FF6600" stroke-width="1.5" stroke-linecap="round"/>
<path d="M114.667 24.3337C114.667 35.0188 114.667 40.3613 111.347 43.6808C108.028 47.0003 102.685 47.0003 92 47.0003C81.3149 47.0003 75.9724 47.0003 72.6528 43.6808C69.3333 40.3613 69.3333 35.0188 69.3333 24.3337C69.3333 13.6485 69.3333 8.30589 72.6528 4.98647C75.9724 1.66699 81.3149 1.66699 92 1.66699C102.685 1.66699 108.028 1.66699 111.347 4.98647C114.667 8.30589 114.667 13.6485 114.667 24.3337Z" stroke="#FF6600" stroke-width="1.5"/>
<path d="M114.667 18.667V44.0656C114.667 66.577 100.411 85.668 80.6667 92.3337" stroke="#FF6600" stroke-width="1.5" stroke-linecap="round"/>
</svg>
