<svg width="40" height="40" viewBox="0 0 40 40" fill="none" xmlns="http://www.w3.org/2000/svg">
<path fill-rule="evenodd" clip-rule="evenodd" d="M23.0532 23.6723C23.0532 21.9886 21.6833 20.6187 19.9998 20.6187C18.3164 20.6187 16.9465 21.9886 16.9465 23.6723V29.9891H23.0531V23.6723H23.0532ZM28.8821 12.8884V29.9891H24.1285V23.6723C24.1285 21.3958 22.2761 19.5433 19.9997 19.5433C17.7233 19.5433 15.8714 21.3957 15.8714 23.6723V29.9891H11.118V12.8884L19.9998 6.47114L28.8821 12.8884ZM33.0992 31.0643H29.9571V34.1947C29.9571 34.4915 29.7161 34.7323 29.4193 34.7323C29.1226 34.7323 28.8821 34.4915 28.8821 34.1947V31.0651H11.118V34.1947C11.118 34.4915 10.8769 34.7323 10.5802 34.7323C10.2835 34.7323 10.0429 34.4915 10.0429 34.1947V31.0643H6.90037C6.60317 31.0643 6.36261 30.8241 6.36261 30.5266C6.36261 30.2299 6.60317 29.989 6.90037 29.989H10.0429V13.6655L7.21565 15.7078C6.97597 15.8804 6.63933 15.8288 6.46405 15.5866C6.29101 15.3465 6.34445 15.0103 6.58549 14.8361L10.0429 12.3387V7.42906C10.0429 7.13226 10.2835 6.8913 10.5802 6.8913C10.8769 6.8913 11.118 7.13226 11.118 7.42906V11.5616L19.082 5.80818L16.5582 3.9853C16.3173 3.81114 16.2633 3.4749 16.4369 3.23482C16.6113 2.99402 16.9474 2.93946 17.188 3.11362L19.9998 5.14514L22.8117 3.11362C23.0526 2.93954 23.3888 2.99402 23.5623 3.23482C23.7362 3.47498 23.6819 3.81122 23.4418 3.9853L20.9176 5.80818L28.8821 11.5616V7.42906C28.8821 7.13226 29.1226 6.8913 29.4193 6.8913C29.7161 6.8913 29.9571 7.13226 29.9571 7.42906V12.3386L33.4145 14.836C33.8371 15.1419 33.6149 15.8095 33.0993 15.8095C32.9901 15.8095 32.8796 15.7764 32.7845 15.7077L29.9572 13.6654V29.989H33.0993C33.3965 29.989 33.6365 30.2299 33.6365 30.5266C33.6365 30.8241 33.3964 31.0643 33.0992 31.0643ZM37.2035 32.7724C36.9068 32.7724 36.6657 33.0135 36.6657 33.3102V36.6663H33.3098C33.0126 36.6663 32.7721 36.9072 32.7721 37.2039C32.7721 37.5007 33.0127 37.7415 33.3098 37.7415H37.2035C37.5011 37.7415 37.7412 37.5007 37.7412 37.2039V33.3101C37.7413 33.0135 37.5012 32.7724 37.2035 32.7724ZM37.2035 2.25842H33.3098C33.0126 2.25842 32.7721 2.4993 32.7721 2.79602C32.7721 3.09274 33.0127 3.33362 33.3098 3.33362H36.6657V6.68986C36.6657 6.98658 36.9068 7.22746 37.2035 7.22746C37.5011 7.22746 37.7412 6.98658 37.7412 6.68986V2.7961C37.7413 2.4993 37.5012 2.25842 37.2035 2.25842ZM2.79565 7.22746C3.09325 7.22746 3.33341 6.98658 3.33341 6.68986V3.3337H6.68933C6.98693 3.3337 7.22701 3.09282 7.22701 2.7961C7.22701 2.4993 6.98693 2.2585 6.68933 2.2585H2.79565C2.49893 2.2585 2.25789 2.49938 2.25789 2.7961V6.68994C2.25789 6.98658 2.49893 7.22746 2.79565 7.22746ZM7.22701 37.204C7.22701 36.9072 6.98693 36.6664 6.68933 36.6664H3.33333V33.3103C3.33333 33.0135 3.09325 32.7725 2.79557 32.7725C2.49885 32.7725 2.25781 33.0135 2.25781 33.3103V37.2041C2.25781 37.5008 2.49885 37.7417 2.79557 37.7417H6.68925C6.98693 37.7416 7.22701 37.5007 7.22701 37.204Z" fill="#FF6600"/>
</svg>
