<svg width="40" height="40" viewBox="0 0 40 40" fill="none" xmlns="http://www.w3.org/2000/svg">
<path d="M39.3849 16.6704L37.6826 14.6422C37.5634 14.5004 37.3873 14.4183 37.2016 14.4183H34.8293C34.4825 14.4183 34.2013 14.6994 34.2013 15.0461V19.842H33.0292V13.7533C33.0292 12.5858 32.0839 11.6365 30.9221 11.6365H26.3034V10.362H29.8245C30.1712 10.362 30.4524 10.0809 30.4524 9.73412V7.36193C30.4524 7.17701 30.3707 7.00107 30.2292 6.88177L28.2104 5.17951C28.0972 5.0838 27.954 5.03162 27.8056 5.03162H18.3818C18.2336 5.03162 18.0903 5.0838 17.977 5.17951L15.9584 6.88177C15.8167 7.00107 15.735 7.17701 15.735 7.36193V9.73404C15.735 10.0808 16.0163 10.3619 16.363 10.3619H19.8841V11.6365H14.8559C14.2823 11.6365 13.7822 11.8455 13.3705 12.2575L9.86109 15.7579H7.02281C6.05078 15.7579 5.25992 16.5486 5.25992 17.5204V19.8419H3.51102V15.9486C3.51102 15.6019 3.22977 15.3208 2.88297 15.3208C1.55187 15.3208 0.46875 16.4036 0.46875 17.7348V28.2004C0.46875 29.5314 1.55187 30.6143 2.88297 30.6143C3.22977 30.6143 3.51102 30.3333 3.51102 29.9865V26.0931H5.26V29.0844C5.26 30.0564 6.05086 30.8472 7.02289 30.8472H9.86117L13.3702 34.3475C13.7767 34.7533 14.2905 34.9683 14.8559 34.9683H25.7405C26.28 34.9683 26.7595 34.7823 27.1688 34.4133L32.3575 29.6718C32.7969 29.2579 33.0294 28.7202 33.0294 28.1168V26.0932H34.2015V30.8892C34.2015 31.2359 34.4827 31.5169 34.8295 31.5169H37.2017C37.3873 31.5169 37.5634 31.435 37.6827 31.2929L39.385 29.2647C39.4801 29.1519 39.5322 29.0089 39.5322 28.8611V17.074C39.532 16.9265 39.4799 16.7835 39.3849 16.6704ZM16.9909 7.65388L18.6112 6.28716H27.5761L29.1963 7.65388V9.10638H16.9909V7.65388ZM21.1402 10.362H25.0473V11.6365H21.1402V10.362ZM2.25492 29.1732C1.93617 28.9665 1.72484 28.6079 1.72484 28.2004V17.7349C1.72484 17.3273 1.93617 16.9683 2.25492 16.7622V29.1732ZM3.51102 24.8376V21.0976H5.26V24.8376H3.51102ZM32.4011 24.8376C32.0545 24.8376 31.7731 25.1186 31.7731 25.4653V28.1168C31.7731 28.376 31.6853 28.5797 31.5034 28.7511L26.3244 33.4834C26.1466 33.644 25.972 33.7126 25.7403 33.7126H14.8559C14.6242 33.7126 14.4286 33.6296 14.2573 33.4587L10.5643 29.7747C10.4466 29.657 10.2871 29.5912 10.1209 29.5912H7.02289C6.74805 29.5912 6.51602 29.359 6.51602 29.0845V17.5204C6.51602 17.2459 6.74805 17.0136 7.02289 17.0136H10.1208C10.287 17.0136 10.4466 16.9479 10.5642 16.8301L14.258 13.1458C14.4334 12.9706 14.6178 12.8925 14.8559 12.8925H30.9221C31.3914 12.8925 31.7731 13.2783 31.7731 13.7533V20.4697C31.7731 20.8167 32.0545 21.0976 32.4011 21.0976H34.2013V24.8376H32.4011ZM38.2759 28.6326L36.9088 30.2613H35.4571V15.674H36.9088L38.2759 17.3026V28.6326ZM15.4608 20.8095C13.1753 20.8095 11.3163 22.6645 11.3163 24.9445C11.3163 27.2298 13.1753 29.089 15.4608 29.089C17.7409 29.089 19.5959 27.2298 19.5959 24.9445C19.5958 22.6645 17.7408 20.8095 15.4608 20.8095ZM15.4608 27.8332C13.868 27.8332 12.5723 26.5374 12.5723 24.9445C12.5723 23.3569 13.868 22.0653 15.4608 22.0653C17.0483 22.0653 18.3399 23.3568 18.3399 24.9445C18.3399 26.5374 17.0482 27.8332 15.4608 27.8332ZM28.9591 20.7021C28.9562 20.6989 28.9543 20.6947 28.9513 20.6917L24.083 15.2846C22.5945 13.5785 20.0699 13.2619 18.2106 14.548C18.1881 14.5636 18.1667 14.5808 18.1462 14.5991L11.3058 20.7966C10.0914 22.0058 9.47148 23.6961 9.60476 25.4347C9.73641 27.1501 10.5878 28.6628 12.0021 29.6939C13.0409 30.4511 14.249 30.816 15.4477 30.816C17.2595 30.816 19.0495 29.983 20.2003 28.4132L23.3052 24.1717C23.7309 25.5829 25.0445 26.6142 26.5963 26.6142C28.4866 26.6142 30.0245 25.0764 30.0245 23.1863C30.0244 22.2094 29.6138 21.3285 28.9591 20.7021ZM19.187 27.6714C17.6838 29.7219 14.7923 30.174 12.742 28.6792C11.6295 27.868 10.9598 26.6817 10.857 25.3387C10.7532 23.9874 11.2523 22.6223 12.1705 21.7073L18.9576 15.559C20.2873 14.6629 22.0773 14.8963 23.1434 16.1174L26.4209 19.758C25.0555 19.8273 23.8985 20.6939 23.4098 21.9028L19.187 27.6714ZM26.5962 25.3588C25.3934 25.3588 24.4148 24.3839 24.4148 23.1864C24.4148 21.9834 25.3934 21.0047 26.5962 21.0047C27.7938 21.0047 28.7684 21.9833 28.7684 23.1864C28.7684 24.3839 27.7938 25.3588 26.5962 25.3588ZM23.4565 18.2184C23.4565 16.7177 22.2358 15.4973 20.7352 15.4973C19.2348 15.4973 18.0141 16.7177 18.0141 18.2184C18.0141 19.7136 19.2348 20.9301 20.7352 20.9301C22.2358 20.9301 23.4565 19.7136 23.4565 18.2184ZM20.7353 19.6744C19.9273 19.6744 19.2702 19.0211 19.2702 18.2184C19.2702 17.4106 19.9273 16.7531 20.7353 16.7531C21.5434 16.7531 22.2005 17.4106 22.2005 18.2184C22.2005 19.0211 21.5434 19.6744 20.7353 19.6744ZM16.0978 24.9445C16.0978 25.2913 15.8166 25.5724 15.4699 25.5724C15.1231 25.5724 14.8326 25.2913 14.8326 24.9445C14.8326 24.5977 15.1045 24.3168 15.4513 24.3168H15.4699C15.8167 24.3168 16.0978 24.5977 16.0978 24.9445Z" fill="#FF6600"/>
</svg>
