<svg width="40" height="40" viewBox="0 0 40 40" fill="none" xmlns="http://www.w3.org/2000/svg">
<path d="M37.7481 16.28C37.8745 16.4024 37.9499 16.5682 37.959 16.7439C37.9682 16.9196 37.9104 17.0923 37.7973 17.2272C37.6843 17.362 37.5243 17.4491 37.3497 17.4707C37.1751 17.4924 36.9987 17.4471 36.8561 17.344L21.3721 3.912C20.9954 3.58311 20.5122 3.40189 20.0121 3.40189C19.512 3.40189 19.0288 3.58311 18.6521 3.912L12.6521 9.056C12.5545 9.14869 12.4316 9.21033 12.2989 9.23311C12.1662 9.25589 12.0298 9.23878 11.9069 9.18395C11.7839 9.12912 11.68 9.03904 11.6083 8.92512C11.5366 8.8112 11.5004 8.67856 11.5041 8.544V6.632C11.5046 6.5872 11.4962 6.54275 11.4793 6.50126C11.4624 6.45976 11.4374 6.42207 11.4057 6.39039C11.374 6.35871 11.3363 6.33368 11.2948 6.31679C11.2534 6.29989 11.2089 6.29146 11.1641 6.292H8.0601C8.0153 6.29146 7.97085 6.29989 7.92936 6.31679C7.88787 6.33368 7.85017 6.35871 7.81849 6.39039C7.78681 6.42207 7.76179 6.45976 7.74489 6.50126C7.72799 6.54275 7.71957 6.5872 7.7201 6.632V13.052C7.71865 13.1604 7.69097 13.2669 7.63942 13.3624C7.58788 13.4578 7.514 13.5393 7.4241 13.6L3.1281 17.344C3.05901 17.4037 2.97866 17.4489 2.89181 17.477C2.80496 17.5052 2.71335 17.5156 2.62239 17.5078C2.53143 17.5 2.44296 17.474 2.36219 17.4315C2.28142 17.3889 2.20999 17.3306 2.1521 17.26C2.03921 17.1165 1.98508 16.9354 2.00068 16.7534C2.01627 16.5715 2.10043 16.4022 2.2361 16.28L6.1921 12.84C6.23232 12.8106 6.26492 12.7721 6.28719 12.7275C6.30946 12.683 6.32074 12.6338 6.3201 12.584V6.292C6.33303 5.92481 6.48468 5.57618 6.74448 5.31638C7.00428 5.05658 7.35292 4.90493 7.7201 4.892H11.5081C11.8757 4.90487 12.2248 5.05639 12.4852 5.31609C12.7457 5.5758 12.8982 5.92446 12.9121 6.292C12.9124 6.35584 12.9308 6.41829 12.9653 6.47204C12.9997 6.52578 13.0488 6.56858 13.1067 6.59545C13.1647 6.62231 13.229 6.63211 13.2923 6.62371C13.3556 6.61531 13.4152 6.58904 13.4641 6.548L17.7161 2.852C18.3567 2.31364 19.1634 2.01272 20.0001 2C20.8301 2.00356 21.631 2.30602 22.2561 2.852L37.7481 16.28ZM26.1801 29.88C26.508 29.6899 26.8889 29.612 27.2651 29.6582C27.6412 29.7044 27.992 29.8722 28.2641 30.136L32.4321 34.304C32.7332 34.6311 32.9003 35.0594 32.9003 35.504C32.9003 35.9486 32.7332 36.3769 32.4321 36.704L31.6321 37.468C31.3109 37.7808 30.8804 37.9558 30.4321 37.9558C29.9838 37.9558 29.5533 37.7808 29.2321 37.468L25.0721 33.324C24.8081 33.0528 24.6404 32.7023 24.5949 32.3266C24.5494 31.9508 24.6285 31.5704 24.8201 31.244C24.8692 31.1777 24.8919 31.0956 24.8838 31.0135C24.8757 30.9314 24.8373 30.8553 24.7761 30.8C24.1821 30.1781 23.7844 29.3949 23.6329 28.5484C23.4814 27.7018 23.5827 26.8293 23.9241 26.04L26.0521 20.84C26.2955 20.2775 26.3609 19.654 26.2393 19.0533C26.1177 18.4526 25.8151 17.9035 25.3721 17.48L24.0001 16.112C23.8817 16.0098 23.7305 15.9536 23.5741 15.9536C23.4177 15.9536 23.2665 16.0098 23.1481 16.112L22.7241 16.536C22.5081 16.748 22.5961 16.96 22.7641 17.132C22.9549 17.3119 23.1069 17.5288 23.2108 17.7696C23.3147 18.0103 23.3683 18.2698 23.3683 18.532C23.3683 18.7942 23.3147 19.0537 23.2108 19.2944C23.1069 19.5352 22.9549 19.7521 22.7641 19.932L14.8681 27.884C14.4845 28.2519 13.9736 28.4574 13.4421 28.4574C12.9106 28.4574 12.3997 28.2519 12.0161 27.884L10.4841 26.312C10.1176 25.9381 9.91239 25.4355 9.91239 24.912C9.91239 24.3885 10.1176 23.8859 10.4841 23.512L18.4001 15.56C18.782 15.1905 19.2927 14.9839 19.8241 14.9839C20.3555 14.9839 20.8662 15.1905 21.2481 15.56C21.2784 15.599 21.3172 15.6306 21.3616 15.6524C21.4059 15.6741 21.4547 15.6854 21.5041 15.6854C21.5535 15.6854 21.6023 15.6741 21.6466 15.6524C21.691 15.6306 21.7298 15.599 21.7601 15.56L22.1841 15.132C22.558 14.7655 23.0606 14.5603 23.5841 14.5603C24.1076 14.5603 24.6102 14.7655 24.9841 15.132L26.3441 16.536C26.9895 17.1516 27.4297 17.9509 27.6051 18.8254C27.7804 19.6999 27.6823 20.6072 27.3241 21.424L25.2001 26.568C24.9744 27.1074 24.9027 27.6988 24.9931 28.2764C25.0835 28.8541 25.3324 29.3954 25.7121 29.84C25.7759 29.8952 25.8556 29.9287 25.9396 29.9359C26.0237 29.9431 26.1078 29.9235 26.1801 29.88ZM19.3801 16.536L11.4641 24.484C11.4037 24.5373 11.3553 24.6029 11.3221 24.6763C11.2889 24.7498 11.2718 24.8294 11.2718 24.91C11.2718 24.9906 11.2889 25.0702 11.3221 25.1437C11.3553 25.2171 11.4037 25.2827 11.4641 25.336L12.9961 26.908C13.1219 27.011 13.2795 27.0673 13.4421 27.0673C13.6047 27.0673 13.7623 27.011 13.8881 26.908L21.8001 18.96C21.8605 18.9067 21.9089 18.8411 21.9421 18.7677C21.9753 18.6942 21.9924 18.6146 21.9924 18.534C21.9924 18.4534 21.9753 18.3738 21.9421 18.3003C21.9089 18.2269 21.8605 18.1613 21.8001 18.108L20.2681 16.536C20.1423 16.433 19.9847 16.3767 19.8221 16.3767C19.6595 16.3767 19.5019 16.433 19.3761 16.536H19.3801ZM26.8001 31.156L26.0361 31.924C26.0056 31.9503 25.9812 31.9828 25.9644 32.0194C25.9477 32.056 25.939 32.0958 25.939 32.136C25.939 32.1762 25.9477 32.216 25.9644 32.2526C25.9812 32.2892 26.0056 32.3217 26.0361 32.348L30.2201 36.512C30.2467 36.5419 30.2794 36.5658 30.3159 36.5822C30.3525 36.5986 30.3921 36.607 30.4321 36.607C30.4721 36.607 30.5117 36.5986 30.5483 36.5822C30.5848 36.5658 30.6175 36.5419 30.6441 36.512L31.4441 35.748C31.5059 35.6858 31.5406 35.6017 31.5406 35.514C31.5406 35.4263 31.5059 35.3422 31.4441 35.28L27.3281 31.156C27.2562 31.0961 27.1656 31.0634 27.0721 31.0634C26.9786 31.0634 26.888 31.0961 26.8161 31.156H26.8001ZM32.3041 19.34C32.3045 19.0371 32.2401 18.7376 32.1152 18.4617C31.9903 18.1857 31.8079 17.9396 31.5801 17.74L21.3321 8.672C20.9646 8.34032 20.4871 8.15672 19.9921 8.15672C19.4971 8.15672 19.0196 8.34032 18.6521 8.672L8.4001 17.728C8.17774 17.9298 8.00153 18.1772 7.88349 18.4534C7.76545 18.7295 7.70835 19.0278 7.7161 19.328V34.472C7.70646 35.0244 7.91616 35.5582 8.29928 35.9563C8.6824 36.3544 9.2077 36.5844 9.7601 36.596H25.5001C26.4001 36.596 26.4001 38 25.5001 38H9.7641C8.84072 37.9853 7.96058 37.6062 7.31548 36.9453C6.67038 36.2845 6.3126 35.3955 6.3201 34.472V19.34C6.31968 18.8409 6.42662 18.3475 6.63368 17.8934C6.84073 17.4393 7.14304 17.035 7.5201 16.708L17.7601 7.652C18.3799 7.09736 19.1824 6.79071 20.0141 6.79071C20.8458 6.79071 21.6483 7.09736 22.2681 7.652L32.5161 16.708C32.8855 17.0383 33.1794 17.4444 33.3775 17.8987C33.5756 18.3529 33.6734 18.8445 33.6641 19.34V31.368C33.6641 31.5483 33.5925 31.7213 33.4649 31.8488C33.3374 31.9764 33.1644 32.048 32.9841 32.048C32.8038 32.048 32.6308 31.9764 32.5033 31.8488C32.3757 31.7213 32.3041 31.5483 32.3041 31.368V19.34Z" fill="#0C0A0A"/>
</svg>
