<svg width="138" height="93" viewBox="0 0 138 93" fill="none" xmlns="http://www.w3.org/2000/svg">
<path d="M135.125 87.1626H124.085V78.3078H126.385C126.998 78.3078 127.535 77.0216 127.535 76.1806V71.3822H130.946C131.56 71.3822 132.096 70.0961 132.096 69.2551V47.1429C132.096 46.3514 131.598 46.3019 130.946 46.3019H127.458C127.496 46.3019 127.535 45.362 127.535 45.1642V41.2067C127.535 40.4152 127.036 40.3658 126.385 40.3658H87.0929V4.40246C87.0929 3.95725 86.9396 3.5615 86.6713 3.2647C86.4029 2.96789 86.0579 2.86895 85.7129 2.96789L38.1029 15.4338C37.5663 15.5822 37.1829 16.4727 37.1829 17.1652L37.1446 19.7376H22.6929C22.0796 19.7376 21.5429 19.787 21.5429 20.5785V26.6136H17.7096C17.0963 26.6136 16.5596 26.6631 16.5596 27.4546V38.2881C16.5596 39.0796 17.0579 40.4152 17.7096 40.4152H21.5429V43.3833H17.7096C17.0963 43.3833 16.5596 43.4328 16.5596 44.2243V55.0578C16.5596 55.8493 17.0579 57.1849 17.7096 57.1849H21.5429V60.153H17.7096C17.0963 60.153 16.5596 60.2025 16.5596 60.9939V71.8275C16.5596 72.6189 17.0579 73.9546 17.7096 73.9546H21.5429V87.212H10.1196V83.7493H13.4163C14.0296 83.7493 14.5663 82.7599 14.5663 81.9684C14.5663 81.7705 14.5279 81.4737 14.4896 81.3253L10.5029 59.7572C10.3879 59.1142 9.92794 58.57 9.39128 58.57C8.85461 58.57 8.39461 59.0152 8.27961 59.7078L4.29294 81.3253C4.21628 81.7705 4.29294 82.562 4.52294 82.9083C4.75294 83.2546 5.05961 83.7987 5.40461 83.7987H8.96961V87.2615H2.87461C2.26128 87.2615 1.72461 87.9046 1.72461 88.7455C1.72461 89.537 2.22294 90.2296 2.87461 90.2296H135.125C135.738 90.2296 136.275 89.5865 136.275 88.7455C136.275 87.8056 135.776 87.1626 135.125 87.1626ZM6.86128 80.6822L9.42961 66.7817L11.9979 80.6822H6.86128ZM130.525 68.3152H124.276L126.385 63.3684H130.525V68.3152ZM130.525 53.0296V55.0083H129.95L130.525 53.0296ZM130.525 56.4429V61.8844H126.998L129.298 56.4429H130.525ZM124.391 61.8844H120.213L117.913 56.4429H126.73L124.391 61.8844ZM123.778 63.3684L122.321 66.7817L120.865 63.3684H123.778ZM117.606 61.8844H108.368L110.668 56.4429H115.268L117.606 61.8844ZM101.545 61.8844L99.2446 56.4429H108.061L105.761 61.8844H101.545ZM105.071 63.3684L103.615 66.7817L102.158 63.3684H105.071ZM83.1063 61.8844L80.8063 56.4429H89.6229L87.3229 61.8844H83.1063ZM86.6713 63.3684L85.2146 66.7817L83.7579 63.3684H86.6713ZM76.8579 56.4429H78.1613L80.4613 61.8844H76.8196V56.4429H76.8579ZM92.2296 56.4429H96.5996L98.8996 61.8844H89.8913L92.2296 56.4429ZM94.4146 51.3477L95.9479 55.0083H92.8429L94.4146 51.3477ZM111.281 54.9588L112.968 51.0014L114.655 54.9588H111.281ZM108.675 54.9588H98.593L96.063 49.0227H111.205L108.675 54.9588ZM90.2363 54.9588H80.1546L77.6246 49.0227H92.7663L90.2363 54.9588ZM77.5479 54.9588H76.8579V52.7328L77.5479 54.9588ZM76.8579 63.3684H81.1129L83.2213 68.3152H76.8579V63.3684ZM89.2779 63.3684H99.5513L101.66 68.3152H87.2079L89.2779 63.3684ZM107.716 63.3684H118.22L120.328 68.3152H105.608L107.716 63.3684ZM129.873 49.0227L127.343 54.9588H117.261L114.731 49.0227H129.873ZM85.2913 5.68863V40.1184H76.0913V8.31044C76.0913 8.26097 76.0913 8.16204 76.0529 8.11257L85.2913 5.68863ZM74.9413 40.1184H71.1079C70.4563 40.1184 69.9579 40.1679 69.9579 40.9594V77.7142H66.1246V10.7344L74.9413 8.40938V40.1184ZM64.9746 77.7142H56.9246V73.7567H60.7579C61.4096 73.7567 61.9079 72.4705 61.9079 71.6296V60.7466C61.9079 59.9056 61.3713 59.9056 60.7579 59.9056H56.9246V56.9376H60.7579C61.4096 56.9376 61.9079 55.6514 61.9079 54.8104V43.9275C61.9079 43.0865 61.3713 43.0865 60.7579 43.0865H56.9246V40.1184H60.7579C61.4096 40.1184 61.9079 38.8322 61.9079 37.9913V27.1083C61.9079 26.2674 61.3713 26.2674 60.7579 26.2674H56.9246V20.1828C56.9246 19.5397 56.5413 18.9955 56.1579 18.7977V13.3562L64.9746 11.0312V77.7142ZM23.9579 70.7886V62.8737H54.6246V70.7886H23.9579ZM56.9246 62.8737H59.6079V70.7886H56.9246V62.8737ZM23.9579 46.0546H54.6246V53.9695H23.9579V46.0546ZM56.9246 46.0546H59.6079V53.9695H56.9246V46.0546ZM23.9579 29.2354H54.6246V37.1503H23.9579V29.2354ZM56.9246 29.2354H59.6079V37.1503H56.9246V29.2354ZM39.6746 18.0062L55.0079 13.653V19.3418H39.6363L39.6746 18.0062ZM23.9579 22.3099H38.2946C38.3329 22.3099 38.4096 22.3099 38.4479 22.3594C38.5246 22.3594 38.6013 22.3099 38.6396 22.3099H54.5863V26.2674H23.9196V22.3099H23.9579ZM18.9746 37.1503V29.2354H21.6579V37.1503H18.9746ZM23.9579 40.1184H54.6246V43.0865H23.9579V40.1184ZM18.9746 53.9695V46.0546H21.6579V53.9695H18.9746ZM23.9579 56.9376H54.6246V59.9056H23.9579V56.9376ZM18.9746 70.7886V62.8737H21.6579V70.7886H18.9746ZM23.9579 73.7567H26.2579V87.1131H23.9579V73.7567ZM27.4079 73.7567H29.7079V87.1131H27.4079V73.7567ZM30.8579 73.7567H33.1579V87.1131H30.8579V73.7567ZM34.3079 73.7567H36.6079V87.1131H34.3079V73.7567ZM37.7579 73.7567H54.6246V78.5551V87.1131H37.7579V73.7567ZM56.9246 80.6822H69.9579V87.1131H56.9246V80.6822ZM72.2579 43.0865H125.925V44.9168C125.925 45.1147 125.963 46.0546 126.001 46.0546H75.7079C75.0563 46.0546 74.5579 46.1041 74.5579 46.8955V69.1562C74.5579 69.9971 75.0563 71.2833 75.7079 71.2833H84.8696C84.9846 71.2833 85.0996 71.3822 85.2146 71.3822C85.3296 71.3822 85.4446 71.2833 85.5596 71.2833H103.27C103.385 71.2833 103.5 71.3822 103.615 71.3822C103.73 71.3822 103.845 71.2833 103.96 71.2833H121.938C122.053 71.2833 122.168 71.3822 122.283 71.3822C122.398 71.3822 122.513 71.2833 122.628 71.2833H125.925V75.2408H95.1046C94.913 75.2408 94.7596 74.9934 94.6063 75.0923L76.9346 86.6679C76.8196 86.7668 76.7046 87.1131 76.6279 87.1131H72.2579V43.0865V43.0865ZM95.4113 78.2088H99.8963V87.1131H81.6496L95.4113 78.2088ZM101.008 78.2088H107.525V87.1131H101.008V78.2088ZM108.675 78.2088H115.191V87.1131H108.675V78.2088ZM116.341 78.2088H122.475V87.1131H116.341V78.2088Z" fill="#F0A538"/>
</svg>
