<svg width="40" height="40" viewBox="0 0 40 40" fill="none" xmlns="http://www.w3.org/2000/svg">
<g clip-path="url(#clip0_68_502)">
<path d="M34.1148 0.0800781C31.2648 0.0800781 28.9119 2.24086 28.6026 5.01023H4.35094C2.14055 5.01023 0.341797 6.80906 0.341797 9.01937V35.9109C0.341797 38.1213 2.14063 39.92 4.35094 39.92H34.1185C34.1189 39.92 34.1193 39.9198 34.1198 39.9198C37.1747 39.9171 39.6591 37.4314 39.6591 34.3759V5.62969C39.659 2.56945 37.172 0.0800781 34.1148 0.0800781ZM4.35094 38.6751C2.82688 38.6751 1.5868 37.4349 1.5868 35.9109V9.01937C1.5868 7.49531 2.82695 6.25523 4.35094 6.25523H28.5659V34.3759C28.5659 36.1091 29.367 37.6577 30.6174 38.6751H4.35094ZM34.1148 38.6751C31.7416 38.6751 29.8109 36.7468 29.8109 34.3759C29.8109 32.0027 31.7416 30.072 34.1148 30.072C36.4857 30.072 38.414 32.0027 38.414 34.3759C38.414 36.7468 36.4857 38.6751 34.1148 38.6751ZM38.414 30.8756C38.347 30.8252 36.832 28.827 34.1148 28.827C32.5403 28.827 30.9105 29.5367 29.8222 30.865C29.8186 30.8693 29.8144 30.8731 29.8109 30.8775V5.62969C29.8109 3.25641 31.7416 1.32508 34.1148 1.32508C36.4857 1.32508 38.414 3.25641 38.414 5.62969V30.8756Z" fill="#0C0A0A"/>
<path d="M24.3658 13.978H23.0873C22.7433 13.978 22.4648 14.2565 22.4648 14.6005C22.4648 14.9446 22.7433 15.223 23.0873 15.223H24.3658C24.7098 15.223 24.9883 14.9446 24.9883 14.6005C24.9883 14.2565 24.7098 13.978 24.3658 13.978Z" fill="#0C0A0A"/>
<path d="M24.3658 25.3667H23.0873C22.7433 25.3667 22.4648 25.6451 22.4648 25.9892C22.4648 26.3333 22.7433 26.6117 23.0873 26.6117H24.3658C24.7098 26.6117 24.9883 26.3333 24.9883 25.9892C24.9883 25.6451 24.7098 25.3667 24.3658 25.3667Z" fill="#0C0A0A"/>
<path d="M24.3485 23.2805V16.7375C24.3485 16.3934 24.0701 16.115 23.726 16.115C23.382 16.115 23.1035 16.3934 23.1035 16.7375V23.2805C23.1035 23.6245 23.382 23.903 23.726 23.903C24.0701 23.903 24.3485 23.6245 24.3485 23.2805Z" fill="#0C0A0A"/>
<path d="M19.8966 29.0269C19.5531 29.0269 19.2741 29.3053 19.2741 29.6494L19.2734 30.9272C19.2734 31.2706 19.5519 31.5497 19.8959 31.5497C20.2394 31.5497 20.5184 31.2712 20.5184 30.9272L20.5191 29.6494C20.5191 29.3058 20.2407 29.0269 19.8966 29.0269Z" fill="#0C0A0A"/>
<path d="M8.50203 29.0222C8.15859 29.0222 7.87953 29.3007 7.87953 29.6447L7.87891 30.9225C7.87891 31.266 8.15734 31.545 8.50141 31.545C8.84484 31.545 9.12391 31.2666 9.12391 30.9225L9.12453 29.6447C9.12453 29.3012 8.84609 29.0222 8.50203 29.0222Z" fill="#0C0A0A"/>
<path d="M17.7584 29.6645L11.2123 29.6621C10.8689 29.6621 10.5898 29.9405 10.5898 30.2846C10.5898 30.628 10.8683 30.9071 11.2123 30.9071L17.7584 30.9095C18.1018 30.9095 18.3809 30.6311 18.3809 30.287C18.3809 29.9436 18.1024 29.6645 17.7584 29.6645Z" fill="#0C0A0A"/>
<path d="M14.6222 14.1433C14.3839 13.9233 14.0154 13.9233 13.7772 14.1433L8.00684 19.4826C7.75395 19.7161 7.73871 20.11 7.97215 20.3622C8.20559 20.6158 8.59887 20.6297 8.85176 20.3969L9.42746 19.8643V25.9891C9.42746 26.3332 9.7059 26.6116 10.05 26.6116C10.1663 26.6116 18.5069 26.6116 18.3497 26.6116C18.6938 26.6116 18.9722 26.3332 18.9722 25.9891V19.8648L19.5473 20.397C19.7995 20.63 20.1937 20.6153 20.4269 20.3623C20.6604 20.11 20.6451 19.7161 20.3922 19.4827C18.1699 17.4261 15.6017 15.0497 14.6222 14.1433ZM13.4179 25.3666V22.2268H14.9814V25.3666H13.4179ZM17.7274 25.3666H16.2264V21.6043C16.2264 21.2602 15.948 20.9818 15.6039 20.9818H12.7954C12.4514 20.9818 12.1729 21.2602 12.1729 21.6043V25.3666H10.6726V18.7122L14.1997 15.4486L17.7275 18.7128V25.3666H17.7274Z" fill="#0C0A0A"/>
</g>
<defs>
<clipPath id="clip0_68_502">
<rect width="40" height="40" fill="white"/>
</clipPath>
</defs>
</svg>
