<svg width="50" height="50" viewBox="0 0 50 50" fill="none" xmlns="http://www.w3.org/2000/svg">
<g clip-path="url(#clip0_101_825)">
<path d="M47.0654 30.8957C45.8414 29.1251 44.1732 27.7421 42.2206 26.874V18.0267C43.117 17.8227 43.7886 17.0208 43.7886 16.0635V14.7248C43.7886 13.6138 42.8848 12.7099 41.7738 12.7099H33.2195C32.1086 12.7099 31.2047 13.6138 31.2047 14.7248V16.0635C31.2047 17.0208 31.8764 17.8227 32.7728 18.0267V26.874C31.5992 27.3958 30.5294 28.1047 29.5961 28.9708V21.3874C29.5961 21.1553 29.4783 20.9391 29.2835 20.8132C29.0886 20.6873 28.8432 20.6688 28.6315 20.7642L16.8547 26.0733C16.6097 26.1837 16.4521 26.4276 16.4521 26.6964V35.035H12.4307V17.374C12.4307 16.9964 12.1246 16.6904 11.7471 16.6904H5.55664C5.1791 16.6904 4.87305 16.9964 4.87305 17.374V35.035H1.5625C1.18496 35.035 0.878906 35.3411 0.878906 35.7186V48.4376C0.878906 48.8152 1.18496 49.1212 1.5625 49.1212H37.4967C43.9063 49.1212 49.1211 43.9066 49.1211 37.4968C49.1211 35.1236 48.4103 32.8409 47.0654 30.8957ZM32.5719 16.0635V14.7248C32.5719 14.3676 32.8624 14.0771 33.2195 14.0771H41.7738C42.131 14.0771 42.4214 14.3676 42.4214 14.7248V16.0635C42.4214 16.4207 42.1309 16.7112 41.7738 16.7112H33.2195C32.8624 16.7112 32.5719 16.4207 32.5719 16.0635ZM33.7089 27.963C33.9691 27.8595 34.1399 27.6079 34.1399 27.3278V18.0784H40.8535V27.3278C40.8535 27.6079 41.0243 27.8595 41.2846 27.963C42.9608 28.6295 44.3828 29.6935 45.464 31.0217C42.0291 30.2146 40.1651 30.7895 38.3558 31.3496C36.2648 31.9967 34.2823 32.6098 29.5962 31.0304V30.941C30.6688 29.6504 32.0668 28.616 33.7089 27.963ZM17.8192 32.8547H24.0777C24.4553 32.8547 24.7613 32.5487 24.7613 32.1711C24.7613 31.7936 24.4553 31.4875 24.0777 31.4875H17.8192V29.3332H24.0777C24.4553 29.3332 24.7613 29.0271 24.7613 28.6496C24.7613 28.272 24.4553 27.966 24.0777 27.966H17.8192V27.138L28.2289 22.4453V30.4821C28.1262 30.6177 28.0252 30.7549 27.9279 30.8956C27.0566 32.1559 26.4533 33.5583 26.1352 35.0349H17.8191L17.8192 32.8547ZM6.24023 18.0576H11.0635V19.732H7.85986C7.48232 19.732 7.17627 20.038 7.17627 20.4156C7.17627 20.7931 7.48232 21.0992 7.85986 21.0992H11.0635V35.035H6.24023V18.0576ZM2.24609 39.332H14.9512C15.3287 39.332 15.6348 39.0259 15.6348 38.6484C15.6348 38.2708 15.3287 37.9648 14.9512 37.9648H2.24609V36.4022H25.9252C25.8914 36.7644 25.8723 37.1293 25.8723 37.4968C25.8723 37.5119 25.8728 37.5267 25.8729 37.5417H19.6041C19.2266 37.5417 18.9205 37.8478 18.9205 38.2253V47.7541H2.24609V39.332ZM20.2878 47.7541V42.4306H24.0698C24.4474 42.4306 24.7534 42.1246 24.7534 41.747C24.7534 41.3695 24.4474 41.0634 24.0698 41.0634H20.2878V38.9089H25.9583C26.4247 42.7426 28.7646 46.0061 32.0321 47.7541H20.2878ZM37.4967 47.7541C31.8408 47.7541 27.2395 43.1527 27.2395 37.4968C27.2395 35.5672 27.7695 33.7398 28.7179 32.1737C31.3053 33.0859 33.1923 33.3974 34.7052 33.3974C36.3629 33.3974 37.5718 33.0233 38.7598 32.6556C40.708 32.0526 42.552 31.4836 46.6015 32.7527C47.3444 34.1831 47.7538 35.8005 47.7538 37.4968C47.7539 43.1527 43.1525 47.7541 37.4967 47.7541ZM39.1418 5.96382C39.5866 4.52925 39.9707 3.29028 39.1706 1.90444C38.9818 1.57749 39.0938 1.15942 39.4208 0.970652C39.7478 0.781784 40.1658 0.893894 40.3546 1.22085C41.4535 3.12426 40.9191 4.8479 40.4477 6.3687C40.0375 7.69165 39.6833 8.83432 40.3546 9.99702C40.5434 10.324 40.4313 10.742 40.1044 10.9308C39.9968 10.993 39.8792 11.0225 39.7632 11.0225C39.527 11.0225 39.2972 10.9 39.1706 10.6806C38.2005 9.00024 38.7006 7.38706 39.1418 5.96382ZM34.5241 5.96382C34.9688 4.52925 35.3529 3.29028 34.5529 1.90444C34.3642 1.57749 34.4762 1.15942 34.8031 0.970652C35.1303 0.781784 35.5482 0.893894 35.7369 1.22085C36.8358 3.12426 36.3015 4.8479 35.83 6.3686C35.4198 7.69165 35.0656 8.83423 35.7369 9.99692C35.9257 10.3239 35.8137 10.7419 35.4867 10.9307C35.3791 10.9929 35.2615 11.0224 35.1455 11.0224C34.9093 11.0224 34.6795 10.8999 34.5529 10.6805C33.5828 9.00024 34.0829 7.38706 34.5241 5.96382ZM8.61982 14.9012C10.0094 14.9012 11.2797 14.2313 12.062 13.1186C13.0387 13.415 14.1066 13.3464 15.0376 12.926C16.1956 14.0086 17.7309 14.6203 19.3272 14.6203C21.2916 14.6203 23.1071 13.7203 24.2927 12.1853C24.7623 12.3605 25.2629 12.4516 25.7675 12.4516C28.09 12.4516 29.9796 10.5621 29.9796 8.2396C29.9796 5.91704 28.09 4.02749 25.7675 4.02749C25.2164 4.02749 24.673 4.1353 24.1681 4.34243C22.9804 2.90512 21.2115 2.06284 19.3273 2.06284C18.5697 2.06284 17.835 2.19487 17.1362 2.45591C16.2132 1.4602 14.9025 0.879148 13.5334 0.879148C10.828 0.879148 8.62705 3.08012 8.62705 5.7855C8.62705 6.0185 8.64326 6.24956 8.67549 6.47759C8.65703 6.47739 8.63848 6.47719 8.61992 6.47719C6.29736 6.47719 4.40791 8.36675 4.40791 10.6892C4.40791 13.0117 6.29727 14.9012 8.61982 14.9012ZM8.61982 7.84428C8.88574 7.84428 9.14873 7.88081 9.40156 7.95288C9.65049 8.02407 9.91836 7.94809 10.0932 7.75708C10.2681 7.56606 10.3199 7.29272 10.2273 7.05093C10.0727 6.64721 9.99424 6.22134 9.99424 5.7854C9.99424 3.83393 11.5818 2.24624 13.5334 2.24624C14.653 2.24624 15.7188 2.7853 16.3844 3.68833C16.5784 3.95151 16.9316 4.04048 17.2273 3.90053C17.8863 3.58833 18.5929 3.43003 19.3273 3.43003C20.959 3.43003 22.4803 4.23774 23.3968 5.59067C23.6 5.89057 24.0018 5.97983 24.3129 5.79438C24.7513 5.53296 25.2543 5.39477 25.7675 5.39477C27.3361 5.39477 28.6124 6.67095 28.6124 8.2397C28.6124 9.80835 27.3362 11.0845 25.7675 11.0845C25.2856 11.0845 24.8097 10.9619 24.3909 10.7298C24.0743 10.5542 23.6754 10.6563 23.4817 10.9624C22.5747 12.3967 21.0217 13.2532 19.3272 13.2532C17.937 13.2532 16.606 12.66 15.6753 11.6257C15.4531 11.3789 15.0856 11.3272 14.804 11.5038C13.9863 12.0164 12.938 12.0756 12.068 11.6585C11.7322 11.4977 11.3295 11.6349 11.162 11.9673C10.675 12.9337 9.70088 13.5341 8.61973 13.5341C7.05107 13.5341 5.7749 12.258 5.7749 10.6892C5.775 9.12046 7.05117 7.84428 8.61982 7.84428ZM43.7771 35.7363C43.7771 36.2799 43.3336 36.7233 42.79 36.7233C42.2465 36.7233 41.803 36.2799 41.803 35.7363C41.803 35.1926 42.2465 34.7493 42.79 34.7493C43.3336 34.7493 43.7771 35.1926 43.7771 35.7363ZM33.6818 41.1254C33.6818 41.6691 33.2384 42.1124 32.6948 42.1124C32.1513 42.1124 31.7078 41.669 31.7078 41.1254C31.7078 40.5819 32.1513 40.1383 32.6948 40.1383C33.2384 40.1383 33.6818 40.5818 33.6818 41.1254ZM41.9434 43.1482C41.9434 43.5288 41.633 43.8391 41.2524 43.8391C40.8719 43.8391 40.5615 43.5288 40.5615 43.1482C40.5615 42.7676 40.8719 42.4573 41.2524 42.4573C41.633 42.4573 41.9434 42.7676 41.9434 43.1482ZM32.1255 35.7895C31.7449 35.7895 31.4346 35.479 31.4346 35.0986C31.4346 34.7181 31.7449 34.4077 32.1255 34.4077C32.5061 34.4077 32.8164 34.718 32.8164 35.0986C32.8164 35.4791 32.5061 35.7895 32.1255 35.7895ZM38.3119 38.2164C38.3119 38.5969 38.0016 38.9073 37.621 38.9073C37.2404 38.9073 36.9301 38.5969 36.9301 38.2164C36.9301 37.8358 37.2404 37.5254 37.621 37.5254C38.0016 37.5254 38.3119 37.8358 38.3119 38.2164Z" fill="#0C0A0A"/>
</g>
<defs>
<clipPath id="clip0_101_825">
<rect width="50" height="50" fill="white"/>
</clipPath>
</defs>
</svg>
