<svg width="40" height="40" viewBox="0 0 40 40" fill="none" xmlns="http://www.w3.org/2000/svg">
<path d="M3.79703 36.3262H36.2048C38.0339 36.3262 39.5219 34.8393 39.5219 33.012V6.99118C39.5219 5.09759 37.9745 3.67407 36.2048 3.67407H33.8333C32.7184 3.67407 31.8115 4.57993 31.8115 5.6929V7.98478H8.18703V5.6929C8.18703 4.57985 7.28008 3.67407 6.16523 3.67407H3.79703C1.96297 3.67407 0.476562 5.16181 0.476562 6.99118V33.012C0.476562 34.8393 1.96602 36.3262 3.79703 36.3262ZM32.7638 5.6929C32.7638 5.10478 33.2437 4.62634 33.8333 4.62634H36.2048C37.4602 4.62634 38.5696 5.63524 38.5696 6.99118V30.6859C38.5629 30.6788 38.5563 30.6717 38.5495 30.665C37.9183 30.0374 37.0853 29.6915 36.2048 29.6915H33.8333C33.2437 29.6915 32.7638 29.2131 32.7638 28.6249C32.7638 22.5216 32.7638 11.2924 32.7638 5.6929ZM1.42883 6.99118C1.42883 5.68079 2.49719 4.62634 3.79703 4.62634H6.16523C6.75484 4.62634 7.23477 5.1047 7.23477 5.6929V28.625C7.23477 29.2131 6.75484 29.6916 6.16523 29.6916H3.79703C2.91242 29.6916 2.07914 30.0375 1.44484 30.6722C1.43961 30.6777 1.43406 30.6834 1.42883 30.6889V6.99118ZM3.79703 30.6438H6.16523C7.28016 30.6438 8.18703 29.738 8.18703 28.625V8.93712H31.8114V28.625C31.8114 29.7381 32.7184 30.6438 33.8332 30.6438H36.2047C39.2728 30.6438 39.363 35.3738 36.2047 35.3738H3.79703C0.645859 35.3738 0.795078 30.6438 3.79703 30.6438Z" fill="#0C0A0A"/>
<path d="M20.7038 16.7896C20.5315 16.6371 20.2748 16.6281 20.0937 16.7702L13.5948 21.8626C13.4795 21.953 13.4121 22.0913 13.4121 22.2376V29.736C13.4121 29.999 13.6252 30.2122 13.8883 30.2122H26.1101C26.373 30.2122 26.5862 29.9991 26.5862 29.736V22.2376C26.5862 22.1018 26.5282 21.9723 26.4266 21.882L20.7038 16.7896ZM25.6338 29.2599C22.7631 29.2599 15.2547 29.2599 14.3644 29.2599V22.4694L20.3677 17.7654L25.6338 22.4512V29.2599Z" fill="#0C0A0A"/>
<path d="M11.8377 22.0246L15.5235 19.0177C15.6343 18.9273 15.6987 18.7919 15.6987 18.6486V15.051H16.8806V17.1454C16.8806 17.3299 16.987 17.4976 17.154 17.5761C17.3215 17.655 17.5183 17.63 17.6604 17.5121L20.4504 15.2016L28.1475 22.0122C28.3432 22.1852 28.6448 22.1685 28.8197 21.9709C28.9937 21.7741 28.9755 21.4732 28.7783 21.2987L20.7762 14.2181C20.5999 14.0622 20.3372 14.0593 20.1572 14.208L17.8329 16.1328V14.5748C17.8329 14.3118 17.6198 14.0986 17.3568 14.0986H15.2226C14.9597 14.0986 14.7465 14.3118 14.7465 14.5748V18.4225L11.2358 21.2865C11.032 21.4528 11.0015 21.7526 11.1678 21.9565C11.3347 22.1611 11.6355 22.19 11.8377 22.0246Z" fill="#0C0A0A"/>
</svg>
