<svg width="120" height="93" viewBox="0 0 120 93" fill="none" xmlns="http://www.w3.org/2000/svg">
<path d="M117.701 88.4734H110.401V85.5106H114.134C114.701 85.5106 115.168 85.1814 115.168 84.4819C115.168 84.3173 115.134 84.2761 115.101 84.1527L111.534 65.6761C111.434 65.1 111.001 64.7296 110.534 64.7296C110.068 64.7296 109.634 65.1411 109.534 65.7173L105.934 84.3996C105.868 84.7699 105.934 84.9757 106.134 85.2637C106.334 85.5518 106.634 85.5106 106.934 85.5106H109.401V88.4734H100.468V85.5106H104.201C104.768 85.5106 105.234 85.1814 105.234 84.4819C105.234 84.3173 105.201 84.2761 105.168 84.1527L101.601 65.6761C101.501 65.1 101.068 64.7296 100.601 64.7296C100.134 64.7296 99.7009 65.1411 99.6009 65.7173L96.0009 84.3996C95.9343 84.7699 96.0009 84.9757 96.2009 85.2637C96.4009 85.5518 96.7009 85.5106 97.0009 85.5106H99.4676V88.4734H93.6343V62.1783H100.934C101.501 62.1783 101.201 62.0549 101.201 61.3553V32.55C101.201 31.8504 101.501 30.8217 100.934 30.8217H93.6343V3.70354C93.6343 3.00398 93.9343 1.97522 93.3676 1.97522H70.0009C69.4343 1.97522 68.2009 3.00398 68.2009 3.70354V32.55C68.2009 33.2496 69.4343 33.373 70.0009 33.373H75.7676V59.6681H70.0009C69.4343 59.6681 68.2009 60.6969 68.2009 61.3965V88.4734H65.1009V61.7668C65.1009 61.0673 65.4009 60.0385 64.8343 60.0385H51.0009V25.3075C51.0009 24.608 51.3009 23.5792 50.7342 23.5792H17.0676C16.5009 23.5792 15.2676 24.608 15.2676 25.3075V88.4734H8.40091V85.5106H12.1342C12.7009 85.5106 13.1676 85.1814 13.1676 84.4819C13.1676 84.3173 13.1342 84.2761 13.1009 84.1527L9.53425 65.6761C9.43425 65.1 9.00091 64.7296 8.53425 64.7296C8.06758 64.7296 7.63425 65.1411 7.53425 65.7173L3.93425 84.3996C3.86758 84.7699 3.93424 84.9757 4.13424 85.2637C4.33424 85.5518 4.63425 85.5106 4.93425 85.5106H7.40091V88.4734H2.30091C1.73424 88.4734 1.26758 89.0496 1.26758 89.7491C1.26758 90.4487 1.73424 91.0248 2.30091 91.0248H23.2676H64.8343H70.0009H93.3676H117.768C118.334 91.0248 118.801 90.4487 118.801 89.7491C118.734 89.0496 118.268 88.4734 117.701 88.4734ZM108.234 82.9593L110.534 71.0668L112.834 82.9593H108.234ZM98.2676 82.9593L100.568 71.0668L102.868 82.9593H98.2676ZM6.23425 82.9593L8.53425 71.0668L10.8342 82.9593H6.23425ZM56.5009 62.631V80.4491H50.6676V62.631H56.5009ZM43.7676 80.408V62.5898H49.6009V80.408H43.7676V80.408ZM36.9009 80.408V62.5898H42.7342V80.408H36.9009V80.408ZM30.0342 80.408V62.5898H35.8676V80.408H30.0342V80.408ZM48.9343 26.1305V60.0796H41.0676L33.3342 26.1717H48.9343V26.1305ZM17.3342 26.1305H32.2676L40.0009 60.0796H23.2342C22.6676 60.0796 21.4342 61.1084 21.4342 61.808V88.4734H17.3342V26.1305ZM23.5009 62.631H29.0009V80.4491H28.4009C27.8342 80.4491 27.3676 81.0252 27.3676 81.7248C27.3676 82.4243 27.8342 83.0004 28.4009 83.0004H29.0009V88.4734H23.5009V62.631ZM30.0342 82.9593H32.4342V88.4734H30.0342V82.9593ZM33.4676 82.9593H39.3009V88.4734H33.4676V82.9593ZM40.3342 82.9593H46.1676V88.4734H40.3342V82.9593ZM47.2009 82.9593H53.0343V88.4734H47.2009V82.9593ZM54.0676 82.9593H56.4676V88.4734H54.0676V82.9593ZM57.5343 82.9593H60.0009C60.5676 82.9593 61.0343 82.3832 61.0343 81.6836C61.0343 80.9841 60.5676 80.408 60.0009 80.408H57.5343V62.5898H63.0009V88.4734H57.5009V82.9593H57.5343ZM88.3009 59.627L85.1676 33.3319H88.6009L91.7343 59.627H88.3009ZM99.0676 33.373V59.6681H93.3009H92.7343L89.6009 33.373H93.3009H99.0676ZM78.1009 30.8217L78.9676 26.9124C79.0343 26.9535 79.1343 26.9947 79.2009 26.9947H91.5009V30.8217H78.1009ZM83.2009 8.31239C83.2676 8.31239 83.3009 8.35354 83.3676 8.35354H91.5343V11.7279H82.4343L83.2009 8.31239ZM82.1343 13.0035H91.5343V16.3779H81.3676L82.1343 13.0035ZM81.1009 17.6124C81.1676 17.6535 81.2343 17.6535 81.3009 17.6535H91.5343V21.0279H80.3343L81.1009 17.6124ZM80.0343 22.3447H91.5343V25.719H79.2676L80.0343 22.3447ZM91.5343 7.07787H83.5009L84.0676 4.52655H91.5343V7.07787ZM70.2343 30.8217V4.52655H83.0009L77.0676 30.8217H70.2343ZM77.7676 33.373H84.1009L87.2343 59.6681H77.7676V33.373V33.373ZM82.9009 74.8938H70.2343V71.5195H82.5009L82.9009 74.8938ZM70.2343 80.8606H83.6009L84.0009 84.235H70.2343V80.8606ZM70.2343 79.5849V76.2106H83.0009C83.0009 76.2106 83.0009 76.2106 83.0343 76.2106L83.4343 79.6261H70.2343V79.5849ZM70.2343 70.2438V66.8695H81.9343L82.3343 70.2438H70.2343ZM70.2343 62.1783H77.5343H81.4009L81.8009 65.5527H70.2676V62.1783H70.2343ZM70.2343 88.4734V85.5106H84.1676L84.5343 88.4734H70.2343ZM85.5343 88.4734L83.4676 71.3549C83.5009 71.2726 83.5009 71.3137 83.5009 71.1903C83.5009 71.0257 83.4343 70.6965 83.3676 70.6142L82.3676 62.1783H91.4676V88.4734H85.5343Z" fill="#F0A538"/>
</svg>
