<svg width="40" height="40" viewBox="0 0 40 40" fill="none" xmlns="http://www.w3.org/2000/svg">
<g clip-path="url(#clip0_199_2160)">
<path d="M1.48482 16.1276C1.7461 16.4428 2.1262 16.6358 2.53484 16.6609H2.62952C2.87629 16.6605 3.11912 16.5989 3.33617 16.4816V26.9801C3.33762 28.2791 4.39039 29.3319 5.68947 29.3334H19.3099L15.4293 33.8206C14.0796 35.3807 14.2501 37.7397 15.8103 39.0895C17.3705 40.4392 19.7295 40.2687 21.0792 38.7085L29.0791 29.4546C32.022 30.2579 35.1704 29.4504 37.3634 27.3298C39.5563 25.2092 40.4691 22.0896 39.7649 19.1214C39.6549 18.6475 39.2875 18.276 38.8149 18.1608C38.349 18.0442 37.8571 18.2011 37.5449 18.5661L33.839 22.852L29.9144 22.78L29.2771 18.9061L32.9837 14.6214C33.2985 14.2597 33.3833 13.7518 33.203 13.3075C33.02 12.8572 32.5994 12.548 32.115 12.5075C31.2522 12.4359 30.3835 12.4952 29.5384 12.6835L26.6691 10.0715V4.1738C26.668 3.34215 25.9941 2.66824 25.1625 2.66719H22.1759C21.3442 2.6683 20.6703 3.34222 20.6693 4.1738V4.62378L16.0134 0.395846C15.444 -0.131949 14.5641 -0.131949 13.9947 0.395846L0.503509 12.6443C-0.110961 13.213 -0.169685 14.1643 0.370182 14.8042L1.48482 16.1276ZM12.0026 28V20.6669C12.0026 20.2987 12.3011 20.0002 12.6692 20.0002H17.3358C17.7039 20.0002 18.0024 20.2987 18.0024 20.6669V28.0001H12.0026V28ZM19.3358 28V20.6669C19.3358 19.5623 18.4404 18.6669 17.3359 18.6669H12.6693C11.5648 18.6669 10.6693 19.5623 10.6693 20.6669V28.0001H5.6894C5.12637 27.9994 4.67016 27.5431 4.66944 26.9801V15.337L15.0026 5.95442L25.1211 15.1482C25.0204 15.2529 24.9131 15.3482 24.8178 15.4589C22.6363 17.9733 22.0968 21.5187 23.4318 24.5681L20.4632 28H19.3358ZM31.3583 13.8036C31.5423 13.8036 31.727 13.8103 31.911 13.8243L28.069 18.2669C27.9396 18.4166 27.8834 18.6162 27.9157 18.8115L28.6937 23.5407C28.7458 23.8583 29.0172 24.0933 29.339 24.0994L34.1309 24.1874C34.3291 24.1912 34.5186 24.1066 34.6482 23.9567L38.4921 19.5115C39.0703 22.0806 38.2219 24.7621 36.2714 26.5313C34.3209 28.3005 31.5696 28.8839 29.069 28.0587C28.8126 27.975 28.5311 28.0539 28.3556 28.2587L20.0692 37.8359C19.5078 38.4851 18.6427 38.7856 17.7997 38.624C16.9568 38.4625 16.2641 37.8635 15.9824 37.0527C15.7008 36.2419 15.8732 35.3425 16.4346 34.6933L24.7224 25.1134C24.8982 24.9099 24.9345 24.6207 24.8144 24.3801C23.6828 22.1134 23.8055 19.4226 25.1385 17.2682C26.4715 15.1139 28.8248 13.8032 31.3582 13.8044V13.8036H31.3583ZM22.0025 4.1738C22.0049 4.07912 22.0811 4.00295 22.1758 4.00045H25.1624C25.2571 4.00288 25.3333 4.07906 25.3358 4.1738V8.86103L22.0025 5.83441V4.1738ZM1.40281 13.6269L14.8933 1.37854C14.955 1.31896 15.0528 1.31896 15.1146 1.37854L28.0557 13.1337C27.3645 13.4226 26.7135 13.7998 26.119 14.2556L15.4526 4.56315C15.1983 4.33213 14.8101 4.33213 14.5559 4.56315L3.5361 14.567H3.5321L2.73614 15.2903C2.70458 15.3184 2.6637 15.3338 2.62145 15.3336C2.57552 15.3301 2.53326 15.307 2.50544 15.2703L1.38745 13.9463C1.31246 13.8509 1.31895 13.7148 1.40281 13.6269Z" fill="#FF6600"/>
<path fill-rule="evenodd" clip-rule="evenodd" d="M19.2348 34.1387L18.0115 35.566C17.7836 35.8466 17.8209 36.2577 18.0955 36.4927C18.3702 36.7278 18.7822 36.7011 19.0242 36.4326L20.2475 35.0053C20.4754 34.7247 20.4382 34.3135 20.1635 34.0785C19.8889 33.8435 19.4769 33.8701 19.2348 34.1387Z" fill="#FF6600"/>
</g>
<defs>
<clipPath id="clip0_199_2160">
<rect width="40" height="40" fill="white"/>
</clipPath>
</defs>
</svg>
