<svg width="120" height="93" viewBox="0 0 120 93" fill="none" xmlns="http://www.w3.org/2000/svg">
<path d="M117.705 91.9409C118.27 91.9409 118.703 91.5107 118.703 90.9481C118.703 90.3854 118.27 89.9552 117.705 89.9552H114.479V88.6644C115.476 88.4659 116.807 87.6385 116.807 85.1893C116.807 84.3288 116.707 82.1445 116.441 80.1918C116.142 77.9744 115.51 75.3929 113.714 75.3929H113.647C111.818 75.3929 111.253 77.9744 110.92 80.1918C110.654 82.1114 110.621 84.2957 110.621 85.1562C110.621 87.9032 112.151 88.6313 113.481 88.6975V89.9552H107.827V88.6644C108.825 88.4659 110.155 87.6385 110.155 85.1893C110.155 84.3288 110.055 82.1445 109.789 80.1918C109.49 77.9744 108.858 75.3929 107.062 75.3929H106.995C105.166 75.3929 104.601 77.9744 104.268 80.1918C104.002 82.1114 103.969 84.2957 103.969 85.1562C103.969 87.9032 105.499 88.6313 106.829 88.6975V89.9552H101.175V88.6644C102.173 88.4659 103.503 87.6385 103.503 85.1893C103.503 84.3288 103.403 82.1445 103.137 80.1918C102.838 77.9744 102.206 75.3929 100.41 75.3929H100.343C98.5142 75.3929 97.9488 77.9744 97.6162 80.1918C97.3501 82.1114 97.3168 84.2957 97.3168 85.1562C97.3168 87.9032 98.8468 88.6313 100.177 88.6975V89.9552H96.9177C95.1217 87.6384 84.5452 72.1164 84.4787 7.54593C85.8091 7.11568 86.8069 5.85803 86.8069 4.36871C86.8069 2.51532 85.3102 1.026 83.4477 1.026C81.5851 1.026 80.1217 2.54842 80.1217 4.36871C80.1217 5.89113 81.2525 7.18187 82.5829 7.57903V78.1068L81.2525 76.9153V19.2619C81.2525 18.9972 81.1195 18.6662 80.9199 18.5007C80.7204 18.3022 80.4211 18.1367 80.1882 18.1367L69.9443 18.2029C69.4454 18.2029 69.0463 18.6 68.9466 19.0965L62.5607 60.4997L21.9177 24.6566C21.6184 24.3918 21.2525 24.3256 20.8867 24.4911C20.5208 24.6566 20.3545 25.0207 20.3545 25.3847V89.9221H15.6982V88.6313C16.696 88.4328 18.0264 87.6054 18.0264 85.1562C18.0264 84.2957 17.9266 82.1114 17.6605 80.1587C17.3612 77.9413 16.7292 75.3598 14.9332 75.3598H14.8667C13.0375 75.3598 12.472 77.9413 12.1394 80.1587C11.8734 82.0783 11.8401 84.2627 11.8401 85.1232C11.8401 87.8701 13.37 88.5982 14.7004 88.6644V89.9221H9.04632V88.6313C10.0441 88.4328 11.3745 87.6054 11.3745 85.1562C11.3745 84.2957 11.2747 82.1114 11.0086 80.1587C10.7093 77.9413 10.0774 75.3598 8.28135 75.3598H8.21484C6.38557 75.3598 5.82016 77.9413 5.48756 80.1587C5.22149 82.0783 5.18823 84.2627 5.18823 85.1232C5.18823 87.8701 6.71816 88.5982 8.04854 88.6644V89.9221H2.29466C1.72925 89.9221 1.29688 90.3523 1.29688 90.915C1.29688 91.4776 1.72925 91.9079 2.29466 91.9079H117.705V91.9409ZM8.18158 86.6456C7.51639 86.6456 7.11727 86.5794 7.11727 85.1232C7.11727 81.8466 7.61617 78.3716 8.21484 77.5441C8.78025 78.4046 9.3124 81.8466 9.3124 85.1232C9.3124 86.5794 8.91328 86.6456 8.2481 86.6456H8.18158ZM14.8335 86.6456C14.1683 86.6456 13.7692 86.5794 13.7692 85.1232C13.7692 81.8466 14.2681 78.3716 14.8667 77.5441C15.4321 78.4046 15.9643 81.8466 15.9643 85.1232C15.9643 86.5794 15.5652 86.6456 14.9 86.6456H14.8335ZM27.339 89.9552C27.8046 82.674 33.8911 76.8822 41.3412 76.8822C48.7913 76.8822 54.8778 82.674 55.3434 89.9552H27.339ZM57.9377 89.9552H57.339C56.8734 81.6812 49.8889 74.8965 41.3412 74.8965C32.7936 74.8965 25.8091 81.6812 25.3434 89.9552H22.3168V27.6353L62.1949 62.8164L57.9377 89.9552ZM74.5341 89.9552H59.9665L60.8312 84.3288H74.5341V89.9552ZM74.5341 83.336H60.9643L61.6627 78.7025H74.5009V83.336H74.5341ZM74.5341 73.7381V77.7096H61.8623L62.5607 73.0762H73.8024H74.5341V73.7381ZM74.5341 71.0904V72.0833H72.6716H62.727L63.4255 67.4498H67.4166H70.41H74.5341V71.0904ZM74.5341 66.457H69.3124H66.3191H63.5918L63.9244 64.3719L64.2902 62.0221L64.3235 61.8235H74.5674V66.457H74.5341ZM74.5341 60.8306H64.4565L65.155 56.1972H74.5341V60.8306ZM74.5341 55.2043H65.3213L66.0197 50.5708H74.5341V55.2043ZM74.5341 49.578H66.186L66.8845 44.9445H74.5341V49.578ZM74.5341 43.9516H67.0508L67.7492 39.3182H74.5341V43.9516ZM74.5341 38.3253H67.9155L68.614 33.6918H74.5341V38.3253ZM74.5341 32.699H68.7803L69.4787 28.0655H74.5009V32.699H74.5341ZM74.5341 27.0726H69.645L70.7426 20.2217L74.5341 20.2548V27.0726ZM79.1905 75.1943V77.842V89.9552H75.5319V74.6317V71.984V20.2548H79.1905V75.1943ZM82.5164 89.9552H81.186V79.6292L82.5164 80.8207V89.9552ZM83.3811 5.75874C82.6162 5.75874 82.0175 5.16301 82.0175 4.4018C82.0175 3.64059 82.6162 3.04486 83.3811 3.04486C84.1461 3.04486 84.7448 3.64059 84.7448 4.4018C84.7448 5.16301 84.1461 5.75874 83.3811 5.75874ZM93.0264 87.4399C93.5585 88.5321 94.0242 89.3263 94.4233 89.9883H92.8933H84.512V82.5748V79.9271V50.3061C86.8401 71.5207 90.4654 82.2438 93.0264 87.4399ZM100.31 86.6456C99.645 86.6456 99.2459 86.5794 99.2459 85.1232C99.2459 81.8466 99.7448 78.3716 100.343 77.5441C100.909 78.4046 101.441 81.8466 101.441 85.1232C101.441 86.5794 101.042 86.6456 100.377 86.6456H100.31ZM106.962 86.6456C106.297 86.6456 105.898 86.5794 105.898 85.1232C105.898 81.8466 106.397 78.3716 106.995 77.5441C107.561 78.4046 108.093 81.8466 108.093 85.1232C108.093 86.5794 107.694 86.6456 107.029 86.6456H106.962ZM113.614 86.6456C112.949 86.6456 112.55 86.5794 112.55 85.1232C112.55 81.8466 113.049 78.3716 113.647 77.5441C114.213 78.4046 114.745 81.8466 114.745 85.1232C114.745 86.5794 114.346 86.6456 113.68 86.6456H113.614Z" fill="#F0A538"/>
</svg>
