<svg width="40" height="40" viewBox="0 0 40 40" fill="none" xmlns="http://www.w3.org/2000/svg">
<g clip-path="url(#clip0_263_2169)">
<path d="M0.666811 40.0774H32.6667C33.0351 40.0774 33.3336 39.7789 33.3336 39.4109V33.4108H38C38.3684 33.4108 38.6668 33.1123 38.6668 32.7443V26.0774C38.6668 25.7094 38.3684 25.4109 38 25.4109H33.3336V19.4108C33.3336 19.0425 33.0351 18.744 32.6667 18.744H31.4433C31.5373 18.3082 31.4378 17.8529 31.1708 17.4958L28.1584 13.4803L29.5494 12.4369C30.1673 11.9743 30.5125 11.2327 30.4689 10.4618L30.402 9.26125C30.3837 8.93563 30.5296 8.62252 30.7905 8.4269L32.1812 7.3838L32.7665 8.16384C32.8724 8.30513 33.0302 8.39882 33.2054 8.42385C33.2365 8.42812 33.2679 8.43056 33.2997 8.43026C33.444 8.43056 33.5844 8.38356 33.6998 8.29689L39.2003 4.1706C40.0835 3.50806 40.2626 2.2547 39.6001 1.37121L39.2296 0.876825C38.5661 -0.0054416 37.3134 -0.18397 36.4296 0.477653L30.9297 4.60364C30.6352 4.82459 30.5754 5.24268 30.7963 5.53718L31.3813 6.31721L29.9906 7.36061C29.3727 7.82326 29.0272 8.56453 29.0711 9.33541L29.1377 10.536C29.1563 10.8616 29.0104 11.175 28.7495 11.3703L27.3588 12.4137L24.3461 8.39821C24.0308 7.97127 23.5188 7.73598 22.9893 7.77474C22.4842 7.81136 22.0329 8.10433 21.7933 8.5508L16.3154 18.744H0.666811C0.298463 18.744 0 19.0425 0 19.4108V26.0774C0 26.4458 0.298463 26.7442 0.666811 26.7442H5.33327V32.0775H0.666811C0.298463 32.0775 0 32.376 0 32.7443V39.4109C0 39.7789 0.298463 40.0774 0.666811 40.0774ZM37.2297 1.54394C37.5239 1.32299 37.9417 1.3825 38.163 1.677L38.5335 2.17138C38.7541 2.46588 38.6943 2.88336 38.4001 3.10431L33.4327 6.83082L32.2624 5.27015L37.2297 1.54394ZM12.0002 33.4108H21.3334V38.7441H12.0002V33.4108ZM17.3334 26.7442H26.6667V32.0775H17.3334V26.7442ZM32.0002 38.7441H22.6667V33.4108H32.0002V38.7441ZM37.3335 32.0775H28V26.7442H37.3335V32.0775ZM32.0002 25.4109H22.6667V21.5288L29.4905 20.0773H32.0002V25.4109ZM22.9682 9.18252C22.9908 9.13583 23.0378 9.10592 23.0897 9.10439L23.1028 9.10378C23.1736 9.105 23.2392 9.1401 23.2795 9.19808L26.2916 13.2136L23.5413 15.2769C23.2468 15.4978 23.187 15.9156 23.408 16.2104C23.6289 16.5049 24.0467 16.5644 24.3415 16.3438L27.0918 14.2805L30.1042 18.296C30.1521 18.3546 30.1661 18.4336 30.1408 18.5048C30.1249 18.5542 30.0831 18.5905 30.0318 18.5997L16.8058 21.4122C16.7237 21.425 16.6413 21.3899 16.594 21.3215C16.5409 21.2575 16.5302 21.1683 16.5665 21.0933L22.9682 9.18252ZM15.5277 22.1217C15.8829 22.6103 16.4927 22.8431 17.0832 22.7162L21.3334 21.8123V25.4109H12.0002V20.0773H15.5985L15.3919 20.4619C15.1063 20.9938 15.1597 21.6435 15.5277 22.1217ZM1.33332 22.7443H2.66664C3.03498 22.7443 3.33345 22.4458 3.33345 22.0775C3.33345 21.7094 3.03498 21.411 2.66664 21.411H1.33332V20.0773H10.6668V25.4109H1.33332V22.7443ZM6.66659 26.7442H16.0001V32.0775H6.66659V26.7442ZM1.33332 33.4108H10.6668V38.7441H1.33332V33.4108Z" fill="#FF6600"/>
<path d="M8.66597 22.0774C8.66597 21.7094 8.36751 21.4109 7.99916 21.4109H5.33252C4.96448 21.4109 4.66602 21.7094 4.66602 22.0774C4.66602 22.4457 4.96448 22.7442 5.33252 22.7442H7.99916C8.36751 22.7442 8.66597 22.4457 8.66597 22.0774Z" fill="#FF6600"/>
</g>
<defs>
<clipPath id="clip0_263_2169">
<rect width="40" height="40" fill="white"/>
</clipPath>
</defs>
</svg>
