<svg width="50" height="50" viewBox="0 0 50 50" fill="none" xmlns="http://www.w3.org/2000/svg">
<g clip-path="url(#clip0_99_807)">
<path d="M48.4375 24.3164H36.4522C36.0747 24.3164 35.7686 24.6225 35.7686 25C35.7686 30.938 30.9379 35.7687 25 35.7687C19.0622 35.7687 14.2313 30.9379 14.2313 25C14.2313 24.6225 13.9253 24.3164 13.5477 24.3164H1.5625C1.18496 24.3164 0.878906 24.6225 0.878906 25V27.3437C0.878906 28.5695 1.87617 29.5669 3.10205 29.5669C4.95547 29.5669 6.54824 30.6327 7.25888 32.3484C7.96963 34.0643 7.59707 35.9443 6.28652 37.2549C5.8666 37.6747 5.63535 38.2331 5.63535 38.827C5.63535 39.4209 5.8666 39.9793 6.28652 40.399L9.60097 43.7137C10.4678 44.5804 11.8782 44.5805 12.745 43.7137C14.0574 42.4012 15.9381 42.0271 17.653 42.7375C19.3679 43.4478 20.4331 45.0421 20.4331 46.898C20.4331 48.1238 21.4304 49.1211 22.6562 49.1211H27.3435C28.5693 49.1211 29.5666 48.1238 29.5666 46.898C29.5666 45.0446 30.6325 43.4519 32.3482 42.7412C34.0639 42.0302 35.9441 42.4028 37.2547 43.7136C38.1214 44.5804 39.5317 44.5804 40.3987 43.7136L43.7132 40.3991C44.1331 39.9793 44.3643 39.4209 44.3643 38.827C44.3643 38.2331 44.1331 37.6747 43.7132 37.2549C42.4026 35.9443 42.03 34.0643 42.7407 32.3484C43.4514 30.6327 45.0442 29.5669 46.8976 29.5669C48.1234 29.5669 49.1208 28.5695 49.1208 27.3437V25C49.1211 24.6225 48.815 24.3164 48.4375 24.3164ZM47.7539 27.3437C47.7539 27.8156 47.3699 28.1997 46.8979 28.1997C44.481 28.1997 42.4042 29.589 41.4778 31.8253C40.5514 34.0617 41.0377 36.5127 42.7467 38.2218C42.9083 38.3834 42.9973 38.5982 42.9973 38.827C42.9973 39.0558 42.9083 39.2706 42.7467 39.4323L39.4322 42.7468C39.0984 43.0805 38.5554 43.0806 38.2217 42.7468C36.5127 41.0378 34.0617 40.5516 31.8252 41.478C29.5889 42.4043 28.1996 44.4812 28.1996 46.898C28.1996 47.3699 27.8156 47.7539 27.3437 47.7539H22.6564C22.1845 47.7539 21.8005 47.3699 21.8005 46.898C21.8005 44.4785 20.4118 42.4002 18.1764 41.4743C17.4271 41.164 16.6541 41.0125 15.8924 41.0125C14.3812 41.0125 12.9159 41.6094 11.7785 42.7469C11.4448 43.0806 10.9017 43.0806 10.5679 42.747L7.25342 39.4323C7.09179 39.2707 7.00273 39.0559 7.00273 38.827C7.00273 38.5983 7.09179 38.3835 7.25342 38.2218C8.9624 36.5128 9.44853 34.0618 8.52216 31.8254C7.5958 29.5891 5.51904 28.1998 3.10215 28.1998C2.63018 28.1998 2.24619 27.8157 2.24619 27.3438V25.6836H12.8833C13.2393 32.0584 18.5379 37.1359 25.0001 37.1359C31.4623 37.1359 36.761 32.0584 37.1169 25.6836H47.7539V27.3437ZM8.61787 23.202H41.3822C42.0519 23.202 42.5969 22.6571 42.5969 21.9873V20.7432C42.5969 20.0734 42.0519 19.5285 41.3822 19.5285H40.2531V7.95596C40.2531 7.74307 40.1539 7.54248 39.9849 7.41299C39.8159 7.28369 39.5962 7.24053 39.3908 7.29609L32.4108 9.18672V7.95596C32.4108 7.74307 32.3116 7.54248 32.1427 7.41299C31.9736 7.28369 31.754 7.24053 31.5485 7.29609L24.5684 9.18672V7.95596C24.5684 7.74307 24.4692 7.54248 24.3002 7.41299C24.1312 7.28369 23.9116 7.24053 23.7061 7.29609L16.7262 9.18672V2.09355C16.7262 1.42383 16.1812 0.878906 15.5115 0.878906H10.9615C10.2918 0.878906 9.74687 1.42373 9.74687 2.09355V19.5286H8.61787C7.94814 19.5286 7.40322 20.0734 7.40322 20.7433V21.9874C7.40322 22.6571 7.94814 23.202 8.61787 23.202ZM38.8858 8.84932V19.5285H32.4107V10.6031L38.8858 8.84932ZM31.0435 8.84932V19.5285H24.5683V10.6031L31.0435 8.84932ZM23.2013 8.84932V19.5285H16.7262V10.6031L23.2013 8.84932ZM15.3589 2.24609V4.16162H11.1141V2.24609H15.3589ZM11.1142 5.52881H15.359V19.5285H11.1142V5.52881ZM8.77041 20.8958H41.2296V21.8348H8.77041V20.8958ZM18.8354 15.6155H21.092C21.586 15.6155 21.988 15.2136 21.988 14.7195V12.463C21.988 11.9689 21.586 11.5671 21.092 11.5671H18.8354C18.3414 11.5671 17.9394 11.9689 17.9394 12.463V14.7195C17.9394 15.2136 18.3413 15.6155 18.8354 15.6155ZM19.3066 12.9343H20.6208V14.2483H19.3066V12.9343ZM26.6777 15.6155H28.9343C29.4283 15.6155 29.8303 15.2136 29.8303 14.7195V12.463C29.8303 11.9689 29.4283 11.5671 28.9343 11.5671H26.6777C26.1837 11.5671 25.7817 11.9689 25.7817 12.463V14.7195C25.7817 15.2136 26.1837 15.6155 26.6777 15.6155ZM27.1489 12.9343H28.4631V14.2483H27.1489V12.9343ZM34.52 15.6155H36.7766C37.2706 15.6155 37.6725 15.2136 37.6725 14.7195V12.463C37.6725 11.9689 37.2706 11.5671 36.7766 11.5671H34.52C34.026 11.5671 33.624 11.9689 33.624 12.463V14.7195C33.6241 15.2136 34.026 15.6155 34.52 15.6155ZM34.9913 12.9343H36.3055V14.2483H34.9913V12.9343ZM16.053 24.3164C15.6755 24.3164 15.3694 24.6225 15.3694 25C15.3694 30.3104 19.6896 34.6308 25 34.6308C30.3103 34.6308 34.6307 30.3104 34.6307 25C34.6307 24.6225 34.3246 24.3164 33.9471 24.3164H16.053ZM25 33.2636C20.6738 33.2636 17.1135 29.9214 16.7646 25.6836H33.2354C32.8866 29.9215 29.3262 33.2636 25 33.2636Z" fill="#0C0A0A"/>
</g>
<defs>
<clipPath id="clip0_99_807">
<rect width="50" height="50" fill="white"/>
</clipPath>
</defs>
</svg>
