<svg width="40" height="40" viewBox="0 0 40 40" fill="none" xmlns="http://www.w3.org/2000/svg">
<g clip-path="url(#clip0_263_2166)">
<path d="M39.7643 15.8667C39.905 16.0027 39.9888 16.1868 39.999 16.3821C40.0091 16.5774 39.9449 16.7692 39.8191 16.9191C39.6934 17.0689 39.5155 17.1656 39.3212 17.1897C39.127 17.2138 38.9308 17.1635 38.7722 17.0489L21.5495 2.12444C21.1305 1.75902 20.5931 1.55766 20.0368 1.55766C19.4806 1.55766 18.9431 1.75902 18.5241 2.12444L11.8504 7.84C11.7418 7.94299 11.6051 8.01148 11.4575 8.03679C11.31 8.0621 11.1582 8.04309 11.0215 7.98217C10.8847 7.92125 10.7691 7.82116 10.6894 7.69458C10.6096 7.568 10.5693 7.42062 10.5735 7.27111V5.14667C10.5741 5.09689 10.5647 5.0475 10.5459 5.0014C10.5271 4.95529 10.4993 4.91341 10.464 4.87821C10.4288 4.84301 10.3869 4.81521 10.3407 4.79643C10.2946 4.77766 10.2451 4.76829 10.1953 4.76889H6.74275C6.69292 4.76829 6.64348 4.77766 6.59732 4.79643C6.55117 4.81521 6.50924 4.84301 6.47401 4.87821C6.43877 4.91341 6.41094 4.95529 6.39214 5.0014C6.37335 5.0475 6.36397 5.09689 6.36457 5.14667V12.28C6.36295 12.4005 6.33217 12.5188 6.27483 12.6248C6.2175 12.7309 6.13533 12.8215 6.03533 12.8889L1.25695 17.0489C1.18009 17.1152 1.09073 17.1655 0.994121 17.1967C0.897515 17.228 0.795623 17.2396 0.694449 17.2309C0.593276 17.2222 0.49487 17.1933 0.405031 17.1461C0.315192 17.0988 0.235739 17.034 0.171354 16.9556C0.0457858 16.7961 -0.0144197 16.5949 0.00292748 16.3927C0.0202746 16.1905 0.113878 16.0025 0.264787 15.8667L4.665 12.0444C4.70973 12.0118 4.74599 11.969 4.77076 11.9195C4.79553 11.87 4.80808 11.8153 4.80737 11.76V4.76889C4.82175 4.3609 4.99043 3.97354 5.2794 3.68487C5.56838 3.3962 5.95615 3.2277 6.36457 3.21333H10.5779C10.9868 3.22764 11.3751 3.39598 11.6648 3.68455C11.9545 3.97311 12.1241 4.36051 12.1396 4.76889C12.1399 4.83983 12.1604 4.90922 12.1987 4.96893C12.2371 5.02864 12.2916 5.07621 12.3561 5.10605C12.4205 5.1359 12.4921 5.14679 12.5625 5.13745C12.6329 5.12812 12.6992 5.09894 12.7536 5.05333L17.483 0.946667C18.1955 0.348491 19.0928 0.0141328 20.0235 0C20.9466 0.00395005 21.8375 0.340028 22.5328 0.946667L39.7643 15.8667ZM26.8974 30.9778C27.2621 30.7665 27.6858 30.68 28.1042 30.7314C28.5226 30.7827 28.9128 30.9691 29.2154 31.2622L33.8514 35.8933C34.1863 36.2568 34.3722 36.7327 34.3722 37.2267C34.3722 37.7206 34.1863 38.1965 33.8514 38.56L32.9616 39.4089C32.6044 39.7564 32.1255 39.9509 31.6268 39.9509C31.1282 39.9509 30.6493 39.7564 30.2921 39.4089L25.665 34.8044C25.3713 34.5031 25.1848 34.1137 25.1342 33.6962C25.0836 33.2786 25.1716 32.856 25.3847 32.4933C25.4393 32.4197 25.4646 32.3284 25.4555 32.2372C25.4465 32.146 25.4038 32.0615 25.3357 32C24.675 31.309 24.2327 30.4388 24.0642 29.4982C23.8956 28.5576 24.0083 27.5882 24.3881 26.7111L26.755 20.9333C27.0258 20.3084 27.0985 19.6156 26.9632 18.9481C26.828 18.2807 26.4914 17.6706 25.9987 17.2L24.4726 15.68C24.3409 15.5665 24.1727 15.504 23.9988 15.504C23.8248 15.504 23.6566 15.5665 23.5249 15.68L23.0533 16.1511C22.8131 16.3867 22.911 16.6222 23.0978 16.8133C23.3101 17.0132 23.4791 17.2543 23.5947 17.5218C23.7103 17.7893 23.7699 18.0775 23.7699 18.3689C23.7699 18.6602 23.7103 18.9485 23.5947 19.216C23.4791 19.4835 23.3101 19.7246 23.0978 19.9244L14.3152 28.76C13.8886 29.1688 13.3203 29.3971 12.7291 29.3971C12.1379 29.3971 11.5696 29.1688 11.143 28.76L9.43893 27.0133C9.03133 26.5979 8.80302 26.0394 8.80302 25.4578C8.80302 24.8761 9.03133 24.3176 9.43893 23.9022L18.2438 15.0667C18.6686 14.6561 19.2366 14.4266 19.8277 14.4266C20.4188 14.4266 20.9868 14.6561 21.4116 15.0667C21.4453 15.11 21.4885 15.1451 21.5378 15.1693C21.5872 15.1934 21.6414 15.206 21.6963 15.206C21.7513 15.206 21.8055 15.1934 21.8549 15.1693C21.9042 15.1451 21.9474 15.11 21.9811 15.0667L22.4527 14.5911C22.8685 14.1839 23.4276 13.9559 24.0099 13.9559C24.5922 13.9559 25.1513 14.1839 25.5671 14.5911L27.0798 16.1511C27.7977 16.8351 28.2874 17.7233 28.4824 18.6949C28.6774 19.6666 28.5683 20.6747 28.1699 21.5822L25.8074 27.2978C25.5563 27.8971 25.4766 28.5542 25.5771 29.1961C25.6777 29.8379 25.9545 30.4393 26.3768 30.9333C26.4478 30.9946 26.5364 31.0319 26.6299 31.0399C26.7234 31.0479 26.817 31.0261 26.8974 30.9778ZM19.3338 16.1511L10.529 24.9822C10.4618 25.0414 10.4079 25.1143 10.371 25.1959C10.3342 25.2775 10.3151 25.366 10.3151 25.4556C10.3151 25.5451 10.3342 25.6336 10.371 25.7152C10.4079 25.7968 10.4618 25.8697 10.529 25.9289L12.233 27.6756C12.3729 27.79 12.5482 27.8526 12.7291 27.8526C12.9099 27.8526 13.0852 27.79 13.2252 27.6756L22.0256 18.8444C22.0928 18.7852 22.1466 18.7124 22.1835 18.6308C22.2204 18.5492 22.2395 18.4606 22.2395 18.3711C22.2395 18.2816 22.2204 18.1931 22.1835 18.1114C22.1466 18.0298 22.0928 17.957 22.0256 17.8978L20.3216 16.1511C20.1816 16.0367 20.0063 15.9741 19.8255 15.9741C19.6446 15.9741 19.4693 16.0367 19.3294 16.1511H19.3338ZM27.587 32.3956L26.7372 33.2489C26.7033 33.2781 26.6762 33.3143 26.6575 33.3549C26.6389 33.3955 26.6292 33.4397 26.6292 33.4844C26.6292 33.5292 26.6389 33.5733 26.6575 33.614C26.6762 33.6546 26.7033 33.6908 26.7372 33.72L31.391 38.3467C31.4207 38.3799 31.457 38.4064 31.4976 38.4246C31.5383 38.4428 31.5823 38.4523 31.6268 38.4523C31.6714 38.4523 31.7154 38.4428 31.7561 38.4246C31.7967 38.4064 31.833 38.3799 31.8627 38.3467L32.7525 37.4978C32.8212 37.4287 32.8598 37.3352 32.8598 37.2378C32.8598 37.1404 32.8212 37.0469 32.7525 36.9778L28.1743 32.3956C28.0944 32.329 27.9936 32.2926 27.8896 32.2926C27.7855 32.2926 27.6848 32.329 27.6048 32.3956H27.587ZM33.7091 19.2667C33.7095 18.9301 33.6378 18.5974 33.499 18.2907C33.3601 17.9841 33.1571 17.7107 32.9038 17.4889L21.505 7.41333C21.0963 7.0448 20.5652 6.8408 20.0146 6.8408C19.4639 6.8408 18.9329 7.0448 18.5241 7.41333L7.12093 17.4756C6.8736 17.6998 6.6776 17.9747 6.5463 18.2815C6.41501 18.5883 6.3515 18.9198 6.36012 19.2533V36.08C6.34939 36.6938 6.58265 37.2869 7.00879 37.7292C7.43493 38.1716 8.01921 38.4272 8.63364 38.44H26.141C27.1421 38.44 27.1421 40 26.141 40H8.63809C7.61102 39.9836 6.63205 39.5624 5.91451 38.8281C5.19697 38.0939 4.79902 37.1061 4.80737 36.08V19.2667C4.8069 18.7121 4.92585 18.1639 5.15615 17.6593C5.38645 17.1548 5.72271 16.7056 6.14211 16.3422L17.5319 6.28C18.2213 5.66373 19.1139 5.32301 20.039 5.32301C20.9641 5.32301 21.8568 5.66373 22.5461 6.28L33.9449 16.3422C34.3558 16.7092 34.6826 17.1605 34.903 17.6652C35.1233 18.1699 35.2321 18.7161 35.2218 19.2667V32.6311C35.2218 32.8315 35.1421 33.0237 35.0002 33.1654C34.8584 33.3071 34.666 33.3867 34.4654 33.3867C34.2648 33.3867 34.0724 33.3071 33.9306 33.1654C33.7887 33.0237 33.7091 32.8315 33.7091 32.6311V19.2667Z" fill="#FF6600"/>
</g>
<defs>
<clipPath id="clip0_263_2166">
<rect width="40" height="40" fill="white"/>
</clipPath>
</defs>
</svg>
