<svg width="50" height="50" viewBox="0 0 50 50" fill="none" xmlns="http://www.w3.org/2000/svg">
<g clip-path="url(#clip0_101_802)">
<path d="M45.3404 38.4552H45.7354V30.7506C45.7354 30.3191 45.3856 29.9693 44.9542 29.9693H36.6993C36.2679 29.9693 35.9181 30.3191 35.9181 30.7506V38.2243H34.115V30.7506C34.115 30.3191 33.7652 29.9693 33.3338 29.9693H25.0789C24.6475 29.9693 24.2977 30.3191 24.2977 30.7506V38.2243H20.886V37.6817C20.886 36.521 19.9417 35.5767 18.781 35.5767H18.2361L16.3469 28.4356L16.4252 28.2323C17.2456 28.0028 18.0337 27.6762 18.7769 27.2574L20.2842 27.9269C20.5796 28.0581 20.9251 27.9937 21.1537 27.7653L23.3637 25.5554C23.5922 25.3269 23.6563 24.9812 23.5252 24.6858L22.8556 23.178C23.2741 22.4348 23.6008 21.647 23.8301 20.8271L25.3687 20.235C25.6704 20.1188 25.8694 19.829 25.8694 19.5059V16.3806C25.8694 16.0573 25.6704 15.7676 25.3688 15.6515L23.8307 15.0595C23.6984 14.5866 23.5327 14.1249 23.3368 13.6759L29.6218 8.40967L35.9933 13.9926C36.0246 14.7543 36.3235 15.448 36.7981 15.9823C34.5941 16.9174 33.0444 19.1032 33.0444 21.6442C33.0444 23.83 34.2206 25.8692 36.1139 26.9662C36.3555 27.1062 36.6535 27.1065 36.8957 26.9671C37.1377 26.8276 37.2868 26.5695 37.2868 26.2902V22.0183L39.1363 20.9504L40.9858 22.0183V26.3522C40.9858 26.6283 41.1314 26.8838 41.369 27.0245C41.4916 27.0971 41.6293 27.1335 41.7671 27.1335C41.8963 27.1335 42.0255 27.1015 42.1427 27.0373C44.1139 25.9566 45.3384 23.8901 45.3384 21.6443C45.3384 19.1032 43.7887 16.9175 41.5847 15.9824C42.0869 15.417 42.3924 14.6729 42.3924 13.859C42.3924 12.1337 41.0203 10.7229 39.3102 10.6603L33.501 4.42646C33.447 2.46455 31.8354 0.884766 29.8606 0.884766C28.5653 0.884766 27.4266 1.56494 26.7805 2.58623L17.5776 8.05C17.2017 7.89639 16.8173 7.76387 16.4253 7.6542L15.8331 6.11562C15.7171 5.81396 15.4272 5.61504 15.104 5.61504H11.9787C11.6555 5.61504 11.3657 5.81406 11.2496 6.11562L10.6572 7.6542C9.8373 7.88359 9.04961 8.21025 8.30645 8.62891L6.79853 7.95918C6.50303 7.82803 6.15762 7.89229 5.929 8.1208L3.71904 10.3308C3.49053 10.5593 3.42637 10.9049 3.55752 11.2003L4.22715 12.7079C3.8085 13.4511 3.48174 14.239 3.25244 15.0591L1.71387 15.6513C1.4123 15.7674 1.21328 16.0571 1.21328 16.3804V19.5057C1.21328 19.8289 1.4123 20.1187 1.71396 20.2348L3.25215 20.8268C3.48174 21.6473 3.8083 22.4354 4.22695 23.1785L3.55752 24.6857C3.42637 24.9811 3.49053 25.3268 3.71914 25.5553L5.9292 27.7652C6.00967 27.8457 6.10508 27.9046 6.20723 27.943L6.66387 35.5766H6.36953C5.20889 35.5766 4.26465 36.5209 4.26465 37.6816V38.5914C2.229 39.3807 0.78125 41.3587 0.78125 43.6696C0.78125 46.6722 3.22402 49.1149 6.22656 49.1149H43.7733C46.7759 49.1149 49.2188 46.6722 49.2188 43.6695C49.2188 41.2117 47.5813 39.13 45.3404 38.4552ZM40.226 31.5318H41.4274V33.3373H40.226V31.5318ZM37.4806 31.5318H38.6635V34.1186C38.6635 34.55 39.0133 34.8998 39.4447 34.8998H42.2087C42.6401 34.8998 42.9899 34.55 42.9899 34.1186V31.5318H44.1729V38.2405C44.0408 38.2309 43.9079 38.2243 43.7733 38.2243H37.4806V31.5318ZM28.6056 31.5318H29.807V33.3373H28.6056V31.5318ZM25.8602 31.5318H27.0431V34.1186C27.0431 34.55 27.3929 34.8998 27.8243 34.8998H30.5883C31.0197 34.8998 31.3695 34.55 31.3695 34.1186V31.5318H32.5525V38.2243H25.8602V31.5318ZM23.3635 10.3308L21.1534 8.1208C21.0637 8.03096 20.9555 7.96758 20.8396 7.93037L26.2238 4.73379C26.2946 5.99746 27.0126 7.09033 28.0507 7.6873L23.3276 11.6448L23.5251 11.2003C23.6562 10.9049 23.5921 10.5593 23.3635 10.3308ZM43.776 21.6439C43.776 22.8199 43.3257 23.9301 42.5485 24.7662V21.5669C42.5485 21.2878 42.3997 21.0299 42.1579 20.8903L39.5271 19.3714C39.4063 19.3017 39.2714 19.2667 39.1365 19.2667C39.0017 19.2667 38.8667 19.3016 38.7459 19.3714L36.1151 20.8903C35.8733 21.0299 35.7245 21.2878 35.7245 21.5669V24.6407C35.0158 23.8185 34.6072 22.7567 34.6072 21.6439C34.6072 19.1161 36.6639 17.0595 39.1916 17.0595C41.7193 17.0596 43.776 19.1161 43.776 21.6439ZM39.1914 12.2202C40.0948 12.2202 40.8298 12.9552 40.8298 13.8586C40.8298 14.762 40.0948 15.497 39.1914 15.497C38.288 15.497 37.553 14.762 37.553 13.8586C37.553 12.9552 38.288 12.2202 39.1914 12.2202ZM36.4084 12.2786L31.3536 7.84941C32.0847 7.51953 32.6884 6.95596 33.0679 6.25361L37.579 11.0943C37.0927 11.3791 36.6877 11.7887 36.4084 12.2786ZM29.8605 2.44727C31.0077 2.44727 31.941 3.38057 31.941 4.52773C31.941 5.6749 31.0077 6.6082 29.8605 6.6082C28.7134 6.6082 27.7801 5.6749 27.7801 4.52773C27.7801 3.38057 28.7134 2.44727 29.8605 2.44727ZM5.20312 24.8298L5.81797 23.4455C5.92246 23.2101 5.9043 22.9381 5.76914 22.7188C5.26182 21.895 4.89111 21.0009 4.66748 20.0611C4.60791 19.8105 4.42852 19.6055 4.18809 19.513L2.77568 18.9693V16.9168L4.18848 16.3729C4.42891 16.2804 4.6082 16.0753 4.66777 15.8247C4.89121 14.8856 5.26191 13.9917 5.76934 13.1678C5.90449 12.9483 5.92266 12.6765 5.81816 12.441L5.20312 11.0563L6.65439 9.60488L8.03936 10.2199C8.27461 10.3244 8.54668 10.3063 8.76602 10.1711C9.59023 9.66357 10.4842 9.29297 11.4229 9.06963C11.6733 9.00996 11.8785 8.83066 11.971 8.59023L12.5148 7.17734H14.5674L15.1112 8.59023C15.2037 8.83066 15.4089 9.00996 15.6594 9.06963C16.5981 9.29307 17.4921 9.66367 18.3163 10.1711C18.5358 10.3063 18.8076 10.3244 19.043 10.2198L20.4278 9.60478L21.8792 11.0562L21.2644 12.4404C21.1599 12.6759 21.178 12.9479 21.3132 13.1672C21.8207 13.9912 22.1913 14.8854 22.4147 15.8246C22.4744 16.0752 22.6537 16.2804 22.8941 16.3729L24.3066 16.9165V18.969L22.8938 19.5129C22.6533 19.6054 22.4739 19.8104 22.4144 20.0611C22.1909 20.9999 21.8204 21.8937 21.3129 22.7181C21.1778 22.9375 21.1597 23.2093 21.2642 23.4447L21.8792 24.8296L20.4279 26.281L19.0436 25.6662C18.8083 25.5616 18.5363 25.5798 18.3168 25.715C17.4929 26.2225 16.5988 26.5932 15.6594 26.8167C15.4088 26.8764 15.2036 27.0557 15.1111 27.2961L14.5675 28.7085H12.5149L11.9711 27.2956C11.8786 27.0553 11.6734 26.8759 11.4229 26.8162C10.4842 26.5928 9.59023 26.2222 8.76611 25.7147C8.54668 25.5796 8.27471 25.5615 8.03945 25.6659L6.65449 26.281L5.20312 24.8298ZM7.74629 27.506L8.30654 27.2571C9.04971 27.6758 9.8374 28.0023 10.6573 28.2317L11.2495 29.7703C11.3655 30.072 11.6554 30.2709 11.9786 30.2709H15.104C15.1412 30.2709 15.1778 30.2676 15.214 30.2625L16.6199 35.5765H8.229L7.74629 27.506ZM5.82705 37.6817C5.82705 37.3826 6.07031 37.1392 6.36943 37.1392H18.7811C19.0802 37.1392 19.3236 37.3825 19.3236 37.6817V38.2243H6.22656C6.09209 38.2243 5.95918 38.231 5.82705 38.2405V37.6817ZM43.7733 47.5525H6.22656C4.08555 47.5525 2.34375 45.8107 2.34375 43.6696C2.34375 41.5286 4.08555 39.7868 6.22656 39.7868H43.7733C45.9144 39.7868 47.6562 41.5286 47.6562 43.6697C47.6562 45.8106 45.9144 47.5525 43.7733 47.5525ZM27.6211 41.204C27.6211 41.6354 27.2713 41.9853 26.8398 41.9853H23.1602C22.7287 41.9853 22.3789 41.6354 22.3789 41.204C22.3789 40.7726 22.7287 40.4228 23.1602 40.4228H26.8398C27.2713 40.4228 27.6211 40.7726 27.6211 41.204ZM40.1366 46.1353C40.1366 46.5667 39.7868 46.9165 39.3554 46.9165H35.6757C35.2442 46.9165 34.8944 46.5667 34.8944 46.1353C34.8944 45.7038 35.2442 45.354 35.6757 45.354H39.3554C39.7868 45.354 40.1366 45.7038 40.1366 46.1353ZM15.1055 41.204C15.1055 41.6354 14.7557 41.9853 14.3242 41.9853H10.6445C10.2131 41.9853 9.86328 41.6354 9.86328 41.204C9.86328 40.7726 10.2131 40.4228 10.6445 40.4228H14.3242C14.7557 40.4228 15.1055 40.7726 15.1055 41.204ZM40.1366 41.204C40.1366 41.6354 39.7868 41.9853 39.3554 41.9853H35.6757C35.2442 41.9853 34.8944 41.6354 34.8944 41.204C34.8944 40.7726 35.2442 40.4228 35.6757 40.4228H39.3554C39.7868 40.4228 40.1366 40.7726 40.1366 41.204ZM27.6211 46.1353C27.6211 46.5667 27.2713 46.9165 26.8398 46.9165H23.1602C22.7287 46.9165 22.3789 46.5667 22.3789 46.1353C22.3789 45.7038 22.7287 45.354 23.1602 45.354H26.8398C27.2713 45.354 27.6211 45.7038 27.6211 46.1353ZM15.1055 46.1353C15.1055 46.5667 14.7557 46.9165 14.3242 46.9165H10.6445C10.2131 46.9165 9.86328 46.5667 9.86328 46.1353C9.86328 45.7038 10.2131 45.354 10.6445 45.354H14.3242C14.7557 45.354 15.1055 45.7038 15.1055 46.1353ZM6.22656 40.4228C4.43623 40.4228 2.97969 41.8793 2.97969 43.6696C2.97969 45.46 4.43623 46.9165 6.22656 46.9165C8.01699 46.9165 9.47354 45.46 9.47354 43.6696C9.47354 41.8793 8.01699 40.4228 6.22656 40.4228ZM6.22656 45.3541C5.29775 45.3541 4.54219 44.5985 4.54219 43.6697C4.54219 42.7409 5.29775 41.9854 6.22656 41.9854C7.15537 41.9854 7.91104 42.7409 7.91104 43.6697C7.91104 44.5985 7.15537 45.3541 6.22656 45.3541ZM18.7422 40.4228C16.9519 40.4228 15.4953 41.8793 15.4953 43.6696C15.4953 45.46 16.9519 46.9165 18.7422 46.9165C20.5325 46.9165 21.9891 45.46 21.9891 43.6696C21.9891 41.8793 20.5325 40.4228 18.7422 40.4228ZM18.7422 45.3541C17.8134 45.3541 17.0578 44.5985 17.0578 43.6697C17.0578 42.7409 17.8134 41.9854 18.7422 41.9854C19.671 41.9854 20.4266 42.7409 20.4266 43.6697C20.4266 44.5985 19.671 45.3541 18.7422 45.3541ZM31.2578 40.4228C29.4674 40.4228 28.0108 41.8793 28.0108 43.6696C28.0108 45.46 29.4674 46.9165 31.2578 46.9165C33.0481 46.9165 34.5047 45.46 34.5047 43.6696C34.5047 41.8793 33.0481 40.4228 31.2578 40.4228ZM31.2578 45.3541C30.329 45.3541 29.5733 44.5985 29.5733 43.6697C29.5733 42.7409 30.329 41.9854 31.2578 41.9854C32.1866 41.9854 32.9422 42.7409 32.9422 43.6697C32.9422 44.5985 32.1866 45.3541 31.2578 45.3541ZM43.7733 40.4228C41.983 40.4228 40.5265 41.8793 40.5265 43.6696C40.5265 45.46 41.983 46.9165 43.7733 46.9165C45.5637 46.9165 47.0202 45.46 47.0202 43.6696C47.0202 41.8793 45.5637 40.4228 43.7733 40.4228ZM43.7733 45.3541C42.8445 45.3541 42.089 44.5985 42.089 43.6697C42.089 42.7409 42.8445 41.9854 43.7733 41.9854C44.7021 41.9854 45.4577 42.7409 45.4577 43.6697C45.4577 44.5985 44.7021 45.3541 43.7733 45.3541ZM28.7865 4.52773C28.7865 3.93447 29.2674 3.45361 29.8606 3.45361C30.4538 3.45361 30.9348 3.93447 30.9348 4.52773C30.9348 5.121 30.4539 5.60186 29.8606 5.60186C29.2674 5.60186 28.7865 5.121 28.7865 4.52773ZM13.5412 24.1749C16.9775 24.1749 19.773 21.3794 19.773 17.9432C19.773 14.5068 16.9774 11.7113 13.5412 11.7113C10.105 11.7113 7.30947 14.5069 7.30947 17.9432C7.30947 21.3793 10.1051 24.1749 13.5412 24.1749ZM13.5412 13.2737C16.1159 13.2737 18.2105 15.3684 18.2105 17.9431C18.2105 20.5177 16.1159 22.6123 13.5412 22.6123C10.9666 22.6123 8.87197 20.5177 8.87197 17.9431C8.87197 15.3684 10.9666 13.2737 13.5412 13.2737Z" fill="#0C0A0A"/>
</g>
<defs>
<clipPath id="clip0_101_802">
<rect width="50" height="50" fill="white"/>
</clipPath>
</defs>
</svg>
