<svg width="40" height="40" viewBox="0 0 40 40" fill="none" xmlns="http://www.w3.org/2000/svg">
<path d="M35.602 22.6008H33.5379V7.82114C34.4895 6.9438 35.0309 5.71567 35.0309 4.41255C35.0309 3.01958 34.4145 1.71255 33.3387 0.828174C33.1371 0.661768 32.8457 0.661768 32.6434 0.828174C31.5668 1.71411 30.9488 3.02036 30.9488 4.41255C30.9488 5.71489 31.4902 6.94302 32.4434 7.82114V22.6008H30.4684V10.1704C30.4684 9.86802 30.2238 9.62349 29.9215 9.62349H20.434V2.53911C20.434 2.23677 20.1895 1.99224 19.8871 1.99224H10.4863C10.184 1.99224 9.93945 2.23677 9.93945 2.53911V7.08755H5.51211C5.20977 7.08755 4.96523 7.33208 4.96523 7.63442V22.6008H4.39648C4.09414 22.6008 3.84961 22.8454 3.84961 23.1477V25.9954C3.84961 26.2875 4.08008 26.529 4.37148 26.5415L7.0918 26.6649C7.38945 27.7586 7.82383 28.8055 8.38477 29.7852L6.54805 31.7954C6.35117 32.011 6.3582 32.3438 6.56523 32.5508L8.57852 34.5665L10.5941 36.5797C10.8012 36.786 11.134 36.7938 11.3496 36.5969L13.3598 34.7602C14.3434 35.3243 15.3902 35.7586 16.4809 36.054L16.6043 38.7735C16.6176 39.0657 16.8582 39.2954 17.1504 39.2954H22.8488C23.1418 39.2954 23.3824 39.0649 23.3949 38.7727L23.516 36.054C24.6051 35.7586 25.652 35.325 26.6387 34.7602L28.6496 36.5969C28.8652 36.7946 29.1988 36.7868 29.4051 36.5797L33.4332 32.5516C33.6402 32.3446 33.6473 32.0118 33.4504 31.7961L31.6137 29.786C32.1754 28.8055 32.609 27.7594 32.9066 26.6657L35.627 26.5422C35.9191 26.529 36.1488 26.2883 36.1488 25.9961V23.1485C36.1488 22.8461 35.9043 22.6016 35.602 22.6016V22.6008ZM32.0434 4.41255C32.0434 3.50864 32.384 2.65239 32.991 1.99927C33.5965 2.65083 33.9363 3.50786 33.9363 4.41255C33.9363 5.31724 33.5965 6.17192 32.991 6.82349C32.384 6.17114 32.0434 5.31489 32.0434 4.41255ZM29.3746 10.7172V22.6008H20.4348V10.7172H29.3746ZM13.8238 23.6946H27.5699C27.2887 27.625 24.0004 30.7368 19.998 30.7368C15.9957 30.7368 12.7098 27.625 12.4285 23.6946H13.8238ZM11.034 3.08599H19.341V22.6008H14.3715V7.63521C14.3715 7.33286 14.127 7.08833 13.8246 7.08833H11.034V3.08677V3.08599ZM6.05977 8.1813H13.277V22.6H6.05977V8.18208V8.1813ZM35.0551 25.4727L32.4527 25.5907C32.209 25.6016 32.0027 25.7727 31.9457 26.0094C31.6434 27.2711 31.1473 28.4688 30.4707 29.5688C30.3426 29.7766 30.3684 30.0438 30.5324 30.2243L32.2902 32.1477L29.0012 35.4368L27.0777 33.679C26.8973 33.5141 26.6309 33.4891 26.4223 33.6165C25.3129 34.2977 24.1152 34.7938 22.8613 35.0915C22.6238 35.1477 22.452 35.3555 22.441 35.5993L22.3246 38.2016H17.6723L17.5543 35.5993C17.5434 35.3555 17.3723 35.1485 17.1348 35.0922C15.8785 34.793 14.6816 34.2969 13.5762 33.6172C13.3684 33.4891 13.1004 33.5149 12.9207 33.679L10.9965 35.4368L9.35117 33.7938L7.70742 32.1485L9.46523 30.2243C9.63008 30.0438 9.65508 29.7766 9.52695 29.5688C8.85039 28.4688 8.3543 27.2719 8.05195 26.0094C7.99492 25.7727 7.78867 25.6016 7.54492 25.5907L4.94258 25.4727V23.6946H11.3309C11.6145 28.229 15.3934 31.8305 19.9973 31.8305C24.6012 31.8305 28.3824 28.2282 28.666 23.6946H35.0543V25.4727H35.0551ZM22.4738 15.7883H24.9762C25.2785 15.7883 25.523 15.5438 25.523 15.2415V12.7391C25.523 12.4368 25.2785 12.1922 24.9762 12.1922H22.4738C22.1715 12.1922 21.927 12.4368 21.927 12.7391V15.2415C21.927 15.5438 22.1715 15.7883 22.4738 15.7883ZM23.0207 13.286H24.4293V14.6946H23.0207V13.286ZM23.2996 18.4969V20.9969C23.2996 21.2993 23.5441 21.5438 23.8465 21.5438H26.3488C26.6512 21.5438 26.8957 21.2993 26.8957 20.9969V18.4969C26.8957 18.1946 26.6512 17.95 26.3488 17.95H23.8465C23.5441 17.95 23.2996 18.1946 23.2996 18.4969ZM24.3934 19.0438H25.802V20.4501H24.3934V19.0438ZM6.73398 11.6407C6.73398 11.3383 6.97852 11.0938 7.28086 11.0938H12.0512C12.3535 11.0938 12.598 11.3383 12.598 11.6407C12.598 11.943 12.3535 12.1875 12.0512 12.1875H7.28086C6.97852 12.1875 6.73398 11.943 6.73398 11.6407ZM6.73398 14.7055C6.73398 14.4032 6.97852 14.1586 7.28086 14.1586H12.0512C12.3535 14.1586 12.598 14.4032 12.598 14.7055C12.598 15.0079 12.3535 15.2524 12.0512 15.2524H7.28086C6.97852 15.2524 6.73398 15.0079 6.73398 14.7055ZM12.0512 18.3172H7.28086C6.97852 18.3172 6.73398 18.0727 6.73398 17.7704C6.73398 17.468 6.97852 17.2235 7.28086 17.2235H12.0512C12.3535 17.2235 12.598 17.468 12.598 17.7704C12.598 18.0727 12.3535 18.3172 12.0512 18.3172Z" fill="#FF6600"/>
</svg>
