<svg width="50" height="50" viewBox="0 0 50 50" fill="none" xmlns="http://www.w3.org/2000/svg">
<g clip-path="url(#clip0_101_828)">
<path d="M45.2421 7.47949C45.5497 7.21699 45.5864 6.75468 45.3239 6.44697C45.0614 6.13945 44.5993 6.10253 44.2913 6.36513L42.7101 7.71406C42.4025 7.97656 42.3658 8.43886 42.6283 8.74658C42.7731 8.9164 42.9789 9.00361 43.1859 9.00361C43.354 9.00361 43.5229 8.94609 43.6609 8.82841L45.2421 7.47949Z" fill="#0C0A0A"/>
<path d="M42.0488 22.6228V23.5241C42.0488 23.9286 42.3767 24.2565 42.7812 24.2565C43.1858 24.2565 43.5137 23.9286 43.5137 23.5241V22.6228C43.5137 22.2183 43.1858 21.8904 42.7812 21.8904C42.3767 21.8904 42.0488 22.2183 42.0488 22.6228Z" fill="#0C0A0A"/>
<path d="M5.01934 37.7515C4.25657 38.5144 4.25657 39.7554 5.01934 40.5184C5.78387 41.2829 7.02162 41.2832 7.78635 40.5183C8.54911 39.7554 8.54911 38.5144 7.78635 37.7515C7.02172 36.9869 5.78397 36.9868 5.01934 37.7515ZM6.75044 39.4825C6.55894 39.674 6.24821 39.6754 6.05515 39.4826C5.86346 39.2908 5.86346 38.9789 6.05515 38.7873C6.24665 38.5958 6.55748 38.5943 6.75044 38.7873C6.94213 38.9789 6.94213 39.2909 6.75044 39.4825Z" fill="#0C0A0A"/>
<path d="M13.5268 34.7777C14.2916 34.0129 14.2917 32.7755 13.5269 32.0108C12.7623 31.2461 11.5248 31.246 10.76 32.0108C9.99531 32.7755 9.9954 34.0128 10.76 34.7777C11.5246 35.5422 12.7621 35.5424 13.5268 34.7777ZM11.7958 33.0466C11.9884 32.854 12.2992 32.8547 12.491 33.0465V33.0466C12.6832 33.2388 12.6834 33.5495 12.491 33.7419C12.2988 33.934 11.9881 33.9339 11.7957 33.7418C11.6039 33.55 11.6033 33.2391 11.7958 33.0466Z" fill="#0C0A0A"/>
<path d="M8.4402 35.2894C8.15406 35.5755 8.15406 36.0392 8.4401 36.3252L9.21158 37.0968C9.35465 37.2398 9.54205 37.3113 9.72955 37.3113C9.91696 37.3113 10.1045 37.2398 10.2474 37.0968C10.5336 36.8108 10.5336 36.347 10.2475 36.0611L9.47604 35.2895C9.18981 35.0035 8.72604 35.0034 8.4402 35.2894Z" fill="#0C0A0A"/>
<path d="M23.9306 11.3857H27.3409C27.7455 11.3857 28.0733 11.0578 28.0733 10.6533C28.0733 10.2488 27.7455 9.9209 27.3409 9.9209H23.9306C23.5261 9.9209 23.1982 10.2488 23.1982 10.6533C23.1982 11.0578 23.5261 11.3857 23.9306 11.3857Z" fill="#0C0A0A"/>
<path d="M49.267 48.5352H37.0921V45.6035C37.0921 44.8444 36.4744 44.2267 35.7152 44.2267H34.3206V41.06C34.3206 40.4306 33.8084 39.9185 33.1789 39.9185H32.2595L28.8588 13.6421H30.1411C31.0642 13.6421 31.8152 12.8912 31.8152 11.9681V9.12734L39.6393 9.96745V31.6852C39.6393 31.947 39.779 32.1889 40.0058 32.3197C40.2291 32.4485 40.5086 32.4523 40.7386 32.3191C42.9047 31.0655 44.6459 29.0887 45.9139 26.4434C46.0888 26.0787 45.9349 25.6412 45.5701 25.4664C45.2056 25.2914 44.7679 25.4453 44.593 25.8102C43.6822 27.7102 42.5119 29.2188 41.104 30.3112C41.104 29.4039 41.104 7.91254 41.104 6.78796L45.8225 2.7624C47.2655 11.1219 47.1975 17.9783 45.6196 23.1475C45.5014 23.5344 45.7193 23.9438 46.1062 24.0618C46.4929 24.1798 46.9023 23.9621 47.0204 23.5752C48.6928 18.0969 48.7504 10.8679 47.1917 2.08908C47.1152 1.65882 46.812 1.29975 46.4005 1.1522C45.989 1.00465 45.527 1.08902 45.1945 1.3726L40.165 5.66348L18.8349 1.50414C18.4373 1.4267 18.0532 1.68587 17.9758 2.08284C17.8984 2.4798 18.1574 2.86445 18.5545 2.94189L39.6392 7.05348V8.49435C38.4633 8.36799 6.25293 4.90921 5.16644 4.79261L5.34046 4.47592C6.56122 2.25519 9.05265 1.08912 11.5401 1.57406L15.6262 2.37091C16.0241 2.44864 16.4078 2.18918 16.4852 1.79222C16.5627 1.39526 16.3036 1.0106 15.9065 0.933164L11.8204 0.136314C8.70568 -0.471187 5.58557 0.989314 4.0569 3.77028L3.35312 5.05061C3.23506 5.26525 3.23222 5.52472 3.3455 5.742C3.45878 5.95928 3.67313 6.10546 3.91677 6.13163L6.26162 6.38338V7.75278C6.26162 8.64865 6.9905 9.37753 7.88647 9.37753H8.66145V31.0793L5.64035 34.1003C5.35433 34.3864 5.35433 34.8501 5.64035 35.1361C5.92638 35.4219 6.39003 35.4221 6.67616 35.1361L10.5375 31.2748C11.5667 30.2455 13.233 30.2454 14.2625 31.2748C15.2896 32.3019 15.2896 33.973 14.2625 34.9999L8.15092 41.1114C7.12409 42.1384 5.45286 42.1386 4.42584 41.1114C3.39872 40.0844 3.39872 38.4133 4.42584 37.3863L4.60552 37.2066C4.89155 36.9205 4.89155 36.4569 4.60552 36.1708C4.3194 35.8849 3.85574 35.8849 3.56971 36.1708L3.39003 36.3505C1.79194 37.9487 1.79194 40.549 3.39003 42.1472C3.53212 42.2893 3.6825 42.4182 3.83904 42.535L1.88734 48.535H0.733376C0.328798 48.535 0.000976562 48.8628 0.000976562 49.2674C0.000976562 49.672 0.328798 49.9998 0.733376 49.9998H49.267C49.6716 49.9998 49.9994 49.672 49.9994 49.2674C49.9994 48.8628 49.6715 48.5352 49.267 48.5352ZM32.8558 44.2267H18.4163V41.3833H32.8558V44.2267ZM30.2253 35.6133L22.7191 32.7012L29.4722 29.7943L30.2253 35.6133ZM29.1863 27.5849L23.3745 24.7795L28.4601 21.9741L29.1863 27.5849ZM27.4158 13.9057L28.1352 19.4635L24.0648 16.824L27.4158 13.9057ZM25.4376 13.6861L23.6874 15.2102L23.8847 13.6861H25.4376ZM23.3155 18.0839L27.5279 20.8155L22.6108 23.5278L23.3155 18.0839ZM22.3052 25.8899L28.213 28.7416L21.5657 31.6029L22.3052 25.8899ZM21.2919 33.7188L29.2461 36.8046L23.5288 39.9097C23.5237 39.9124 23.5192 39.9157 23.5142 39.9186H20.4895L21.2919 33.7188ZM26.5817 39.9185L30.5067 37.7869L30.7825 39.9185H26.5817ZM30.3503 11.9682C30.3503 12.0836 30.2564 12.1774 30.141 12.1774H21.131C21.0156 12.1774 20.9217 12.0836 20.9217 11.9682V7.95755L30.3502 8.97002V11.9682H30.3503ZM7.72632 7.75278V6.5407L11.061 6.8988V7.75287C11.061 7.84105 10.9893 7.91283 10.901 7.91283H7.88637C7.79819 7.91273 7.72632 7.84096 7.72632 7.75278ZM15.2983 36.0358C16.8962 34.4377 16.8962 31.8374 15.2983 30.2392C13.8731 28.8141 11.6945 28.6758 10.1261 29.7257V9.37753H10.9011C11.797 9.37753 12.5259 8.64865 12.5259 7.75278V7.05602L19.4571 7.80033V11.9682C19.4571 12.8913 20.2081 13.6422 21.1312 13.6422H22.4136L19.0127 39.9186H18.0933C17.4638 39.9186 16.9517 40.4307 16.9517 41.0601V44.2268H15.557C14.7979 44.2268 14.1802 44.8444 14.1802 45.6036V48.5353H11.5887L9.43125 41.9029L15.2983 36.0358ZM3.42753 48.5352L5.16634 43.1898C5.53264 43.2934 5.91036 43.346 6.28838 43.3459C6.94842 43.3458 7.60836 43.1876 8.20619 42.8716L10.0484 48.5352H3.42753ZM15.6448 48.5352V45.6916H35.6273V48.5352H15.6448Z" fill="#0C0A0A"/>
</g>
<defs>
<clipPath id="clip0_101_828">
<rect width="50" height="50" fill="white"/>
</clipPath>
</defs>
</svg>
