<svg width="44" height="40" viewBox="0 0 44 40" fill="none" xmlns="http://www.w3.org/2000/svg">
<path d="M23.064 24.1009C23.3336 24.1009 23.5529 23.8814 23.5516 23.6111L23.5129 15.608L24.4055 15.6003C24.8006 15.597 25.0986 15.0797 24.7706 14.7442L23.0182 12.9538L23.0244 9.1489C23.2115 9.13025 23.3797 9.00907 23.4411 8.81893C23.5243 8.56276 23.3837 8.28786 23.1275 8.20501C22.1816 7.89868 21.2219 7.87995 20.0144 8.14311C19.7513 8.20056 19.5846 8.46023 19.6418 8.72338C19.689 8.94062 19.8757 9.08319 20.0875 9.09756L20.0849 9.95662L16.8467 6.64799C16.6845 6.48177 16.3754 6.4215 16.1535 6.64418L7.89093 14.9067C7.58474 15.2129 7.80126 15.739 8.23566 15.739H8.23979L9.0921 15.7317V23.6524C9.0921 23.9184 9.3051 24.1352 9.57112 24.1399C14.0995 24.219 18.5004 24.2125 23.064 24.1009ZM21.0631 8.96594C21.4132 8.93249 21.7384 8.93721 22.0495 8.97328L22.0447 11.959L21.0571 10.9499L21.0631 8.96594ZM9.42287 14.7537L16.4944 7.68219L23.2989 14.6347L9.42287 14.7537ZM13.5343 18.3153V23.2108C12.3913 23.2039 11.2384 23.192 10.0673 23.173V15.7233L22.5378 15.6163L22.5742 23.1368C21.0809 23.1714 19.5814 23.191 18.0743 23.2035V18.3153C18.0743 18.0461 17.8559 17.8277 17.5867 17.8277H14.0219C13.7527 17.8277 13.5343 18.0461 13.5343 18.3153ZM14.5095 18.8029H17.0991V23.2113C16.2421 23.2157 15.3773 23.2155 14.5095 23.2128V18.8029Z" fill="#FF6600"/>
<path d="M17.1985 11.9073C16.8921 10.7655 15.09 10.6053 14.666 11.7362C14.4815 12.2289 14.6406 12.8218 15.0532 13.1774C15.4759 13.5409 16.1024 13.6073 16.5779 13.3447C17.0781 13.0682 17.3448 12.4501 17.1985 11.9073Z" fill="#FF6600"/>
<path d="M7.49101 25.0541C7.69067 24.8735 7.70591 24.565 7.52529 24.3653C5.4772 22.102 4.40808 19.3082 4.43315 16.2853C4.48274 8.53291 11.7109 3.33678 17.6737 4.15896C21.4702 4.63892 25.0223 6.91969 26.9447 10.1125C32.1446 18.6849 25.3548 29.6505 15.5183 28.4872C15.2488 28.4542 15.0085 28.6469 14.9771 28.9141C14.9453 29.1814 15.1364 29.424 15.404 29.4554C26.0227 30.7126 33.4135 18.8963 27.7793 9.60805C25.7073 6.16673 21.8819 3.70788 17.8016 3.19205C11.1702 2.27808 3.51238 8.02158 3.45799 16.278C3.43069 19.5489 4.58711 22.5718 6.80217 25.0199C6.98343 25.2198 7.29229 25.2351 7.49101 25.0541Z" fill="#FF6600"/>
<path d="M10.9068 32.9126C16.5006 34.8955 23.2093 33.2093 27.6186 29.2802C27.9075 29.497 28.3048 29.9303 28.5938 30.1471C28.3079 33.1916 37.2191 39.6105 38.6836 39.9351C39.7066 40.1618 40.929 39.7905 41.3982 38.8756C41.7354 38.5865 41.2986 39.0061 42.9607 37.1589C43.7862 36.2257 43.6987 34.8016 42.7646 33.9759L34.3836 26.567C33.7728 26.027 32.9497 25.8866 32.2218 26.1121C31.5025 25.4658 31.0634 24.9225 30.2364 24.3357C31.6194 21.9822 32.3703 19.2984 32.3909 16.4948C32.5077 1.25822 12.9697 -5.20744 3.95624 7.08108C0.96588 10.6101 -0.51444 15.3964 0.161499 19.9579C1.0204 25.7544 5.31304 30.9297 10.9068 32.9126ZM32.8911 26.9774C33.1923 26.9774 33.4948 27.0828 33.738 27.2977L42.1189 34.7067C42.6474 35.1739 42.6976 35.9844 42.23 36.5132L40.8974 38.0207C40.4298 38.5489 39.6197 38.5988 39.0909 38.1318L30.71 30.7229C30.1803 30.2549 30.1298 29.4464 30.5989 28.9163C31.7169 27.7977 31.9677 26.9774 32.8911 26.9774ZM31.3457 26.6292C31.0482 26.9112 30.8036 27.2257 29.9576 28.1691C29.3809 27.7095 29.1766 27.5272 28.3719 26.883C28.8622 26.3373 29.3125 25.7641 29.7174 25.1645C30.336 25.6116 30.7099 26.0315 31.3457 26.6292ZM17.9034 1.67817C17.9114 1.67912 17.9196 1.68007 17.9279 1.68071C25.5501 2.32796 31.4744 8.83157 31.4157 16.4875C31.3868 20.4354 29.8222 24.1345 27.0094 26.9035C24.0207 29.8461 20.035 31.3188 16.0039 31.1241C8.05621 30.788 1.82918 24.2096 1.8866 16.2738C1.93164 7.20509 10.2491 0.634699 17.9034 1.67817Z" fill="#FF6600"/>
<path d="M31.6596 0.214582C30.8892 1.35513 30.2908 2.59979 29.8817 3.91429C29.8014 4.17141 29.9448 4.44473 30.202 4.52472C30.4548 4.60456 30.7318 4.46434 30.8124 4.20443C31.1936 2.98071 31.7507 1.82207 32.4678 0.760571C32.6186 0.537414 32.5599 0.234263 32.3367 0.0834812C32.1132 -0.0669832 31.8104 -0.00857517 31.6596 0.214582Z" fill="#FF6600"/>
<path d="M34.6487 3.85022C33.7815 4.18416 32.9729 4.64603 32.2454 5.22376C32.0346 5.39105 31.9994 5.69801 32.1667 5.90878C32.3344 6.12022 32.6414 6.15451 32.8517 5.98751C33.5018 5.47136 34.2243 5.05869 34.9991 4.76062C35.2502 4.6638 35.3756 4.3816 35.2791 4.13019C35.1823 3.87847 34.9004 3.75499 34.6487 3.85022Z" fill="#FF6600"/>
<path d="M33.299 8.50348C33.3742 8.76437 33.6464 8.91104 33.9024 8.8371C34.7306 8.59871 35.6223 8.52094 36.4797 8.60982C36.7463 8.63712 36.9876 8.4438 37.0155 8.17557C37.0434 7.90765 36.8492 7.66799 36.5813 7.63974C35.5991 7.53689 34.5798 7.62672 33.6326 7.90004C33.3739 7.97463 33.2244 8.24477 33.299 8.50348Z" fill="#FF6600"/>
</svg>
