<svg width="40" height="40" viewBox="0 0 40 40" fill="none" xmlns="http://www.w3.org/2000/svg">
<path d="M22.5875 19.5633C22.5875 18.5469 21.7602 17.7196 20.7438 17.7196H18.8383C18.5797 17.7196 18.3695 17.9297 18.3695 18.1883V23.6891C18.3695 23.9477 18.5797 24.1578 18.8383 24.1578C19.0969 24.1578 19.307 23.9477 19.307 23.6891V21.4078H20.2125L21.7164 23.9297C21.8039 24.0766 21.9602 24.1586 22.1195 24.1586C22.2008 24.1586 22.2836 24.1375 22.3594 24.0922C22.582 23.9594 22.6547 23.6719 22.5219 23.4492L21.2602 21.3336C22.0266 21.1094 22.5875 20.4008 22.5875 19.5633ZM20.7438 20.4696H19.307V18.6571H20.7438C21.2438 18.6571 21.65 19.0641 21.65 19.5633C21.65 20.0625 21.2438 20.4696 20.7438 20.4696ZM14.8031 17.9789C14.7234 17.8203 14.5617 17.7196 14.3836 17.7196C14.2055 17.7196 14.0438 17.8196 13.9641 17.9789L11.2133 23.4797C11.0977 23.711 11.1914 23.993 11.4227 24.1086C11.6539 24.2242 11.9359 24.1305 12.0516 23.8992L13.0195 21.9633H15.7461L16.7141 23.8992C16.7961 24.0633 16.9617 24.1586 17.1336 24.1586C17.2039 24.1586 17.2758 24.143 17.343 24.1094C17.5742 23.9938 17.6688 23.7117 17.5523 23.4805L14.8031 17.9789ZM13.4898 21.025L14.3844 19.236L15.2789 21.025H13.4898ZM38.5828 2.61096C38.2938 2.00158 37.7859 1.54221 37.1539 1.31721C35.8453 0.850803 34.4016 1.53674 33.9352 2.84533L31.0109 11.0578L17.1094 3.11096C16.9648 3.02893 16.7883 3.02893 16.6438 3.11096L1.40781 11.8203C1.40703 11.8211 1.40625 11.8211 1.40547 11.8219C1.26094 11.9055 1.17188 12.0602 1.17188 12.2274V29.65C1.17188 29.818 1.26172 29.9735 1.40781 30.0571L16.6438 38.7664C16.7156 38.8078 16.7961 38.8281 16.8766 38.8281C16.957 38.8281 17.0367 38.8078 17.1094 38.7664L32.3453 30.0571C32.4914 29.9735 32.5813 29.818 32.5813 29.65V20.475L33.2758 19.636C33.3109 19.5938 33.3375 19.5461 33.3563 19.4946L38.6828 4.53596C38.9078 3.90393 38.8719 3.22033 38.5828 2.61096ZM36.8398 2.2008C37.2359 2.34143 37.5539 2.63049 37.7359 3.0133C37.918 3.39612 37.9406 3.8258 37.7992 4.2219L37.6719 4.58049L34.6914 3.51877L34.8188 3.16018C35.1117 2.3383 36.018 1.90783 36.8398 2.2008ZM37.357 5.4633L36.9242 6.67737L33.9438 5.61565L34.3766 4.40158L37.357 5.4633ZM16.8766 4.05783L30.6914 11.9555L30.4484 12.6391L24.0164 16.3156V14.2672C24.0164 14.0086 23.8063 13.7985 23.5477 13.7985H10.2055C9.94688 13.7985 9.73672 14.0086 9.73672 14.2672V16.3156L2.58516 12.2274L16.8766 4.05783ZM10.6742 27.1414V14.736H23.0789V27.1406H10.6742V27.1414ZM2.10938 13.0352L9.73672 17.3953V27.6102C9.73672 27.8688 9.94688 28.0789 10.2055 28.0789H16.4078V37.5516L2.10938 29.3781V13.0352ZM31.6438 29.3781L17.3453 37.5516V28.0789H23.5477C23.8063 28.0789 24.0164 27.8688 24.0164 27.6102V17.3953L29.9656 13.9946L28.6094 17.8039C28.5906 17.8555 28.582 17.9102 28.582 17.9649L28.6023 20.8102V20.818L28.6758 23.8219C28.6805 24.0156 28.8047 24.1867 28.9875 24.2516C29.0391 24.2696 29.0922 24.2789 29.1445 24.2789C29.2789 24.2789 29.4094 24.2211 29.5008 24.1156L31.4563 21.8344C31.4578 21.8321 31.4594 21.8305 31.4617 21.8281L31.6438 21.6078V29.3781ZM29.5242 18.6274L32.1266 19.5539L30.7422 21.2266L29.5836 22.5781L29.5398 20.7985L29.5242 18.6274ZM32.6297 18.7383L29.6492 17.6766L33.6297 6.49846L36.6102 7.56018L32.6297 18.7383Z" fill="#FF6600"/>
</svg>
