<svg width="50" height="50" viewBox="0 0 50 50" fill="none" xmlns="http://www.w3.org/2000/svg">
<path d="M29.5805 6.60611C29.6536 6.62765 29.7294 6.6387 29.8055 6.63892C29.9735 6.63876 30.1369 6.5845 30.2716 6.48416C30.4062 6.38382 30.505 6.24276 30.5532 6.08189L31.461 3.05923C31.5205 2.86073 31.4986 2.64674 31.4003 2.46434C31.302 2.28193 31.1353 2.14604 30.9368 2.08658C30.7383 2.02711 30.5243 2.04893 30.3419 2.14724C30.1595 2.24555 30.0236 2.4123 29.9641 2.6108L29.0563 5.63345C29.0269 5.73174 29.0171 5.83486 29.0275 5.93694C29.0379 6.03901 29.0683 6.13804 29.117 6.22836C29.1656 6.31868 29.2316 6.39853 29.3112 6.46334C29.3907 6.52816 29.4822 6.57667 29.5805 6.60611Z" fill="#FF6600"/>
<path d="M34.731 7.85601C34.9129 7.95499 35.1267 7.97767 35.3253 7.91907C35.524 7.86047 35.6912 7.72539 35.7903 7.54351L37.3028 4.75758C37.3518 4.6674 37.3826 4.56845 37.3933 4.46638C37.4041 4.36432 37.3946 4.26114 37.3655 4.16273C37.3363 4.06432 37.2881 3.97261 37.2236 3.89284C37.159 3.81307 37.0793 3.7468 36.9892 3.69781C36.899 3.64882 36.8 3.61808 36.698 3.60733C36.5959 3.59658 36.4927 3.60604 36.3943 3.63516C36.2959 3.66429 36.2042 3.71251 36.1244 3.77708C36.0447 3.84165 35.9784 3.9213 35.9294 4.01148L34.4169 6.79664C34.3679 6.88682 34.3372 6.98576 34.3265 7.0878C34.3158 7.18985 34.3253 7.293 34.3545 7.39138C34.3837 7.48975 34.4319 7.58142 34.4965 7.66114C34.5611 7.74086 34.6408 7.80708 34.731 7.85601Z" fill="#FF6600"/>
<path d="M40.5812 10.4037C40.695 10.4038 40.8075 10.3791 40.9107 10.3311C41.014 10.2832 41.1055 10.2134 41.1789 10.1264L43.2328 7.68733C43.3005 7.6091 43.3519 7.51822 43.3842 7.41995C43.4164 7.32169 43.4288 7.218 43.4207 7.11489C43.4126 7.01178 43.3841 6.91132 43.3368 6.81932C43.2896 6.72732 43.2245 6.64562 43.1454 6.57896C43.0664 6.51229 42.9748 6.46199 42.8762 6.43098C42.7775 6.39996 42.6737 6.38884 42.5707 6.39827C42.4677 6.4077 42.3676 6.43748 42.2762 6.4859C42.1848 6.53431 42.1039 6.60039 42.0383 6.6803L39.9844 9.11936C39.8886 9.23316 39.8272 9.37194 39.8076 9.51939C39.788 9.66684 39.8109 9.81683 39.8735 9.95173C39.9362 10.0866 40.0361 10.2008 40.1615 10.2809C40.2869 10.361 40.4325 10.4036 40.5812 10.4037Z" fill="#FF6600"/>
<path d="M45.3461 14.2854C45.5298 14.2854 45.7077 14.2207 45.8484 14.1026L48.2703 12.0713C48.4241 11.9368 48.519 11.7473 48.5347 11.5435C48.5505 11.3397 48.4857 11.1379 48.3544 10.9813C48.223 10.8248 48.0356 10.7259 47.8322 10.7059C47.6288 10.6859 47.4257 10.7464 47.2664 10.8745L44.8445 12.9057C44.722 13.0089 44.6341 13.1472 44.5928 13.3019C44.5515 13.4566 44.5588 13.6203 44.6136 13.7708C44.6684 13.9213 44.7682 14.0513 44.8993 14.1432C45.0305 14.2351 45.1867 14.2845 45.3469 14.2846L45.3461 14.2854Z" fill="#FF6600"/>
<path d="M8.82138 10.1264C8.88704 10.2064 8.96791 10.2724 9.0593 10.3208C9.1507 10.3693 9.2508 10.399 9.35379 10.4085C9.45679 10.4179 9.56063 10.4068 9.65929 10.3758C9.75796 10.3447 9.84948 10.2944 9.92856 10.2278C10.0076 10.1611 10.0727 10.0794 10.1199 9.98742C10.1672 9.89542 10.1957 9.79496 10.2038 9.69185C10.212 9.58874 10.1995 9.48505 10.1673 9.38679C10.135 9.28852 10.0836 9.19764 10.0159 9.11941L7.962 6.68035C7.82758 6.52492 7.63733 6.42872 7.43248 6.41257C7.22762 6.39643 7.02465 6.46164 6.86754 6.59409C6.71043 6.72654 6.61183 6.91556 6.5931 7.1202C6.57437 7.32483 6.63702 7.52861 6.76747 7.68738L8.82138 10.1264Z" fill="#FF6600"/>
<path d="M14.2088 7.54205C14.2578 7.63223 14.324 7.71189 14.4037 7.77648C14.4835 7.84107 14.5751 7.88932 14.6735 7.91849C14.7719 7.94765 14.875 7.95715 14.9771 7.94645C15.0791 7.93575 15.178 7.90505 15.2682 7.85611C15.3584 7.80718 15.4381 7.74095 15.5027 7.66123C15.5672 7.58151 15.6155 7.48984 15.6447 7.39147C15.6738 7.2931 15.6833 7.18995 15.6726 7.0879C15.6619 6.98586 15.6312 6.88692 15.5823 6.79674L14.0698 4.01002C13.9708 3.82789 13.8036 3.69252 13.6049 3.6337C13.4061 3.57487 13.1921 3.59741 13.01 3.69635C12.8279 3.79529 12.6925 3.96252 12.6337 4.16127C12.5749 4.36001 12.5974 4.57398 12.6963 4.75611L14.2088 7.54205Z" fill="#FF6600"/>
<path d="M4.17734 14.1218C4.25812 14.1884 4.35145 14.2381 4.45179 14.2679C4.55213 14.2977 4.65743 14.307 4.76145 14.2953C4.86547 14.2836 4.96608 14.2512 5.05731 14.1998C5.14853 14.1485 5.22851 14.0794 5.2925 13.9965C5.35648 13.9137 5.40317 13.8188 5.42979 13.7176C5.45641 13.6164 5.46241 13.5108 5.44744 13.4072C5.43247 13.3036 5.39684 13.2041 5.34266 13.1145C5.28848 13.025 5.21685 12.9472 5.13203 12.8859L2.82109 11.1007C2.74032 11.0342 2.64699 10.9845 2.54665 10.9547C2.44631 10.9249 2.341 10.9156 2.23699 10.9272C2.13297 10.9389 2.03236 10.9714 1.94113 11.0227C1.84991 11.0741 1.76993 11.1432 1.70594 11.226C1.64195 11.3089 1.59527 11.4037 1.56865 11.505C1.54203 11.6062 1.53603 11.7117 1.551 11.8153C1.56597 11.9189 1.6016 12.0185 1.65578 12.108C1.70996 12.1976 1.78159 12.2753 1.86641 12.3367L4.17734 14.1218Z" fill="#FF6600"/>
<path d="M19.4465 6.08189C19.4947 6.24276 19.5935 6.38382 19.7282 6.48416C19.8628 6.58449 20.0263 6.63876 20.1942 6.63892C20.2704 6.6387 20.3461 6.62765 20.4192 6.60611C20.5175 6.57667 20.609 6.52816 20.6886 6.46334C20.7681 6.39853 20.8341 6.31868 20.8828 6.22836C20.9314 6.13804 20.9619 6.03901 20.9723 5.93694C20.9827 5.83486 20.9729 5.73174 20.9434 5.63345L20.0356 2.61079C20.0062 2.51251 19.9576 2.42098 19.8928 2.34145C19.828 2.26191 19.7482 2.19592 19.6578 2.14724C19.5675 2.09856 19.4685 2.06815 19.3664 2.05774C19.2644 2.04733 19.1612 2.05713 19.0629 2.08658C18.9647 2.11602 18.8731 2.16454 18.7936 2.22935C18.7141 2.29417 18.6481 2.37401 18.5994 2.46433C18.5507 2.55465 18.5203 2.65368 18.5099 2.75575C18.4995 2.85782 18.5093 2.96095 18.5387 3.05923L19.4465 6.08189Z" fill="#FF6600"/>
<path d="M25 6.25C25.2072 6.25 25.4059 6.16769 25.5524 6.02118C25.6989 5.87466 25.7812 5.67595 25.7812 5.46875V2.34375C25.7812 2.13655 25.6989 1.93784 25.5524 1.79132C25.4059 1.64481 25.2072 1.5625 25 1.5625C24.7928 1.5625 24.5941 1.64481 24.4476 1.79132C24.3011 1.93784 24.2188 2.13655 24.2188 2.34375V5.46875C24.2188 5.67595 24.3011 5.87466 24.4476 6.02118C24.5941 6.16769 24.7928 6.25 25 6.25Z" fill="#FF6600"/>
<path d="M14.3798 30.5178C10.0679 28.5501 6.28393 25.5881 3.33839 21.8749C4.83956 19.9999 6.55015 18.3027 8.43683 16.8163C8.5999 16.6883 8.70546 16.5009 8.73029 16.2951C8.75513 16.0893 8.6972 15.8821 8.56925 15.719C8.4413 15.5559 8.25382 15.4504 8.04804 15.4256C7.84227 15.4007 7.63505 15.4586 7.47199 15.5866C5.32523 17.2799 3.39532 19.2313 1.72589 21.3968C1.61997 21.5336 1.5625 21.7018 1.5625 21.8749C1.5625 22.0479 1.61997 22.2161 1.72589 22.353C4.88311 26.4891 9.01074 29.7836 13.7439 31.9452C13.9331 32.0295 14.1482 32.0352 14.3416 31.961C14.5351 31.8868 14.6912 31.7388 14.7755 31.5495C14.8598 31.3602 14.8655 31.1452 14.7913 30.9517C14.7171 30.7582 14.5691 30.6022 14.3798 30.5178Z" fill="#FF6600"/>
<path d="M48.275 22.3531C48.381 22.2162 48.4384 22.0481 48.4384 21.875C48.4384 21.7019 48.381 21.5338 48.275 21.3969C42.3594 13.7563 33.8758 9.375 25.0008 9.375C19.6448 9.39663 14.4071 10.9526 9.90785 13.8586C9.73318 13.9701 9.60995 14.1464 9.56526 14.3487C9.52058 14.551 9.5581 14.7628 9.66957 14.9375C9.78104 15.1122 9.95734 15.2354 10.1597 15.2801C10.362 15.3248 10.5738 15.2873 10.7485 15.1758C12.7312 13.9111 14.8696 12.909 17.1102 12.1945C15.6643 13.3692 14.4999 14.8529 13.7026 16.5366C12.9053 18.2203 12.4953 20.0612 12.5028 21.9242C12.5103 23.7871 12.9351 25.6247 13.7459 27.3019C14.5567 28.9791 15.733 30.4534 17.1883 31.6164V32.8125C16.5667 32.8125 15.9706 33.0594 15.531 33.499C15.0915 33.9385 14.8446 34.5346 14.8446 35.1562C14.8446 35.7779 15.0915 36.374 15.531 36.8135C15.9706 37.2531 16.5667 37.5 17.1883 37.5H32.8133C33.0205 37.5 33.2192 37.5823 33.3657 37.7288C33.5123 37.8753 33.5946 38.074 33.5946 38.2812C33.5946 38.4885 33.5123 38.6872 33.3657 38.8337C33.2192 38.9802 33.0205 39.0625 32.8133 39.0625H17.1883C16.9811 39.0625 16.7824 39.1448 16.6359 39.2913C16.4894 39.4378 16.4071 39.6365 16.4071 39.8438C16.4071 40.051 16.4894 40.2497 16.6359 40.3962C16.7824 40.5427 16.9811 40.625 17.1883 40.625C17.1883 42.697 18.0114 44.6841 19.4765 46.1493C20.9417 47.6144 22.9288 48.4375 25.0008 48.4375C27.0728 48.4375 29.06 47.6144 30.5251 46.1493C31.9902 44.6841 32.8133 42.697 32.8133 40.625C33.2666 40.627 33.7107 40.4969 34.0913 40.2507C34.4719 40.0045 34.7725 39.6527 34.9565 39.2384C35.1404 38.8241 35.1997 38.3652 35.1271 37.9177C35.0545 37.4703 34.8532 37.0536 34.5477 36.7188C34.8532 36.3839 35.0545 35.9672 35.1271 35.5198C35.1997 35.0723 35.1404 34.6134 34.9565 34.1991C34.7725 33.7848 34.4719 33.433 34.0913 33.1868C33.7107 32.9406 33.2666 32.8105 32.8133 32.8125V31.6164C34.28 30.4524 35.4637 28.9712 36.2756 27.2839C37.0875 25.5967 37.5064 23.7474 37.5008 21.875C37.499 20.9775 37.401 20.0829 37.2086 19.2062C37.1877 19.1051 37.1468 19.0092 37.0886 18.924C37.0303 18.8387 36.9557 18.7659 36.8691 18.7097C36.7825 18.6534 36.6856 18.6149 36.584 18.5964C36.4824 18.5779 36.3781 18.5796 36.2773 18.6016C36.1764 18.6236 36.0808 18.6654 35.9962 18.7245C35.9116 18.7837 35.8395 18.859 35.7841 18.9462C35.7288 19.0334 35.6913 19.1306 35.6737 19.2324C35.6562 19.3342 35.6591 19.4384 35.6821 19.5391C35.8508 20.3063 35.9367 21.0894 35.9383 21.875C35.9428 23.5717 35.5493 25.2458 34.7895 26.7628C34.0297 28.2799 32.9247 29.5976 31.5633 30.6102C31.4663 30.6829 31.3875 30.7773 31.3333 30.8858C31.2791 30.9943 31.2508 31.1139 31.2508 31.2352V32.8125H28.1258V27.2812C29.4069 26.5458 30.3847 25.3786 30.8842 23.9884C31.3837 22.5982 31.3724 21.0756 30.8524 19.693C30.801 19.5557 30.7121 19.4357 30.5958 19.3466C30.4795 19.2575 30.3404 19.2029 30.1946 19.1891C30.0487 19.174 29.9015 19.2008 29.7702 19.2662C29.639 19.3316 29.529 19.433 29.4532 19.5586C29.316 19.7883 29.1215 19.9784 28.8889 20.1106C28.6563 20.2427 28.3934 20.3123 28.1258 20.3125C27.7114 20.3125 27.314 20.1479 27.021 19.8549C26.7279 19.5618 26.5633 19.1644 26.5633 18.75C26.5633 18.4824 26.6327 18.2194 26.7647 17.9866C26.8967 17.7538 27.0868 17.5593 27.3164 17.4219C27.4414 17.3454 27.5424 17.2354 27.6078 17.1044C27.6733 16.9733 27.7006 16.8265 27.6865 16.6806C27.6725 16.5348 27.6178 16.3959 27.5286 16.2797C27.4394 16.1635 27.3193 16.0747 27.1821 16.0234C26.2373 15.6681 25.2204 15.5474 24.2187 15.6717C23.217 15.796 22.2605 16.1617 21.4312 16.7372C20.602 17.3127 19.9248 18.0809 19.458 18.9758C18.9911 19.8707 18.7484 20.8656 18.7508 21.875C18.7552 22.9704 19.0458 24.0456 19.594 24.9939C20.1422 25.9423 20.9288 26.7308 21.8758 27.2812V32.8125H18.7508V31.2336C18.7508 31.1123 18.7226 30.9927 18.6683 30.8842C18.6141 30.7757 18.5353 30.6814 18.4383 30.6086C17.128 29.6232 16.0562 28.3557 15.3021 26.9C14.5481 25.4442 14.1312 23.8375 14.0822 22.1988C14.0333 20.56 14.3537 18.9313 15.0196 17.4332C15.6854 15.935 16.6798 14.6059 17.929 13.5441C19.1782 12.4824 20.6502 11.7152 22.2361 11.2995C23.8219 10.8837 25.481 10.8301 27.0904 11.1424C28.6999 11.4548 30.2184 12.1252 31.5336 13.104C32.8488 14.0828 33.927 15.3449 34.6883 16.7969C34.736 16.8877 34.8012 16.9683 34.88 17.034C34.9588 17.0996 35.0499 17.1491 35.1478 17.1796C35.2458 17.2102 35.3488 17.2211 35.451 17.2118C35.5532 17.2024 35.6525 17.1731 35.7434 17.1254C35.8342 17.0777 35.9148 17.0126 35.9805 16.9337C36.0462 16.8549 36.0957 16.7639 36.1262 16.6659C36.1567 16.5679 36.1676 16.4649 36.1583 16.3627C36.149 16.2605 36.1196 16.1612 36.0719 16.0703C35.2903 14.5816 34.2175 13.2652 32.9172 12.1992C38.3452 14.0134 43.1232 17.377 46.6618 21.875C43.7162 25.5883 39.9323 28.5503 35.6203 30.518C35.5266 30.5597 35.4421 30.6195 35.3714 30.694C35.3008 30.7684 35.2456 30.856 35.2088 30.9518C35.1721 31.0476 35.1546 31.1497 35.1573 31.2523C35.16 31.3549 35.1829 31.4559 35.2246 31.5496C35.2664 31.6433 35.3262 31.7279 35.4007 31.7985C35.4751 31.8691 35.5627 31.9244 35.6585 31.9611C35.7543 31.9979 35.8564 32.0154 35.959 32.0127C36.0615 32.01 36.1626 31.9871 36.2563 31.9453C40.9897 29.7838 45.1176 26.4893 48.275 22.3531ZM25.0008 46.875C23.3438 46.8731 21.7552 46.2141 20.5835 45.0424C19.4118 43.8707 18.7527 42.282 18.7508 40.625H31.2508C31.249 42.282 30.5899 43.8707 29.4182 45.0424C28.2465 46.2141 26.6579 46.8731 25.0008 46.875ZM33.5946 35.1562C33.5946 35.3635 33.5123 35.5622 33.3657 35.7087C33.2192 35.8552 33.0205 35.9375 32.8133 35.9375H17.1883C16.9811 35.9375 16.7824 35.8552 16.6359 35.7087C16.4894 35.5622 16.4071 35.3635 16.4071 35.1562C16.4071 34.949 16.4894 34.7503 16.6359 34.6038C16.7824 34.4573 16.9811 34.375 17.1883 34.375H32.8133C33.0205 34.375 33.2192 34.4573 33.3657 34.6038C33.5123 34.7503 33.5946 34.949 33.5946 35.1562ZM22.993 26.1047C22.0346 25.6469 21.2601 24.8772 20.7964 23.9217C20.3326 22.9662 20.2072 21.8815 20.4405 20.8453C20.6738 19.8091 21.252 18.8829 22.0806 18.2184C22.9091 17.5538 23.9387 17.1904 25.0008 17.1875C25.1375 17.1875 25.2743 17.1938 25.4094 17.2055C25.0716 17.8003 24.9382 18.4896 25.0299 19.1675C25.1215 19.8454 25.4331 20.4746 25.9168 20.9583C26.4005 21.4421 27.0295 21.7538 27.7075 21.8456C28.3854 21.9374 29.0747 21.8042 29.6696 21.4664C29.6821 21.6016 29.6883 21.7383 29.6883 21.875C29.6847 22.7607 29.4313 23.6274 28.9573 24.3756C28.4833 25.1237 27.8079 25.7231 27.0086 26.1047C26.8757 26.168 26.7633 26.2676 26.6846 26.392C26.6058 26.5164 26.5637 26.6606 26.5633 26.8078V32.8125H23.4383V26.8102C23.4383 26.6625 23.3965 26.5179 23.3177 26.393C23.2389 26.2681 23.1263 26.1682 22.993 26.1047Z" fill="#FF6600"/>
<path d="M41.1783 32.5056C41.112 32.4272 41.0308 32.3626 40.9395 32.3155C40.8482 32.2684 40.7486 32.2398 40.6462 32.2312C40.5438 32.2227 40.4408 32.2344 40.343 32.2656C40.2451 32.2969 40.1544 32.3471 40.0759 32.4134C39.9975 32.4798 39.9329 32.5609 39.8858 32.6522C39.8387 32.7435 39.8101 32.8432 39.8015 32.9455C39.793 33.0479 39.8047 33.1509 39.8359 33.2488C39.8672 33.3466 39.9174 33.4374 39.9838 33.5158L42.0377 35.9556C42.1038 36.0341 42.1848 36.0987 42.276 36.1458C42.3671 36.193 42.4667 36.2217 42.5689 36.2304C42.6712 36.239 42.7741 36.2275 42.8719 36.1964C42.9697 36.1652 43.0604 36.1152 43.1388 36.049C43.2173 35.9828 43.2819 35.9018 43.329 35.8107C43.3762 35.7195 43.4049 35.62 43.4136 35.5177C43.4222 35.4155 43.4107 35.3125 43.3796 35.2147C43.3484 35.117 43.2984 35.0263 43.2322 34.9478L41.1783 32.5056Z" fill="#FF6600"/>
<path d="M45.8469 28.5312C45.769 28.461 45.6777 28.4073 45.5786 28.3731C45.4794 28.339 45.3744 28.3252 45.2697 28.3325C45.1651 28.3398 45.063 28.3681 44.9696 28.4157C44.8761 28.4633 44.7932 28.5292 44.7258 28.6096C44.6584 28.6899 44.6078 28.783 44.5771 28.8833C44.5465 28.9836 44.5363 29.089 44.5472 29.1933C44.5582 29.2976 44.59 29.3986 44.6408 29.4904C44.6916 29.5821 44.7604 29.6627 44.843 29.7273L47.2649 31.7585C47.4242 31.886 47.627 31.9461 47.83 31.926C48.033 31.906 48.2201 31.8073 48.3513 31.6511C48.4825 31.4949 48.5474 31.2935 48.5321 31.0901C48.5169 30.8867 48.4226 30.6973 48.2696 30.5624L45.8469 28.5312Z" fill="#FF6600"/>
<path d="M8.82207 32.5053L6.76816 34.9444C6.63452 35.1028 6.56927 35.3078 6.58678 35.5143C6.60429 35.7208 6.70312 35.9119 6.86152 36.0455C7.01992 36.1792 7.22493 36.2444 7.43144 36.2269C7.63795 36.2094 7.82905 36.1106 7.96269 35.9522L10.0166 33.5155C10.0843 33.4372 10.1357 33.3463 10.168 33.2481C10.2002 33.1498 10.2127 33.0461 10.2045 32.943C10.1964 32.8399 10.1679 32.7394 10.1206 32.6474C10.0734 32.5554 10.0083 32.4737 9.92925 32.4071C9.85017 32.3404 9.75865 32.2901 9.65998 32.2591C9.56132 32.2281 9.45748 32.217 9.35448 32.2264C9.25149 32.2358 9.15139 32.2656 9.05999 32.314C8.9686 32.3624 8.88773 32.4285 8.82207 32.5084V32.5053Z" fill="#FF6600"/>
<path d="M4.17734 28.5109L1.86641 30.2953C1.78159 30.3566 1.70996 30.4344 1.65578 30.5239C1.6016 30.6135 1.56597 30.713 1.551 30.8166C1.53603 30.9202 1.54203 31.0257 1.56865 31.127C1.59527 31.2282 1.64195 31.3231 1.70594 31.4059C1.76993 31.4887 1.84991 31.5579 1.94113 31.6092C2.03236 31.6605 2.13297 31.693 2.23699 31.7047C2.341 31.7164 2.44631 31.707 2.54665 31.6772C2.64699 31.6474 2.74032 31.5978 2.82109 31.5312L5.13203 29.7468C5.21685 29.6855 5.28848 29.6077 5.34266 29.5182C5.39684 29.4286 5.43247 29.3291 5.44744 29.2255C5.46241 29.1219 5.45641 29.0163 5.42979 28.9151C5.40317 28.8139 5.35648 28.719 5.2925 28.6362C5.22851 28.5534 5.14853 28.4842 5.05731 28.4329C4.96608 28.3816 4.86547 28.3491 4.76145 28.3374C4.65743 28.3257 4.55213 28.3351 4.45179 28.3649C4.35145 28.3947 4.25812 28.4443 4.17734 28.5109Z" fill="#FF6600"/>
</svg>
