<svg width="50" height="50" viewBox="0 0 50 50" fill="none" xmlns="http://www.w3.org/2000/svg">
<path d="M25.0001 46.875C28.7681 46.875 32.4721 45.9018 35.7534 44.0495C39.0346 42.1973 41.7818 39.5289 43.7287 36.303C45.6756 33.077 46.7563 29.4028 46.8659 25.6365C46.9755 21.8701 46.1104 18.1393 44.3544 14.8056C44.2564 14.6242 44.0906 14.4889 43.8933 14.4291C43.6959 14.3694 43.4829 14.3902 43.3008 14.4868C43.1186 14.5835 42.9821 14.7482 42.9209 14.9451C42.8598 15.1421 42.8789 15.3552 42.9742 15.538C44.5123 18.4547 45.315 21.7027 45.3126 25C44.1993 51.9431 5.8007 51.9433 4.68763 24.9998C4.49949 9.93608 21.2503 -0.160668 34.4622 7.02618C34.6453 7.12329 34.8594 7.1437 35.0576 7.08292C35.2557 7.02214 35.4215 6.88515 35.5186 6.70209C35.6157 6.51903 35.6361 6.30489 35.5754 6.10678C35.5146 5.90867 35.3776 5.74282 35.1945 5.64571C32.0523 3.98812 28.5528 3.12282 25.0001 3.125C-4.01584 4.32388 -4.0155 45.6767 25.0001 46.875Z" fill="#FF6600"/>
<path d="M25.0006 18.7501C25.6771 18.7497 26.3489 18.862 26.9884 19.0824C27.1843 19.1498 27.399 19.1367 27.5852 19.0459C27.7714 18.9552 27.9139 18.7941 27.9814 18.5983C28.3246 17.2162 25.8914 17.2714 25.0007 17.1875C14.6376 17.6158 14.638 32.3848 25.0007 32.8126C27.072 32.8103 29.0577 31.9865 30.5224 30.5218C31.987 29.0572 32.8108 27.0714 32.8131 25.0001C32.7333 24.0932 32.7861 21.6853 31.4102 22.0273C31.3131 22.0606 31.2236 22.1128 31.1468 22.1807C31.0699 22.2487 31.0072 22.3312 30.9622 22.4234C30.9173 22.5156 30.8909 22.6158 30.8847 22.7182C30.8785 22.8207 30.8925 22.9233 30.926 23.0203C31.1434 23.6576 31.2531 24.3267 31.2506 25.0001C30.9373 33.2788 19.0638 33.2791 18.7506 25C18.7525 23.343 19.4116 21.7544 20.5833 20.5828C21.755 19.4111 23.3436 18.752 25.0006 18.7501Z" fill="#FF6600"/>
<path d="M32.4796 13.0741C32.5294 12.9844 32.561 12.8858 32.5726 12.7838C32.5842 12.6819 32.5757 12.5787 32.5474 12.48C32.5191 12.3814 32.4717 12.2893 32.4078 12.209C32.344 12.1287 32.2649 12.0618 32.1752 12.0121C29.9788 10.7963 27.5098 10.1578 24.9993 10.1562C5.30997 10.97 5.31022 39.0304 24.9995 39.8438C27.5816 39.8453 30.1194 39.1728 32.362 37.8928C34.6045 36.6128 36.4742 34.7696 37.786 32.5455C39.0978 30.3214 39.8064 27.7935 39.8417 25.2116C39.877 22.6297 39.2378 20.0833 37.9872 17.8241C37.9377 17.734 37.8709 17.6545 37.7906 17.5903C37.7103 17.526 37.6181 17.4782 37.5193 17.4497C37.4205 17.4212 37.317 17.4124 37.2148 17.424C37.1126 17.4355 37.0137 17.4672 36.9237 17.517C36.8338 17.5669 36.7546 17.634 36.6906 17.7146C36.6267 17.7952 36.5793 17.8876 36.5512 17.9865C36.523 18.0854 36.5147 18.1889 36.5266 18.2911C36.5386 18.3932 36.5706 18.492 36.6208 18.5817C41.5728 27.1699 34.9205 38.4532 24.9991 38.2811C21.478 38.2772 18.1022 36.8767 15.6123 34.3868C13.1225 31.897 11.722 28.5212 11.7181 25C11.5479 15.0789 22.8283 8.42584 31.4177 13.3787C31.5074 13.4287 31.606 13.4604 31.708 13.4721C31.81 13.4838 31.9132 13.4752 32.0119 13.4469C32.1106 13.4186 32.2027 13.3711 32.2829 13.3072C32.3632 13.2432 32.43 13.164 32.4796 13.0741Z" fill="#FF6600"/>
<path d="M34.0034 10.8581L34.2904 14.6052L24.448 24.4475C24.3065 24.5951 24.2284 24.7922 24.2305 24.9966C24.2326 25.201 24.3148 25.3965 24.4593 25.541C24.6039 25.6856 24.7994 25.7677 25.0038 25.7698C25.2082 25.7719 25.4053 25.6938 25.5528 25.5522L35.3951 15.7099L39.1422 15.9968C39.2545 16.0054 39.3673 15.9896 39.473 15.9505C39.5786 15.9114 39.6745 15.8499 39.7541 15.7703L45.4403 10.0845C45.5438 9.97792 45.615 9.84427 45.6456 9.69897C45.6763 9.55366 45.6652 9.40264 45.6137 9.26336C45.5621 9.12409 45.4722 9.00226 45.3543 8.91197C45.2364 8.82168 45.0953 8.76661 44.9474 8.75314L41.5104 8.48992L41.2472 5.05284C41.2336 4.90498 41.1785 4.76397 41.0882 4.64611C40.9979 4.52825 40.8761 4.43835 40.7368 4.38681C40.5976 4.33527 40.4466 4.32419 40.3013 4.35484C40.156 4.3855 40.0224 4.45664 39.9158 4.56005L34.2301 10.2462C34.1503 10.3257 34.0888 10.4216 34.0497 10.5273C34.0106 10.6329 33.9948 10.7457 34.0034 10.8581ZM39.8189 6.86635C40.1316 10.5046 39.5163 9.86418 43.134 10.1813L38.9034 14.4114L35.8246 14.1757L35.5888 11.0968L39.8189 6.86635Z" fill="#FF6600"/>
</svg>
