<svg width="152" height="55" viewBox="0 0 152 55" fill="none" xmlns="http://www.w3.org/2000/svg">
<mask id="mask0_127_21608" style="mask-type:luminance" maskUnits="userSpaceOnUse" x="0" y="0" width="151" height="55">
<path d="M150.6 0H0.199951V54.144H150.6V0Z" fill="white"/>
</mask>
<g mask="url(#mask0_127_21608)">
<path d="M62.1349 35.7816C61.7617 35.4617 61.5476 35.1265 61.5278 34.7743L62.1349 35.7816ZM62.1349 35.7816L62.1368 35.7832C62.5426 36.1153 63.1143 36.2736 63.8369 36.2736H65.4182H65.5238V36.168V35.9606V35.855H65.4182H64.6241L64.3484 35.8048L64.3434 35.8039L64.3381 35.8036C64.1737 35.7898 63.9909 35.6784 63.7921 35.431C63.6202 35.1789 63.5277 34.8154 63.5277 34.3274V26.2133C63.5277 25.3481 63.3066 24.6315 62.8563 24.073L62.855 24.0713C62.5602 23.7212 62.0979 23.4625 61.4826 23.2864C60.8808 23.092 60.0999 22.9967 59.1446 22.9967C58.1674 22.9967 57.2714 23.3349 56.4595 24.0056C55.8102 24.5279 55.322 25.0876 54.9989 25.6855V23.2061V23.1004H54.893H53.0784H52.9727V23.2061V36.168V36.2736H53.0784H54.893H54.9989V36.168V26.9651C54.9989 26.3177 55.4136 25.5661 56.2891 24.7074L56.2901 24.7067C57.1544 23.8424 58.1219 23.4156 59.1964 23.4156C59.7204 23.4156 60.1522 23.4999 60.4966 23.6634C61.1502 24.0155 61.5018 24.8341 61.5018 26.1874V34.3274V34.3305V34.3336L61.5278 34.7743L62.1349 35.7816ZM51.3385 19.2088L51.436 19.2462L51.4746 19.1494L51.5784 18.8902L51.6201 18.786L51.5138 18.7506C49.7409 18.1597 47.9928 17.8638 46.2695 17.8638C44.5612 17.8638 43.2607 18.2644 42.3867 19.0845C41.5161 19.8842 41.0826 20.9332 41.0826 22.221C41.0826 23.8459 41.7566 25.1062 43.0998 25.9902C43.6925 26.391 44.3455 26.7565 45.0583 27.087L45.0606 27.0878C45.7693 27.3991 46.4696 27.7017 47.1614 27.9956L47.1624 27.996C47.8667 28.2882 48.5106 28.6058 49.0933 28.9486C50.3788 29.7097 51.0117 30.7573 51.0117 32.0979C51.0117 33.326 50.5265 34.2508 49.5559 34.8869C48.5912 35.5131 47.4195 35.829 46.0362 35.829C45.0966 35.829 44.1739 35.6926 43.2682 35.4191C42.3785 35.128 41.6563 34.7617 41.0983 34.322L41.0058 34.2493L40.9431 34.3493L40.8136 34.5567L40.7605 34.6416L40.8424 34.6993C42.3666 35.7678 44.2034 36.2997 46.3473 36.2997C47.4955 36.2997 48.5003 36.1693 49.3595 35.9061L49.3608 35.9058C50.2461 35.6226 50.9979 35.091 51.6148 34.3155C52.236 33.5345 52.5452 32.5947 52.5452 31.5017C52.5452 30.4025 52.3621 29.4941 51.9889 28.7829C51.6188 28.0607 51.1324 27.4934 50.5284 27.0849C49.935 26.6835 49.2815 26.3263 48.5674 26.0128C47.8567 25.7007 47.1458 25.4233 46.4348 25.1805C45.7474 24.9226 45.1123 24.6479 44.529 24.3564C43.2434 23.6795 42.6163 22.7354 42.6163 21.521C42.6163 20.5148 42.9917 19.7347 43.7409 19.1686C44.4939 18.5995 45.5485 18.3085 46.9178 18.3085C48.3021 18.3085 49.7758 18.6076 51.3385 19.2088ZM66.0777 24.8164C64.8778 26.0339 64.2841 27.7407 64.2841 29.9204C64.2841 32.0982 64.8593 33.7306 66.0297 34.7947C67.1932 35.8521 68.6976 36.3775 70.5338 36.3775C72.3907 36.3775 73.9224 35.7719 75.1195 34.5576C76.3369 33.3402 76.9393 31.6337 76.9393 29.4538C76.9393 27.276 76.364 25.6436 75.1935 24.5796C74.0296 23.5217 72.5165 22.9967 70.6633 22.9967C68.8231 22.9967 67.2916 23.6024 66.0777 24.8164ZM67.5335 25.1358C68.3802 23.9843 69.4393 23.4156 70.7151 23.4156C71.9974 23.4156 73.0207 23.9028 73.7951 24.8791C74.5684 25.8542 74.9645 27.3724 74.9645 29.4538C74.9645 31.5141 74.5352 33.1137 73.6894 34.2644C72.843 35.3987 71.7842 35.9588 70.5078 35.9588C69.2257 35.9588 68.2021 35.4715 67.4277 34.4952C66.6544 33.5198 66.2583 32.0101 66.2583 29.9463C66.2583 27.8681 66.6879 26.2689 67.5335 25.1358ZM94.6015 23.2869L94.5248 23.3641L94.6045 23.4388C94.8534 23.6721 94.9858 24.0205 94.9858 24.5023C94.9858 24.9887 94.885 25.402 94.688 25.746L94.6865 25.75L94.6842 25.7542L91.0325 33.6628L87.1544 23.1695L87.1289 23.1004H87.0552H85.2406H85.0887L85.1413 23.2424L86.0851 25.8199L82.477 33.6625L78.5997 23.1695L78.5734 23.1004H78.4997H76.6851H76.5332L76.5866 23.243L81.4084 36.205L81.434 36.2736H81.5069H81.7664H81.8348L81.8626 36.2119L86.319 26.4124L89.9632 36.205L89.9887 36.2736H90.0624H90.3211H90.3895L90.4174 36.2119L95.1362 25.8423L95.1369 25.8402C95.349 25.3447 95.4565 24.8553 95.4565 24.3727C95.4565 24.2435 95.4385 24.1072 95.4031 23.9642C95.3813 23.8051 95.3031 23.6364 95.1798 23.4596C95.1271 23.372 95.0775 23.299 95.0301 23.2421C94.9835 23.1862 94.9331 23.1385 94.879 23.1115L94.8113 23.0775L94.7572 23.1313L94.6015 23.2869Z" fill="#FF6600"/>
<path d="M62.1349 35.7816C61.7617 35.4617 61.5476 35.1265 61.5278 34.7743M62.1349 35.7816L61.5278 34.7743M62.1349 35.7816L62.1368 35.7832C62.5426 36.1153 63.1143 36.2736 63.8369 36.2736H65.4182H65.5238V36.168V35.9606V35.855H65.4182H64.6241L64.3484 35.8048L64.3434 35.8039L64.3381 35.8036C64.1737 35.7898 63.9909 35.6784 63.7921 35.431C63.6202 35.1789 63.5277 34.8154 63.5277 34.3274V26.2133C63.5277 25.3481 63.3066 24.6315 62.8563 24.073L62.855 24.0713C62.5602 23.7212 62.0979 23.4625 61.4826 23.2864C60.8808 23.092 60.0999 22.9967 59.1446 22.9967C58.1674 22.9967 57.2714 23.3349 56.4595 24.0056C55.8102 24.5279 55.322 25.0876 54.9989 25.6855V23.2061V23.1004H54.893H53.0784H52.9727V23.2061V36.168V36.2736H53.0784H54.893H54.9989V36.168V26.9651C54.9989 26.3177 55.4136 25.5661 56.2891 24.7074L56.2901 24.7067C57.1544 23.8424 58.1219 23.4156 59.1964 23.4156C59.7204 23.4156 60.1522 23.4999 60.4966 23.6634C61.1502 24.0155 61.5018 24.8341 61.5018 26.1874V34.3274V34.3305V34.3336L61.5278 34.7743M51.3385 19.2088L51.436 19.2462L51.4746 19.1494L51.5784 18.8902L51.6201 18.786L51.5138 18.7506C49.7409 18.1597 47.9928 17.8638 46.2695 17.8638C44.5612 17.8638 43.2607 18.2644 42.3867 19.0845C41.5161 19.8842 41.0826 20.9332 41.0826 22.221C41.0826 23.8459 41.7566 25.1062 43.0998 25.9902C43.6925 26.391 44.3455 26.7565 45.0583 27.087L45.0606 27.0878C45.7693 27.3991 46.4696 27.7017 47.1614 27.9956L47.1624 27.996C47.8667 28.2882 48.5106 28.6058 49.0933 28.9486C50.3788 29.7097 51.0117 30.7573 51.0117 32.0979C51.0117 33.326 50.5265 34.2508 49.5559 34.8869C48.5912 35.5131 47.4195 35.829 46.0362 35.829C45.0966 35.829 44.1739 35.6926 43.2682 35.4191C42.3785 35.128 41.6563 34.7617 41.0983 34.322L41.0058 34.2493L40.9431 34.3493L40.8136 34.5567L40.7605 34.6416L40.8424 34.6993C42.3666 35.7678 44.2034 36.2997 46.3473 36.2997C47.4955 36.2997 48.5003 36.1693 49.3595 35.9061L49.3608 35.9058C50.2461 35.6226 50.9979 35.091 51.6148 34.3155C52.236 33.5345 52.5452 32.5947 52.5452 31.5017C52.5452 30.4025 52.3621 29.4941 51.9889 28.7829C51.6188 28.0607 51.1324 27.4934 50.5284 27.0849C49.935 26.6835 49.2815 26.3263 48.5674 26.0128C47.8567 25.7007 47.1458 25.4233 46.4348 25.1805C45.7474 24.9226 45.1123 24.6479 44.529 24.3564C43.2434 23.6795 42.6163 22.7354 42.6163 21.521C42.6163 20.5148 42.9917 19.7347 43.7409 19.1686C44.4939 18.5995 45.5485 18.3085 46.9178 18.3085C48.3021 18.3085 49.7758 18.6076 51.3385 19.2088ZM66.0777 24.8164C64.8778 26.0339 64.2841 27.7407 64.2841 29.9204C64.2841 32.0982 64.8593 33.7306 66.0297 34.7947C67.1932 35.8521 68.6976 36.3775 70.5338 36.3775C72.3907 36.3775 73.9224 35.7719 75.1195 34.5576C76.3369 33.3402 76.9393 31.6337 76.9393 29.4538C76.9393 27.276 76.364 25.6436 75.1935 24.5796C74.0296 23.5217 72.5165 22.9967 70.6633 22.9967C68.8231 22.9967 67.2916 23.6024 66.0777 24.8164ZM67.5335 25.1358C68.3802 23.9843 69.4393 23.4156 70.7151 23.4156C71.9974 23.4156 73.0207 23.9028 73.7951 24.8791C74.5684 25.8542 74.9645 27.3724 74.9645 29.4538C74.9645 31.5141 74.5352 33.1137 73.6894 34.2644C72.843 35.3987 71.7842 35.9588 70.5078 35.9588C69.2257 35.9588 68.2021 35.4715 67.4277 34.4952C66.6544 33.5198 66.2583 32.0101 66.2583 29.9463C66.2583 27.8681 66.6879 26.2689 67.5335 25.1358ZM94.6015 23.2869L94.5248 23.3641L94.6045 23.4388C94.8534 23.6721 94.9858 24.0205 94.9858 24.5023C94.9858 24.9887 94.885 25.402 94.688 25.746L94.6865 25.75L94.6842 25.7542L91.0325 33.6628L87.1544 23.1695L87.1289 23.1004H87.0552H85.2406H85.0887L85.1413 23.2424L86.0851 25.8199L82.477 33.6625L78.5997 23.1695L78.5734 23.1004H78.4997H76.6851H76.5332L76.5866 23.243L81.4084 36.205L81.434 36.2736H81.5069H81.7664H81.8348L81.8626 36.2119L86.319 26.4124L89.9632 36.205L89.9887 36.2736H90.0624H90.3211H90.3895L90.4174 36.2119L95.1362 25.8423L95.1369 25.8402C95.349 25.3447 95.4565 24.8553 95.4565 24.3727C95.4565 24.2435 95.4385 24.1072 95.4031 23.9642C95.3813 23.8051 95.3031 23.6364 95.1798 23.4596C95.1271 23.372 95.0775 23.299 95.0301 23.2421C94.9835 23.1862 94.9331 23.1385 94.879 23.1115L94.8113 23.0775L94.7572 23.1313L94.6015 23.2869Z" stroke="#FF6600" stroke-width="0.211469"/>
<path d="M99.47 18.2087C99.9565 17.4629 100.746 16.8852 101.841 16.8341L101.613 34.5077V34.509C101.613 34.6689 101.662 34.8407 101.753 35.023C102.179 35.8744 103.194 36.2736 104.725 36.2736H105.529H105.635V36.1679V35.9606V35.855H105.529H104.735L104.459 35.8048L104.454 35.8038L104.449 35.8035C104.284 35.7898 104.102 35.6784 103.903 35.431C103.731 35.1788 103.638 34.8153 103.638 34.3274V16.751V16.647L103.535 16.6453L101.95 16.6194L101.844 16.6177V16.6208C100.07 16.6527 98.7578 17.0699 97.9336 17.8943C97.0914 18.7189 96.6838 20.0935 96.6838 21.9876V23.1004H96.2454H96.1394V23.2061V23.625V23.7307H96.2454H96.6838V36.1679V36.2736H96.7898H98.6044H98.7097V36.1679V23.7307H100.652H100.757V23.625V23.2061V23.1004H100.652H98.7097V21.9876C98.7097 20.2125 98.9691 18.9593 99.47 18.2087ZM113.275 29.8311C112.921 29.8028 112.533 29.7887 112.11 29.7887C111.64 29.7887 111.128 29.8148 110.573 29.8668C109.454 29.9362 108.529 30.0664 107.799 30.2588C107.071 30.4509 106.526 30.7074 106.179 31.0361C105.845 31.3524 105.63 31.6541 105.553 31.9411C105.482 32.2076 105.445 32.4589 105.445 32.6944C105.445 32.9073 105.464 33.1202 105.499 33.3329C105.648 34.3368 106.041 35.1026 106.685 35.6157C107.327 36.1278 108.207 36.3775 109.31 36.3775C110.258 36.3775 111.083 36.1821 111.78 35.7869C112.375 35.4495 112.873 34.969 113.275 34.348V34.509C113.275 34.8319 113.502 35.1867 113.902 35.569C114.366 36.05 115.208 36.2736 116.388 36.2736H117.191H117.297V36.1679V35.9606V35.855H117.191H116.397L116.122 35.8048L116.116 35.8038L116.111 35.8035C115.946 35.7898 115.764 35.6784 115.565 35.431C115.393 35.1788 115.3 34.8153 115.3 34.3274V25.643C115.3 25.0585 115.063 24.5073 114.6 23.9912C114.296 23.6511 113.839 23.4033 113.24 23.2402C112.64 23.077 111.891 22.9967 110.995 22.9967C109.389 22.9967 107.81 23.3547 106.259 24.0692L106.154 24.1175L106.212 24.2178L106.315 24.3992L106.367 24.4906L106.459 24.4388C106.844 24.2209 107.456 23.999 108.301 23.7749L108.302 23.7745C109.16 23.5342 109.902 23.4155 110.529 23.4155C111.16 23.4155 111.663 23.501 112.042 23.666L112.046 23.6675C112.434 23.8194 112.688 23.9994 112.827 24.1996C112.977 24.417 113.094 24.6421 113.178 24.8749L113.179 24.8793L113.181 24.8836C113.28 25.0975 113.305 25.2621 113.278 25.3854C113.259 25.4566 113.249 25.5201 113.249 25.5717C113.249 25.5975 113.251 25.6268 113.262 25.6548C113.265 25.6638 113.269 25.6732 113.275 25.6825V29.8311ZM107.523 33.3075V33.3059C107.506 33.1356 107.498 32.9838 107.498 32.8499C107.498 32.1079 107.692 31.5399 108.066 31.1326C108.248 30.9347 108.543 30.7606 108.963 30.6166C109.381 30.473 109.915 30.3619 110.567 30.2847C111.029 30.2333 111.492 30.2076 111.955 30.2076C112.402 30.2076 112.842 30.2224 113.275 30.2522V33.2858C113.225 33.8312 112.853 34.4198 112.119 35.0509C111.412 35.6574 110.615 35.9587 109.725 35.9587C109.06 35.9587 108.553 35.7395 108.193 35.3092C107.828 34.8749 107.6 34.2126 107.523 33.3075ZM119.501 16.7251V16.6194H119.395H117.58H117.475V16.7251V36.1679V36.2736H117.58H119.395H119.501V36.1679V29.96L120.085 29.2896L124.803 36.2275L124.835 36.2736H124.891H126.706H126.905L126.793 36.1087L121.266 27.9846L125.437 23.2762L125.593 23.1004H125.358H125.099H125.052L125.019 23.1359L119.501 29.3567V16.7251ZM136.875 35.245L136.834 35.1515L136.739 35.1879C135.405 35.701 133.88 35.9587 132.163 35.9587C130.97 35.9587 130.007 35.4739 129.266 34.4973C128.543 33.522 128.172 31.9773 128.172 29.8426C128.172 29.3787 128.195 28.93 128.239 28.4966H137.399H137.505V28.3908V28.3889V28.3878V28.3858V28.3847V28.3828V28.3817V28.3797V28.3777V28.3767V28.3756V28.3736V28.3717V28.3706V28.3686V28.3676V28.3665V28.3645V28.3625V28.3605V28.3585V28.3574V28.3564V28.3544V28.3534V28.3514V28.3493V28.3473V28.3453V28.3443V28.3423V28.3413V28.3402V28.3392V28.3372V28.3352V28.3341V28.3321V28.3301V28.328V28.3261V28.325V28.323V28.321V28.3189V28.3169V28.3149V28.3129V28.3119V28.3108V28.3098V28.3078V28.3058V28.3038V28.3028V28.3017V28.3007V28.2987V28.2967V28.2947V28.2936V28.2916V28.2896V28.2876V28.2865V28.2846V28.2835V28.2825V28.2805V28.2795V28.2774V28.2754V28.2734V28.2713V28.2693V28.2683V28.2663V28.2643V28.2622V28.2602V28.2592V28.2572V28.2552V28.2541V28.2531V28.2511V28.2501V28.2481V28.2461V28.245V28.244V28.242V28.241V28.239V28.2369V28.2349V28.2329V28.2319V28.2298V28.2279V28.2268V28.2258V28.2237V28.2218V28.2207V28.2187V28.2177V28.2157V28.2146V28.2126V28.2116V28.2096V28.2086V28.2065V28.2046V28.2035V28.2025V28.2005V28.1995V28.1974V28.1954V28.1934V28.1914V28.1904V28.1883V28.1863V28.1843V28.1823V28.1813V28.1802V28.1792V28.1772V28.1752V28.1731V28.1711V28.1701V28.1681V28.167V28.1651V28.164V28.162V28.161V28.159V28.1579V28.1559V28.1539V28.1519V28.1498V28.1479V28.1468V28.1448V28.1437V28.1418V28.1407V28.1387V28.1377V28.1357V28.1337V28.1326V28.1316C137.505 26.4514 137.014 25.1655 136.017 24.2931C135.028 23.4276 133.81 22.9967 132.37 22.9967C130.58 22.9967 129.1 23.6032 127.939 24.818C126.774 26.0357 126.198 27.7416 126.198 29.9204C126.198 32.0969 126.747 33.7287 127.864 34.7928C128.976 35.8515 130.412 36.3775 132.163 36.3775C133.919 36.3775 135.496 36.108 136.893 35.5667L136.995 35.5272L136.952 35.4265L136.875 35.245ZM134.594 24.5674C135.182 25.319 135.499 26.4831 135.529 28.0778H128.292C128.506 26.6287 128.979 25.4977 129.701 24.6763C130.462 23.8303 131.317 23.4155 132.266 23.4155C133.218 23.4155 133.991 23.7973 134.594 24.5674Z" fill="#FF6600" stroke="#FF6600" stroke-width="0.211469"/>
<path d="M139.793 16.4529V17.1377H139.015V19.2214H138.276V17.1377H137.497V16.4529H139.793Z" fill="#FF6600"/>
<path d="M142.826 16.4114V19.2339H142.087V17.8642L141.546 18.5075H141.324L140.783 17.8642V19.2339H140.044V16.4114H140.305L141.435 17.6151L142.565 16.4114H142.826Z" fill="#FF6600"/>
<path fill-rule="evenodd" clip-rule="evenodd" d="M20.6689 31.6585L20.6576 40.5597L22.5393 40.5622L22.5506 31.6194L25.9832 39.8773L27.7207 39.155L24.3117 30.9539L30.5836 37.242L31.9159 35.9129L25.6171 29.598L33.8553 33.017L34.5763 31.2789L26.3373 27.8596H35.2578V25.9779H26.3587L34.5842 22.5809L33.8656 20.8416L25.6755 24.2242L31.9733 17.9907L30.6498 16.6534L24.2737 22.9642L27.7097 14.6771L25.9714 13.9564L22.5626 22.1781L22.5739 13.2778L20.6922 13.2754L20.681 22.219L17.2479 13.9605L15.5104 14.6827L18.9191 22.883L12.6475 16.5955L11.3153 17.9244L17.6144 24.2395L9.37609 20.8204L8.65485 22.5584L16.8944 25.9779H7.97339V27.8596H16.8731L8.64748 31.2568L9.36572 32.996L17.5555 29.6136L11.2578 35.847L12.5815 37.1843L18.9573 30.8738L15.5215 39.1604L17.2597 39.8811L20.6689 31.6585Z" fill="#FF6600"/>
</g>
</svg>
