<svg width="155" height="122" viewBox="0 0 155 122" fill="none" xmlns="http://www.w3.org/2000/svg">
<path d="M22.5989 101.322V100.042H23.6149V94.8815H22.5989V93.6023H26.5747C27.0459 93.6023 27.4545 93.6831 27.8005 93.8449C28.1539 93.9993 28.4263 94.2235 28.6178 94.5176C28.8166 94.8043 28.9159 95.1498 28.9159 95.5541V95.6644C28.9159 96.0173 28.8497 96.3077 28.7172 96.5356C28.5846 96.7561 28.4263 96.9289 28.2423 97.0539C28.0656 97.1715 27.8962 97.2561 27.7343 97.3075V97.506C27.8962 97.5501 28.0729 97.6347 28.2644 97.7597C28.4558 97.8773 28.6178 98.05 28.7503 98.2779C28.8902 98.5059 28.9601 98.8036 28.9601 99.1712V99.2815C28.9601 99.7079 28.8607 100.075 28.6619 100.384C28.4632 100.686 28.1871 100.917 27.8337 101.079C27.4876 101.241 27.0827 101.322 26.6188 101.322H22.5989ZM25.0727 99.9982H26.4421C26.7587 99.9982 27.0127 99.9211 27.2042 99.7667C27.403 99.6123 27.5023 99.3917 27.5023 99.105V98.9947C27.5023 98.708 27.4066 98.4875 27.2152 98.3331C27.0238 98.1787 26.7661 98.1015 26.4421 98.1015H25.0727V99.9982ZM25.0727 96.7782H26.4201C26.7219 96.7782 26.9686 96.701 27.16 96.5466C27.3588 96.3922 27.4582 96.179 27.4582 95.907V95.7968C27.4582 95.5174 27.3625 95.3042 27.171 95.1572C26.9796 95.0028 26.7293 94.9256 26.4201 94.9256H25.0727V96.7782Z" fill="#0C0A0A"/>
<path d="M32.5059 101.41C32.0788 101.41 31.7033 101.314 31.3794 101.123C31.0628 100.925 30.8162 100.653 30.6395 100.307C30.4628 99.9615 30.3744 99.5645 30.3744 99.116V95.8519H31.7659V99.0058C31.7659 99.4175 31.8653 99.7262 32.0641 99.9321C32.2703 100.138 32.5611 100.241 32.9366 100.241C33.3636 100.241 33.6949 100.101 33.9305 99.8218C34.1661 99.5351 34.2839 99.1381 34.2839 98.6308V95.8519H35.6754V101.322H34.306V100.605H34.1072C34.0189 100.789 33.8532 100.969 33.6102 101.145C33.3673 101.322 32.9991 101.41 32.5059 101.41Z" fill="#0C0A0A"/>
<path d="M37.4447 101.322V95.8519H38.8363V101.322H37.4447ZM38.1405 95.2123C37.8902 95.2123 37.6767 95.1314 37.5 94.9697C37.3306 94.808 37.246 94.5947 37.246 94.3301C37.246 94.0654 37.3306 93.8522 37.5 93.6905C37.6767 93.5288 37.8902 93.4479 38.1405 93.4479C38.3982 93.4479 38.6117 93.5288 38.781 93.6905C38.9504 93.8522 39.035 94.0654 39.035 94.3301C39.035 94.5947 38.9504 94.808 38.781 94.9697C38.6117 95.1314 38.3982 95.2123 38.1405 95.2123Z" fill="#0C0A0A"/>
<path d="M40.5991 101.322V93.6023H41.9906V101.322H40.5991Z" fill="#0C0A0A"/>
<path d="M45.9622 101.476C45.5279 101.476 45.1192 101.369 44.7364 101.156C44.3609 100.936 44.059 100.616 43.8308 100.197C43.6026 99.7777 43.4884 99.2704 43.4884 98.6749V98.4985C43.4884 97.903 43.6026 97.3958 43.8308 96.9767C44.059 96.5577 44.3609 96.2415 44.7364 96.0283C45.1119 95.8078 45.5205 95.6975 45.9622 95.6975C46.2936 95.6975 46.5697 95.7379 46.7905 95.8188C47.0188 95.8923 47.2028 95.9879 47.3427 96.1055C47.4826 96.2231 47.5894 96.3481 47.663 96.4805H47.8618V93.6023H49.2533V101.322H47.8839V100.66H47.6851C47.5599 100.866 47.3648 101.053 47.0998 101.222C46.8421 101.391 46.4629 101.476 45.9622 101.476ZM46.3819 100.263C46.8089 100.263 47.166 100.127 47.4531 99.8549C47.7403 99.5755 47.8839 99.1712 47.8839 98.6419V98.5316C47.8839 98.0023 47.7403 97.6016 47.4531 97.3296C47.1734 97.0502 46.8163 96.9105 46.3819 96.9105C45.9549 96.9105 45.5978 97.0502 45.3107 97.3296C45.0235 97.6016 44.88 98.0023 44.88 98.5316V98.6419C44.88 99.1712 45.0235 99.5755 45.3107 99.8549C45.5978 100.127 45.9549 100.263 46.3819 100.263Z" fill="#0C0A0A"/>
<path d="M52.7177 101.476C52.3274 101.476 51.9777 101.41 51.6685 101.277C51.3593 101.138 51.1126 100.939 50.9286 100.682C50.7519 100.417 50.6635 100.097 50.6635 99.7226C50.6635 99.3476 50.7519 99.0352 50.9286 98.7852C51.1126 98.5279 51.363 98.3368 51.6795 98.2118C52.0035 98.0795 52.3716 98.0133 52.7839 98.0133H54.2859V97.7045C54.2859 97.4472 54.2049 97.2377 54.0429 97.0759C53.8809 96.9069 53.6232 96.8223 53.2698 96.8223C52.9238 96.8223 52.6661 96.9032 52.4968 97.0649C52.3274 97.2193 52.217 97.4215 52.1655 97.6714L50.8844 97.2414C50.9727 96.962 51.1126 96.7084 51.3041 96.4805C51.5028 96.2452 51.7642 96.0577 52.0882 95.9181C52.4195 95.771 52.8207 95.6975 53.2919 95.6975C54.0135 95.6975 54.5841 95.8776 55.0037 96.2379C55.4234 96.5981 55.6332 97.1201 55.6332 97.8038V99.8439C55.6332 100.064 55.7363 100.175 55.9424 100.175H56.3842V101.322H55.4565C55.1841 101.322 54.9595 101.255 54.7828 101.123C54.6061 100.991 54.5178 100.814 54.5178 100.594V100.583H54.308C54.2785 100.671 54.2122 100.789 54.1092 100.936C54.0061 101.075 53.8441 101.2 53.6232 101.311C53.4024 101.421 53.1005 101.476 52.7177 101.476ZM52.9606 100.351C53.3508 100.351 53.6674 100.245 53.9104 100.031C54.1607 99.8108 54.2859 99.5204 54.2859 99.1602V99.0499H52.8833C52.6256 99.0499 52.4232 99.105 52.2759 99.2153C52.1287 99.3256 52.055 99.4799 52.055 99.6784C52.055 99.8769 52.1323 100.039 52.287 100.164C52.4416 100.289 52.6661 100.351 52.9606 100.351Z" fill="#0C0A0A"/>
<path d="M63.5409 101.476C62.5838 101.476 61.8254 101.211 61.2659 100.682C60.7063 100.145 60.4265 99.3807 60.4265 98.3882V96.5356C60.4265 95.5431 60.7063 94.7822 61.2659 94.2529C61.8254 93.7162 62.5838 93.4479 63.5409 93.4479C64.4907 93.4479 65.2232 93.7089 65.7386 94.2308C66.2613 94.7455 66.5227 95.4549 66.5227 96.3592V96.4253H65.087V96.315C65.087 95.8592 64.9582 95.4843 64.7005 95.1902C64.4502 94.8962 64.0636 94.7491 63.5409 94.7491C63.0255 94.7491 62.6206 94.9072 62.3261 95.2233C62.0316 95.5394 61.8843 95.9695 61.8843 96.5135V98.4103C61.8843 98.947 62.0316 99.377 62.3261 99.7005C62.6206 100.017 63.0255 100.175 63.5409 100.175C64.0636 100.175 64.4502 100.028 64.7005 99.7336C64.9582 99.4322 65.087 99.0572 65.087 98.6088V98.4103H66.5227V98.5647C66.5227 99.4689 66.2613 100.182 65.7386 100.704C65.2232 101.219 64.4907 101.476 63.5409 101.476Z" fill="#0C0A0A"/>
<path d="M70.5819 101.476C70.0371 101.476 69.5475 101.366 69.1131 101.145C68.6787 100.925 68.3363 100.605 68.086 100.186C67.8357 99.7667 67.7105 99.2631 67.7105 98.6749V98.4985C67.7105 97.9104 67.8357 97.4068 68.086 96.9877C68.3363 96.5687 68.6787 96.2489 69.1131 96.0283C69.5475 95.8078 70.0371 95.6975 70.5819 95.6975C71.1267 95.6975 71.6163 95.8078 72.0507 96.0283C72.4851 96.2489 72.8274 96.5687 73.0778 96.9877C73.3281 97.4068 73.4533 97.9104 73.4533 98.4985V98.6749C73.4533 99.2631 73.3281 99.7667 73.0778 100.186C72.8274 100.605 72.4851 100.925 72.0507 101.145C71.6163 101.366 71.1267 101.476 70.5819 101.476ZM70.5819 100.241C71.0089 100.241 71.3623 100.105 71.6421 99.8328C71.9219 99.5535 72.0617 99.1565 72.0617 98.6419V98.5316C72.0617 98.017 71.9219 97.6236 71.6421 97.3516C71.3697 97.0723 71.0163 96.9326 70.5819 96.9326C70.1549 96.9326 69.8015 97.0723 69.5217 97.3516C69.2419 97.6236 69.102 98.017 69.102 98.5316V98.6419C69.102 99.1565 69.2419 99.5535 69.5217 99.8328C69.8015 100.105 70.1549 100.241 70.5819 100.241Z" fill="#0C0A0A"/>
<path d="M74.9586 101.322V95.8519H76.328V96.5687H76.5268C76.6151 96.3775 76.7808 96.1974 77.0238 96.0283C77.2667 95.8519 77.6348 95.7637 78.1281 95.7637C78.5552 95.7637 78.927 95.8629 79.2436 96.0614C79.5675 96.2526 79.8178 96.5209 79.9945 96.8664C80.1712 97.2046 80.2596 97.6016 80.2596 98.0574V101.322H78.8681V98.1677C78.8681 97.756 78.765 97.4472 78.5588 97.2414C78.3601 97.0355 78.0729 96.9326 77.6974 96.9326C77.2704 96.9326 76.9391 97.0759 76.7035 97.3627C76.4679 97.642 76.3501 98.0353 76.3501 98.5426V101.322H74.9586Z" fill="#0C0A0A"/>
<path d="M84.2598 101.476C83.5456 101.476 82.9603 101.322 82.5038 101.013C82.0473 100.704 81.7712 100.263 81.6755 99.6895L82.9566 99.3587C83.0081 99.616 83.0928 99.8181 83.2106 99.9652C83.3358 100.112 83.4867 100.219 83.6634 100.285C83.8475 100.344 84.0462 100.373 84.2598 100.373C84.5837 100.373 84.823 100.318 84.9776 100.208C85.1322 100.09 85.2095 99.9468 85.2095 99.7777C85.2095 99.6086 85.1359 99.48 84.9886 99.3917C84.8414 99.2962 84.6058 99.219 84.2818 99.1602L83.9726 99.105C83.5898 99.0315 83.24 98.9323 82.9235 98.8073C82.6069 98.6749 82.3529 98.4948 82.1614 98.2669C81.97 98.039 81.8743 97.745 81.8743 97.3847C81.8743 96.8407 82.0731 96.4253 82.4707 96.1386C82.8682 95.8445 83.391 95.6975 84.0389 95.6975C84.65 95.6975 85.158 95.8335 85.5629 96.1055C85.9679 96.3775 86.2329 96.7341 86.3581 97.1752L85.0659 97.5722C85.007 97.2928 84.8856 97.0943 84.7015 96.9767C84.5248 96.8591 84.3039 96.8003 84.0389 96.8003C83.7738 96.8003 83.5714 96.848 83.4315 96.9436C83.2916 97.0318 83.2216 97.1568 83.2216 97.3186C83.2216 97.495 83.2953 97.6273 83.4425 97.7155C83.5898 97.7964 83.7886 97.8589 84.0389 97.903L84.3481 97.9581C84.7604 98.0317 85.1322 98.1309 85.4635 98.2559C85.8022 98.3735 86.0673 98.5463 86.2587 98.7742C86.4575 98.9947 86.5569 99.2962 86.5569 99.6784C86.5569 100.252 86.347 100.697 85.9274 101.013C85.5151 101.322 84.9592 101.476 84.2598 101.476Z" fill="#0C0A0A"/>
<path d="M89.9876 101.322C89.6268 101.322 89.3323 101.211 89.1041 100.991C88.8832 100.763 88.7728 100.461 88.7728 100.086V96.9988H87.4033V95.8519H88.7728V94.1536H90.1643V95.8519H91.6662V96.9988H90.1643V99.8439C90.1643 100.064 90.2674 100.175 90.4735 100.175H91.5337V101.322H89.9876Z" fill="#0C0A0A"/>
<path d="M93.1467 101.322V95.8519H94.5161V96.4694H94.7149C94.7959 96.2489 94.9284 96.0871 95.1125 95.9842C95.3039 95.8813 95.5248 95.8298 95.7751 95.8298H96.4377V97.0649H95.753C95.3996 97.0649 95.1088 97.1605 94.8806 97.3516C94.6523 97.5354 94.5382 97.8221 94.5382 98.2118V101.322H93.1467Z" fill="#0C0A0A"/>
<path d="M99.8335 101.41C99.4065 101.41 99.031 101.314 98.7071 101.123C98.3905 100.925 98.1438 100.653 97.9671 100.307C97.7904 99.9615 97.7021 99.5645 97.7021 99.116V95.8519H99.0936V99.0058C99.0936 99.4175 99.193 99.7262 99.3918 99.9321C99.5979 100.138 99.8887 100.241 100.264 100.241C100.691 100.241 101.023 100.101 101.258 99.8218C101.494 99.5351 101.612 99.1381 101.612 98.6308V95.8519H103.003V101.322H101.634V100.605H101.435C101.347 100.789 101.181 100.969 100.938 101.145C100.695 101.322 100.327 101.41 99.8335 101.41Z" fill="#0C0A0A"/>
<path d="M107.346 101.476C106.815 101.476 106.333 101.366 105.899 101.145C105.472 100.925 105.133 100.605 104.883 100.186C104.633 99.7667 104.507 99.2594 104.507 98.6639V98.5095C104.507 97.914 104.633 97.4068 104.883 96.9877C105.133 96.5687 105.472 96.2489 105.899 96.0283C106.333 95.8078 106.815 95.6975 107.346 95.6975C107.868 95.6975 108.317 95.7894 108.693 95.9732C109.068 96.157 109.37 96.4106 109.599 96.7341C109.834 97.0502 109.989 97.4105 110.062 97.8148L108.715 98.1015C108.686 97.881 108.619 97.6825 108.516 97.506C108.413 97.3296 108.266 97.1899 108.074 97.087C107.89 96.984 107.659 96.9326 107.379 96.9326C107.099 96.9326 106.845 96.9951 106.617 97.1201C106.396 97.2377 106.219 97.4178 106.087 97.6604C105.961 97.8957 105.899 98.1861 105.899 98.5316V98.6419C105.899 98.9874 105.961 99.2815 106.087 99.5241C106.219 99.7593 106.396 99.9394 106.617 100.064C106.845 100.182 107.099 100.241 107.379 100.241C107.798 100.241 108.115 100.134 108.328 99.9211C108.549 99.7005 108.689 99.4138 108.748 99.0609L110.095 99.3807C110 99.7703 109.834 100.127 109.599 100.45C109.37 100.767 109.068 101.016 108.693 101.2C108.317 101.384 107.868 101.476 107.346 101.476Z" fill="#0C0A0A"/>
<path d="M113.379 101.322C113.018 101.322 112.724 101.211 112.496 100.991C112.275 100.763 112.164 100.461 112.164 100.086V96.9988H110.795V95.8519H112.164V94.1536H113.556V95.8519H115.058V96.9988H113.556V99.8439C113.556 100.064 113.659 100.175 113.865 100.175H114.925V101.322H113.379Z" fill="#0C0A0A"/>
<path d="M116.538 101.322V95.8519H117.93V101.322H116.538ZM117.234 95.2123C116.984 95.2123 116.77 95.1314 116.594 94.9697C116.424 94.808 116.34 94.5947 116.34 94.3301C116.34 94.0654 116.424 93.8522 116.594 93.6905C116.77 93.5288 116.984 93.4479 117.234 93.4479C117.492 93.4479 117.705 93.5288 117.875 93.6905C118.044 93.8522 118.129 94.0654 118.129 94.3301C118.129 94.5947 118.044 94.808 117.875 94.9697C117.705 95.1314 117.492 95.2123 117.234 95.2123Z" fill="#0C0A0A"/>
<path d="M122.299 101.476C121.754 101.476 121.265 101.366 120.83 101.145C120.396 100.925 120.053 100.605 119.803 100.186C119.553 99.7667 119.428 99.2631 119.428 98.6749V98.4985C119.428 97.9104 119.553 97.4068 119.803 96.9877C120.053 96.5687 120.396 96.2489 120.83 96.0283C121.265 95.8078 121.754 95.6975 122.299 95.6975C122.844 95.6975 123.333 95.8078 123.768 96.0283C124.202 96.2489 124.545 96.5687 124.795 96.9877C125.045 97.4068 125.17 97.9104 125.17 98.4985V98.6749C125.17 99.2631 125.045 99.7667 124.795 100.186C124.545 100.605 124.202 100.925 123.768 101.145C123.333 101.366 122.844 101.476 122.299 101.476ZM122.299 100.241C122.726 100.241 123.079 100.105 123.359 99.8328C123.639 99.5535 123.779 99.1565 123.779 98.6419V98.5316C123.779 98.017 123.639 97.6236 123.359 97.3516C123.087 97.0723 122.733 96.9326 122.299 96.9326C121.872 96.9326 121.519 97.0723 121.239 97.3516C120.959 97.6236 120.819 98.017 120.819 98.5316V98.6419C120.819 99.1565 120.959 99.5535 121.239 99.8328C121.519 100.105 121.872 100.241 122.299 100.241Z" fill="#0C0A0A"/>
<path d="M126.676 101.322V95.8519H128.045V96.5687H128.244C128.332 96.3775 128.498 96.1974 128.741 96.0283C128.984 95.8519 129.352 95.7637 129.845 95.7637C130.272 95.7637 130.644 95.8629 130.961 96.0614C131.285 96.2526 131.535 96.5209 131.712 96.8664C131.888 97.2046 131.977 97.6016 131.977 98.0574V101.322H130.585V98.1677C130.585 97.756 130.482 97.4472 130.276 97.2414C130.077 97.0355 129.79 96.9326 129.415 96.9326C128.988 96.9326 128.656 97.0759 128.421 97.3627C128.185 97.642 128.067 98.0353 128.067 98.5426V101.322H126.676Z" fill="#0C0A0A"/>
<path d="M44.0794 118.855V119.701H40.1537V118.855H44.0794ZM40.3586 111.861V119.701H39.3179V111.861H40.3586Z" fill="#F0A538"/>
<path d="M46.204 113.875V119.701H45.201V113.875H46.204ZM45.1255 112.329C45.1255 112.168 45.1741 112.031 45.2711 111.92C45.3718 111.809 45.5192 111.753 45.7133 111.753C45.9039 111.753 46.0495 111.809 46.1501 111.92C46.2544 112.031 46.3065 112.168 46.3065 112.329C46.3065 112.484 46.2544 112.617 46.1501 112.728C46.0495 112.836 45.9039 112.889 45.7133 112.889C45.5192 112.889 45.3718 112.836 45.2711 112.728C45.1741 112.617 45.1255 112.484 45.1255 112.329Z" fill="#F0A538"/>
<path d="M49.5797 118.802L51.1759 113.875H52.1951L50.0974 119.701H49.4287L49.5797 118.802ZM48.2478 113.875L49.8925 118.828L50.0057 119.701H49.3371L47.2232 113.875H48.2478Z" fill="#F0A538"/>
<path d="M54.2388 113.875V119.701H53.2358V113.875H54.2388ZM53.1603 112.329C53.1603 112.168 53.2088 112.031 53.3059 111.92C53.4066 111.809 53.554 111.753 53.7481 111.753C53.9386 111.753 54.0842 111.809 54.1849 111.92C54.2891 112.031 54.3413 112.168 54.3413 112.329C54.3413 112.484 54.2891 112.617 54.1849 112.728C54.0842 112.836 53.9386 112.889 53.7481 112.889C53.554 112.889 53.4066 112.836 53.3059 112.728C53.2088 112.617 53.1603 112.484 53.1603 112.329Z" fill="#F0A538"/>
<path d="M56.838 115.119V119.701H55.8404V113.875H56.784L56.838 115.119ZM56.6007 116.567L56.1855 116.551C56.1927 116.016 56.2951 115.54 56.4929 115.124C56.6906 114.704 56.9656 114.374 57.3179 114.133C57.6738 113.889 58.0872 113.767 58.5582 113.767C58.9428 113.767 59.2736 113.837 59.5504 113.977C59.8308 114.117 60.0465 114.343 60.1975 114.655C60.3521 114.964 60.4294 115.373 60.4294 115.883V119.701H59.4264V115.872C59.4264 115.567 59.3814 115.323 59.2915 115.14C59.2017 114.953 59.0704 114.819 58.8979 114.736C58.7253 114.65 58.5132 114.607 58.2616 114.607C58.0135 114.607 57.787 114.659 57.5821 114.763C57.3808 114.867 57.2065 115.011 57.0591 115.194C56.9153 115.377 56.802 115.587 56.7193 115.824C56.6402 116.057 56.6007 116.305 56.6007 116.567Z" fill="#F0A538"/>
<path d="M65.7247 113.875H66.6307V119.577C66.6307 120.09 66.5264 120.528 66.3179 120.891C66.1094 121.253 65.8182 121.528 65.4443 121.715C65.0741 121.905 64.6463 122 64.1609 122C63.9596 122 63.7223 121.968 63.4491 121.903C63.1795 121.842 62.9135 121.736 62.651 121.585C62.3922 121.438 62.1747 121.239 61.9986 120.988L62.5216 120.395C62.7661 120.69 63.0213 120.894 63.2874 121.009C63.557 121.124 63.823 121.182 64.0854 121.182C64.5564 121.182 64.9321 121.049 65.2125 120.783C65.4929 120.521 65.6331 120.135 65.6331 119.625V115.156L65.7247 113.875ZM61.7074 116.852V116.739C61.7074 116.147 61.8008 115.628 61.9878 115.183C62.1747 114.734 62.4389 114.386 62.7805 114.139C63.1256 113.891 63.5354 113.767 64.0099 113.767C64.3766 113.767 64.6966 113.832 64.9698 113.961C65.2466 114.087 65.4803 114.271 65.6708 114.515C65.865 114.756 66.0177 115.047 66.1292 115.388C66.2406 115.729 66.3179 116.115 66.3611 116.545V117.041C66.3071 117.608 66.1885 118.1 66.0051 118.516C65.8218 118.929 65.5648 119.248 65.234 119.475C64.9033 119.697 64.4917 119.808 63.9992 119.808C63.5318 119.808 63.1256 119.681 62.7805 119.426C62.4389 119.168 62.1747 118.816 61.9878 118.371C61.8008 117.926 61.7074 117.42 61.7074 116.852ZM62.705 116.739V116.852C62.705 117.236 62.7571 117.59 62.8614 117.913C62.9692 118.233 63.1364 118.487 63.3628 118.678C63.5893 118.868 63.8823 118.963 64.2418 118.963C64.5726 118.963 64.8458 118.893 65.0615 118.753C65.2772 118.613 65.4479 118.428 65.5738 118.199C65.7032 117.969 65.8038 117.719 65.8757 117.45V116.152C65.8362 115.955 65.7751 115.765 65.6924 115.582C65.6133 115.395 65.509 115.23 65.3796 115.086C65.2538 114.939 65.0974 114.822 64.9105 114.736C64.7235 114.65 64.5042 114.607 64.2526 114.607C63.8895 114.607 63.5929 114.704 63.3628 114.898C63.1364 115.092 62.9692 115.35 62.8614 115.673C62.7571 115.996 62.705 116.352 62.705 116.739Z" fill="#F0A538"/>
<path d="M75.4473 117.719C75.4473 117.475 75.3952 117.267 75.291 117.095C75.1867 116.922 74.9998 116.766 74.7302 116.626C74.4605 116.486 74.0777 116.344 73.5816 116.201C73.0639 116.05 72.6145 115.872 72.2334 115.668C71.8524 115.463 71.5576 115.217 71.3491 114.93C71.1406 114.639 71.0363 114.291 71.0363 113.885C71.0363 113.48 71.146 113.117 71.3653 112.798C71.5882 112.475 71.8991 112.22 72.2982 112.033C72.7008 111.847 73.1699 111.753 73.7056 111.753C74.2952 111.753 74.7949 111.866 75.2047 112.092C75.6181 112.315 75.9327 112.608 76.1484 112.97C76.3641 113.329 76.4719 113.713 76.4719 114.122H75.4366C75.4366 113.828 75.3737 113.568 75.2478 113.342C75.122 113.112 74.9315 112.932 74.6762 112.803C74.421 112.67 74.0974 112.604 73.7056 112.604C73.3353 112.604 73.0297 112.66 72.7889 112.771C72.548 112.882 72.3683 113.033 72.2496 113.223C72.1346 113.413 72.0771 113.631 72.0771 113.875C72.0771 114.094 72.14 114.288 72.2658 114.456C72.3952 114.625 72.5947 114.778 72.8644 114.914C73.134 115.05 73.4845 115.178 73.9159 115.296C74.5091 115.465 74.9962 115.659 75.3773 115.878C75.7583 116.097 76.0387 116.355 76.2185 116.653C76.4018 116.951 76.4935 117.303 76.4935 117.709C76.4935 118.132 76.3802 118.502 76.1538 118.818C75.9273 119.134 75.6091 119.378 75.1993 119.55C74.7895 119.722 74.3077 119.808 73.7541 119.808C73.391 119.808 73.0333 119.758 72.681 119.658C72.3323 119.557 72.0142 119.406 71.7266 119.205C71.4426 119.004 71.2143 118.757 71.0417 118.462C70.8727 118.164 70.7883 117.82 70.7883 117.429H71.8236C71.8236 117.698 71.8757 117.929 71.98 118.123C72.0843 118.313 72.2263 118.471 72.406 118.597C72.5893 118.723 72.7961 118.816 73.0261 118.877C73.2598 118.934 73.5025 118.963 73.7541 118.963C74.1172 118.963 74.4246 118.913 74.6762 118.812C74.9279 118.712 75.1184 118.568 75.2478 118.382C75.3808 118.195 75.4473 117.974 75.4473 117.719Z" fill="#F0A538"/>
<path d="M77.4048 116.852V116.729C77.4048 116.165 77.5127 115.661 77.7284 115.215C77.9441 114.77 78.2496 114.419 78.6451 114.16C79.0405 113.898 79.5097 113.767 80.0525 113.767C80.6025 113.767 81.0753 113.898 81.4707 114.16C81.8698 114.419 82.1771 114.77 82.3928 115.215C82.6085 115.661 82.7164 116.165 82.7164 116.729V116.852C82.7164 117.412 82.6085 117.917 82.3928 118.365C82.1771 118.811 81.8716 119.162 81.4761 119.421C81.0807 119.679 80.6097 119.808 80.0633 119.808C79.5169 119.808 79.0441 119.679 78.6451 119.421C78.2496 119.162 77.9441 118.811 77.7284 118.365C77.5127 117.917 77.4048 117.412 77.4048 116.852ZM78.4024 116.729V116.852C78.4024 117.236 78.4635 117.592 78.5858 117.919C78.708 118.242 78.8913 118.502 79.1358 118.699C79.3838 118.893 79.693 118.99 80.0633 118.99C80.43 118.99 80.7355 118.893 80.98 118.699C81.2245 118.502 81.4078 118.242 81.53 117.919C81.6523 117.592 81.7134 117.236 81.7134 116.852V116.729C81.7134 116.348 81.6505 115.996 81.5247 115.673C81.4024 115.346 81.2191 115.084 80.9746 114.887C80.7302 114.686 80.4228 114.585 80.0525 114.585C79.6858 114.585 79.3802 114.686 79.1358 114.887C78.8913 115.084 78.708 115.346 78.5858 115.673C78.4635 115.996 78.4024 116.348 78.4024 116.729Z" fill="#F0A538"/>
<path d="M85.0513 111.43V119.701H84.0483V111.43H85.0513Z" fill="#F0A538"/>
<path d="M90.2227 118.355V113.875H91.2257V119.701H90.2712L90.2227 118.355ZM90.4114 117.127L90.8266 117.116C90.8266 117.633 90.7529 118.094 90.6056 118.5C90.4582 118.906 90.2173 119.225 89.883 119.458C89.5486 119.692 89.1029 119.808 88.5456 119.808C87.974 119.808 87.5121 119.64 87.1598 119.302C86.8075 118.965 86.6313 118.409 86.6313 117.633V113.875H87.6289V117.644C87.6289 117.992 87.6792 118.263 87.7799 118.457C87.8842 118.647 88.019 118.78 88.1843 118.855C88.3497 118.927 88.5223 118.963 88.702 118.963C89.1262 118.963 89.4623 118.882 89.7104 118.721C89.9585 118.556 90.1364 118.335 90.2443 118.059C90.3557 117.779 90.4114 117.468 90.4114 117.127Z" fill="#F0A538"/>
<path d="M95.1891 113.875V114.639H92.0346V113.875H95.1891ZM93.1023 112.459H94.0999V118.258C94.0999 118.455 94.1304 118.604 94.1915 118.705C94.2526 118.805 94.3317 118.872 94.4288 118.904C94.5259 118.936 94.6301 118.952 94.7416 118.952C94.8242 118.952 94.9105 118.945 95.0004 118.931C95.0939 118.913 95.164 118.898 95.2107 118.888L95.2161 119.701C95.137 119.726 95.0328 119.749 94.9033 119.771C94.7775 119.796 94.6247 119.808 94.445 119.808C94.2005 119.808 93.9758 119.76 93.7709 119.663C93.566 119.566 93.4024 119.405 93.2802 119.178C93.1616 118.949 93.1023 118.64 93.1023 118.252V112.459Z" fill="#F0A538"/>
<path d="M97.4432 113.875V119.701H96.4402V113.875H97.4432ZM96.3647 112.329C96.3647 112.168 96.4132 112.031 96.5103 111.92C96.611 111.809 96.7583 111.753 96.9525 111.753C97.143 111.753 97.2886 111.809 97.3893 111.92C97.4935 112.031 97.5456 112.168 97.5456 112.329C97.5456 112.484 97.4935 112.617 97.3893 112.728C97.2886 112.836 97.143 112.889 96.9525 112.889C96.7583 112.889 96.611 112.836 96.5103 112.728C96.4132 112.617 96.3647 112.484 96.3647 112.329Z" fill="#F0A538"/>
<path d="M98.7805 116.852V116.729C98.7805 116.165 98.8884 115.661 99.1041 115.215C99.3198 114.77 99.6253 114.419 100.021 114.16C100.416 113.898 100.885 113.767 101.428 113.767C101.978 113.767 102.451 113.898 102.846 114.16C103.245 114.419 103.553 114.77 103.769 115.215C103.984 115.661 104.092 116.165 104.092 116.729V116.852C104.092 117.412 103.984 117.917 103.769 118.365C103.553 118.811 103.247 119.162 102.852 119.421C102.456 119.679 101.985 119.808 101.439 119.808C100.893 119.808 100.42 119.679 100.021 119.421C99.6253 119.162 99.3198 118.811 99.1041 118.365C98.8884 117.917 98.7805 117.412 98.7805 116.852ZM99.7781 116.729V116.852C99.7781 117.236 99.8392 117.592 99.9615 117.919C100.084 118.242 100.267 118.502 100.511 118.699C100.76 118.893 101.069 118.99 101.439 118.99C101.806 118.99 102.111 118.893 102.356 118.699C102.6 118.502 102.784 118.242 102.906 117.919C103.028 117.592 103.089 117.236 103.089 116.852V116.729C103.089 116.348 103.026 115.996 102.9 115.673C102.778 115.346 102.595 115.084 102.35 114.887C102.106 114.686 101.799 114.585 101.428 114.585C101.062 114.585 100.756 114.686 100.511 114.887C100.267 115.084 100.084 115.346 99.9615 115.673C99.8392 115.996 99.7781 116.348 99.7781 116.729Z" fill="#F0A538"/>
<path d="M106.341 115.119V119.701H105.343V113.875H106.287L106.341 115.119ZM106.103 116.567L105.688 116.551C105.695 116.016 105.798 115.54 105.996 115.124C106.193 114.704 106.468 114.374 106.821 114.133C107.177 113.889 107.59 113.767 108.061 113.767C108.446 113.767 108.776 113.837 109.053 113.977C109.334 114.117 109.549 114.343 109.7 114.655C109.855 114.964 109.932 115.373 109.932 115.883V119.701H108.929V115.872C108.929 115.567 108.884 115.323 108.794 115.14C108.704 114.953 108.573 114.819 108.401 114.736C108.228 114.65 108.016 114.607 107.764 114.607C107.516 114.607 107.29 114.659 107.085 114.763C106.884 114.867 106.709 115.011 106.562 115.194C106.418 115.377 106.305 115.587 106.222 115.824C106.143 116.057 106.103 116.305 106.103 116.567Z" fill="#F0A538"/>
<path d="M114.845 118.155C114.845 118.012 114.812 117.879 114.748 117.757C114.686 117.631 114.559 117.518 114.365 117.418C114.174 117.314 113.887 117.224 113.502 117.149C113.071 117.059 112.697 116.944 112.38 116.804C112.068 116.664 111.825 116.486 111.652 116.271C111.483 116.055 111.399 115.788 111.399 115.469C111.399 115.16 111.487 114.878 111.663 114.623C111.843 114.365 112.095 114.158 112.418 114.004C112.745 113.846 113.126 113.767 113.561 113.767C114.029 113.767 114.428 113.85 114.758 114.015C115.089 114.18 115.343 114.401 115.519 114.677C115.695 114.95 115.783 115.253 115.783 115.587H114.785C114.785 115.346 114.679 115.12 114.467 114.909C114.259 114.693 113.957 114.585 113.561 114.585C113.284 114.585 113.06 114.629 112.887 114.715C112.718 114.797 112.594 114.903 112.515 115.032C112.44 115.162 112.402 115.298 112.402 115.442C112.402 115.585 112.438 115.709 112.51 115.813C112.582 115.917 112.713 116.011 112.903 116.093C113.097 116.176 113.378 116.258 113.745 116.341C114.223 116.449 114.616 116.578 114.926 116.729C115.235 116.879 115.465 117.064 115.616 117.283C115.767 117.502 115.842 117.768 115.842 118.08C115.842 118.421 115.749 118.723 115.562 118.985C115.375 119.243 115.112 119.446 114.775 119.593C114.437 119.737 114.041 119.808 113.588 119.808C113.074 119.808 112.639 119.717 112.283 119.534C111.927 119.351 111.658 119.114 111.474 118.823C111.291 118.532 111.199 118.225 111.199 117.902H112.202C112.217 118.175 112.296 118.392 112.44 118.554C112.583 118.712 112.76 118.825 112.968 118.893C113.177 118.958 113.383 118.99 113.588 118.99C113.861 118.99 114.09 118.954 114.273 118.882C114.46 118.811 114.602 118.712 114.699 118.586C114.796 118.461 114.845 118.317 114.845 118.155Z" fill="#F0A538"/>
<path d="M154.4 89.7911C154.4 89.7911 152.04 88.99 147.957 87.4919C145.939 86.667 143.382 86.022 140.531 85.0961C137.702 84.1315 134.389 83.3631 130.822 82.4194C129.932 82.1875 129.023 81.9497 128.095 81.7089C127.153 81.5172 126.195 81.324 125.22 81.1263C123.277 80.7161 121.27 80.2911 119.207 79.8571C117.138 79.4484 114.984 79.1749 112.802 78.8152C110.612 78.4853 108.396 78.0602 106.099 77.8625C103.819 77.601 101.5 77.3364 99.1515 77.0674C96.7998 76.8489 94.4049 76.7494 92.0026 76.5591C90.7999 76.4774 89.5958 76.3941 88.3828 76.3065C87.1727 76.2559 85.9522 76.2574 84.7346 76.2188C82.2966 76.1638 79.8481 76.1058 77.3996 76.0493C74.9437 76.1073 72.4864 76.1638 70.0394 76.2217C68.8085 76.2589 67.5656 76.2619 66.3496 76.3154C65.1484 76.4001 63.9502 76.4818 62.7565 76.568C60.3676 76.7568 57.998 76.8579 55.6523 77.0734C53.3035 77.3439 50.9831 77.6099 48.7013 77.87C46.4076 78.0632 44.1899 78.4957 42.0034 78.8242C39.8199 79.1838 37.6661 79.4573 35.5957 79.8645C33.5313 80.3015 31.5264 80.725 29.584 81.1338C28.6076 81.3314 27.6505 81.5261 26.7083 81.7179C25.781 81.9586 24.8716 82.1935 23.98 82.4268C20.4138 83.3691 17.1035 84.1375 14.2606 85.105C11.4028 86.0339 8.83827 86.6849 6.83485 87.5008C2.76996 88.9871 0.400391 89.7926 0.400391 89.7926C0.400391 89.7926 2.5601 88.5769 6.42406 86.5348C8.32776 85.4498 10.7762 84.4377 13.5625 83.2071C14.2636 82.9024 14.984 82.5858 15.7267 82.2618C16.0988 82.0998 16.4769 81.9348 16.8579 81.7684C17.2479 81.6227 17.6423 81.4786 18.0442 81.3299C19.6577 80.7548 21.35 80.1499 23.1182 79.5182C24.0053 79.2031 24.9088 78.8821 25.8316 78.5581C26.7708 78.2802 27.7234 77.9993 28.6954 77.7139C30.6467 77.164 32.6665 76.5963 34.7428 76.0151C36.8266 75.4682 39.0012 75.0506 41.2115 74.5438C43.4233 74.0489 45.6887 73.5525 48.0196 73.2359C50.3475 72.8851 52.7141 72.524 55.1119 72.1643C57.5232 71.8552 59.9895 71.6813 62.4678 71.4524C63.7061 71.3424 64.9534 71.2339 66.2007 71.1254C67.4421 71.0407 68.6671 71.0318 69.9025 70.9872C72.3956 70.9159 74.8976 70.8415 77.4011 70.7702C79.9136 70.8445 82.4246 70.9173 84.9266 70.9902C86.1769 71.0318 87.4272 71.0481 88.667 71.1314C89.9084 71.2399 91.1467 71.3484 92.3777 71.4583C94.838 71.6872 97.288 71.8641 99.6918 72.1702C102.088 72.5314 104.455 72.8896 106.784 73.2433C109.115 73.5569 111.379 74.0593 113.592 74.5542C115.798 75.0595 117.973 75.4757 120.062 76.0226C122.134 76.6067 124.154 77.1714 126.108 77.7228C127.079 78.0082 128.033 78.2906 128.971 78.5655C129.893 78.8925 130.8 79.2135 131.684 79.5257C133.454 80.1588 135.145 80.7622 136.757 81.3374C137.158 81.4875 137.553 81.6302 137.946 81.7758C138.327 81.9423 138.708 82.1073 139.08 82.2707C139.827 82.5962 140.548 82.9128 141.25 83.219C144.045 84.4496 146.498 85.4662 148.389 86.5422C152.232 88.5724 154.4 89.7911 154.4 89.7911Z" fill="#F0A538"/>
<path d="M48.6023 75.5904V46.197L77.0848 25.4238L105.567 46.197V75.5904H114.849V41.4901L77.0848 13.947L39.3205 41.4901V75.5904H48.6023Z" fill="#0C0A0A"/>
<path d="M77.0836 0L27.1737 35.8318V79.0606H32.477V38.5457L77.0836 6.52163L121.692 38.5457V79.0606H126.994V35.8318L77.0836 0Z" fill="#F0A538"/>
<path d="M57.362 73.2225V50.9125L77.0851 36.7501L96.8083 50.9125V73.2225H99.4606V49.5541L77.0851 33.4893L54.7096 49.5541V73.2225H57.362Z" fill="#F0A538"/>
</svg>
