<svg width="152" height="55" viewBox="0 0 152 55" fill="none" xmlns="http://www.w3.org/2000/svg">
<path d="M36.7065 14.7893L22.8003 31.4769H35.3158L33.9252 42.6017L47.8314 25.9143H35.3158L36.7065 14.7893Z" fill="#FF6600"/>
<path d="M67.5185 26.4213V31.569H60.0934V38.6196H54.2593V17.717H69.0783V22.8647H60.0934V26.4213H67.5185Z" fill="#FF6600"/>
<path d="M77.2153 17.717V38.6196H71.8491V17.717H77.2153Z" fill="#FF6600"/>
<path d="M86.07 22.241C86.9017 22.241 87.7124 22.4281 88.5027 22.8025C89.3141 23.1561 89.9797 23.6137 90.5 24.1753V22.7089H95.8663V38.6199H90.5V35.9682C90.1045 36.8417 89.5014 37.58 88.6907 38.1833C87.8793 38.7865 86.9017 39.0879 85.7579 39.0879C84.572 39.0879 83.4591 38.7865 82.4198 38.1833C81.3798 37.58 80.5267 36.6545 79.8614 35.4066C79.2166 34.1378 78.894 32.5467 78.894 30.6332C78.894 28.8445 79.2166 27.3262 79.8614 26.0783C80.5267 24.8304 81.4008 23.884 82.4822 23.2392C83.5846 22.5737 84.7803 22.241 86.07 22.241ZM87.1927 27.4823C86.4234 27.4823 85.7782 27.7942 85.2586 28.4182C84.7593 29.0421 84.5096 29.7805 84.5096 30.6332C84.5096 31.4861 84.7698 32.2037 85.2894 32.7858C85.8098 33.3682 86.4964 33.6596 87.3492 33.6596C87.8064 33.6596 88.2741 33.545 88.7531 33.3163C89.2307 33.0668 89.6367 32.7026 89.9691 32.2244C90.3233 31.7252 90.5 31.0908 90.5 30.3213V28.7925C90.0421 28.4182 89.5224 28.1062 88.9396 27.8566C88.3786 27.607 87.7958 27.4823 87.1927 27.4823Z" fill="#FF6600"/>
<path d="M104.19 22.241C105.23 22.241 106.187 22.3969 107.06 22.7089C107.954 23.0001 108.672 23.4057 109.213 23.9257V28.1374C108.672 27.8046 108.058 27.4926 107.372 27.2015C106.686 26.8895 105.947 26.7335 105.157 26.7335C104.658 26.7335 104.211 26.8375 103.815 27.0455C103.441 27.2327 103.254 27.5342 103.254 27.9502C103.254 28.2414 103.369 28.4598 103.597 28.6054C103.826 28.751 104.273 28.9069 104.939 29.0733L105.906 29.3229C108.672 30.0301 110.055 31.5173 110.055 33.7843C110.055 34.8242 109.743 35.7496 109.119 36.561C108.516 37.3514 107.715 37.9751 106.717 38.4327C105.739 38.8696 104.679 39.0879 103.535 39.0879C102.349 39.0879 101.247 38.9216 100.228 38.5887C99.2086 38.2353 98.3348 37.8087 97.6068 37.3098V33.1292C98.3558 33.5865 99.1981 33.9714 100.134 34.2833C101.091 34.5954 101.944 34.7514 102.693 34.7514C103.296 34.7514 103.733 34.6786 104.003 34.5331C104.294 34.3876 104.44 34.1274 104.44 33.7531C104.44 33.4618 104.273 33.2435 103.94 33.098C103.607 32.9316 103.13 32.7442 102.505 32.5363L100.914 32.037C99.7493 31.6836 98.8965 31.1324 98.3558 30.3836C97.8152 29.6141 97.5444 28.6782 97.5444 27.5758C97.5444 26.4735 97.8355 25.5271 98.4183 24.7368C99.0003 23.9464 99.7907 23.3329 100.789 22.8961C101.808 22.4593 102.942 22.241 104.19 22.241Z" fill="#FF6600"/>
<path d="M121.124 22.2408C122.747 22.2408 124.067 22.7919 125.086 23.8943C126.126 24.9966 126.646 26.6293 126.646 28.7923V38.6197H121.28L121.249 29.6347C121.249 28.8444 121.031 28.2932 120.594 27.9812C120.157 27.6484 119.668 27.4821 119.127 27.4821C118.545 27.4821 118.057 27.638 117.661 27.95C117.266 28.2412 116.923 28.5948 116.632 29.0107V38.6197H111.265V17.717H116.632V24.7678C117.131 24.0814 117.734 23.4887 118.441 22.9895C119.169 22.4904 120.064 22.2408 121.124 22.2408Z" fill="#FF6600"/>
<path d="M126.376 17.8389V18.5027H125.577V20.5222H124.819V18.5027H124.019V17.8389H126.376Z" fill="#FF6600"/>
<path d="M129.49 17.7986V20.5342H128.732V19.2066L128.176 19.8302H127.949L127.393 19.2066V20.5342H126.634V17.7986H126.902L128.062 18.9652L129.222 17.7986H129.49Z" fill="#FF6600"/>
</svg>
