<svg width="154" height="122" viewBox="0 0 154 122" fill="none" xmlns="http://www.w3.org/2000/svg">
<path d="M22.1985 101.322V100.042H23.2146V94.8815H22.1985V93.6023H26.1743C26.6455 93.6023 27.0541 93.6831 27.4001 93.8449C27.7535 93.9993 28.0259 94.2235 28.2174 94.5176C28.4162 94.8043 28.5156 95.1498 28.5156 95.5541V95.6644C28.5156 96.0173 28.4493 96.3077 28.3168 96.5356C28.1842 96.7561 28.0259 96.9289 27.8419 97.0539C27.6652 97.1715 27.4958 97.2561 27.3339 97.3075V97.506C27.4958 97.5501 27.6726 97.6347 27.864 97.7597C28.0554 97.8773 28.2174 98.05 28.3499 98.2779C28.4898 98.5059 28.5597 98.8036 28.5597 99.1712V99.2815C28.5597 99.7079 28.4603 100.075 28.2615 100.384C28.0628 100.686 27.7867 100.917 27.4333 101.079C27.0872 101.241 26.6823 101.322 26.2185 101.322H22.1985ZM24.6723 99.9982H26.0418C26.3583 99.9982 26.6123 99.9211 26.8038 99.7667C27.0026 99.6123 27.102 99.3917 27.102 99.105V98.9947C27.102 98.708 27.0062 98.4875 26.8148 98.3331C26.6234 98.1787 26.3657 98.1015 26.0418 98.1015H24.6723V99.9982ZM24.6723 96.7782H26.0197C26.3215 96.7782 26.5682 96.701 26.7596 96.5466C26.9584 96.3922 27.0578 96.179 27.0578 95.907V95.7968C27.0578 95.5174 26.9621 95.3042 26.7706 95.1572C26.5792 95.0028 26.3289 94.9256 26.0197 94.9256H24.6723V96.7782Z" fill="white"/>
<path d="M32.1055 101.41C31.6784 101.41 31.303 101.314 30.979 101.123C30.6624 100.925 30.4158 100.653 30.2391 100.307C30.0624 99.9615 29.974 99.5645 29.974 99.116V95.8519H31.3655V99.0058C31.3655 99.4175 31.4649 99.7262 31.6637 99.9321C31.8699 100.138 32.1607 100.241 32.5362 100.241C32.9632 100.241 33.2945 100.101 33.5301 99.8218C33.7657 99.5351 33.8835 99.1381 33.8835 98.6308V95.8519H35.275V101.322H33.9056V100.605H33.7068C33.6185 100.789 33.4528 100.969 33.2098 101.145C32.9669 101.322 32.5988 101.41 32.1055 101.41Z" fill="white"/>
<path d="M37.0444 101.322V95.8519H38.4359V101.322H37.0444ZM37.7401 95.2123C37.4898 95.2123 37.2763 95.1314 37.0996 94.9697C36.9302 94.808 36.8456 94.5947 36.8456 94.3301C36.8456 94.0654 36.9302 93.8522 37.0996 93.6905C37.2763 93.5288 37.4898 93.4479 37.7401 93.4479C37.9978 93.4479 38.2113 93.5288 38.3807 93.6905C38.55 93.8522 38.6347 94.0654 38.6347 94.3301C38.6347 94.5947 38.55 94.808 38.3807 94.9697C38.2113 95.1314 37.9978 95.2123 37.7401 95.2123Z" fill="white"/>
<path d="M40.1987 101.322V93.6023H41.5902V101.322H40.1987Z" fill="white"/>
<path d="M45.5619 101.476C45.1275 101.476 44.7188 101.369 44.336 101.156C43.9605 100.936 43.6586 100.616 43.4304 100.197C43.2022 99.7777 43.0881 99.2704 43.0881 98.6749V98.4985C43.0881 97.903 43.2022 97.3958 43.4304 96.9767C43.6586 96.5577 43.9605 96.2415 44.336 96.0283C44.7115 95.8078 45.1201 95.6975 45.5619 95.6975C45.8932 95.6975 46.1693 95.7379 46.3901 95.8188C46.6184 95.8923 46.8024 95.9879 46.9423 96.1055C47.0822 96.2231 47.189 96.3481 47.2626 96.4805H47.4614V93.6023H48.8529V101.322H47.4835V100.66H47.2847C47.1595 100.866 46.9644 101.053 46.6994 101.222C46.4417 101.391 46.0625 101.476 45.5619 101.476ZM45.9815 100.263C46.4085 100.263 46.7656 100.127 47.0528 99.8549C47.3399 99.5755 47.4835 99.1712 47.4835 98.6419V98.5316C47.4835 98.0023 47.3399 97.6016 47.0528 97.3296C46.773 97.0502 46.4159 96.9105 45.9815 96.9105C45.5545 96.9105 45.1974 97.0502 44.9103 97.3296C44.6231 97.6016 44.4796 98.0023 44.4796 98.5316V98.6419C44.4796 99.1712 44.6231 99.5755 44.9103 99.8549C45.1974 100.127 45.5545 100.263 45.9815 100.263Z" fill="white"/>
<path d="M52.3173 101.476C51.9271 101.476 51.5773 101.41 51.2681 101.277C50.9589 101.138 50.7122 100.939 50.5282 100.682C50.3515 100.417 50.2631 100.097 50.2631 99.7226C50.2631 99.3476 50.3515 99.0352 50.5282 98.7852C50.7122 98.5279 50.9626 98.3368 51.2792 98.2118C51.6031 98.0795 51.9712 98.0133 52.3835 98.0133H53.8855V97.7045C53.8855 97.4472 53.8045 97.2377 53.6425 97.0759C53.4805 96.9069 53.2229 96.8223 52.8695 96.8223C52.5234 96.8223 52.2657 96.9032 52.0964 97.0649C51.9271 97.2193 51.8166 97.4215 51.7651 97.6714L50.484 97.2414C50.5724 96.962 50.7122 96.7084 50.9037 96.4805C51.1025 96.2452 51.3638 96.0577 51.6878 95.9181C52.0191 95.771 52.4203 95.6975 52.8915 95.6975C53.6131 95.6975 54.1837 95.8776 54.6033 96.2379C55.023 96.5981 55.2328 97.1201 55.2328 97.8038V99.8439C55.2328 100.064 55.3359 100.175 55.542 100.175H55.9838V101.322H55.0561C54.7837 101.322 54.5592 101.255 54.3825 101.123C54.2057 100.991 54.1174 100.814 54.1174 100.594V100.583H53.9076C53.8781 100.671 53.8119 100.789 53.7088 100.936C53.6057 101.075 53.4437 101.2 53.2229 101.311C53.002 101.421 52.7001 101.476 52.3173 101.476ZM52.5602 100.351C52.9504 100.351 53.267 100.245 53.51 100.031C53.7603 99.8108 53.8855 99.5204 53.8855 99.1602V99.0499H52.4829C52.2252 99.0499 52.0228 99.105 51.8755 99.2153C51.7283 99.3256 51.6546 99.4799 51.6546 99.6784C51.6546 99.8769 51.7319 100.039 51.8866 100.164C52.0412 100.289 52.2657 100.351 52.5602 100.351Z" fill="white"/>
<path d="M63.1405 101.476C62.1834 101.476 61.425 101.211 60.8655 100.682C60.3059 100.145 60.0262 99.3807 60.0262 98.3882V96.5356C60.0262 95.5431 60.3059 94.7822 60.8655 94.2529C61.425 93.7162 62.1834 93.4479 63.1405 93.4479C64.0903 93.4479 64.8228 93.7089 65.3382 94.2308C65.8609 94.7455 66.1223 95.4549 66.1223 96.3592V96.4253H64.6866V96.315C64.6866 95.8592 64.5578 95.4843 64.3001 95.1902C64.0498 94.8962 63.6632 94.7491 63.1405 94.7491C62.6251 94.7491 62.2202 94.9072 61.9257 95.2233C61.6312 95.5394 61.4839 95.9695 61.4839 96.5135V98.4103C61.4839 98.947 61.6312 99.377 61.9257 99.7005C62.2202 100.017 62.6251 100.175 63.1405 100.175C63.6632 100.175 64.0498 100.028 64.3001 99.7336C64.5578 99.4322 64.6866 99.0572 64.6866 98.6088V98.4103H66.1223V98.5647C66.1223 99.4689 65.8609 100.182 65.3382 100.704C64.8228 101.219 64.0903 101.476 63.1405 101.476Z" fill="white"/>
<path d="M70.1815 101.476C69.6367 101.476 69.1471 101.366 68.7127 101.145C68.2783 100.925 67.9359 100.605 67.6856 100.186C67.4353 99.7667 67.3101 99.2631 67.3101 98.6749V98.4985C67.3101 97.9104 67.4353 97.4068 67.6856 96.9877C67.9359 96.5687 68.2783 96.2489 68.7127 96.0283C69.1471 95.8078 69.6367 95.6975 70.1815 95.6975C70.7263 95.6975 71.2159 95.8078 71.6503 96.0283C72.0847 96.2489 72.4271 96.5687 72.6774 96.9877C72.9277 97.4068 73.0529 97.9104 73.0529 98.4985V98.6749C73.0529 99.2631 72.9277 99.7667 72.6774 100.186C72.4271 100.605 72.0847 100.925 71.6503 101.145C71.2159 101.366 70.7263 101.476 70.1815 101.476ZM70.1815 100.241C70.6085 100.241 70.9619 100.105 71.2417 99.8328C71.5215 99.5535 71.6614 99.1565 71.6614 98.6419V98.5316C71.6614 98.017 71.5215 97.6236 71.2417 97.3516C70.9693 97.0723 70.6159 96.9326 70.1815 96.9326C69.7545 96.9326 69.4011 97.0723 69.1213 97.3516C68.8415 97.6236 68.7016 98.017 68.7016 98.5316V98.6419C68.7016 99.1565 68.8415 99.5535 69.1213 99.8328C69.4011 100.105 69.7545 100.241 70.1815 100.241Z" fill="white"/>
<path d="M74.5582 101.322V95.8519H75.9276V96.5687H76.1264C76.2148 96.3775 76.3804 96.1974 76.6234 96.0283C76.8663 95.8519 77.2345 95.7637 77.7277 95.7637C78.1548 95.7637 78.5266 95.8629 78.8432 96.0614C79.1671 96.2526 79.4174 96.5209 79.5941 96.8664C79.7708 97.2046 79.8592 97.6016 79.8592 98.0574V101.322H78.4677V98.1677C78.4677 97.756 78.3646 97.4472 78.1585 97.2414C77.9597 97.0355 77.6725 96.9326 77.297 96.9326C76.87 96.9326 76.5387 97.0759 76.3031 97.3627C76.0675 97.642 75.9497 98.0353 75.9497 98.5426V101.322H74.5582Z" fill="white"/>
<path d="M83.8594 101.476C83.1452 101.476 82.5599 101.322 82.1034 101.013C81.6469 100.704 81.3708 100.263 81.2751 99.6895L82.5562 99.3587C82.6077 99.616 82.6924 99.8181 82.8102 99.9652C82.9354 100.112 83.0863 100.219 83.263 100.285C83.4471 100.344 83.6458 100.373 83.8594 100.373C84.1833 100.373 84.4226 100.318 84.5772 100.208C84.7318 100.09 84.8091 99.9468 84.8091 99.7777C84.8091 99.6086 84.7355 99.48 84.5882 99.3917C84.441 99.2962 84.2054 99.219 83.8815 99.1602L83.5722 99.105C83.1894 99.0315 82.8397 98.9323 82.5231 98.8073C82.2065 98.6749 81.9525 98.4948 81.761 98.2669C81.5696 98.039 81.4739 97.745 81.4739 97.3847C81.4739 96.8407 81.6727 96.4253 82.0703 96.1386C82.4678 95.8445 82.9906 95.6975 83.6385 95.6975C84.2496 95.6975 84.7576 95.8335 85.1625 96.1055C85.5675 96.3775 85.8325 96.7341 85.9577 97.1752L84.6656 97.5722C84.6067 97.2928 84.4852 97.0943 84.3011 96.9767C84.1244 96.8591 83.9035 96.8003 83.6385 96.8003C83.3734 96.8003 83.171 96.848 83.0311 96.9436C82.8912 97.0318 82.8212 97.1568 82.8212 97.3186C82.8212 97.495 82.8949 97.6273 83.0421 97.7155C83.1894 97.7964 83.3882 97.8589 83.6385 97.903L83.9477 97.9581C84.36 98.0317 84.7318 98.1309 85.0631 98.2559C85.4018 98.3735 85.6669 98.5463 85.8583 98.7742C86.0571 98.9947 86.1565 99.2962 86.1565 99.6784C86.1565 100.252 85.9466 100.697 85.527 101.013C85.1147 101.322 84.5588 101.476 83.8594 101.476Z" fill="white"/>
<path d="M89.5872 101.322C89.2264 101.322 88.9319 101.211 88.7037 100.991C88.4828 100.763 88.3724 100.461 88.3724 100.086V96.9988H87.0029V95.8519H88.3724V94.1536H89.7639V95.8519H91.2658V96.9988H89.7639V99.8439C89.7639 100.064 89.867 100.175 90.0731 100.175H91.1333V101.322H89.5872Z" fill="white"/>
<path d="M92.7463 101.322V95.8519H94.1157V96.4694H94.3145C94.3955 96.2489 94.528 96.0871 94.7121 95.9842C94.9035 95.8813 95.1244 95.8298 95.3747 95.8298H96.0373V97.0649H95.3526C94.9992 97.0649 94.7084 97.1605 94.4802 97.3516C94.2519 97.5354 94.1378 97.8221 94.1378 98.2118V101.322H92.7463Z" fill="white"/>
<path d="M99.4331 101.41C99.0061 101.41 98.6306 101.314 98.3067 101.123C97.9901 100.925 97.7434 100.653 97.5667 100.307C97.39 99.9615 97.3017 99.5645 97.3017 99.116V95.8519H98.6932V99.0058C98.6932 99.4175 98.7926 99.7262 98.9914 99.9321C99.1975 100.138 99.4883 100.241 99.8638 100.241C100.291 100.241 100.622 100.101 100.858 99.8218C101.093 99.5351 101.211 99.1381 101.211 98.6308V95.8519H102.603V101.322H101.233V100.605H101.034C100.946 100.789 100.78 100.969 100.538 101.145C100.295 101.322 99.9264 101.41 99.4331 101.41Z" fill="white"/>
<path d="M106.945 101.476C106.415 101.476 105.933 101.366 105.498 101.145C105.071 100.925 104.733 100.605 104.482 100.186C104.232 99.7667 104.107 99.2594 104.107 98.6639V98.5095C104.107 97.914 104.232 97.4068 104.482 96.9877C104.733 96.5687 105.071 96.2489 105.498 96.0283C105.933 95.8078 106.415 95.6975 106.945 95.6975C107.468 95.6975 107.917 95.7894 108.293 95.9732C108.668 96.157 108.97 96.4106 109.198 96.7341C109.434 97.0502 109.588 97.4105 109.662 97.8148L108.315 98.1015C108.285 97.881 108.219 97.6825 108.116 97.506C108.013 97.3296 107.866 97.1899 107.674 97.087C107.49 96.984 107.258 96.9326 106.978 96.9326C106.699 96.9326 106.445 96.9951 106.216 97.1201C105.995 97.2377 105.819 97.4178 105.686 97.6604C105.561 97.8957 105.498 98.1861 105.498 98.5316V98.6419C105.498 98.9874 105.561 99.2815 105.686 99.5241C105.819 99.7593 105.995 99.9394 106.216 100.064C106.445 100.182 106.699 100.241 106.978 100.241C107.398 100.241 107.715 100.134 107.928 99.9211C108.149 99.7005 108.289 99.4138 108.348 99.0609L109.695 99.3807C109.599 99.7703 109.434 100.127 109.198 100.45C108.97 100.767 108.668 101.016 108.293 101.2C107.917 101.384 107.468 101.476 106.945 101.476Z" fill="white"/>
<path d="M112.979 101.322C112.618 101.322 112.324 101.211 112.095 100.991C111.874 100.763 111.764 100.461 111.764 100.086V96.9988H110.395V95.8519H111.764V94.1536H113.156V95.8519H114.657V96.9988H113.156V99.8439C113.156 100.064 113.259 100.175 113.465 100.175H114.525V101.322H112.979Z" fill="white"/>
<path d="M116.138 101.322V95.8519H117.529V101.322H116.138ZM116.834 95.2123C116.583 95.2123 116.37 95.1314 116.193 94.9697C116.024 94.808 115.939 94.5947 115.939 94.3301C115.939 94.0654 116.024 93.8522 116.193 93.6905C116.37 93.5288 116.583 93.4479 116.834 93.4479C117.091 93.4479 117.305 93.5288 117.474 93.6905C117.644 93.8522 117.728 94.0654 117.728 94.3301C117.728 94.5947 117.644 94.808 117.474 94.9697C117.305 95.1314 117.091 95.2123 116.834 95.2123Z" fill="white"/>
<path d="M121.899 101.476C121.354 101.476 120.864 101.366 120.43 101.145C119.995 100.925 119.653 100.605 119.403 100.186C119.152 99.7667 119.027 99.2631 119.027 98.6749V98.4985C119.027 97.9104 119.152 97.4068 119.403 96.9877C119.653 96.5687 119.995 96.2489 120.43 96.0283C120.864 95.8078 121.354 95.6975 121.899 95.6975C122.443 95.6975 122.933 95.8078 123.367 96.0283C123.802 96.2489 124.144 96.5687 124.395 96.9877C124.645 97.4068 124.77 97.9104 124.77 98.4985V98.6749C124.77 99.2631 124.645 99.7667 124.395 100.186C124.144 100.605 123.802 100.925 123.367 101.145C122.933 101.366 122.443 101.476 121.899 101.476ZM121.899 100.241C122.326 100.241 122.679 100.105 122.959 99.8328C123.239 99.5535 123.379 99.1565 123.379 98.6419V98.5316C123.379 98.017 123.239 97.6236 122.959 97.3516C122.686 97.0723 122.333 96.9326 121.899 96.9326C121.472 96.9326 121.118 97.0723 120.838 97.3516C120.559 97.6236 120.419 98.017 120.419 98.5316V98.6419C120.419 99.1565 120.559 99.5535 120.838 99.8328C121.118 100.105 121.472 100.241 121.899 100.241Z" fill="white"/>
<path d="M126.275 101.322V95.8519H127.645V96.5687H127.844C127.932 96.3775 128.098 96.1974 128.34 96.0283C128.583 95.8519 128.952 95.7637 129.445 95.7637C129.872 95.7637 130.244 95.8629 130.56 96.0614C130.884 96.2526 131.135 96.5209 131.311 96.8664C131.488 97.2046 131.576 97.6016 131.576 98.0574V101.322H130.185V98.1677C130.185 97.756 130.082 97.4472 129.876 97.2414C129.677 97.0355 129.39 96.9326 129.014 96.9326C128.587 96.9326 128.256 97.0759 128.02 97.3627C127.785 97.642 127.667 98.0353 127.667 98.5426V101.322H126.275Z" fill="white"/>
<path d="M43.679 118.855V119.701H39.7533V118.855H43.679ZM39.9582 111.861V119.701H38.9175V111.861H39.9582Z" fill="#FF6600"/>
<path d="M45.8036 113.875V119.701H44.8007V113.875H45.8036ZM44.7252 112.329C44.7252 112.168 44.7737 112.031 44.8708 111.92C44.9714 111.809 45.1188 111.753 45.3129 111.753C45.5035 111.753 45.6491 111.809 45.7497 111.92C45.854 112.031 45.9061 112.168 45.9061 112.329C45.9061 112.484 45.854 112.617 45.7497 112.728C45.6491 112.836 45.5035 112.889 45.3129 112.889C45.1188 112.889 44.9714 112.836 44.8708 112.728C44.7737 112.617 44.7252 112.484 44.7252 112.329Z" fill="#FF6600"/>
<path d="M49.1793 118.802L50.7755 113.875H51.7947L49.697 119.701H49.0283L49.1793 118.802ZM47.8474 113.875L49.4921 118.828L49.6053 119.701H48.9367L46.8228 113.875H47.8474Z" fill="#FF6600"/>
<path d="M53.8384 113.875V119.701H52.8354V113.875H53.8384ZM52.7599 112.329C52.7599 112.168 52.8085 112.031 52.9055 111.92C53.0062 111.809 53.1536 111.753 53.3477 111.753C53.5382 111.753 53.6838 111.809 53.7845 111.92C53.8887 112.031 53.9409 112.168 53.9409 112.329C53.9409 112.484 53.8887 112.617 53.7845 112.728C53.6838 112.836 53.5382 112.889 53.3477 112.889C53.1536 112.889 53.0062 112.836 52.9055 112.728C52.8085 112.617 52.7599 112.484 52.7599 112.329Z" fill="#FF6600"/>
<path d="M56.4376 115.119V119.701H55.44V113.875H56.3837L56.4376 115.119ZM56.2003 116.567L55.7851 116.551C55.7923 116.016 55.8947 115.54 56.0925 115.124C56.2902 114.704 56.5652 114.374 56.9175 114.133C57.2734 113.889 57.6868 113.767 58.1578 113.767C58.5424 113.767 58.8732 113.837 59.15 113.977C59.4304 114.117 59.6461 114.343 59.7971 114.655C59.9517 114.964 60.029 115.373 60.029 115.883V119.701H59.026V115.872C59.026 115.567 58.981 115.323 58.8912 115.14C58.8013 114.953 58.6701 114.819 58.4975 114.736C58.3249 114.65 58.1128 114.607 57.8612 114.607C57.6131 114.607 57.3867 114.659 57.1817 114.763C56.9804 114.867 56.8061 115.011 56.6587 115.194C56.5149 115.377 56.4016 115.587 56.3189 115.824C56.2399 116.057 56.2003 116.305 56.2003 116.567Z" fill="#FF6600"/>
<path d="M65.3244 113.875H66.2303V119.577C66.2303 120.09 66.126 120.528 65.9175 120.891C65.709 121.253 65.4178 121.528 65.0439 121.715C64.6737 121.905 64.2459 122 63.7605 122C63.5592 122 63.322 121.968 63.0487 121.903C62.7791 121.842 62.5131 121.736 62.2507 121.585C61.9918 121.438 61.7743 121.239 61.5982 120.988L62.1212 120.395C62.3657 120.69 62.6209 120.894 62.887 121.009C63.1566 121.124 63.4226 121.182 63.685 121.182C64.156 121.182 64.5317 121.049 64.8121 120.783C65.0925 120.521 65.2327 120.135 65.2327 119.625V115.156L65.3244 113.875ZM61.307 116.852V116.739C61.307 116.147 61.4004 115.628 61.5874 115.183C61.7743 114.734 62.0386 114.386 62.3801 114.139C62.7252 113.891 63.135 113.767 63.6096 113.767C63.9762 113.767 64.2962 113.832 64.5694 113.961C64.8462 114.087 65.0799 114.271 65.2704 114.515C65.4646 114.756 65.6173 115.047 65.7288 115.388C65.8402 115.729 65.9175 116.115 65.9607 116.545V117.041C65.9067 117.608 65.7881 118.1 65.6048 118.516C65.4214 118.929 65.1644 119.248 64.8336 119.475C64.5029 119.697 64.0913 119.808 63.5988 119.808C63.1314 119.808 62.7252 119.681 62.3801 119.426C62.0386 119.168 61.7743 118.816 61.5874 118.371C61.4004 117.926 61.307 117.42 61.307 116.852ZM62.3046 116.739V116.852C62.3046 117.236 62.3567 117.59 62.461 117.913C62.5688 118.233 62.736 118.487 62.9625 118.678C63.1889 118.868 63.4819 118.963 63.8414 118.963C64.1722 118.963 64.4454 118.893 64.6611 118.753C64.8768 118.613 65.0475 118.428 65.1734 118.199C65.3028 117.969 65.4034 117.719 65.4753 117.45V116.152C65.4358 115.955 65.3747 115.765 65.292 115.582C65.2129 115.395 65.1087 115.23 64.9792 115.086C64.8534 114.939 64.697 114.822 64.5101 114.736C64.3232 114.65 64.1039 114.607 63.8522 114.607C63.4891 114.607 63.1925 114.704 62.9625 114.898C62.736 115.092 62.5688 115.35 62.461 115.673C62.3567 115.996 62.3046 116.352 62.3046 116.739Z" fill="#FF6600"/>
<path d="M75.047 117.719C75.047 117.475 74.9948 117.267 74.8906 117.095C74.7863 116.922 74.5994 116.766 74.3298 116.626C74.0601 116.486 73.6773 116.344 73.1812 116.201C72.6635 116.05 72.2141 115.872 71.8331 115.668C71.452 115.463 71.1572 115.217 70.9487 114.93C70.7402 114.639 70.6359 114.291 70.6359 113.885C70.6359 113.48 70.7456 113.117 70.9649 112.798C71.1878 112.475 71.4987 112.22 71.8978 112.033C72.3004 111.847 72.7695 111.753 73.3052 111.753C73.8948 111.753 74.3945 111.866 74.8043 112.092C75.2177 112.315 75.5323 112.608 75.748 112.97C75.9637 113.329 76.0715 113.713 76.0715 114.122H75.0362C75.0362 113.828 74.9733 113.568 74.8474 113.342C74.7216 113.112 74.5311 112.932 74.2758 112.803C74.0206 112.67 73.697 112.604 73.3052 112.604C72.9349 112.604 72.6293 112.66 72.3885 112.771C72.1476 112.882 71.9679 113.033 71.8492 113.223C71.7342 113.413 71.6767 113.631 71.6767 113.875C71.6767 114.094 71.7396 114.288 71.8654 114.456C71.9948 114.625 72.1944 114.778 72.464 114.914C72.7336 115.05 73.0841 115.178 73.5155 115.296C74.1087 115.465 74.5958 115.659 74.9769 115.878C75.3579 116.097 75.6383 116.355 75.8181 116.653C76.0014 116.951 76.0931 117.303 76.0931 117.709C76.0931 118.132 75.9799 118.502 75.7534 118.818C75.5269 119.134 75.2087 119.378 74.7989 119.55C74.3891 119.722 73.9074 119.808 73.3537 119.808C72.9906 119.808 72.6329 119.758 72.2806 119.658C71.9319 119.557 71.6138 119.406 71.3262 119.205C71.0422 119.004 70.8139 118.757 70.6413 118.462C70.4724 118.164 70.3879 117.82 70.3879 117.429H71.4232C71.4232 117.698 71.4754 117.929 71.5796 118.123C71.6839 118.313 71.8259 118.471 72.0056 118.597C72.189 118.723 72.3957 118.816 72.6257 118.877C72.8594 118.934 73.1021 118.963 73.3537 118.963C73.7168 118.963 74.0242 118.913 74.2758 118.812C74.5275 118.712 74.718 118.568 74.8474 118.382C74.9805 118.195 75.047 117.974 75.047 117.719Z" fill="#FF6600"/>
<path d="M77.0044 116.852V116.729C77.0044 116.165 77.1123 115.661 77.328 115.215C77.5437 114.77 77.8492 114.419 78.2447 114.16C78.6401 113.898 79.1093 113.767 79.6521 113.767C80.2021 113.767 80.6749 113.898 81.0703 114.16C81.4694 114.419 81.7767 114.77 81.9924 115.215C82.2081 115.661 82.316 116.165 82.316 116.729V116.852C82.316 117.412 82.2081 117.917 81.9924 118.365C81.7767 118.811 81.4712 119.162 81.0757 119.421C80.6803 119.679 80.2093 119.808 79.6629 119.808C79.1165 119.808 78.6437 119.679 78.2447 119.421C77.8492 119.162 77.5437 118.811 77.328 118.365C77.1123 117.917 77.0044 117.412 77.0044 116.852ZM78.002 116.729V116.852C78.002 117.236 78.0631 117.592 78.1854 117.919C78.3076 118.242 78.4909 118.502 78.7354 118.699C78.9835 118.893 79.2926 118.99 79.6629 118.99C80.0296 118.99 80.3352 118.893 80.5796 118.699C80.8241 118.502 81.0074 118.242 81.1296 117.919C81.2519 117.592 81.313 117.236 81.313 116.852V116.729C81.313 116.348 81.2501 115.996 81.1243 115.673C81.002 115.346 80.8187 115.084 80.5742 114.887C80.3298 114.686 80.0224 114.585 79.6521 114.585C79.2854 114.585 78.9799 114.686 78.7354 114.887C78.4909 115.084 78.3076 115.346 78.1854 115.673C78.0631 115.996 78.002 116.348 78.002 116.729Z" fill="#FF6600"/>
<path d="M84.6509 111.43V119.701H83.6479V111.43H84.6509Z" fill="#FF6600"/>
<path d="M89.8223 118.355V113.875H90.8253V119.701H89.8708L89.8223 118.355ZM90.011 117.127L90.4262 117.116C90.4262 117.633 90.3526 118.094 90.2052 118.5C90.0578 118.906 89.8169 119.225 89.4826 119.458C89.1482 119.692 88.7025 119.808 88.1452 119.808C87.5736 119.808 87.1117 119.64 86.7594 119.302C86.4071 118.965 86.2309 118.409 86.2309 117.633V113.875H87.2285V117.644C87.2285 117.992 87.2789 118.263 87.3795 118.457C87.4838 118.647 87.6186 118.78 87.7839 118.855C87.9493 118.927 88.1219 118.963 88.3016 118.963C88.7258 118.963 89.062 118.882 89.31 118.721C89.5581 118.556 89.736 118.335 89.8439 118.059C89.9553 117.779 90.011 117.468 90.011 117.127Z" fill="#FF6600"/>
<path d="M94.7887 113.875V114.639H91.6342V113.875H94.7887ZM92.7019 112.459H93.6995V118.258C93.6995 118.455 93.73 118.604 93.7911 118.705C93.8523 118.805 93.9314 118.872 94.0284 118.904C94.1255 118.936 94.2297 118.952 94.3412 118.952C94.4239 118.952 94.5101 118.945 94.6 118.931C94.6935 118.913 94.7636 118.898 94.8103 118.888L94.8157 119.701C94.7366 119.726 94.6324 119.749 94.503 119.771C94.3771 119.796 94.2243 119.808 94.0446 119.808C93.8001 119.808 93.5754 119.76 93.3705 119.663C93.1656 119.566 93.002 119.405 92.8798 119.178C92.7612 118.949 92.7019 118.64 92.7019 118.252V112.459Z" fill="#FF6600"/>
<path d="M97.0428 113.875V119.701H96.0398V113.875H97.0428ZM95.9643 112.329C95.9643 112.168 96.0128 112.031 96.1099 111.92C96.2106 111.809 96.358 111.753 96.5521 111.753C96.7426 111.753 96.8882 111.809 96.9889 111.92C97.0931 112.031 97.1453 112.168 97.1453 112.329C97.1453 112.484 97.0931 112.617 96.9889 112.728C96.8882 112.836 96.7426 112.889 96.5521 112.889C96.358 112.889 96.2106 112.836 96.1099 112.728C96.0128 112.617 95.9643 112.484 95.9643 112.329Z" fill="#FF6600"/>
<path d="M98.3801 116.852V116.729C98.3801 116.165 98.488 115.661 98.7037 115.215C98.9194 114.77 99.2249 114.419 99.6204 114.16C100.016 113.898 100.485 113.767 101.028 113.767C101.578 113.767 102.051 113.898 102.446 114.16C102.845 114.419 103.152 114.77 103.368 115.215C103.584 115.661 103.692 116.165 103.692 116.729V116.852C103.692 117.412 103.584 117.917 103.368 118.365C103.152 118.811 102.847 119.162 102.451 119.421C102.056 119.679 101.585 119.808 101.039 119.808C100.492 119.808 100.019 119.679 99.6204 119.421C99.2249 119.162 98.9194 118.811 98.7037 118.365C98.488 117.917 98.3801 117.412 98.3801 116.852ZM99.3777 116.729V116.852C99.3777 117.236 99.4389 117.592 99.5611 117.919C99.6833 118.242 99.8666 118.502 100.111 118.699C100.359 118.893 100.668 118.99 101.039 118.99C101.405 118.99 101.711 118.893 101.955 118.699C102.2 118.502 102.383 118.242 102.505 117.919C102.628 117.592 102.689 117.236 102.689 116.852V116.729C102.689 116.348 102.626 115.996 102.5 115.673C102.378 115.346 102.194 115.084 101.95 114.887C101.705 114.686 101.398 114.585 101.028 114.585C100.661 114.585 100.356 114.686 100.111 114.887C99.8666 115.084 99.6833 115.346 99.5611 115.673C99.4389 115.996 99.3777 116.348 99.3777 116.729Z" fill="#FF6600"/>
<path d="M105.94 115.119V119.701H104.943V113.875H105.886L105.94 115.119ZM105.703 116.567L105.288 116.551C105.295 116.016 105.398 115.54 105.595 115.124C105.793 114.704 106.068 114.374 106.42 114.133C106.776 113.889 107.19 113.767 107.661 113.767C108.045 113.767 108.376 113.837 108.653 113.977C108.933 114.117 109.149 114.343 109.3 114.655C109.454 114.964 109.532 115.373 109.532 115.883V119.701H108.529V115.872C108.529 115.567 108.484 115.323 108.394 115.14C108.304 114.953 108.173 114.819 108 114.736C107.828 114.65 107.616 114.607 107.364 114.607C107.116 114.607 106.889 114.659 106.685 114.763C106.483 114.867 106.309 115.011 106.161 115.194C106.018 115.377 105.904 115.587 105.822 115.824C105.743 116.057 105.703 116.305 105.703 116.567Z" fill="#FF6600"/>
<path d="M114.444 118.155C114.444 118.012 114.412 117.879 114.347 117.757C114.286 117.631 114.158 117.518 113.964 117.418C113.774 117.314 113.486 117.224 113.102 117.149C112.67 117.059 112.296 116.944 111.98 116.804C111.667 116.664 111.424 116.486 111.252 116.271C111.083 116.055 110.998 115.788 110.998 115.469C110.998 115.16 111.087 114.878 111.263 114.623C111.442 114.365 111.694 114.158 112.018 114.004C112.345 113.846 112.726 113.767 113.161 113.767C113.628 113.767 114.027 113.85 114.358 114.015C114.689 114.18 114.942 114.401 115.118 114.677C115.294 114.95 115.383 115.253 115.383 115.587H114.385C114.385 115.346 114.279 115.12 114.067 114.909C113.858 114.693 113.556 114.585 113.161 114.585C112.884 114.585 112.659 114.629 112.487 114.715C112.318 114.797 112.194 114.903 112.115 115.032C112.039 115.162 112.001 115.298 112.001 115.442C112.001 115.585 112.037 115.709 112.109 115.813C112.181 115.917 112.312 116.011 112.503 116.093C112.697 116.176 112.978 116.258 113.344 116.341C113.822 116.449 114.216 116.578 114.525 116.729C114.834 116.879 115.064 117.064 115.215 117.283C115.366 117.502 115.442 117.768 115.442 118.08C115.442 118.421 115.348 118.723 115.161 118.985C114.975 119.243 114.712 119.446 114.374 119.593C114.036 119.737 113.641 119.808 113.188 119.808C112.674 119.808 112.239 119.717 111.883 119.534C111.527 119.351 111.257 119.114 111.074 118.823C110.891 118.532 110.799 118.225 110.799 117.902H111.802C111.816 118.175 111.895 118.392 112.039 118.554C112.183 118.712 112.359 118.825 112.568 118.893C112.776 118.958 112.983 118.99 113.188 118.99C113.461 118.99 113.689 118.954 113.873 118.882C114.06 118.811 114.202 118.712 114.299 118.586C114.396 118.461 114.444 118.317 114.444 118.155Z" fill="#FF6600"/>
<path d="M154 89.7911C154 89.7911 151.639 88.99 147.557 87.4919C145.538 86.667 142.981 86.022 140.131 85.0961C137.301 84.1315 133.988 83.3631 130.422 82.4194C129.532 82.1875 128.622 81.9497 127.695 81.7089C126.753 81.5172 125.794 81.324 124.819 81.1263C122.877 80.7161 120.869 80.2911 118.806 79.8571C116.737 79.4484 114.584 79.1749 112.401 78.8152C110.212 78.4853 107.996 78.0602 105.699 77.8625C103.419 77.601 101.1 77.3364 98.7511 77.0674C96.3994 76.8489 94.0045 76.7494 91.6022 76.5591C90.3996 76.4774 89.1954 76.3941 87.9824 76.3065C86.7723 76.2559 85.5518 76.2574 84.3342 76.2188C81.8962 76.1638 79.4477 76.1058 76.9993 76.0493C74.5434 76.1073 72.086 76.1638 69.639 76.2217C68.4081 76.2589 67.1652 76.2619 65.9492 76.3154C64.748 76.4001 63.5498 76.4818 62.3561 76.568C59.9672 76.7568 57.5976 76.8579 55.2519 77.0734C52.9031 77.3439 50.5827 77.6099 48.3009 77.87C46.0073 78.0632 43.7895 78.4957 41.603 78.8242C39.4195 79.1838 37.2657 79.4573 35.1953 79.8645C33.1309 80.3015 31.126 80.725 29.1836 81.1338C28.2072 81.3314 27.2501 81.5261 26.3079 81.7179C25.3806 81.9586 24.4712 82.1935 23.5797 82.4268C20.0134 83.3691 16.7031 84.1375 13.8602 85.105C11.0025 86.0339 8.43788 86.6849 6.43446 87.5008C2.36957 88.9871 0 89.7926 0 89.7926C0 89.7926 2.15971 88.5769 6.02367 86.5348C7.92736 85.4498 10.3758 84.4377 13.1622 83.2071C13.8632 82.9024 14.5836 82.5858 15.3263 82.2618C15.6984 82.0998 16.0765 81.9348 16.4575 81.7684C16.8475 81.6227 17.2419 81.4786 17.6438 81.3299C19.2573 80.7548 20.9496 80.1499 22.7178 79.5182C23.6049 79.2031 24.5084 78.8821 25.4312 78.5581C26.3704 78.2802 27.323 77.9993 28.295 77.7139C30.2463 77.164 32.2661 76.5963 34.3425 76.0151C36.4263 75.4682 38.6008 75.0506 40.8112 74.5438C43.023 74.0489 45.2883 73.5525 47.6192 73.2359C49.9471 72.8851 52.3137 72.524 54.7116 72.1643C57.1228 71.8552 59.5891 71.6813 62.0674 71.4524C63.3057 71.3424 64.553 71.2339 65.8004 71.1254C67.0417 71.0407 68.2667 71.0318 69.5021 70.9872C71.9952 70.9159 74.4972 70.8415 77.0007 70.7702C79.5132 70.8445 82.0242 70.9173 84.5262 70.9902C85.7765 71.0318 87.0268 71.0481 88.2666 71.1314C89.508 71.2399 90.7464 71.3484 91.9773 71.4583C94.4377 71.6872 96.8876 71.8641 99.2914 72.1702C101.688 72.5314 104.054 72.8896 106.384 73.2433C108.715 73.5569 110.979 74.0593 113.192 74.5542C115.398 75.0595 117.572 75.4757 119.662 76.0226C121.734 76.6067 123.754 77.1714 125.708 77.7228C126.678 78.0082 127.633 78.2906 128.57 78.5655C129.493 78.8925 130.4 79.2135 131.284 79.5257C133.053 80.1588 134.744 80.7622 136.356 81.3374C136.758 81.4875 137.153 81.6302 137.545 81.7758C137.926 81.9423 138.308 82.1073 138.68 82.2707C139.427 82.5962 140.147 82.9128 140.85 83.219C143.645 84.4496 146.098 85.4662 147.988 86.5422C151.831 88.5724 154 89.7911 154 89.7911Z" fill="#FF6600"/>
<path d="M48.2019 75.5904V46.197L76.6844 25.4238L105.167 46.197V75.5904H114.449V41.4901L76.6844 13.947L38.9201 41.4901V75.5904H48.2019Z" fill="white"/>
<path d="M76.6833 0L26.7734 35.8318V79.0606H32.0766V38.5457L76.6833 6.52163L121.291 38.5457V79.0606H126.593V35.8318L76.6833 0Z" fill="#FF6600"/>
<path d="M56.9616 73.2225V50.9125L76.6847 36.7501L96.4079 50.9125V73.2225H99.0602V49.5541L76.6847 33.4893L54.3092 49.5541V73.2225H56.9616Z" fill="#FF6600"/>
</svg>
