<svg width="153" height="55" viewBox="0 0 153 55" fill="none" xmlns="http://www.w3.org/2000/svg">
<mask id="mask0_127_21573" style="mask-type:luminance" maskUnits="userSpaceOnUse" x="1" y="0" width="152" height="55">
<path d="M152.001 0H1.60083V54.144H152.001V0Z" fill="white"/>
</mask>
<g mask="url(#mask0_127_21573)">
<path d="M63.2493 19.2883H66.4918V36.7475H63.2493V19.2883Z" fill="#FF6600"/>
<path d="M77.2247 23.2791C78.9039 23.2791 80.2508 23.7696 81.2652 24.7506C82.2797 25.7317 82.7865 27.1866 82.7865 29.1154V36.7475H79.6687V29.5146C79.6687 28.3505 79.3942 27.4776 78.846 26.8956C78.2971 26.2971 77.5157 25.9977 76.5015 25.9977C75.354 25.9977 74.4477 26.3469 73.7827 27.0453C73.1176 27.7271 72.7848 28.7165 72.7848 30.0133V36.7475H69.6672V23.4287H72.6353V25.1497C73.1508 24.5344 73.7994 24.0689 74.5809 23.753C75.3625 23.437 76.2437 23.2791 77.2247 23.2791Z" fill="#FF6600"/>
<path d="M97.722 23.4287L92.0098 36.7475H88.7928L83.0813 23.4287H86.3232L90.4637 33.3056L94.7291 23.4287H97.722Z" fill="#FF6600"/>
<path d="M110.58 30.1629C110.58 30.3793 110.564 30.6866 110.53 31.0859H100.079C100.263 32.0668 100.736 32.8484 101.501 33.4305C102.283 33.9959 103.247 34.2785 104.394 34.2785C105.858 34.2785 107.063 33.7961 108.011 32.8318L109.682 34.7523C109.084 35.4674 108.327 36.0077 107.413 36.3734C106.497 36.7394 105.467 36.9222 104.32 36.9222C102.856 36.9222 101.568 36.6312 100.454 36.0494C99.34 35.4674 98.4752 34.6607 97.8601 33.6299C97.2608 32.5824 96.9622 31.4017 96.9622 30.0883C96.9622 28.7911 97.2532 27.6273 97.8353 26.5963C98.4331 25.5487 99.2566 24.734 100.304 24.152C101.352 23.5701 102.532 23.2791 103.846 23.2791C105.142 23.2791 106.298 23.5701 107.313 24.152C108.344 24.7174 109.141 25.5238 109.707 26.5714C110.289 27.6023 110.58 28.7996 110.58 30.1629ZM103.846 25.7733C102.848 25.7733 102 26.0725 101.302 26.6712C100.62 27.2531 100.204 28.0347 100.054 29.0157H107.612C107.479 28.0513 107.071 27.2698 106.39 26.6712C105.708 26.0725 104.86 25.7733 103.846 25.7733Z" fill="#FF6600"/>
<path d="M115.295 25.3741C116.193 23.9774 117.773 23.5284 120.035 23.5284V26.0227C119.768 25.9727 119.528 25.9478 119.311 25.9478C118.097 25.9478 117.15 26.5298 116.468 27.2448C115.787 27.9431 115.445 28.9573 115.445 30.2877V36.7475H112.327V23.4287H115.295V25.3741Z" fill="#FF6600"/>
<path d="M130.551 36.0243C130.185 36.3235 129.737 36.5481 129.205 36.6977C128.689 36.8476 128.14 36.9222 127.558 36.9222C126.095 36.9222 124.965 36.5399 124.166 35.775C123.368 35.0101 122.969 33.8959 122.969 32.4328V26.0226H120.775V23.5285H122.969V20.4856H126.087V23.5285H129.653V26.0226H126.087V32.3579C126.087 33.0065 126.245 33.505 126.56 33.8544C126.876 34.1869 127.334 34.3534 127.932 34.3534C128.631 34.3534 129.213 34.1703 129.678 33.8046L130.551 36.0243Z" fill="#FF6600"/>
<path fill-rule="evenodd" clip-rule="evenodd" d="M55.0954 28.0695C55.0954 36.9031 47.9346 44.0638 39.101 44.0638C30.2677 44.0638 23.1067 36.9031 23.1067 28.0695C23.1067 19.2361 30.2677 12.0752 39.101 12.0752C47.9346 12.0752 55.0954 19.2361 55.0954 28.0695ZM50.0687 28.0695C50.0687 34.1266 45.1585 39.0369 39.1014 39.0369C38.6814 39.0369 38.2669 39.0134 37.8592 38.9676C43.3713 38.3884 47.6671 33.7262 47.6671 28.0604C47.6671 22.4233 43.4139 17.7794 37.9416 17.1626C38.3227 17.1225 38.7097 17.102 39.1014 17.102C45.1585 17.102 50.0687 22.0123 50.0687 28.0695ZM35.5594 35.7948C39.1741 35.1563 41.9236 31.9405 41.9236 28.0695C41.9236 24.1984 39.1741 20.9826 35.5594 20.3443C35.9968 20.2686 36.4467 20.2291 36.9057 20.2291C41.2358 20.2291 44.7461 23.7394 44.7461 28.0695C44.7461 32.3996 41.2358 35.9098 36.9057 35.9098C36.4467 35.9098 35.9968 35.8704 35.5594 35.7948Z" fill="#FF6600"/>
</g>
</svg>
