<svg width="129" height="122" viewBox="0 0 129 122" fill="none" xmlns="http://www.w3.org/2000/svg">
<path fill-rule="evenodd" clip-rule="evenodd" d="M27.8723 75.2468C38.1181 52.2526 77.3002 36.4097 108.678 29.2583C75.6593 37.7685 49.2443 59.2801 65.4535 75.2468H27.8723Z" fill="#0C0A0A"/>
<path fill-rule="evenodd" clip-rule="evenodd" d="M59.6915 44.1149V22.9935C45.1913 30.2001 40.3158 38.0213 40.3158 52.2016V56.4061C44.3933 53.0881 48.9943 50.0286 53.9115 47.2254V38.7124C53.9115 38.1134 54.4654 37.6241 55.1426 37.6241C55.8197 37.6241 56.3736 38.1141 56.3736 38.7124V45.8574C57.4663 45.2641 58.5733 44.6834 59.6915 44.1149Z" fill="#555555"/>
<path fill-rule="evenodd" clip-rule="evenodd" d="M68.9641 13.0092V39.7682C72.9271 38.054 76.9526 36.48 80.9548 35.0447V29.2075C80.9548 15.0272 76.4075 7.20593 62.8855 0V42.5367C64.0813 41.9632 65.2884 41.4024 66.5019 40.8551V13.0099C66.5019 12.4109 67.0558 11.9216 67.733 11.9216C68.4102 11.9209 68.9641 12.4102 68.9641 13.0092Z" fill="#555555"/>
<path fill-rule="evenodd" clip-rule="evenodd" d="M75.8181 46.4311C72.1112 49.1529 68.5204 52.4113 66.0462 56.0918C64.1443 58.9198 62.818 62.1535 63.0573 65.4871C63.2863 68.6804 64.9128 71.4291 67.3013 73.7813L68.7718 75.23L80.9554 75.1939V43.0012C79.1688 44.0888 77.4503 45.2323 75.8181 46.4311Z" fill="#555555"/>
<path d="M0.200195 97.8369V96.3422H1.38921V90.3116H0.200195V88.8169H4.85284C5.40427 88.8169 5.88246 88.9114 6.28741 89.1003C6.70098 89.2808 7.01977 89.5428 7.24379 89.8864C7.47642 90.2214 7.59274 90.6252 7.59274 91.0977V91.2265C7.59274 91.6389 7.51519 91.9782 7.3601 92.2445C7.20501 92.5022 7.01977 92.7041 6.80437 92.8501C6.59759 92.9876 6.39942 93.0864 6.20987 93.1465V93.3784C6.39942 93.43 6.6062 93.5288 6.83022 93.6748C7.05423 93.8123 7.24379 94.0142 7.39888 94.2805C7.56258 94.5468 7.64443 94.8947 7.64443 95.3242V95.4531C7.64443 95.9513 7.52812 96.3808 7.29548 96.7417C7.06285 97.0939 6.73975 97.3645 6.32618 97.5535C5.92123 97.7425 5.44735 97.8369 4.90454 97.8369H0.200195ZM3.09518 96.2907H4.69775C5.06824 96.2907 5.3655 96.2005 5.58951 96.0201C5.82215 95.8396 5.93846 95.5819 5.93846 95.2469V95.118C5.93846 94.783 5.82645 94.5253 5.60244 94.3449C5.37842 94.1645 5.07686 94.0743 4.69775 94.0743H3.09518V96.2907ZM3.09518 92.528H4.67191C5.02516 92.528 5.3138 92.4378 5.53782 92.2574C5.77045 92.077 5.88677 91.8279 5.88677 91.51V91.3811C5.88677 91.0547 5.77476 90.8056 5.55074 90.6338C5.32672 90.4534 5.03378 90.3632 4.67191 90.3632H3.09518V92.528Z" fill="#0C0A0A"/>
<path d="M11.7938 97.94C11.2941 97.94 10.8547 97.8284 10.4756 97.605C10.1051 97.3731 9.81648 97.0552 9.60969 96.6515C9.40291 96.2477 9.29951 95.7838 9.29951 95.2598V91.4456H10.9279V95.1309C10.9279 95.612 11.0443 95.9728 11.2769 96.2133C11.5181 96.4539 11.8585 96.5741 12.2979 96.5741C12.7976 96.5741 13.1853 96.4109 13.461 96.0845C13.7368 95.7494 13.8746 95.2856 13.8746 94.6928V91.4456H15.503V97.8369H13.9005V96.9994H13.6678C13.5644 97.2141 13.3706 97.4246 13.0863 97.6308C12.8019 97.8369 12.3711 97.94 11.7938 97.94Z" fill="#0C0A0A"/>
<path d="M17.5736 97.8369V91.4456H19.202V97.8369H17.5736ZM18.3878 90.6982C18.0949 90.6982 17.845 90.6037 17.6382 90.4147C17.4401 90.2257 17.341 89.9766 17.341 89.6673C17.341 89.3581 17.4401 89.1089 17.6382 88.92C17.845 88.731 18.0949 88.6365 18.3878 88.6365C18.6894 88.6365 18.9393 88.731 19.1374 88.92C19.3356 89.1089 19.4347 89.3581 19.4347 89.6673C19.4347 89.9766 19.3356 90.2257 19.1374 90.4147C18.9393 90.6037 18.6894 90.6982 18.3878 90.6982Z" fill="#0C0A0A"/>
<path d="M21.265 97.8369V88.8169H22.8935V97.8369H21.265Z" fill="#0C0A0A"/>
<path d="M27.5413 98.0174C27.0329 98.0174 26.5547 97.8928 26.1067 97.6437C25.6673 97.386 25.314 97.0123 25.0469 96.5226C24.7798 96.0329 24.6463 95.4402 24.6463 94.7444V94.5382C24.6463 93.8423 24.7798 93.2496 25.0469 92.7599C25.314 92.2703 25.6673 91.9009 26.1067 91.6517C26.5461 91.394 27.0243 91.2652 27.5413 91.2652C27.929 91.2652 28.2521 91.3124 28.5106 91.4069C28.7777 91.4928 28.9931 91.6045 29.1568 91.742C29.3205 91.8794 29.4454 92.0254 29.5316 92.1801H29.7642V88.8169H31.3926V97.8369H29.79V97.0638H29.5574C29.4109 97.3043 29.1826 97.5234 28.8724 97.721C28.5709 97.9186 28.1272 98.0174 27.5413 98.0174ZM28.0324 96.5999C28.5321 96.5999 28.95 96.441 29.286 96.1231C29.622 95.7967 29.79 95.3242 29.79 94.7057V94.5768C29.79 93.9583 29.622 93.4901 29.286 93.1723C28.9586 92.8458 28.5407 92.6826 28.0324 92.6826C27.5326 92.6826 27.1148 92.8458 26.7787 93.1723C26.4427 93.4901 26.2747 93.9583 26.2747 94.5768V94.7057C26.2747 95.3242 26.4427 95.7967 26.7787 96.1231C27.1148 96.441 27.5326 96.5999 28.0324 96.5999Z" fill="#0C0A0A"/>
<path d="M35.4468 98.0174C34.9902 98.0174 34.5809 97.94 34.219 97.7854C33.8572 97.6222 33.5685 97.3902 33.3531 97.0896C33.1463 96.7803 33.043 96.4066 33.043 95.9685C33.043 95.5304 33.1463 95.1653 33.3531 94.8732C33.5685 94.5725 33.8615 94.3492 34.232 94.2031C34.6111 94.0485 35.0419 93.9712 35.5244 93.9712H37.282V93.6104C37.282 93.3097 37.1873 93.0649 36.9977 92.8759C36.8082 92.6783 36.5066 92.5795 36.093 92.5795C35.6881 92.5795 35.3865 92.674 35.1884 92.863C34.9902 93.0434 34.8609 93.2797 34.8006 93.5717L33.3014 93.0692C33.4048 92.7427 33.5685 92.4464 33.7926 92.1801C34.0252 91.9052 34.3311 91.6861 34.7102 91.5229C35.0979 91.3511 35.5675 91.2652 36.1189 91.2652C36.9632 91.2652 37.631 91.4756 38.1221 91.8966C38.6132 92.3175 38.8588 92.9274 38.8588 93.7264V96.1103C38.8588 96.368 38.9794 96.4968 39.2206 96.4968H39.7376V97.8369H38.652C38.3332 97.8369 38.0704 97.7596 37.8636 97.605C37.6568 97.4504 37.5534 97.2442 37.5534 96.9865V96.9736H37.3079C37.2734 97.0767 37.1959 97.2141 37.0753 97.3859C36.9546 97.5492 36.7651 97.6952 36.5066 97.8241C36.2481 97.9529 35.8949 98.0174 35.4468 98.0174ZM35.7312 96.703C36.1878 96.703 36.5583 96.5784 36.8426 96.3293C37.1356 96.0716 37.282 95.7323 37.282 95.3113V95.1825H35.6407C35.3391 95.1825 35.1022 95.2469 34.9299 95.3758C34.7575 95.5046 34.6714 95.685 34.6714 95.917C34.6714 96.1489 34.7619 96.3379 34.9428 96.4839C35.1237 96.63 35.3865 96.703 35.7312 96.703Z" fill="#0C0A0A"/>
<path d="M48.1128 98.0174C46.9927 98.0174 46.1052 97.7081 45.4504 97.0896C44.7956 96.4625 44.4682 95.569 44.4682 94.4093V92.2445C44.4682 91.0848 44.7956 90.1956 45.4504 89.5771C46.1052 88.95 46.9927 88.6365 48.1128 88.6365C49.2242 88.6365 50.0815 88.9414 50.6847 89.5514C51.2964 90.1527 51.6023 90.9817 51.6023 92.0383V92.1156H49.9221V91.9868C49.9221 91.4542 49.7714 91.016 49.4698 90.6724C49.1769 90.3288 48.7245 90.157 48.1128 90.157C47.5097 90.157 47.0358 90.3417 46.6911 90.7111C46.3465 91.0805 46.1742 91.583 46.1742 92.2187V94.4351C46.1742 95.0622 46.3465 95.5647 46.6911 95.9427C47.0358 96.3121 47.5097 96.4968 48.1128 96.4968C48.7245 96.4968 49.1769 96.325 49.4698 95.9814C49.7714 95.6292 49.9221 95.1911 49.9221 94.667V94.4351H51.6023V94.6155C51.6023 95.6721 51.2964 96.5054 50.6847 97.1153C50.0815 97.7167 49.2242 98.0174 48.1128 98.0174Z" fill="#0C0A0A"/>
<path d="M56.3525 98.0174C55.715 98.0174 55.142 97.8885 54.6336 97.6308C54.1253 97.3731 53.7247 96.9994 53.4317 96.5097C53.1388 96.0201 52.9923 95.4316 52.9923 94.7444V94.5382C52.9923 93.8509 53.1388 93.2625 53.4317 92.7728C53.7247 92.2832 54.1253 91.9095 54.6336 91.6517C55.142 91.394 55.715 91.2652 56.3525 91.2652C56.9901 91.2652 57.5631 91.394 58.0714 91.6517C58.5798 91.9095 58.9804 92.2832 59.2734 92.7728C59.5663 93.2625 59.7128 93.8509 59.7128 94.5382V94.7444C59.7128 95.4316 59.5663 96.0201 59.2734 96.5097C58.9804 96.9994 58.5798 97.3731 58.0714 97.6308C57.5631 97.8885 56.9901 98.0174 56.3525 98.0174ZM56.3525 96.5741C56.8523 96.5741 57.2658 96.4152 57.5932 96.0974C57.9207 95.7709 58.0844 95.307 58.0844 94.7057V94.5768C58.0844 93.9755 57.9207 93.5159 57.5932 93.198C57.2745 92.8716 56.8609 92.7084 56.3525 92.7084C55.8528 92.7084 55.4392 92.8716 55.1118 93.198C54.7844 93.5159 54.6207 93.9755 54.6207 94.5768V94.7057C54.6207 95.307 54.7844 95.7709 55.1118 96.0974C55.4392 96.4152 55.8528 96.5741 56.3525 96.5741Z" fill="#0C0A0A"/>
<path d="M61.4744 97.8369V91.4456H63.077V92.2831H63.3096C63.413 92.0598 63.6069 91.8493 63.8912 91.6517C64.1755 91.4456 64.6063 91.3425 65.1836 91.3425C65.6833 91.3425 66.1184 91.4585 66.4889 91.6904C66.868 91.9138 67.161 92.2273 67.3677 92.6311C67.5745 93.0262 67.6779 93.4901 67.6779 94.0227V97.8369H66.0495V94.1516C66.0495 93.6705 65.9289 93.3097 65.6876 93.0692C65.455 92.8287 65.119 92.7084 64.6796 92.7084C64.1798 92.7084 63.7921 92.8759 63.5164 93.2109C63.2407 93.5374 63.1028 93.997 63.1028 94.5897V97.8369H61.4744Z" fill="#0C0A0A"/>
<path d="M72.3591 98.0174C71.5234 98.0174 70.8384 97.8369 70.3042 97.4761C69.77 97.1153 69.4469 96.5999 69.3349 95.9299L70.8341 95.5433C70.8944 95.8439 70.9935 96.0802 71.1314 96.252C71.2778 96.4238 71.4545 96.5484 71.6612 96.6257C71.8766 96.6944 72.1093 96.7288 72.3591 96.7288C72.7383 96.7288 73.0183 96.6643 73.1992 96.5355C73.3801 96.398 73.4706 96.2305 73.4706 96.0329C73.4706 95.8354 73.3845 95.685 73.2121 95.5819C73.0398 95.4703 72.7641 95.38 72.385 95.3113L72.0231 95.2469C71.5751 95.161 71.1658 95.045 70.7953 94.899C70.4248 94.7444 70.1276 94.5339 69.9036 94.2676C69.6796 94.0013 69.5676 93.6576 69.5676 93.2367C69.5676 92.601 69.8002 92.1156 70.2654 91.7806C70.7307 91.437 71.3425 91.2652 72.1007 91.2652C72.8158 91.2652 73.4103 91.4241 73.8842 91.742C74.3581 92.0598 74.6682 92.4764 74.8147 92.9919L73.3026 93.4558C73.2337 93.1293 73.0915 92.8974 72.8761 92.7599C72.6693 92.6225 72.4108 92.5538 72.1007 92.5538C71.7905 92.5538 71.5536 92.6096 71.3898 92.7213C71.2261 92.8244 71.1443 92.9704 71.1443 93.1594C71.1443 93.3656 71.2304 93.5202 71.4028 93.6233C71.5751 93.7178 71.8077 93.7908 72.1007 93.8423L72.4625 93.9068C72.945 93.9927 73.3801 94.1086 73.7679 94.2547C74.1642 94.3921 74.4744 94.594 74.6984 94.8603C74.931 95.118 75.0473 95.4703 75.0473 95.917C75.0473 96.587 74.8018 97.1067 74.3107 97.4761C73.8282 97.8369 73.1777 98.0174 72.3591 98.0174Z" fill="#0C0A0A"/>
<path d="M79.0622 97.8369C78.64 97.8369 78.2953 97.7081 78.0283 97.4504C77.7698 97.1841 77.6405 96.8319 77.6405 96.3937V92.7857H76.0379V91.4456H77.6405V89.4612H79.269V91.4456H81.0266V92.7857H79.269V96.1103C79.269 96.368 79.3896 96.4968 79.6308 96.4968H80.8715V97.8369H79.0622Z" fill="#0C0A0A"/>
<path d="M82.7591 97.8369V91.4456H84.3617V92.1672H84.5944C84.6891 91.9095 84.8442 91.7205 85.0596 91.6002C85.2836 91.4799 85.5421 91.4198 85.8351 91.4198H86.6105V92.863H85.8092C85.3957 92.863 85.0553 92.9747 84.7882 93.198C84.5211 93.4128 84.3876 93.7478 84.3876 94.2031V97.8369H82.7591Z" fill="#0C0A0A"/>
<path d="M90.5844 97.94C90.0847 97.94 89.6453 97.8284 89.2662 97.605C88.8957 97.3731 88.6071 97.0552 88.4003 96.6515C88.1935 96.2477 88.0901 95.7838 88.0901 95.2598V91.4456H89.7185V95.1309C89.7185 95.612 89.8348 95.9728 90.0675 96.2133C90.3087 96.4539 90.6491 96.5741 91.0885 96.5741C91.5882 96.5741 91.9759 96.4109 92.2516 96.0845C92.5274 95.7494 92.6652 95.2856 92.6652 94.6928V91.4456H94.2936V97.8369H92.6911V96.9994H92.4584C92.355 97.2141 92.1612 97.4246 91.8768 97.6308C91.5925 97.8369 91.1617 97.94 90.5844 97.94Z" fill="#0C0A0A"/>
<path d="M99.3755 98.0174C98.7551 98.0174 98.1908 97.8885 97.6824 97.6308C97.1827 97.3731 96.7864 96.9994 96.4934 96.5097C96.2005 96.0201 96.054 95.4273 96.054 94.7315V94.5511C96.054 93.8552 96.2005 93.2625 96.4934 92.7728C96.7864 92.2832 97.1827 91.9095 97.6824 91.6517C98.1908 91.394 98.7551 91.2652 99.3755 91.2652C99.9872 91.2652 100.513 91.3726 100.952 91.5873C101.392 91.8021 101.745 92.0985 102.012 92.4764C102.288 92.8458 102.469 93.2668 102.555 93.7393L100.978 94.0743C100.944 93.8166 100.866 93.5846 100.745 93.3784C100.625 93.1723 100.452 93.0091 100.228 92.8888C100.013 92.7685 99.7417 92.7084 99.4143 92.7084C99.0869 92.7084 98.7896 92.7814 98.5225 92.9275C98.264 93.0649 98.0572 93.2754 97.9022 93.5588C97.7557 93.8337 97.6824 94.1731 97.6824 94.5768V94.7057C97.6824 95.1095 97.7557 95.4531 97.9022 95.7366C98.0572 96.0115 98.264 96.2219 98.5225 96.368C98.7896 96.5054 99.0869 96.5741 99.4143 96.5741C99.9054 96.5741 100.276 96.4496 100.526 96.2004C100.784 95.9427 100.948 95.6077 101.017 95.1954L102.594 95.569C102.482 96.0243 102.288 96.441 102.012 96.819C101.745 97.1884 101.392 97.4804 100.952 97.6952C100.513 97.91 99.9872 98.0174 99.3755 98.0174Z" fill="#0C0A0A"/>
<path d="M106.436 97.8369C106.014 97.8369 105.67 97.7081 105.402 97.4504C105.144 97.1841 105.015 96.8319 105.015 96.3937V92.7857H103.412V91.4456H105.015V89.4612H106.643V91.4456H108.401V92.7857H106.643V96.1103C106.643 96.368 106.764 96.4968 107.005 96.4968H108.246V97.8369H106.436Z" fill="#0C0A0A"/>
<path d="M110.133 97.8369V91.4456H111.762V97.8369H110.133ZM110.948 90.6982C110.655 90.6982 110.405 90.6037 110.198 90.4147C110 90.2257 109.901 89.9766 109.901 89.6673C109.901 89.3581 110 89.1089 110.198 88.92C110.405 88.731 110.655 88.6365 110.948 88.6365C111.249 88.6365 111.499 88.731 111.697 88.92C111.895 89.1089 111.994 89.3581 111.994 89.6673C111.994 89.9766 111.895 90.2257 111.697 90.4147C111.499 90.6037 111.249 90.6982 110.948 90.6982Z" fill="#0C0A0A"/>
<path d="M116.875 98.0174C116.237 98.0174 115.664 97.8885 115.156 97.6308C114.648 97.3731 114.247 96.9994 113.954 96.5097C113.661 96.0201 113.515 95.4316 113.515 94.7444V94.5382C113.515 93.8509 113.661 93.2625 113.954 92.7728C114.247 92.2832 114.648 91.9095 115.156 91.6517C115.664 91.394 116.237 91.2652 116.875 91.2652C117.512 91.2652 118.085 91.394 118.594 91.6517C119.102 91.9095 119.503 92.2832 119.796 92.7728C120.089 93.2625 120.235 93.8509 120.235 94.5382V94.7444C120.235 95.4316 120.089 96.0201 119.796 96.5097C119.503 96.9994 119.102 97.3731 118.594 97.6308C118.085 97.8885 117.512 98.0174 116.875 98.0174ZM116.875 96.5741C117.375 96.5741 117.788 96.4152 118.116 96.0974C118.443 95.7709 118.607 95.307 118.607 94.7057V94.5768C118.607 93.9755 118.443 93.5159 118.116 93.198C117.797 92.8716 117.383 92.7084 116.875 92.7084C116.375 92.7084 115.962 92.8716 115.634 93.198C115.307 93.5159 115.143 93.9755 115.143 94.5768V94.7057C115.143 95.307 115.307 95.7709 115.634 96.0974C115.962 96.4152 116.375 96.5741 116.875 96.5741Z" fill="#0C0A0A"/>
<path d="M121.997 97.8369V91.4456H123.599V92.2831H123.832C123.935 92.0598 124.129 91.8493 124.413 91.6517C124.698 91.4456 125.129 91.3425 125.706 91.3425C126.206 91.3425 126.641 91.4585 127.011 91.6904C127.39 91.9138 127.683 92.2273 127.89 92.6311C128.097 93.0262 128.2 93.4901 128.2 94.0227V97.8369H126.572V94.1516C126.572 93.6705 126.451 93.3097 126.21 93.0692C125.977 92.8287 125.641 92.7084 125.202 92.7084C124.702 92.7084 124.314 92.8759 124.039 93.2109C123.763 93.5374 123.625 93.997 123.625 94.5897V97.8369H121.997Z" fill="#0C0A0A"/>
<path d="M25.3379 118.326V119.313H20.7438V118.326H25.3379ZM20.9836 110.152V119.313H19.7656V110.152H20.9836Z" fill="#555555"/>
<path d="M27.8242 112.506V119.313H26.6505V112.506H27.8242ZM26.5621 110.7C26.5621 110.511 26.6189 110.352 26.7325 110.222C26.8503 110.092 27.0228 110.026 27.25 110.026C27.4729 110.026 27.6433 110.092 27.7611 110.222C27.8831 110.352 27.9441 110.511 27.9441 110.7C27.9441 110.88 27.8831 111.035 27.7611 111.165C27.6433 111.291 27.4729 111.354 27.25 111.354C27.0228 111.354 26.8503 111.291 26.7325 111.165C26.6189 111.035 26.5621 110.88 26.5621 110.7Z" fill="#555555"/>
<path d="M31.7746 118.263L33.6426 112.506H34.8353L32.3805 119.313H31.5979L31.7746 118.263ZM30.2159 112.506L32.1407 118.294L32.2732 119.313H31.4907L29.0169 112.506H30.2159Z" fill="#555555"/>
<path d="M37.227 112.506V119.313H36.0532V112.506H37.227ZM35.9648 110.7C35.9648 110.511 36.0216 110.352 36.1352 110.222C36.253 110.092 36.4255 110.026 36.6527 110.026C36.8757 110.026 37.0461 110.092 37.1639 110.222C37.2859 110.352 37.3469 110.511 37.3469 110.7C37.3469 110.88 37.2859 111.035 37.1639 111.165C37.0461 111.291 36.8757 111.354 36.6527 111.354C36.4255 111.354 36.253 111.291 36.1352 111.165C36.0216 111.035 35.9648 110.88 35.9648 110.7Z" fill="#555555"/>
<path d="M40.2687 113.959V119.313H39.1012V112.506H40.2055L40.2687 113.959ZM39.991 115.651L39.5051 115.633C39.5135 115.008 39.6334 114.452 39.8648 113.965C40.0962 113.474 40.418 113.089 40.8303 112.808C41.2468 112.522 41.7306 112.38 42.2817 112.38C42.7319 112.38 43.1189 112.461 43.4429 112.625C43.771 112.789 44.0234 113.053 44.2001 113.418C44.381 113.779 44.4715 114.257 44.4715 114.852V119.313H43.2977V114.84C43.2977 114.483 43.2451 114.198 43.14 113.984C43.0348 113.766 42.8812 113.609 42.6793 113.512C42.4773 113.412 42.2291 113.361 41.9346 113.361C41.6443 113.361 41.3793 113.422 41.1395 113.544C40.9039 113.665 40.6999 113.833 40.5274 114.047C40.3591 114.261 40.2266 114.506 40.1298 114.783C40.0373 115.056 39.991 115.345 39.991 115.651Z" fill="#555555"/>
<path d="M50.6684 112.506H51.7286V119.169C51.7286 119.768 51.6066 120.28 51.3626 120.704C51.1186 121.128 50.7778 121.448 50.3403 121.667C49.907 121.889 49.4063 122 48.8384 122C48.6028 122 48.3251 121.962 48.0054 121.887C47.6899 121.815 47.3785 121.692 47.0714 121.516C46.7685 121.344 46.514 121.111 46.3078 120.817L46.92 120.125C47.2061 120.469 47.5048 120.708 47.8161 120.842C48.1316 120.977 48.4429 121.044 48.75 121.044C49.3012 121.044 49.7408 120.888 50.0689 120.578C50.3971 120.272 50.5612 119.821 50.5612 119.225V114.003L50.6684 112.506ZM45.9671 115.985V115.853C45.9671 115.161 46.0765 114.555 46.2952 114.034C46.514 113.51 46.8232 113.103 47.2229 112.814C47.6268 112.524 48.1064 112.38 48.6617 112.38C49.0908 112.38 49.4652 112.455 49.785 112.606C50.1089 112.753 50.3824 112.969 50.6053 113.254C50.8325 113.535 51.0113 113.875 51.1417 114.274C51.2722 114.672 51.3626 115.123 51.4131 115.626V116.205C51.35 116.868 51.2112 117.443 50.9966 117.929C50.782 118.412 50.4812 118.785 50.0942 119.049C49.7071 119.309 49.2254 119.439 48.6491 119.439C48.1022 119.439 47.6268 119.29 47.2229 118.992C46.8232 118.69 46.514 118.279 46.2952 117.759C46.0765 117.239 45.9671 116.648 45.9671 115.985ZM47.1345 115.853V115.985C47.1345 116.434 47.1955 116.847 47.3175 117.224C47.4438 117.598 47.6394 117.896 47.9044 118.118C48.1695 118.34 48.5123 118.451 48.933 118.451C49.3201 118.451 49.6398 118.37 49.8922 118.206C50.1447 118.042 50.3445 117.826 50.4917 117.558C50.6432 117.289 50.761 116.998 50.8451 116.683V115.167C50.7989 114.936 50.7273 114.714 50.6306 114.5C50.538 114.282 50.416 114.089 50.2646 113.921C50.1173 113.749 49.9343 113.613 49.7155 113.512C49.4968 113.412 49.2402 113.361 48.9457 113.361C48.5208 113.361 48.1737 113.474 47.9044 113.701C47.6394 113.927 47.4438 114.229 47.3175 114.607C47.1955 114.985 47.1345 115.4 47.1345 115.853Z" fill="#555555"/>
<path d="M62.0464 116.998C62.0464 116.713 61.9854 116.469 61.8634 116.268C61.7414 116.067 61.5226 115.884 61.2071 115.721C60.8915 115.557 60.4435 115.391 59.8629 115.224C59.2571 115.047 58.7312 114.84 58.2853 114.601C57.8393 114.362 57.4944 114.074 57.2504 113.739C57.0063 113.399 56.8843 112.992 56.8843 112.518C56.8843 112.044 57.0127 111.62 57.2693 111.247C57.5301 110.87 57.894 110.572 58.361 110.354C58.8322 110.136 59.3812 110.026 60.0081 110.026C60.698 110.026 61.2828 110.159 61.7624 110.423C62.2462 110.683 62.6143 111.025 62.8668 111.448C63.1192 111.868 63.2454 112.317 63.2454 112.795H62.0338C62.0338 112.451 61.9601 112.147 61.8129 111.883C61.6656 111.614 61.4427 111.404 61.144 111.253C60.8453 111.098 60.4666 111.021 60.0081 111.021C59.5747 111.021 59.2171 111.086 58.9353 111.216C58.6534 111.346 58.4431 111.522 58.3042 111.744C58.1696 111.966 58.1023 112.22 58.1023 112.506C58.1023 112.761 58.1759 112.988 58.3232 113.185C58.4746 113.382 58.7081 113.56 59.0236 113.72C59.3391 113.879 59.7493 114.028 60.2542 114.167C60.9483 114.364 61.5184 114.59 61.9643 114.846C62.4103 115.102 62.7384 115.404 62.9488 115.752C63.1633 116.1 63.2706 116.511 63.2706 116.985C63.2706 117.48 63.1381 117.912 62.8731 118.281C62.608 118.651 62.2357 118.936 61.7561 119.137C61.2765 119.339 60.7127 119.439 60.0649 119.439C59.64 119.439 59.2214 119.38 58.8091 119.263C58.401 119.146 58.0287 118.969 57.6921 118.734C57.3597 118.5 57.0926 118.21 56.8907 117.866C56.6929 117.518 56.5941 117.115 56.5941 116.658H57.8057C57.8057 116.973 57.8667 117.243 57.9887 117.47C58.1107 117.692 58.2769 117.877 58.4872 118.024C58.7018 118.17 58.9437 118.279 59.2129 118.351C59.4864 118.418 59.7704 118.451 60.0649 118.451C60.4898 118.451 60.8495 118.393 61.144 118.275C61.4385 118.158 61.6614 117.99 61.8129 117.772C61.9685 117.554 62.0464 117.296 62.0464 116.998Z" fill="#555555"/>
<path d="M64.3371 115.985V115.84C64.3371 115.182 64.4633 114.592 64.7157 114.072C64.9682 113.552 65.3258 113.141 65.7885 112.839C66.2513 112.533 66.8003 112.38 67.4356 112.38C68.0793 112.38 68.6325 112.533 69.0953 112.839C69.5622 113.141 69.922 113.552 70.1744 114.072C70.4268 114.592 70.553 115.182 70.553 115.84V115.985C70.553 116.639 70.4268 117.229 70.1744 117.753C69.922 118.273 69.5644 118.684 69.1016 118.986C68.6388 119.288 68.0877 119.439 67.4482 119.439C66.8087 119.439 66.2555 119.288 65.7885 118.986C65.3258 118.684 64.9682 118.273 64.7157 117.753C64.4633 117.229 64.3371 116.639 64.3371 115.985ZM65.5046 115.84V115.985C65.5046 116.434 65.5761 116.849 65.7191 117.231C65.8622 117.608 66.0767 117.912 66.3628 118.143C66.6531 118.37 67.0149 118.483 67.4482 118.483C67.8773 118.483 68.2349 118.37 68.521 118.143C68.8071 117.912 69.0216 117.608 69.1647 117.231C69.3077 116.849 69.3792 116.434 69.3792 115.985V115.84C69.3792 115.396 69.3056 114.985 69.1584 114.607C69.0153 114.225 68.8008 113.919 68.5147 113.688C68.2286 113.453 67.8689 113.336 67.4356 113.336C67.0065 113.336 66.6489 113.453 66.3628 113.688C66.0767 113.919 65.8622 114.225 65.7191 114.607C65.5761 114.985 65.5046 115.396 65.5046 115.84Z" fill="#555555"/>
<path d="M73.2855 109.649V119.313H72.1117V109.649H73.2855Z" fill="#555555"/>
<path d="M79.3373 117.74V112.506H80.5111V119.313H79.3941L79.3373 117.74ZM79.5582 116.306L80.0441 116.293C80.0441 116.897 79.9578 117.436 79.7854 117.91C79.6129 118.384 79.331 118.758 78.9397 119.03C78.5485 119.303 78.0268 119.439 77.3747 119.439C76.7058 119.439 76.1652 119.242 75.7529 118.848C75.3406 118.453 75.1345 117.803 75.1345 116.897V112.506H76.3019V116.91C76.3019 117.317 76.3608 117.633 76.4786 117.86C76.6006 118.082 76.7584 118.237 76.9519 118.326C77.1454 118.409 77.3474 118.451 77.5577 118.451C78.0542 118.451 78.4475 118.357 78.7378 118.168C79.0281 117.975 79.2363 117.717 79.3625 117.394C79.493 117.067 79.5582 116.704 79.5582 116.306Z" fill="#555555"/>
<path d="M85.1493 112.506V113.399H81.4577V112.506H85.1493ZM82.7071 110.851H83.8746V117.627C83.8746 117.858 83.9104 118.032 83.9819 118.149C84.0534 118.267 84.146 118.344 84.2595 118.382C84.3731 118.42 84.4951 118.439 84.6256 118.439C84.7223 118.439 84.8233 118.43 84.9285 118.414C85.0378 118.393 85.1199 118.376 85.1746 118.363L85.1809 119.313C85.0883 119.343 84.9663 119.37 84.8149 119.395C84.6676 119.425 84.4888 119.439 84.2785 119.439C83.9924 119.439 83.7295 119.383 83.4897 119.269C83.2499 119.156 83.0584 118.967 82.9154 118.703C82.7766 118.435 82.7071 118.074 82.7071 117.621V110.851Z" fill="#555555"/>
<path d="M87.7871 112.506V119.313H86.6134V112.506H87.7871ZM86.525 110.7C86.525 110.511 86.5818 110.352 86.6954 110.222C86.8132 110.092 86.9857 110.026 87.2129 110.026C87.4359 110.026 87.6062 110.092 87.724 110.222C87.846 110.352 87.907 110.511 87.907 110.7C87.907 110.88 87.846 111.035 87.724 111.165C87.6062 111.291 87.4359 111.354 87.2129 111.354C86.9857 111.354 86.8132 111.291 86.6954 111.165C86.5818 111.035 86.525 110.88 86.525 110.7Z" fill="#555555"/>
<path d="M89.3522 115.985V115.84C89.3522 115.182 89.4784 114.592 89.7308 114.072C89.9832 113.552 90.3408 113.141 90.8036 112.839C91.2664 112.533 91.8154 112.38 92.4507 112.38C93.0943 112.38 93.6476 112.533 94.1103 112.839C94.5773 113.141 94.937 113.552 95.1894 114.072C95.4419 114.592 95.5681 115.182 95.5681 115.84V115.985C95.5681 116.639 95.4419 117.229 95.1894 117.753C94.937 118.273 94.5794 118.684 94.1166 118.986C93.6539 119.288 93.1027 119.439 92.4633 119.439C91.8238 119.439 91.2706 119.288 90.8036 118.986C90.3408 118.684 89.9832 118.273 89.7308 117.753C89.4784 117.229 89.3522 116.639 89.3522 115.985ZM90.5196 115.84V115.985C90.5196 116.434 90.5911 116.849 90.7342 117.231C90.8772 117.608 91.0918 117.912 91.3779 118.143C91.6681 118.37 92.0299 118.483 92.4633 118.483C92.8924 118.483 93.25 118.37 93.5361 118.143C93.8221 117.912 94.0367 117.608 94.1797 117.231C94.3228 116.849 94.3943 116.434 94.3943 115.985V115.84C94.3943 115.396 94.3207 114.985 94.1734 114.607C94.0304 114.225 93.8158 113.919 93.5298 113.688C93.2437 113.453 92.884 113.336 92.4507 113.336C92.0215 113.336 91.6639 113.453 91.3779 113.688C91.0918 113.919 90.8772 114.225 90.7342 114.607C90.5911 114.985 90.5196 115.396 90.5196 115.84Z" fill="#555555"/>
<path d="M98.1996 113.959V119.313H97.0321V112.506H98.1365L98.1996 113.959ZM97.9219 115.651L97.436 115.633C97.4444 115.008 97.5643 114.452 97.7957 113.965C98.0271 113.474 98.3489 113.089 98.7612 112.808C99.1777 112.522 99.6615 112.38 100.213 112.38C100.663 112.38 101.05 112.461 101.374 112.625C101.702 112.789 101.954 113.053 102.131 113.418C102.312 113.779 102.402 114.257 102.402 114.852V119.313H101.229V114.84C101.229 114.483 101.176 114.198 101.071 113.984C100.966 113.766 100.812 113.609 100.61 113.512C100.408 113.412 100.16 113.361 99.8656 113.361C99.5753 113.361 99.3102 113.422 99.0704 113.544C98.8348 113.665 98.6308 113.833 98.4583 114.047C98.29 114.261 98.1575 114.506 98.0607 114.783C97.9682 115.056 97.9219 115.345 97.9219 115.651Z" fill="#555555"/>
<path d="M108.151 117.508C108.151 117.34 108.113 117.185 108.038 117.042C107.966 116.895 107.817 116.763 107.59 116.646C107.367 116.524 107.03 116.419 106.58 116.331C106.075 116.226 105.638 116.092 105.267 115.928C104.901 115.765 104.617 115.557 104.415 115.305C104.218 115.054 104.119 114.741 104.119 114.368C104.119 114.007 104.222 113.678 104.428 113.38C104.638 113.078 104.933 112.837 105.312 112.657C105.694 112.472 106.14 112.38 106.649 112.38C107.196 112.38 107.663 112.476 108.05 112.669C108.437 112.862 108.734 113.12 108.94 113.443C109.146 113.762 109.249 114.116 109.249 114.506H108.082C108.082 114.225 107.958 113.961 107.71 113.714C107.466 113.462 107.112 113.336 106.649 113.336C106.325 113.336 106.063 113.386 105.861 113.487C105.663 113.584 105.518 113.707 105.425 113.858C105.337 114.009 105.293 114.169 105.293 114.336C105.293 114.504 105.335 114.649 105.419 114.771C105.503 114.892 105.657 115.001 105.88 115.098C106.107 115.194 106.435 115.291 106.864 115.387C107.423 115.513 107.884 115.664 108.246 115.84C108.608 116.016 108.877 116.232 109.054 116.488C109.23 116.744 109.319 117.055 109.319 117.419C109.319 117.818 109.209 118.17 108.991 118.477C108.772 118.779 108.465 119.016 108.069 119.188C107.674 119.355 107.211 119.439 106.681 119.439C106.079 119.439 105.57 119.332 105.154 119.118C104.737 118.904 104.422 118.628 104.207 118.288C103.993 117.948 103.885 117.589 103.885 117.212H105.059C105.076 117.531 105.169 117.784 105.337 117.973C105.505 118.158 105.711 118.29 105.955 118.37C106.199 118.445 106.441 118.483 106.681 118.483C107.001 118.483 107.268 118.441 107.482 118.357C107.701 118.273 107.867 118.158 107.981 118.011C108.095 117.864 108.151 117.696 108.151 117.508Z" fill="#555555"/>
</svg>
