<svg width="129" height="122" viewBox="0 0 129 122" fill="none" xmlns="http://www.w3.org/2000/svg">
<path fill-rule="evenodd" clip-rule="evenodd" d="M28.2717 75.2468C38.5175 52.2526 77.6996 36.4097 109.077 29.2583C76.0587 37.7685 49.6438 59.2801 65.8529 75.2468H28.2717Z" fill="#0C0A0A"/>
<path fill-rule="evenodd" clip-rule="evenodd" d="M60.0909 44.1149V22.9935C45.5907 30.2001 40.7152 38.0213 40.7152 52.2016V56.4061C44.7927 53.0881 49.3937 50.0286 54.3109 47.2254V38.7124C54.3109 38.1134 54.8648 37.6241 55.542 37.6241C56.2192 37.6241 56.7731 38.1141 56.7731 38.7124V45.8574C57.8657 45.2641 58.9727 44.6834 60.0909 44.1149Z" fill="#F0A538"/>
<path fill-rule="evenodd" clip-rule="evenodd" d="M69.3635 13.0092V39.7682C73.3265 38.054 77.352 36.48 81.3542 35.0447V29.2075C81.3542 15.0272 76.8069 7.20593 63.2849 0V42.5367C64.4807 41.9632 65.6878 41.4024 66.9013 40.8551V13.0099C66.9013 12.4109 67.4552 11.9216 68.1324 11.9216C68.8096 11.9209 69.3635 12.4102 69.3635 13.0092Z" fill="#F0A538"/>
<path fill-rule="evenodd" clip-rule="evenodd" d="M76.2176 46.4311C72.5107 49.1529 68.9198 52.4113 66.4456 56.0918C64.5438 58.9198 63.2174 62.1535 63.4567 65.4871C63.6857 68.6804 65.3122 71.4291 67.7007 73.7813L69.1712 75.23L81.3548 75.1939V43.0012C79.5682 44.0888 77.8497 45.2323 76.2176 46.4311Z" fill="#F0A538"/>
<path d="M0.599609 97.8369V96.3422H1.78862V90.3116H0.599609V88.8169H5.25226C5.80368 88.8169 6.28187 88.9114 6.68682 89.1003C7.10039 89.2808 7.41918 89.5428 7.6432 89.8864C7.87583 90.2214 7.99215 90.6252 7.99215 91.0977V91.2265C7.99215 91.6389 7.91461 91.9782 7.75952 92.2445C7.60443 92.5022 7.41919 92.7041 7.20378 92.8501C6.997 92.9876 6.79883 93.0864 6.60928 93.1465V93.3784C6.79883 93.43 7.00562 93.5288 7.22963 93.6748C7.45365 93.8123 7.6432 94.0142 7.79829 94.2805C7.96199 94.5468 8.04385 94.8947 8.04385 95.3242V95.4531C8.04385 95.9513 7.92753 96.3809 7.6949 96.7417C7.46226 97.0939 7.13916 97.3645 6.7256 97.5535C6.32064 97.7425 5.84676 97.8369 5.30395 97.8369H0.599609ZM3.49459 96.2907H5.09717C5.46766 96.2907 5.76491 96.2004 5.98893 96.0201C6.22156 95.8396 6.33787 95.5819 6.33787 95.2469V95.118C6.33787 94.783 6.22587 94.5253 6.00185 94.3449C5.77783 94.1645 5.47627 94.0743 5.09717 94.0743H3.49459V96.2907ZM3.49459 92.528H5.07132C5.42458 92.528 5.71321 92.4378 5.93723 92.2574C6.16986 92.077 6.28618 91.8279 6.28618 91.51V91.3811C6.28618 91.0547 6.17417 90.8056 5.95015 90.6338C5.72614 90.4534 5.43319 90.3632 5.07132 90.3632H3.49459V92.528Z" fill="#0C0A0A"/>
<path d="M12.1933 97.94C11.6935 97.94 11.2541 97.8284 10.875 97.605C10.5045 97.3731 10.2159 97.0552 10.0091 96.6515C9.80232 96.2477 9.69893 95.7838 9.69893 95.2598V91.4456H11.3274V95.1309C11.3274 95.612 11.4437 95.9728 11.6763 96.2133C11.9176 96.4539 12.2579 96.5741 12.6973 96.5741C13.197 96.5741 13.5848 96.4109 13.8605 96.0845C14.1362 95.7494 14.274 95.2856 14.274 94.6928V91.4456H15.9025V97.8369H14.2999V96.9994H14.0672C13.9639 97.2141 13.77 97.4246 13.4857 97.6308C13.2013 97.837 12.7705 97.94 12.1933 97.94Z" fill="#0C0A0A"/>
<path d="M17.973 97.8369V91.4456H19.6015V97.8369H17.973ZM18.7872 90.6982C18.4943 90.6982 18.2444 90.6037 18.0376 90.4147C17.8395 90.2257 17.7404 89.9766 17.7404 89.6673C17.7404 89.3581 17.8395 89.1089 18.0376 88.92C18.2444 88.731 18.4943 88.6365 18.7872 88.6365C19.0888 88.6365 19.3387 88.731 19.5368 88.92C19.735 89.1089 19.8341 89.3581 19.8341 89.6673C19.8341 89.9766 19.735 90.2257 19.5368 90.4147C19.3387 90.6037 19.0888 90.6982 18.7872 90.6982Z" fill="#0C0A0A"/>
<path d="M21.6645 97.8369V88.8169H23.2929V97.8369H21.6645Z" fill="#0C0A0A"/>
<path d="M27.9407 98.0174C27.4323 98.0174 26.9541 97.8928 26.5061 97.6437C26.0667 97.3859 25.7134 97.0123 25.4463 96.5226C25.1792 96.0329 25.0457 95.4402 25.0457 94.7444V94.5382C25.0457 93.8423 25.1792 93.2496 25.4463 92.7599C25.7134 92.2703 26.0667 91.9009 26.5061 91.6517C26.9455 91.394 27.4237 91.2652 27.9407 91.2652C28.3284 91.2652 28.6515 91.3124 28.91 91.4069C29.1771 91.4928 29.3925 91.6045 29.5562 91.742C29.7199 91.8794 29.8448 92.0254 29.931 92.1801H30.1636V88.8169H31.792V97.8369H30.1895V97.0638H29.9568C29.8104 97.3043 29.582 97.5234 29.2719 97.721C28.9703 97.9186 28.5266 98.0174 27.9407 98.0174ZM28.4318 96.5999C28.9315 96.5999 29.3494 96.441 29.6854 96.1231C30.0214 95.7967 30.1895 95.3242 30.1895 94.7057V94.5768C30.1895 93.9583 30.0214 93.4901 29.6854 93.1723C29.358 92.8458 28.9401 92.6826 28.4318 92.6826C27.9321 92.6826 27.5142 92.8458 27.1782 93.1723C26.8421 93.4901 26.6741 93.9583 26.6741 94.5768V94.7057C26.6741 95.3242 26.8421 95.7967 27.1782 96.1231C27.5142 96.441 27.9321 96.5999 28.4318 96.5999Z" fill="#0C0A0A"/>
<path d="M35.8462 98.0174C35.3896 98.0174 34.9803 97.94 34.6185 97.7854C34.2566 97.6222 33.9679 97.3902 33.7525 97.0896C33.5458 96.7803 33.4424 96.4066 33.4424 95.9685C33.4424 95.5304 33.5458 95.1653 33.7525 94.8732C33.9679 94.5725 34.2609 94.3492 34.6314 94.2031C35.0105 94.0485 35.4413 93.9712 35.9238 93.9712H37.6815V93.6104C37.6815 93.3097 37.5867 93.0649 37.3971 92.8759C37.2076 92.6783 36.906 92.5795 36.4924 92.5795C36.0875 92.5795 35.7859 92.674 35.5878 92.863C35.3896 93.0434 35.2604 93.2797 35.2 93.5717L33.7009 93.0692C33.8042 92.7428 33.968 92.4464 34.192 92.1801C34.4246 91.9052 34.7305 91.6861 35.1096 91.5229C35.4973 91.3511 35.9669 91.2652 36.5183 91.2652C37.3627 91.2652 38.0304 91.4756 38.5215 91.8966C39.0126 92.3175 39.2582 92.9275 39.2582 93.7264V96.1103C39.2582 96.368 39.3788 96.4968 39.6201 96.4968H40.137V97.8369H39.0514C38.7326 97.8369 38.4698 97.7596 38.263 97.605C38.0563 97.4504 37.9529 97.2442 37.9529 96.9865V96.9736H37.7073C37.6728 97.0767 37.5953 97.2141 37.4747 97.3859C37.354 97.5492 37.1645 97.6952 36.906 97.8241C36.6475 97.9529 36.2943 98.0174 35.8462 98.0174ZM36.1306 96.703C36.5872 96.703 36.9577 96.5784 37.242 96.3293C37.535 96.0716 37.6815 95.7323 37.6815 95.3113V95.1825H36.0401C35.7385 95.1825 35.5016 95.2469 35.3293 95.3758C35.157 95.5046 35.0708 95.685 35.0708 95.917C35.0708 96.1489 35.1613 96.3379 35.3422 96.4839C35.5231 96.63 35.7859 96.703 36.1306 96.703Z" fill="#0C0A0A"/>
<path d="M48.5122 98.0174C47.3921 98.0174 46.5047 97.7081 45.8498 97.0896C45.195 96.4625 44.8676 95.569 44.8676 94.4093V92.2445C44.8676 91.0848 45.195 90.1956 45.8498 89.5771C46.5047 88.95 47.3921 88.6365 48.5122 88.6365C49.6237 88.6365 50.4809 88.9414 51.0841 89.5514C51.6958 90.1527 52.0017 90.9817 52.0017 92.0383V92.1156H50.3216V91.9868C50.3216 91.4542 50.1708 91.016 49.8692 90.6724C49.5763 90.3288 49.1239 90.157 48.5122 90.157C47.9091 90.157 47.4352 90.3417 47.0905 90.7111C46.7459 91.0805 46.5736 91.583 46.5736 92.2187V94.4351C46.5736 95.0622 46.7459 95.5647 47.0905 95.9427C47.4352 96.3121 47.9091 96.4968 48.5122 96.4968C49.1239 96.4968 49.5763 96.325 49.8692 95.9814C50.1708 95.6292 50.3216 95.1911 50.3216 94.667V94.4351H52.0017V94.6155C52.0017 95.6721 51.6958 96.5054 51.0841 97.1153C50.4809 97.7167 49.6237 98.0174 48.5122 98.0174Z" fill="#0C0A0A"/>
<path d="M56.752 98.0174C56.1144 98.0174 55.5414 97.8885 55.0331 97.6308C54.5247 97.3731 54.1241 96.9994 53.8311 96.5097C53.5382 96.0201 53.3917 95.4316 53.3917 94.7444V94.5382C53.3917 93.8509 53.5382 93.2625 53.8311 92.7728C54.1241 92.2832 54.5247 91.9095 55.0331 91.6517C55.5414 91.394 56.1144 91.2652 56.752 91.2652C57.3895 91.2652 57.9625 91.394 58.4708 91.6517C58.9792 91.9095 59.3798 92.2832 59.6728 92.7728C59.9657 93.2625 60.1122 93.8509 60.1122 94.5382V94.7444C60.1122 95.4316 59.9657 96.0201 59.6728 96.5097C59.3798 96.9994 58.9792 97.3731 58.4708 97.6308C57.9625 97.8885 57.3895 98.0174 56.752 98.0174ZM56.752 96.5741C57.2517 96.5741 57.6653 96.4152 57.9927 96.0974C58.3201 95.7709 58.4838 95.307 58.4838 94.7057V94.5768C58.4838 93.9755 58.3201 93.5159 57.9927 93.198C57.6739 92.8716 57.2603 92.7084 56.752 92.7084C56.2522 92.7084 55.8387 92.8716 55.5113 93.198C55.1838 93.5159 55.0201 93.9755 55.0201 94.5768V94.7057C55.0201 95.307 55.1838 95.7709 55.5113 96.0974C55.8387 96.4152 56.2522 96.5741 56.752 96.5741Z" fill="#0C0A0A"/>
<path d="M61.8738 97.8369V91.4456H63.4764V92.2831H63.709C63.8124 92.0598 64.0063 91.8493 64.2906 91.6517C64.5749 91.4456 65.0057 91.3425 65.583 91.3425C66.0827 91.3425 66.5178 91.4585 66.8883 91.6904C67.2674 91.9138 67.5604 92.2273 67.7672 92.6311C67.9739 93.0262 68.0773 93.4901 68.0773 94.0227V97.8369H66.4489V94.1516C66.4489 93.6705 66.3283 93.3097 66.087 93.0692C65.8544 92.8287 65.5184 92.7084 65.079 92.7084C64.5792 92.7084 64.1915 92.8759 63.9158 93.2109C63.6401 93.5374 63.5022 93.997 63.5022 94.5897V97.8369H61.8738Z" fill="#0C0A0A"/>
<path d="M72.7586 98.0174C71.9228 98.0174 71.2378 97.837 70.7036 97.4761C70.1694 97.1153 69.8463 96.5999 69.7343 95.9299L71.2335 95.5433C71.2938 95.8439 71.3929 96.0802 71.5308 96.252C71.6772 96.4238 71.8539 96.5484 72.0607 96.6257C72.2761 96.6944 72.5087 96.7288 72.7586 96.7288C73.1377 96.7288 73.4177 96.6643 73.5986 96.5355C73.7796 96.398 73.87 96.2305 73.87 96.0329C73.87 95.8354 73.7839 95.685 73.6115 95.5819C73.4392 95.4703 73.1635 95.38 72.7844 95.3113L72.4225 95.2469C71.9745 95.161 71.5652 95.045 71.1947 94.899C70.8243 94.7444 70.527 94.5339 70.303 94.2676C70.079 94.0013 69.967 93.6576 69.967 93.2367C69.967 92.601 70.1996 92.1156 70.6649 91.7806C71.1301 91.437 71.7419 91.2652 72.5001 91.2652C73.2152 91.2652 73.8097 91.4241 74.2836 91.742C74.7575 92.0598 75.0676 92.4764 75.2141 92.9919L73.702 93.4558C73.6331 93.1293 73.4909 92.8974 73.2755 92.7599C73.0687 92.6225 72.8103 92.5538 72.5001 92.5538C72.1899 92.5538 71.953 92.6096 71.7893 92.7213C71.6256 92.8244 71.5437 92.9704 71.5437 93.1594C71.5437 93.3656 71.6299 93.5202 71.8022 93.6233C71.9745 93.7178 72.2071 93.7908 72.5001 93.8423L72.8619 93.9068C73.3444 93.9927 73.7796 94.1086 74.1673 94.2547C74.5636 94.3921 74.8738 94.594 75.0978 94.8603C75.3304 95.118 75.4468 95.4703 75.4468 95.917C75.4468 96.587 75.2012 97.1068 74.7101 97.4761C74.2276 97.837 73.5771 98.0174 72.7586 98.0174Z" fill="#0C0A0A"/>
<path d="M79.4616 97.8369C79.0394 97.8369 78.6948 97.7081 78.4277 97.4504C78.1692 97.1841 78.0399 96.8319 78.0399 96.3937V92.7857H76.4374V91.4456H78.0399V89.4612H79.6684V91.4456H81.426V92.7857H79.6684V96.1103C79.6684 96.368 79.789 96.4968 80.0302 96.4968H81.271V97.8369H79.4616Z" fill="#0C0A0A"/>
<path d="M83.1586 97.8369V91.4456H84.7611V92.1672H84.9938C85.0885 91.9095 85.2436 91.7205 85.459 91.6002C85.6831 91.4799 85.9415 91.4198 86.2345 91.4198H87.0099V92.863H86.2086C85.7951 92.863 85.4547 92.9747 85.1876 93.198C84.9205 93.4128 84.787 93.7478 84.787 94.2031V97.8369H83.1586Z" fill="#0C0A0A"/>
<path d="M90.9839 97.94C90.4841 97.94 90.0447 97.8284 89.6656 97.605C89.2951 97.3731 89.0065 97.0552 88.7997 96.6515C88.5929 96.2477 88.4895 95.7838 88.4895 95.2598V91.4456H90.1179V95.1309C90.1179 95.612 90.2343 95.9728 90.4669 96.2133C90.7081 96.4539 91.0485 96.5741 91.4879 96.5741C91.9876 96.5741 92.3753 96.4109 92.6511 96.0845C92.9268 95.7494 93.0646 95.2856 93.0646 94.6928V91.4456H94.693V97.8369H93.0905V96.9994H92.8578C92.7544 97.2141 92.5606 97.4246 92.2763 97.6308C91.9919 97.837 91.5611 97.94 90.9839 97.94Z" fill="#0C0A0A"/>
<path d="M99.7749 98.0174C99.1545 98.0174 98.5902 97.8885 98.0819 97.6308C97.5821 97.3731 97.1858 96.9994 96.8929 96.5097C96.5999 96.0201 96.4534 95.4273 96.4534 94.7315V94.5511C96.4534 93.8552 96.5999 93.2625 96.8929 92.7728C97.1858 92.2832 97.5821 91.9095 98.0819 91.6517C98.5902 91.394 99.1545 91.2652 99.7749 91.2652C100.387 91.2652 100.912 91.3726 101.352 91.5873C101.791 91.8021 102.144 92.0985 102.411 92.4764C102.687 92.8458 102.868 93.2668 102.954 93.7393L101.377 94.0743C101.343 93.8166 101.265 93.5846 101.145 93.3784C101.024 93.1723 100.852 93.0091 100.628 92.8888C100.412 92.7685 100.141 92.7084 99.8137 92.7084C99.4863 92.7084 99.189 92.7814 98.9219 92.9275C98.6634 93.0649 98.4566 93.2754 98.3016 93.5588C98.1551 93.8337 98.0819 94.1731 98.0819 94.5768V94.7057C98.0819 95.1095 98.1551 95.4531 98.3016 95.7366C98.4566 96.0115 98.6634 96.2219 98.9219 96.368C99.189 96.5054 99.4863 96.5741 99.8137 96.5741C100.305 96.5741 100.675 96.4496 100.925 96.2004C101.184 95.9427 101.347 95.6077 101.416 95.1954L102.993 95.569C102.881 96.0243 102.687 96.441 102.411 96.819C102.144 97.1884 101.791 97.4804 101.352 97.6952C100.912 97.91 100.387 98.0174 99.7749 98.0174Z" fill="#0C0A0A"/>
<path d="M106.836 97.8369C106.414 97.8369 106.069 97.7081 105.802 97.4504C105.543 97.1841 105.414 96.8319 105.414 96.3937V92.7857H103.812V91.4456H105.414V89.4612H107.043V91.4456H108.8V92.7857H107.043V96.1103C107.043 96.368 107.163 96.4968 107.404 96.4968H108.645V97.8369H106.836Z" fill="#0C0A0A"/>
<path d="M110.533 97.8369V91.4456H112.161V97.8369H110.533ZM111.347 90.6982C111.054 90.6982 110.804 90.6037 110.597 90.4147C110.399 90.2257 110.3 89.9766 110.3 89.6673C110.3 89.3581 110.399 89.1089 110.597 88.92C110.804 88.731 111.054 88.6365 111.347 88.6365C111.649 88.6365 111.898 88.731 112.097 88.92C112.295 89.1089 112.394 89.3581 112.394 89.6673C112.394 89.9766 112.295 90.2257 112.097 90.4147C111.898 90.6037 111.649 90.6982 111.347 90.6982Z" fill="#0C0A0A"/>
<path d="M117.274 98.0174C116.637 98.0174 116.064 97.8885 115.555 97.6308C115.047 97.3731 114.646 96.9994 114.353 96.5097C114.06 96.0201 113.914 95.4316 113.914 94.7444V94.5382C113.914 93.8509 114.06 93.2625 114.353 92.7728C114.646 92.2832 115.047 91.9095 115.555 91.6517C116.064 91.394 116.637 91.2652 117.274 91.2652C117.912 91.2652 118.485 91.394 118.993 91.6517C119.501 91.9095 119.902 92.2832 120.195 92.7728C120.488 93.2625 120.634 93.8509 120.634 94.5382V94.7444C120.634 95.4316 120.488 96.0201 120.195 96.5097C119.902 96.9994 119.501 97.3731 118.993 97.6308C118.485 97.8885 117.912 98.0174 117.274 98.0174ZM117.274 96.5741C117.774 96.5741 118.188 96.4152 118.515 96.0974C118.842 95.7709 119.006 95.307 119.006 94.7057V94.5768C119.006 93.9755 118.842 93.5159 118.515 93.198C118.196 92.8716 117.783 92.7084 117.274 92.7084C116.775 92.7084 116.361 92.8716 116.034 93.198C115.706 93.5159 115.542 93.9755 115.542 94.5768V94.7057C115.542 95.307 115.706 95.7709 116.034 96.0974C116.361 96.4152 116.775 96.5741 117.274 96.5741Z" fill="#0C0A0A"/>
<path d="M122.396 97.8369V91.4456H123.999V92.2831H124.231C124.335 92.0598 124.529 91.8493 124.813 91.6517C125.097 91.4456 125.528 91.3425 126.105 91.3425C126.605 91.3425 127.04 91.4585 127.411 91.6904C127.79 91.9138 128.083 92.2273 128.289 92.6311C128.496 93.0262 128.6 93.4901 128.6 94.0227V97.8369H126.971V94.1516C126.971 93.6705 126.851 93.3097 126.609 93.0692C126.377 92.8287 126.041 92.7084 125.601 92.7084C125.102 92.7084 124.714 92.8759 124.438 93.2109C124.162 93.5374 124.025 93.997 124.025 94.5897V97.8369H122.396Z" fill="#0C0A0A"/>
<path d="M25.7373 118.326V119.313H21.1432V118.326H25.7373ZM21.383 110.152V119.313H20.1651V110.152H21.383Z" fill="#F0A538"/>
<path d="M28.2236 112.506V119.313H27.0499V112.506H28.2236ZM26.9615 110.7C26.9615 110.511 27.0183 110.352 27.1319 110.222C27.2497 110.091 27.4222 110.026 27.6494 110.026C27.8724 110.026 28.0427 110.091 28.1605 110.222C28.2825 110.352 28.3435 110.511 28.3435 110.7C28.3435 110.88 28.2825 111.035 28.1605 111.165C28.0427 111.291 27.8724 111.354 27.6494 111.354C27.4222 111.354 27.2497 111.291 27.1319 111.165C27.0183 111.035 26.9615 110.88 26.9615 110.7Z" fill="#F0A538"/>
<path d="M32.1741 118.263L34.042 112.506H35.2347L32.7799 119.313H31.9974L32.1741 118.263ZM30.6153 112.506L32.5401 118.294L32.6726 119.313H31.8901L29.4163 112.506H30.6153Z" fill="#F0A538"/>
<path d="M37.6264 112.506V119.313H36.4526V112.506H37.6264ZM36.3643 110.7C36.3643 110.511 36.4211 110.352 36.5346 110.222C36.6524 110.091 36.8249 110.026 37.0521 110.026C37.2751 110.026 37.4455 110.091 37.5633 110.222C37.6853 110.352 37.7463 110.511 37.7463 110.7C37.7463 110.88 37.6853 111.035 37.5633 111.165C37.4455 111.291 37.2751 111.354 37.0521 111.354C36.8249 111.354 36.6524 111.291 36.5346 111.165C36.4211 111.035 36.3643 110.88 36.3643 110.7Z" fill="#F0A538"/>
<path d="M40.6681 113.959V119.313H39.5006V112.506H40.605L40.6681 113.959ZM40.3904 115.651L39.9045 115.633C39.9129 115.008 40.0328 114.452 40.2642 113.965C40.4956 113.474 40.8174 113.089 41.2297 112.808C41.6462 112.522 42.13 112.38 42.6811 112.38C43.1313 112.38 43.5183 112.461 43.8423 112.625C44.1704 112.789 44.4228 113.053 44.5995 113.418C44.7804 113.779 44.8709 114.257 44.8709 114.852V119.313H43.6971V114.84C43.6971 114.483 43.6445 114.198 43.5394 113.984C43.4342 113.766 43.2806 113.609 43.0787 113.512C42.8768 113.412 42.6285 113.361 42.334 113.361C42.0438 113.361 41.7787 113.422 41.5389 113.544C41.3033 113.665 41.0993 113.833 40.9268 114.047C40.7585 114.261 40.626 114.506 40.5292 114.783C40.4367 115.056 40.3904 115.345 40.3904 115.651Z" fill="#F0A538"/>
<path d="M51.0679 112.506H52.128V119.169C52.128 119.768 52.006 120.28 51.762 120.704C51.518 121.128 51.1772 121.448 50.7397 121.667C50.3064 121.889 49.8057 122 49.2378 122C49.0022 122 48.7245 121.962 48.4048 121.887C48.0893 121.815 47.778 121.692 47.4708 121.516C47.1679 121.344 46.9134 121.111 46.7073 120.817L47.3194 120.125C47.6055 120.469 47.9042 120.708 48.2155 120.842C48.531 120.977 48.8423 121.044 49.1494 121.044C49.7006 121.044 50.1402 120.888 50.4684 120.578C50.7965 120.272 50.9606 119.821 50.9606 119.225V114.003L51.0679 112.506ZM46.3665 115.985V115.853C46.3665 115.161 46.4759 114.555 46.6946 114.034C46.9134 113.51 47.2226 113.103 47.6223 112.814C48.0262 112.524 48.5058 112.38 49.0611 112.38C49.4902 112.38 49.8646 112.455 50.1844 112.606C50.5083 112.753 50.7818 112.969 51.0048 113.254C51.2319 113.535 51.4107 113.875 51.5411 114.274C51.6716 114.672 51.762 115.123 51.8125 115.626V116.205C51.7494 116.868 51.6106 117.443 51.396 117.929C51.1814 118.412 50.8806 118.785 50.4936 119.049C50.1066 119.309 49.6248 119.439 49.0485 119.439C48.5016 119.439 48.0262 119.29 47.6223 118.992C47.2226 118.69 46.9134 118.279 46.6946 117.759C46.4759 117.239 46.3665 116.648 46.3665 115.985ZM47.5339 115.853V115.985C47.5339 116.434 47.5949 116.847 47.717 117.224C47.8432 117.598 48.0388 117.896 48.3038 118.118C48.5689 118.34 48.9118 118.451 49.3325 118.451C49.7195 118.451 50.0392 118.37 50.2917 118.206C50.5441 118.042 50.7439 117.826 50.8912 117.558C51.0426 117.289 51.1604 116.998 51.2446 116.683V115.167C51.1983 114.936 51.1268 114.714 51.03 114.5C50.9374 114.282 50.8154 114.089 50.664 113.921C50.5167 113.749 50.3337 113.613 50.115 113.512C49.8962 113.412 49.6396 113.361 49.3451 113.361C48.9202 113.361 48.5731 113.474 48.3038 113.701C48.0388 113.927 47.8432 114.229 47.717 114.607C47.5949 114.985 47.5339 115.4 47.5339 115.853Z" fill="#F0A538"/>
<path d="M62.4458 116.998C62.4458 116.713 62.3848 116.469 62.2628 116.268C62.1408 116.067 61.922 115.884 61.6065 115.721C61.291 115.557 60.8429 115.391 60.2623 115.224C59.6565 115.047 59.1306 114.84 58.6847 114.601C58.2388 114.362 57.8938 114.074 57.6498 113.739C57.4058 113.399 57.2838 112.992 57.2838 112.518C57.2838 112.044 57.4121 111.62 57.6687 111.247C57.9295 110.87 58.2934 110.572 58.7604 110.354C59.2316 110.136 59.7806 110.026 60.4075 110.026C61.0974 110.026 61.6822 110.159 62.1618 110.423C62.6456 110.683 63.0137 111.025 63.2662 111.448C63.5186 111.868 63.6448 112.317 63.6448 112.795H62.4332C62.4332 112.451 62.3596 112.147 62.2123 111.883C62.0651 111.614 61.8421 111.404 61.5434 111.253C61.2447 111.098 60.8661 111.021 60.4075 111.021C59.9742 111.021 59.6166 111.086 59.3347 111.216C59.0528 111.346 58.8425 111.522 58.7036 111.744C58.569 111.966 58.5017 112.22 58.5017 112.506C58.5017 112.761 58.5753 112.988 58.7226 113.185C58.874 113.382 59.1075 113.56 59.423 113.72C59.7386 113.879 60.1488 114.028 60.6536 114.167C61.3478 114.364 61.9178 114.59 62.3638 114.846C62.8097 115.102 63.1379 115.404 63.3482 115.752C63.5628 116.1 63.67 116.511 63.67 116.985C63.67 117.48 63.5375 117.912 63.2725 118.281C63.0074 118.651 62.6351 118.936 62.1555 119.137C61.6759 119.339 61.1122 119.439 60.4643 119.439C60.0394 119.439 59.6208 119.38 59.2085 119.263C58.8004 119.146 58.4281 118.969 58.0915 118.734C57.7592 118.5 57.492 118.21 57.2901 117.866C57.0923 117.518 56.9935 117.115 56.9935 116.658H58.2051C58.2051 116.973 58.2661 117.243 58.3881 117.47C58.5101 117.692 58.6763 117.877 58.8866 118.024C59.1012 118.17 59.3431 118.279 59.6124 118.351C59.8858 118.418 60.1698 118.451 60.4643 118.451C60.8892 118.451 61.2489 118.393 61.5434 118.275C61.8379 118.158 62.0608 117.99 62.2123 117.772C62.368 117.554 62.4458 117.296 62.4458 116.998Z" fill="#F0A538"/>
<path d="M64.7365 115.985V115.84C64.7365 115.182 64.8627 114.592 65.1152 114.072C65.3676 113.552 65.7252 113.141 66.188 112.839C66.6507 112.533 67.1997 112.38 67.835 112.38C68.4787 112.38 69.0319 112.533 69.4947 112.839C69.9617 113.141 70.3214 113.552 70.5738 114.072C70.8262 114.592 70.9524 115.182 70.9524 115.84V115.985C70.9524 116.639 70.8262 117.229 70.5738 117.753C70.3214 118.273 69.9638 118.684 69.501 118.986C69.0382 119.288 68.4871 119.439 67.8476 119.439C67.2082 119.439 66.6549 119.288 66.188 118.986C65.7252 118.684 65.3676 118.273 65.1152 117.753C64.8627 117.229 64.7365 116.639 64.7365 115.985ZM65.904 115.84V115.985C65.904 116.434 65.9755 116.849 66.1185 117.231C66.2616 117.608 66.4761 117.912 66.7622 118.143C67.0525 118.37 67.4143 118.483 67.8476 118.483C68.2767 118.483 68.6343 118.37 68.9204 118.143C69.2065 117.912 69.4211 117.608 69.5641 117.231C69.7071 116.849 69.7787 116.434 69.7787 115.985V115.84C69.7787 115.396 69.705 114.985 69.5578 114.607C69.4147 114.225 69.2002 113.919 68.9141 113.688C68.628 113.453 68.2683 113.336 67.835 113.336C67.4059 113.336 67.0483 113.453 66.7622 113.688C66.4761 113.919 66.2616 114.225 66.1185 114.607C65.9755 114.985 65.904 115.396 65.904 115.84Z" fill="#F0A538"/>
<path d="M73.6849 109.649V119.313H72.5111V109.649H73.6849Z" fill="#F0A538"/>
<path d="M79.7367 117.74V112.506H80.9105V119.313H79.7935L79.7367 117.74ZM79.9576 116.306L80.4435 116.293C80.4435 116.897 80.3573 117.436 80.1848 117.91C80.0123 118.384 79.7304 118.758 79.3392 119.03C78.9479 119.303 78.4262 119.439 77.7741 119.439C77.1052 119.439 76.5646 119.242 76.1523 118.848C75.74 118.453 75.5339 117.803 75.5339 116.897V112.506H76.7013V116.91C76.7013 117.317 76.7602 117.633 76.878 117.86C77 118.082 77.1578 118.237 77.3513 118.326C77.5449 118.409 77.7468 118.451 77.9571 118.451C78.4536 118.451 78.8469 118.357 79.1372 118.168C79.4275 117.975 79.6357 117.717 79.762 117.394C79.8924 117.067 79.9576 116.704 79.9576 116.306Z" fill="#F0A538"/>
<path d="M85.5487 112.506V113.399H81.8571V112.506H85.5487ZM83.1066 110.851H84.274V117.627C84.274 117.858 84.3098 118.032 84.3813 118.149C84.4528 118.267 84.5454 118.344 84.659 118.382C84.7725 118.42 84.8945 118.439 85.025 118.439C85.1217 118.439 85.2227 118.43 85.3279 118.414C85.4373 118.393 85.5193 118.376 85.574 118.363L85.5803 119.313C85.4877 119.343 85.3657 119.37 85.2143 119.395C85.067 119.425 84.8882 119.439 84.6779 119.439C84.3918 119.439 84.1289 119.383 83.8891 119.269C83.6493 119.156 83.4578 118.967 83.3148 118.703C83.176 118.435 83.1066 118.074 83.1066 117.621V110.851Z" fill="#F0A538"/>
<path d="M88.1866 112.506V119.313H87.0128V112.506H88.1866ZM86.9244 110.7C86.9244 110.511 86.9812 110.352 87.0948 110.222C87.2126 110.091 87.3851 110.026 87.6123 110.026C87.8353 110.026 88.0057 110.091 88.1235 110.222C88.2455 110.352 88.3065 110.511 88.3065 110.7C88.3065 110.88 88.2455 111.035 88.1235 111.165C88.0057 111.291 87.8353 111.354 87.6123 111.354C87.3851 111.354 87.2126 111.291 87.0948 111.165C86.9812 111.035 86.9244 110.88 86.9244 110.7Z" fill="#F0A538"/>
<path d="M89.7516 115.985V115.84C89.7516 115.182 89.8778 114.592 90.1302 114.072C90.3826 113.552 90.7402 113.141 91.203 112.839C91.6658 112.533 92.2148 112.38 92.8501 112.38C93.4937 112.38 94.047 112.533 94.5097 112.839C94.9767 113.141 95.3364 113.552 95.5888 114.072C95.8413 114.592 95.9675 115.182 95.9675 115.84V115.985C95.9675 116.639 95.8413 117.229 95.5888 117.753C95.3364 118.273 94.9788 118.684 94.5161 118.986C94.0533 119.288 93.5022 119.439 92.8627 119.439C92.2232 119.439 91.67 119.288 91.203 118.986C90.7402 118.684 90.3826 118.273 90.1302 117.753C89.8778 117.229 89.7516 116.639 89.7516 115.985ZM90.919 115.84V115.985C90.919 116.434 90.9905 116.849 91.1336 117.231C91.2766 117.608 91.4912 117.912 91.7773 118.143C92.0676 118.37 92.4294 118.483 92.8627 118.483C93.2918 118.483 93.6494 118.37 93.9355 118.143C94.2216 117.912 94.4361 117.608 94.5792 117.231C94.7222 116.849 94.7937 116.434 94.7937 115.985V115.84C94.7937 115.396 94.7201 114.985 94.5728 114.607C94.4298 114.225 94.2152 113.919 93.9292 113.688C93.6431 113.453 93.2834 113.336 92.8501 113.336C92.4209 113.336 92.0633 113.453 91.7773 113.688C91.4912 113.919 91.2766 114.225 91.1336 114.607C90.9905 114.985 90.919 115.396 90.919 115.84Z" fill="#F0A538"/>
<path d="M98.599 113.959V119.313H97.4315V112.506H98.5359L98.599 113.959ZM98.3213 115.651L97.8354 115.633C97.8438 115.008 97.9637 114.452 98.1951 113.965C98.4265 113.474 98.7483 113.089 99.1606 112.808C99.5771 112.522 100.061 112.38 100.612 112.38C101.062 112.38 101.449 112.461 101.773 112.625C102.101 112.789 102.354 113.053 102.53 113.418C102.711 113.779 102.802 114.257 102.802 114.852V119.313H101.628V114.84C101.628 114.483 101.575 114.198 101.47 113.984C101.365 113.766 101.212 113.609 101.01 113.512C100.808 113.412 100.559 113.361 100.265 113.361C99.9747 113.361 99.7096 113.422 99.4698 113.544C99.2342 113.665 99.0302 113.833 98.8577 114.047C98.6894 114.261 98.5569 114.506 98.4602 114.783C98.3676 115.056 98.3213 115.345 98.3213 115.651Z" fill="#F0A538"/>
<path d="M108.551 117.508C108.551 117.34 108.513 117.185 108.437 117.042C108.366 116.895 108.216 116.763 107.989 116.646C107.766 116.524 107.43 116.419 106.979 116.331C106.475 116.226 106.037 116.092 105.667 115.928C105.301 115.765 105.017 115.557 104.815 115.305C104.617 115.054 104.518 114.741 104.518 114.368C104.518 114.007 104.621 113.678 104.827 113.38C105.038 113.078 105.332 112.837 105.711 112.657C106.094 112.472 106.54 112.38 107.049 112.38C107.596 112.38 108.063 112.476 108.45 112.669C108.837 112.862 109.133 113.12 109.34 113.443C109.546 113.762 109.649 114.116 109.649 114.506H108.481C108.481 114.225 108.357 113.961 108.109 113.714C107.865 113.462 107.512 113.336 107.049 113.336C106.725 113.336 106.462 113.386 106.26 113.487C106.062 113.584 105.917 113.707 105.825 113.858C105.736 114.009 105.692 114.169 105.692 114.336C105.692 114.504 105.734 114.649 105.818 114.771C105.902 114.892 106.056 115.001 106.279 115.098C106.506 115.194 106.834 115.291 107.263 115.387C107.823 115.513 108.284 115.664 108.645 115.84C109.007 116.016 109.276 116.232 109.453 116.488C109.63 116.744 109.718 117.055 109.718 117.419C109.718 117.818 109.609 118.17 109.39 118.477C109.171 118.779 108.864 119.016 108.469 119.188C108.073 119.355 107.61 119.439 107.08 119.439C106.479 119.439 105.97 119.332 105.553 119.118C105.137 118.904 104.821 118.628 104.607 118.288C104.392 117.948 104.285 117.589 104.285 117.212H105.459C105.475 117.531 105.568 117.784 105.736 117.973C105.905 118.158 106.111 118.29 106.355 118.37C106.599 118.445 106.841 118.483 107.08 118.483C107.4 118.483 107.667 118.441 107.882 118.357C108.101 118.273 108.267 118.158 108.38 118.011C108.494 117.864 108.551 117.696 108.551 117.508Z" fill="#F0A538"/>
</svg>
