<svg width="100" height="90" viewBox="0 0 100 90" fill="none" xmlns="http://www.w3.org/2000/svg">
<path d="M59.9114 0H52.2862C51.941 0 51.6602 0.278861 51.6602 0.624117V87.0311C51.6602 87.3752 51.9399 87.6552 52.2862 87.6552H59.9114C60.2566 87.6552 60.5375 87.3763 60.5375 87.0311V0.624117C60.5363 0.278861 60.2566 0 59.9114 0ZM52.9111 1.24713H59.2854V86.4059H52.9111V1.24713Z" fill="#FF6600"/>
<path d="M73.8502 14.5715H20.9527L26.1028 9.23997H73.8502V14.5715ZM19.4843 15.8186H74.4762C74.8214 15.8186 75.1022 15.5398 75.1022 15.1945V8.61585C75.1022 8.2717 74.8225 7.99174 74.4762 7.99174H25.8398V7.99395C25.6766 7.99395 25.5124 8.05813 25.3903 8.18428L19.0669 14.7309C18.9393 14.8448 18.8594 15.0108 18.8594 15.1945C18.8583 15.5398 19.138 15.8186 19.4843 15.8186Z" fill="#FF6600"/>
<path d="M59.9114 76.4942C60.2566 76.4942 60.5375 76.2153 60.5375 75.8701C60.5375 75.5248 60.2577 75.246 59.9114 75.246H52.2862C51.941 75.246 51.6602 75.5248 51.6602 75.8701C51.6602 76.2153 51.9399 76.4942 52.2862 76.4942H59.9114Z" fill="#FF6600"/>
<path d="M59.9114 64.2132C60.2566 64.2132 60.5375 63.9344 60.5375 63.5891C60.5375 63.245 60.2577 62.965 59.9114 62.965H52.2862C51.941 62.965 51.6602 63.2438 51.6602 63.5891C51.6602 63.9333 51.9399 64.2132 52.2862 64.2132H59.9114Z" fill="#FF6600"/>
<path d="M59.9114 52.1757C60.2566 52.1757 60.5375 51.8968 60.5375 51.5515C60.5375 51.2074 60.2577 50.9274 59.9114 50.9274H52.2862C51.941 50.9274 51.6602 51.2063 51.6602 51.5515C51.6602 51.8957 51.9399 52.1757 52.2862 52.1757H59.9114Z" fill="#FF6600"/>
<path d="M59.9114 39.8461C60.2566 39.8461 60.5375 39.5672 60.5375 39.2219C60.5375 38.8778 60.2577 38.5978 59.9114 38.5978H52.2862C51.941 38.5978 51.6602 38.8767 51.6602 39.2219C51.6602 39.5661 51.9399 39.8461 52.2862 39.8461H59.9114Z" fill="#FF6600"/>
<path d="M59.9114 27.8572C60.2566 27.8572 60.5375 27.5784 60.5375 27.2331C60.5375 26.8878 60.2577 26.609 59.9114 26.609H52.2862C51.941 26.609 51.6602 26.8878 51.6602 27.2331C51.6602 27.5784 51.9399 27.8572 52.2862 27.8572H59.9114Z" fill="#FF6600"/>
<path d="M59.3963 87.3808C59.5905 87.6652 59.979 87.7382 60.2642 87.5434C60.5484 87.3498 60.6228 86.9625 60.4274 86.6781L53.0297 75.8523L60.4418 63.9144C60.5706 63.7064 60.5617 63.4508 60.4385 63.2571L53.0197 51.5461L60.4407 39.5473C60.5706 39.3382 60.5606 39.0825 60.4363 38.8878L60.4374 38.8867L53.023 27.2298L60.4374 15.5254C60.6072 15.2577 60.5451 14.9102 60.3064 14.7143L53.1873 8.57164L60.3619 1.05125C60.5994 0.802267 60.5895 0.408322 60.3397 0.171511C60.09 -0.0652989 59.6948 -0.0553399 59.4573 0.193643L51.832 8.18654L51.8121 8.20867C51.5867 8.46872 51.6156 8.86156 51.8753 9.0862L59.0988 15.3152L51.7821 26.8647C51.6345 27.0661 51.6167 27.3438 51.7588 27.5663L59.1765 39.2275L51.771 51.2008C51.6356 51.3989 51.6223 51.6667 51.7588 51.8825L59.1765 63.5924L51.7765 75.5104C51.6311 75.7162 51.62 75.9995 51.771 76.2197L59.3963 87.3808Z" fill="#FF6600"/>
<path d="M52.8132 14.8637C52.6301 14.5726 52.2449 14.4852 51.953 14.6689C51.6611 14.8515 51.5734 15.2355 51.7577 15.5265L59.1721 27.2309L51.7577 38.8877C51.6156 39.1102 51.6334 39.389 51.781 39.5904L59.1765 51.5471L51.7577 63.2582C51.6212 63.4751 51.6345 63.7429 51.771 63.9409L59.1676 75.8534L51.7699 86.6791C51.5757 86.9635 51.6489 87.3508 51.9331 87.5445C52.2183 87.7382 52.6068 87.6651 52.801 87.3818L60.4263 76.2219H60.4252C60.5595 76.0249 60.5739 75.7604 60.4407 75.5446L53.0197 63.5935L60.4374 51.8835C60.5595 51.6888 60.5695 51.4343 60.4407 51.2262L53.0219 39.2286L60.4396 27.5673L60.4385 27.5662C60.5628 27.3703 60.5717 27.1114 60.4396 26.9012L52.8132 14.8637Z" fill="#FF6600"/>
<path d="M74.0621 15.6605C74.3197 15.8896 74.7148 15.8664 74.9446 15.6096C75.1743 15.3529 75.151 14.959 74.8935 14.7299L67.4636 8.15122C67.2072 7.92437 66.8165 7.94539 66.5867 8.19659L59.4886 14.7399C59.2367 14.9722 59.2211 15.3651 59.4542 15.6174C59.6873 15.8686 60.0813 15.8841 60.3344 15.6517L67.0551 9.45589L74.0621 15.6605Z" fill="#FF6600"/>
<path d="M52.7255 9.05741C52.9697 8.81506 52.9708 8.42112 52.7277 8.17767C52.4847 7.93422 52.0895 7.93311 51.8453 8.17545L45.653 14.3037C44.7473 13.3521 42.6173 11.1555 40.9002 9.6948C42.3365 11.4808 44.5741 14.7364 45.0769 15.4701C45.1025 15.5221 45.1369 15.5719 45.1779 15.6173L45.1802 15.6206L45.1946 15.635C45.4377 15.8784 45.8328 15.8795 46.077 15.6372L52.7255 9.05741ZM40.9002 9.6948C40.4385 9.30196 40.0067 8.96224 39.6371 8.71326C39.6549 8.67563 39.6638 8.64243 39.6638 8.61588C39.6638 8.27505 40.1821 8.80068 40.9002 9.6948ZM39.6371 8.71326C39.5861 8.67895 39.5372 8.64686 39.4884 8.61588C38.838 8.20533 38.4117 8.12455 38.4117 8.61588C38.4117 8.75863 32.801 13.0267 31.0872 14.327L26.3334 8.233C26.1214 7.96077 25.7285 7.91208 25.4565 8.12344C25.1835 8.3348 25.1346 8.72654 25.3466 8.99876L30.479 15.5774L30.4812 15.5763C30.6899 15.8441 31.0773 15.8961 31.3492 15.6903C31.3714 15.6726 39.1277 9.82538 39.6371 8.71326Z" fill="#FF6600"/>
<path fill-rule="evenodd" clip-rule="evenodd" d="M89.6844 6.59424H74.4805V15.7568H89.6844V6.59424Z" fill="#FF6600"/>
<path d="M24.2755 15.8188C24.6207 15.8188 24.9015 15.5399 24.9015 15.1946C24.9015 14.8505 24.6218 14.5705 24.2755 14.5705H10.833C10.4878 14.5705 10.207 14.8494 10.207 15.1946C10.207 15.5388 10.4867 15.8188 10.833 15.8188H24.2755Z" fill="#FF6600"/>
<path fill-rule="evenodd" clip-rule="evenodd" d="M20.1997 13.7581C19.2418 13.7581 18.4648 14.5217 18.4648 15.4634C18.4648 16.4051 19.2418 17.1687 20.1997 17.1687C21.1576 17.1687 21.9345 16.4051 21.9345 15.4634C21.9345 14.5217 21.1576 13.7581 20.1997 13.7581Z" fill="#FF6600"/>
<path d="M19.543 35.8835C19.543 36.2276 19.8228 36.5076 20.1693 36.5076C20.5147 36.5076 20.7957 36.2287 20.7957 35.8835V14.5628C20.7957 14.2187 20.5158 13.9387 20.1693 13.9387C19.8239 13.9387 19.543 14.2176 19.543 14.5628V35.8835Z" fill="#FF6600"/>
<path fill-rule="evenodd" clip-rule="evenodd" d="M20.7223 44.9974H21.2729L21.2484 43.9494C21.2484 43.9494 22.5437 43.4614 23.3507 42.4389C24.8602 40.5234 22.8756 35.9377 22.0065 35.2749C21.5914 34.9584 20.1729 35.1045 20.1729 35.1045C20.1729 35.1045 18.7544 34.9584 18.3393 35.2749C17.4702 35.9377 15.4856 40.5234 16.9952 42.4389C17.8021 43.4625 19.0974 43.9494 19.0974 43.9494L19.073 44.9974H19.4304C19.4537 45.5606 19.5547 46.2401 19.9043 46.3374C20.5148 46.5079 21.4194 47.2393 21.4682 48.2629C21.5171 49.2865 20.4171 49.9682 19.3904 49.3352C18.3637 48.7011 18.3637 47.4584 17.8509 47.0933C17.3381 46.7281 17.559 49.6683 19.1951 50.5292C22.2474 52.1349 24.7503 46.5864 20.7223 45.5341V44.9974Z" fill="#FF6600"/>
<path d="M45.9972 14.6502L39.9447 8.19214L39.0312 9.03979L45.0826 15.4978L45.9972 14.6502Z" fill="#FF6600"/>
<path fill-rule="evenodd" clip-rule="evenodd" d="M56.1502 84.3255H64.4159L66.941 87.8345H56.1502H45.3594L47.8845 84.3255H56.1502Z" fill="#FF6600"/>
<path fill-rule="evenodd" clip-rule="evenodd" d="M11.4062 76.4057L19.42 69.9576H22.0905V76.4057V79.4886V89.7202H11.4062V76.4057Z" fill="#FF6600"/>
<path fill-rule="evenodd" clip-rule="evenodd" d="M29.831 89.6492V90H27.0195V49.2144L45.2958 46.2012L67.5079 50.4759V69.9574H70.4592V44.7283L74.818 42.556L88.5956 47.4616V89.6492H29.831ZM45.3657 64.0029H37.5984V87.5478H29.831L29.972 52.0882L45.3657 49.6349V64.0029ZM75.202 86.8849H85.8896V48.8868L75.414 45.3856L75.202 45.6047V69.7848C75.202 69.9187 75.192 70.0515 75.172 70.1799L75.202 70.3436V86.8849Z" fill="#FF6600"/>
<path fill-rule="evenodd" clip-rule="evenodd" d="M0 89.9382H100V87.5468H0V89.9382Z" fill="#FF6600"/>
</svg>
