<svg width="190" height="56" viewBox="0 0 190 56" fill="none" xmlns="http://www.w3.org/2000/svg">
<path d="M39.9469 0H35.3717C35.1646 0 34.9961 0.167316 34.9961 0.37447V52.2187C34.9961 52.4251 35.1639 52.5931 35.3717 52.5931H39.9469C40.154 52.5931 40.3225 52.4258 40.3225 52.2187V0.37447C40.3218 0.167316 40.154 0 39.9469 0ZM35.7466 0.748276H39.5713V51.8435H35.7466V0.748276Z" fill="#F0A538"/>
<path d="M48.3109 8.74291H16.5724L19.6625 5.54398H48.3109V8.74291ZM15.6913 9.49119H48.6865C48.8936 9.49119 49.0621 9.32387 49.0621 9.11672V5.16951C49.0621 4.96302 48.8943 4.79504 48.6865 4.79504H19.5047V4.79637C19.4068 4.79637 19.3082 4.83488 19.2349 4.91057L15.4409 8.83852C15.3644 8.90691 15.3164 9.0065 15.3164 9.11672C15.3157 9.32387 15.4836 9.49119 15.6913 9.49119Z" fill="#F0A538"/>
<path d="M39.9469 45.8965C40.154 45.8965 40.3225 45.7292 40.3225 45.5221C40.3225 45.3149 40.1546 45.1476 39.9469 45.1476H35.3717C35.1646 45.1476 34.9961 45.3149 34.9961 45.5221C34.9961 45.7292 35.1639 45.8965 35.3717 45.8965H39.9469Z" fill="#F0A538"/>
<path d="M39.9469 38.5279C40.154 38.5279 40.3225 38.3606 40.3225 38.1535C40.3225 37.947 40.1546 37.779 39.9469 37.779H35.3717C35.1646 37.779 34.9961 37.9463 34.9961 38.1535C34.9961 38.36 35.1639 38.5279 35.3717 38.5279H39.9469Z" fill="#F0A538"/>
<path d="M39.9469 31.3054C40.154 31.3054 40.3225 31.1381 40.3225 30.9309C40.3225 30.7244 40.1546 30.5565 39.9469 30.5565H35.3717C35.1646 30.5565 34.9961 30.7238 34.9961 30.9309C34.9961 31.1374 35.1639 31.3054 35.3717 31.3054H39.9469Z" fill="#F0A538"/>
<path d="M39.9469 23.9076C40.154 23.9076 40.3225 23.7403 40.3225 23.5332C40.3225 23.3267 40.1546 23.1587 39.9469 23.1587H35.3717C35.1646 23.1587 34.9961 23.326 34.9961 23.5332C34.9961 23.7397 35.1639 23.9076 35.3717 23.9076H39.9469Z" fill="#F0A538"/>
<path d="M39.9469 16.7143C40.154 16.7143 40.3225 16.547 40.3225 16.3399C40.3225 16.1327 40.1546 15.9654 39.9469 15.9654H35.3717C35.1646 15.9654 34.9961 16.1327 34.9961 16.3399C34.9961 16.547 35.1639 16.7143 35.3717 16.7143H39.9469Z" fill="#F0A538"/>
<path d="M39.6378 52.4285C39.7543 52.5991 39.9874 52.6429 40.1585 52.5261C40.329 52.4099 40.3737 52.1775 40.2564 52.0068L35.8178 45.5114L40.2651 38.3486C40.3424 38.2238 40.337 38.0705 40.2631 37.9543L35.8118 30.9276L40.2644 23.7284C40.3424 23.6029 40.3364 23.4495 40.2618 23.3327L40.2624 23.332L35.8138 16.3379L40.2624 9.31527C40.3643 9.15459 40.327 8.94611 40.1839 8.82859L35.9124 5.14298L40.2172 0.630749C40.3597 0.481359 40.3537 0.244991 40.2038 0.102905C40.054 -0.0391809 39.8169 -0.0332055 39.6744 0.116184L35.0992 4.91192L35.0872 4.9252C34.952 5.08123 34.9694 5.31694 35.1252 5.45172L39.4593 9.18912L35.0693 16.1188C34.9807 16.2396 34.97 16.4063 35.0553 16.5398L39.5059 23.5365L35.0626 30.7205C34.9813 30.8393 34.9734 31 35.0553 31.1295L39.5059 38.1554L35.0659 45.3062C34.9787 45.4297 34.972 45.5997 35.0626 45.7318L39.6378 52.4285Z" fill="#F0A538"/>
<path d="M35.6879 8.9182C35.5781 8.74358 35.347 8.69113 35.1718 8.80134C34.9967 8.9109 34.9441 9.14129 35.0546 9.31591L39.5032 16.3386L35.0546 23.3326C34.9694 23.4661 34.98 23.6334 35.0686 23.7543L39.5059 30.9283L35.0546 37.9549C34.9727 38.085 34.9807 38.2457 35.0626 38.3646L39.5006 45.512L35.0619 52.0075C34.9454 52.1781 34.9893 52.4105 35.1598 52.5267C35.331 52.6429 35.5641 52.5991 35.6806 52.4291L40.2558 45.7331H40.2551C40.3357 45.6149 40.3444 45.4563 40.2644 45.3268L35.8118 38.1561L40.2624 31.1301C40.3357 31.0133 40.3417 30.8606 40.2644 30.7357L35.8131 23.5371L40.2638 16.5404L40.2631 16.5397C40.3377 16.4222 40.343 16.2668 40.2638 16.1407L35.6879 8.9182Z" fill="#F0A538"/>
<path d="M48.4361 9.39632C48.5906 9.53376 48.8277 9.51982 48.9656 9.36578C49.1034 9.21175 49.0894 8.97538 48.9349 8.83794L44.477 4.89073C44.3231 4.75462 44.0887 4.76724 43.9509 4.91795L39.692 8.84391C39.5408 8.98335 39.5315 9.21905 39.6714 9.37043C39.8112 9.52115 40.0476 9.53044 40.1995 9.39101L44.2319 5.67353L48.4361 9.39632Z" fill="#F0A538"/>
<path d="M35.6353 5.43444C35.7818 5.28904 35.7825 5.05267 35.6366 4.9066C35.4908 4.76053 35.2537 4.75987 35.1072 4.90527L31.3918 8.58225C30.8484 8.01125 29.5704 6.6933 28.5401 5.81688C29.4019 6.8885 30.7445 8.84186 31.0462 9.28206C31.0615 9.31326 31.0821 9.34314 31.1068 9.37036L31.1081 9.37236L31.1167 9.38099C31.2626 9.52706 31.4997 9.52772 31.6462 9.38232L35.6353 5.43444ZM28.5401 5.81688C28.2631 5.58118 28.004 5.37734 27.7823 5.22796C27.7929 5.20538 27.7983 5.18546 27.7983 5.16953C27.7983 4.96503 28.1093 5.28041 28.5401 5.81688ZM27.7823 5.22796C27.7516 5.20737 27.7223 5.18812 27.693 5.16953C27.3028 4.9232 27.047 4.87473 27.047 5.16953C27.047 5.25518 23.6806 7.81605 22.6523 8.59619L19.8 4.9398C19.6728 4.77647 19.4371 4.74725 19.2739 4.87407C19.1101 5.00088 19.0808 5.23592 19.208 5.39926L22.2874 9.34646L22.2887 9.3458C22.4139 9.50647 22.6464 9.53768 22.8095 9.41419C22.8228 9.40356 27.4766 5.89523 27.7823 5.22796Z" fill="#F0A538"/>
<path fill-rule="evenodd" clip-rule="evenodd" d="M57.8079 3.95654H48.6855V9.45408H57.8079V3.95654Z" fill="#F0A538"/>
<path d="M18.5661 9.49125C18.7732 9.49125 18.9417 9.32393 18.9417 9.11678C18.9417 8.91029 18.7739 8.74231 18.5661 8.74231H10.5006C10.2935 8.74231 10.125 8.90963 10.125 9.11678C10.125 9.32327 10.2928 9.49125 10.5006 9.49125H18.5661Z" fill="#F0A538"/>
<path fill-rule="evenodd" clip-rule="evenodd" d="M16.1171 8.25488C15.5423 8.25488 15.0762 8.71301 15.0762 9.27804C15.0762 9.84306 15.5423 10.3012 16.1171 10.3012C16.6918 10.3012 17.158 9.84306 17.158 9.27804C17.158 8.71301 16.6918 8.25488 16.1171 8.25488Z" fill="#F0A538"/>
<path d="M15.7266 21.5301C15.7266 21.7366 15.8945 21.9046 16.1024 21.9046C16.3096 21.9046 16.4782 21.7372 16.4782 21.5301V8.73769C16.4782 8.5312 16.3103 8.36322 16.1024 8.36322C15.8951 8.36322 15.7266 8.53054 15.7266 8.73769V21.5301Z" fill="#F0A538"/>
<path fill-rule="evenodd" clip-rule="evenodd" d="M16.4314 26.9984H16.7618L16.7471 26.3697C16.7471 26.3697 17.5243 26.0769 18.0085 25.4634C18.9142 24.3141 17.7234 21.5626 17.202 21.1649C16.9529 20.975 16.1018 21.0627 16.1018 21.0627C16.1018 21.0627 15.2507 20.975 15.0016 21.1649C14.4802 21.5626 13.2894 24.3141 14.1951 25.4634C14.6793 26.0775 15.4565 26.3697 15.4565 26.3697L15.4418 26.9984H15.6563C15.6703 27.3364 15.7309 27.744 15.9406 27.8025C16.3069 27.9047 16.8497 28.3436 16.879 28.9578C16.9083 29.5719 16.2483 29.9809 15.6323 29.6011C15.0163 29.2207 15.0163 28.4751 14.7086 28.256C14.4009 28.0368 14.5335 29.801 15.5151 30.3175C17.3465 31.2809 18.8482 27.9519 16.4314 27.3204V26.9984Z" fill="#F0A538"/>
<path d="M31.5995 8.79012L27.968 4.91528L27.4199 5.42387L31.0508 9.29871L31.5995 8.79012Z" fill="#F0A538"/>
<path fill-rule="evenodd" clip-rule="evenodd" d="M37.6893 50.5953H42.6488L44.1638 52.7007H37.6893H31.2148L32.7299 50.5953H37.6893Z" fill="#F0A538"/>
<path fill-rule="evenodd" clip-rule="evenodd" d="M10.8457 45.8434L15.654 41.9745H17.2563V45.8434V47.6932V53.8321H10.8457V45.8434Z" fill="#F0A538"/>
<path fill-rule="evenodd" clip-rule="evenodd" d="M21.8959 53.7895V54H20.209V29.5286L31.1747 27.7207L44.502 30.2855V41.9745H46.2728V26.837L48.888 25.5336L57.1547 28.4769V53.7895H21.8959ZM31.2167 38.4017H26.5563V52.5287H21.8959L21.9804 31.2529L31.2167 29.7809V38.4017ZM49.1185 52.131H55.531V29.3321L49.2457 27.2314L49.1185 27.3628V41.8709C49.1185 41.9512 49.1125 42.0309 49.1005 42.1079L49.1185 42.2062V52.131Z" fill="#F0A538"/>
<path fill-rule="evenodd" clip-rule="evenodd" d="M4 53.9629H64V52.5281H4V53.9629Z" fill="#F0A538"/>
<path d="M72.8594 9.01562H77.3906C79.2135 9.01562 80.6146 9.23438 81.5938 9.67188C82.5729 10.099 83.3438 10.7604 83.9062 11.6562C84.4792 12.5521 84.7656 13.5469 84.7656 14.6406C84.7656 15.6615 84.5156 16.5938 84.0156 17.4375C83.5156 18.2708 82.7812 18.9479 81.8125 19.4688C83.0104 19.875 83.9323 20.3542 84.5781 20.9062C85.224 21.4479 85.724 22.1094 86.0781 22.8906C86.4427 23.6615 86.625 24.5 86.625 25.4062C86.625 27.25 85.9479 28.8125 84.5938 30.0938C83.25 31.3646 81.4427 32 79.1719 32H72.8594V9.01562ZM75.1094 11.2656V18.625H76.4219C78.0156 18.625 79.1875 18.4792 79.9375 18.1875C80.6875 17.8854 81.2812 17.4167 81.7188 16.7812C82.1562 16.1354 82.375 15.4219 82.375 14.6406C82.375 13.5885 82.0052 12.7656 81.2656 12.1719C80.5365 11.5677 79.3698 11.2656 77.7656 11.2656H75.1094ZM75.1094 20.9375V29.75H77.9531C79.6302 29.75 80.8594 29.5885 81.6406 29.2656C82.4219 28.9323 83.0469 28.4167 83.5156 27.7188C83.9948 27.0208 84.2344 26.2656 84.2344 25.4531C84.2344 24.4323 83.901 23.5417 83.2344 22.7812C82.5677 22.0208 81.651 21.5 80.4844 21.2188C79.7031 21.0312 78.3438 20.9375 76.4062 20.9375H75.1094ZM91.25 9.01562H93.5469V22.8906C93.5469 24.5365 93.5781 25.5625 93.6406 25.9688C93.7552 26.875 94.0208 27.6354 94.4375 28.25C94.8542 28.8542 95.4948 29.3646 96.3594 29.7812C97.224 30.1875 98.0938 30.3906 98.9688 30.3906C99.7292 30.3906 100.458 30.2292 101.156 29.9062C101.854 29.5833 102.438 29.1354 102.906 28.5625C103.375 27.9896 103.719 27.2969 103.938 26.4844C104.094 25.901 104.172 24.7031 104.172 22.8906V9.01562H106.469V22.8906C106.469 24.9427 106.266 26.6042 105.859 27.875C105.464 29.1354 104.661 30.2344 103.453 31.1719C102.255 32.1094 100.802 32.5781 99.0938 32.5781C97.2396 32.5781 95.651 32.1354 94.3281 31.25C93.0052 30.3646 92.1198 29.1927 91.6719 27.7344C91.3906 26.8385 91.25 25.224 91.25 22.8906V9.01562ZM111.812 9.01562H114.109V32H111.812V9.01562ZM119.391 9.01562H121.703V29.7812H130.531V32H119.391V9.01562ZM134.172 32V9.01562H138.938C142.375 9.01562 144.87 9.29167 146.422 9.84375C148.651 10.625 150.391 11.9792 151.641 13.9062C152.901 15.8333 153.531 18.1302 153.531 20.7969C153.531 23.099 153.031 25.125 152.031 26.875C151.042 28.625 149.75 29.9167 148.156 30.75C146.573 31.5833 144.349 32 141.484 32H134.172ZM136.375 29.8281H139.031C142.208 29.8281 144.411 29.6302 145.641 29.2344C147.37 28.6719 148.729 27.6615 149.719 26.2031C150.708 24.7344 151.203 22.9427 151.203 20.8281C151.203 18.6094 150.667 16.7135 149.594 15.1406C148.521 13.5677 147.026 12.4896 145.109 11.9062C143.672 11.4688 141.302 11.25 138 11.25H136.375V29.8281ZM167.375 9.01562L178.094 32H175.625L172.016 24.4375H162.109L158.516 32H155.953L166.812 9.01562H167.375ZM167.094 13.8906L163.141 22.2188H171L167.094 13.8906Z" fill="white"/>
<path d="M78.2074 45.1108H76.8778C76.8267 44.8267 76.7315 44.5767 76.5923 44.3608C76.4531 44.1449 76.2827 43.9616 76.081 43.8111C75.8793 43.6605 75.6534 43.5469 75.4034 43.4702C75.1563 43.3935 74.8935 43.3551 74.6151 43.3551C74.1122 43.3551 73.6619 43.4815 73.2642 43.7344C72.8693 43.9872 72.5568 44.358 72.3267 44.8466C72.0994 45.3352 71.9858 45.9318 71.9858 46.6364C71.9858 47.3466 72.0994 47.946 72.3267 48.4347C72.5568 48.9233 72.8707 49.2926 73.2685 49.5426C73.6662 49.7926 74.1136 49.9176 74.6108 49.9176C74.8864 49.9176 75.1477 49.8807 75.3949 49.8068C75.6449 49.7301 75.8707 49.6179 76.0724 49.4702C76.2741 49.3224 76.4446 49.142 76.5838 48.929C76.7259 48.7131 76.8239 48.4659 76.8778 48.1875L78.2074 48.1918C78.1364 48.6207 77.9986 49.0156 77.794 49.3764C77.5923 49.7344 77.3324 50.044 77.0142 50.3054C76.6989 50.5639 76.3381 50.7642 75.9318 50.9062C75.5256 51.0483 75.0824 51.1193 74.6023 51.1193C73.8466 51.1193 73.1733 50.9403 72.5824 50.5824C71.9915 50.2216 71.5256 49.706 71.1847 49.0355C70.8466 48.3651 70.6776 47.5653 70.6776 46.6364C70.6776 45.7045 70.848 44.9048 71.1889 44.2372C71.5298 43.5668 71.9957 43.0526 72.5866 42.6946C73.1776 42.3338 73.8494 42.1534 74.6023 42.1534C75.0653 42.1534 75.4972 42.2202 75.8977 42.3537C76.3011 42.4844 76.6634 42.6776 76.9844 42.9332C77.3054 43.1861 77.571 43.4957 77.7812 43.8622C77.9915 44.2259 78.1335 44.642 78.2074 45.1108ZM87.724 46.6364C87.724 47.5682 87.5535 48.3693 87.2126 49.0398C86.8717 49.7074 86.4044 50.2216 85.8106 50.5824C85.2197 50.9403 84.5479 51.1193 83.795 51.1193C83.0393 51.1193 82.3646 50.9403 81.7709 50.5824C81.18 50.2216 80.714 49.706 80.3731 49.0355C80.0322 48.3651 79.8618 47.5653 79.8618 46.6364C79.8618 45.7045 80.0322 44.9048 80.3731 44.2372C80.714 43.5668 81.18 43.0526 81.7709 42.6946C82.3646 42.3338 83.0393 42.1534 83.795 42.1534C84.5479 42.1534 85.2197 42.3338 85.8106 42.6946C86.4044 43.0526 86.8717 43.5668 87.2126 44.2372C87.5535 44.9048 87.724 45.7045 87.724 46.6364ZM86.42 46.6364C86.42 45.9261 86.305 45.3281 86.0748 44.8423C85.8476 44.3537 85.5351 43.9844 85.1373 43.7344C84.7425 43.4815 84.295 43.3551 83.795 43.3551C83.2922 43.3551 82.8433 43.4815 82.4484 43.7344C82.0535 43.9844 81.741 44.3537 81.5109 44.8423C81.2837 45.3281 81.17 45.9261 81.17 46.6364C81.17 47.3466 81.2837 47.946 81.5109 48.4347C81.741 48.9205 82.0535 49.2898 82.4484 49.5426C82.8433 49.7926 83.2922 49.9176 83.795 49.9176C84.295 49.9176 84.7425 49.7926 85.1373 49.5426C85.5351 49.2898 85.8476 48.9205 86.0748 48.4347C86.305 47.946 86.42 47.3466 86.42 46.6364ZM96.7697 42.2727V51H95.5595L91.1234 44.5994H91.0424V51H89.7257V42.2727H90.9444L95.3848 48.6818H95.4657V42.2727H96.7697ZM103.81 44.5653C103.765 44.1619 103.578 43.8494 103.248 43.6278C102.918 43.4034 102.504 43.2912 102.004 43.2912C101.646 43.2912 101.336 43.348 101.075 43.4616C100.813 43.5724 100.61 43.7259 100.465 43.9219C100.323 44.1151 100.252 44.3352 100.252 44.5824C100.252 44.7898 100.301 44.9687 100.397 45.1193C100.497 45.2699 100.626 45.3963 100.785 45.4986C100.947 45.598 101.12 45.6818 101.305 45.75C101.489 45.8153 101.667 45.8693 101.837 45.9119L102.69 46.1335C102.968 46.2017 103.254 46.294 103.546 46.4105C103.839 46.527 104.11 46.6804 104.36 46.8707C104.61 47.0611 104.812 47.2969 104.965 47.5781C105.122 47.8594 105.2 48.196 105.2 48.5881C105.2 49.0824 105.072 49.5213 104.816 49.9048C104.563 50.2884 104.195 50.5909 103.712 50.8125C103.232 51.0341 102.651 51.1449 101.97 51.1449C101.316 51.1449 100.751 51.0412 100.274 50.8338C99.7963 50.6264 99.4227 50.3324 99.1528 49.9517C98.8829 49.5682 98.7338 49.1136 98.7054 48.5881H100.026C100.052 48.9034 100.154 49.1662 100.333 49.3764C100.515 49.5838 100.747 49.7386 101.028 49.8409C101.312 49.9403 101.623 49.9901 101.961 49.9901C102.333 49.9901 102.664 49.9318 102.954 49.8153C103.247 49.696 103.477 49.5312 103.644 49.321C103.812 49.108 103.896 48.8594 103.896 48.5753C103.896 48.3168 103.822 48.1051 103.674 47.9403C103.529 47.7756 103.332 47.6392 103.082 47.5312C102.835 47.4233 102.555 47.3281 102.242 47.2457L101.211 46.9645C100.512 46.7741 99.9582 46.4943 99.5491 46.125C99.1429 45.7557 98.9397 45.267 98.9397 44.6591C98.9397 44.1562 99.0761 43.7173 99.3488 43.3423C99.6215 42.9673 99.9909 42.6761 100.457 42.4688C100.923 42.2585 101.448 42.1534 102.033 42.1534C102.624 42.1534 103.146 42.2571 103.597 42.4645C104.052 42.6719 104.41 42.9574 104.671 43.321C104.933 43.6818 105.069 44.0966 105.08 44.5653H103.81ZM106.703 43.4062V42.2727H113.457V43.4062H110.734V51H109.422V43.4062H106.703ZM115.31 51V42.2727H118.42C119.097 42.2727 119.658 42.3892 120.104 42.6222C120.552 42.8551 120.888 43.1776 121.109 43.5895C121.331 43.9986 121.442 44.4716 121.442 45.0085C121.442 45.5426 121.329 46.0128 121.105 46.419C120.883 46.8224 120.548 47.1364 120.099 47.3608C119.653 47.5852 119.092 47.6974 118.416 47.6974H116.06V46.5639H118.297C118.723 46.5639 119.07 46.5028 119.337 46.3807C119.606 46.2585 119.804 46.081 119.929 45.848C120.054 45.6151 120.116 45.3352 120.116 45.0085C120.116 44.679 120.052 44.3935 119.925 44.152C119.8 43.9105 119.602 43.7259 119.332 43.598C119.065 43.4673 118.714 43.402 118.28 43.402H116.626V51H115.31ZM119.618 47.0625L121.774 51H120.274L118.16 47.0625H119.618ZM129.016 42.2727H130.337V48.0128C130.337 48.6236 130.194 49.1648 129.907 49.6364C129.62 50.1051 129.216 50.4744 128.697 50.7443C128.177 51.0114 127.567 51.1449 126.868 51.1449C126.172 51.1449 125.564 51.0114 125.045 50.7443C124.525 50.4744 124.121 50.1051 123.834 49.6364C123.547 49.1648 123.404 48.6236 123.404 48.0128V42.2727H124.721V47.9062C124.721 48.3011 124.807 48.652 124.981 48.9588C125.157 49.2656 125.405 49.5071 125.726 49.6832C126.047 49.8565 126.428 49.9432 126.868 49.9432C127.312 49.9432 127.694 49.8565 128.015 49.6832C128.339 49.5071 128.586 49.2656 128.756 48.9588C128.93 48.652 129.016 48.3011 129.016 47.9062V42.2727ZM139.86 45.1108H138.531C138.48 44.8267 138.384 44.5767 138.245 44.3608C138.106 44.1449 137.935 43.9616 137.734 43.8111C137.532 43.6605 137.306 43.5469 137.056 43.4702C136.809 43.3935 136.546 43.3551 136.268 43.3551C135.765 43.3551 135.315 43.4815 134.917 43.7344C134.522 43.9872 134.21 44.358 133.98 44.8466C133.752 45.3352 133.639 45.9318 133.639 46.6364C133.639 47.3466 133.752 47.946 133.98 48.4347C134.21 48.9233 134.524 49.2926 134.921 49.5426C135.319 49.7926 135.766 49.9176 136.264 49.9176C136.539 49.9176 136.801 49.8807 137.048 49.8068C137.298 49.7301 137.524 49.6179 137.725 49.4702C137.927 49.3224 138.097 49.142 138.237 48.929C138.379 48.7131 138.477 48.4659 138.531 48.1875L139.86 48.1918C139.789 48.6207 139.651 49.0156 139.447 49.3764C139.245 49.7344 138.985 50.044 138.667 50.3054C138.352 50.5639 137.991 50.7642 137.585 50.9062C137.178 51.0483 136.735 51.1193 136.255 51.1193C135.499 51.1193 134.826 50.9403 134.235 50.5824C133.644 50.2216 133.178 49.706 132.837 49.0355C132.499 48.3651 132.33 47.5653 132.33 46.6364C132.33 45.7045 132.501 44.9048 132.842 44.2372C133.183 43.5668 133.649 43.0526 134.239 42.6946C134.83 42.3338 135.502 42.1534 136.255 42.1534C136.718 42.1534 137.15 42.2202 137.551 42.3537C137.954 42.4844 138.316 42.6776 138.637 42.9332C138.958 43.1861 139.224 43.4957 139.434 43.8622C139.644 44.2259 139.786 44.642 139.86 45.1108ZM141.365 43.4062V42.2727H148.12V43.4062H145.397V51H144.084V43.4062H141.365ZM151.289 42.2727V51H149.972V42.2727H151.289ZM161.148 46.6364C161.148 47.5682 160.977 48.3693 160.636 49.0398C160.295 49.7074 159.828 50.2216 159.234 50.5824C158.643 50.9403 157.971 51.1193 157.219 51.1193C156.463 51.1193 155.788 50.9403 155.194 50.5824C154.604 50.2216 154.138 49.706 153.797 49.0355C153.456 48.3651 153.285 47.5653 153.285 46.6364C153.285 45.7045 153.456 44.9048 153.797 44.2372C154.138 43.5668 154.604 43.0526 155.194 42.6946C155.788 42.3338 156.463 42.1534 157.219 42.1534C157.971 42.1534 158.643 42.3338 159.234 42.6946C159.828 43.0526 160.295 43.5668 160.636 44.2372C160.977 44.9048 161.148 45.7045 161.148 46.6364ZM159.844 46.6364C159.844 45.9261 159.729 45.3281 159.498 44.8423C159.271 44.3537 158.959 43.9844 158.561 43.7344C158.166 43.4815 157.719 43.3551 157.219 43.3551C156.716 43.3551 156.267 43.4815 155.872 43.7344C155.477 43.9844 155.165 44.3537 154.935 44.8423C154.707 45.3281 154.594 45.9261 154.594 46.6364C154.594 47.3466 154.707 47.946 154.935 48.4347C155.165 48.9205 155.477 49.2898 155.872 49.5426C156.267 49.7926 156.716 49.9176 157.219 49.9176C157.719 49.9176 158.166 49.7926 158.561 49.5426C158.959 49.2898 159.271 48.9205 159.498 48.4347C159.729 47.946 159.844 47.3466 159.844 46.6364ZM170.193 42.2727V51H168.983L164.547 44.5994H164.466V51H163.149V42.2727H164.368L168.808 48.6818H168.889V42.2727H170.193ZM177.234 44.5653C177.189 44.1619 177.001 43.8494 176.672 43.6278C176.342 43.4034 175.927 43.2912 175.427 43.2912C175.069 43.2912 174.76 43.348 174.498 43.4616C174.237 43.5724 174.034 43.7259 173.889 43.9219C173.747 44.1151 173.676 44.3352 173.676 44.5824C173.676 44.7898 173.724 44.9687 173.821 45.1193C173.92 45.2699 174.049 45.3963 174.208 45.4986C174.37 45.598 174.544 45.6818 174.728 45.75C174.913 45.8153 175.091 45.8693 175.261 45.9119L176.113 46.1335C176.392 46.2017 176.677 46.294 176.97 46.4105C177.262 46.527 177.534 46.6804 177.784 46.8707C178.034 47.0611 178.235 47.2969 178.389 47.5781C178.545 47.8594 178.623 48.196 178.623 48.5881C178.623 49.0824 178.495 49.5213 178.24 49.9048C177.987 50.2884 177.619 50.5909 177.136 50.8125C176.656 51.0341 176.075 51.1449 175.393 51.1449C174.74 51.1449 174.174 51.0412 173.697 50.8338C173.22 50.6264 172.846 50.3324 172.576 49.9517C172.307 49.5682 172.157 49.1136 172.129 48.5881H173.45C173.476 48.9034 173.578 49.1662 173.757 49.3764C173.939 49.5838 174.17 49.7386 174.451 49.8409C174.735 49.9403 175.047 49.9901 175.385 49.9901C175.757 49.9901 176.088 49.9318 176.378 49.8153C176.67 49.696 176.9 49.5312 177.068 49.321C177.235 49.108 177.319 48.8594 177.319 48.5753C177.319 48.3168 177.245 48.1051 177.098 47.9403C176.953 47.7756 176.755 47.6392 176.505 47.5312C176.258 47.4233 175.978 47.3281 175.666 47.2457L174.635 46.9645C173.936 46.7741 173.382 46.4943 172.973 46.125C172.566 45.7557 172.363 45.267 172.363 44.6591C172.363 44.1562 172.5 43.7173 172.772 43.3423C173.045 42.9673 173.414 42.6761 173.88 42.4688C174.346 42.2585 174.872 42.1534 175.457 42.1534C176.048 42.1534 176.569 42.2571 177.021 42.4645C177.476 42.6719 177.833 42.9574 178.095 43.321C178.356 43.6818 178.493 44.0966 178.504 44.5653H177.234Z" fill="white"/>
</svg>
