<svg width="1296" height="580" viewBox="0 0 1296 580" fill="none" xmlns="http://www.w3.org/2000/svg">
<path opacity="0.42" d="M185.193 580C250.179 580 302.862 569.13 302.862 555.721C302.862 542.312 250.179 531.442 185.193 531.442C120.206 531.442 67.5234 542.312 67.5234 555.721C67.5234 569.13 120.206 580 185.193 580Z" fill="#B7B7B7"/>
<path opacity="0.42" d="M1274.17 543.252C1274.17 556.663 1221.5 567.531 1156.53 567.531C1091.57 567.531 1038.86 556.663 1038.86 543.252C1038.86 529.84 1091.53 518.973 1156.53 518.973C1221.5 519.004 1274.17 529.872 1274.17 543.252Z" fill="#B7B7B7"/>
<path d="M315.797 445.439V401.381L426.131 227.343H464.07V288.327H441.616L372.061 398.538V400.606H528.851V445.439H315.797ZM442.649 491.953V432.002L443.681 412.492V227.343H496.074V491.953H442.649Z" fill="#0C0A0A"/>
<path d="M669.704 497.767C647.509 497.681 628.41 492.211 612.408 481.358C596.493 470.505 584.233 454.785 575.63 434.199C567.113 413.612 562.898 388.848 562.984 359.906C562.984 331.051 567.242 306.459 575.759 286.131C584.362 265.802 596.622 250.341 612.537 239.746C628.539 229.065 647.595 223.725 669.704 223.725C691.814 223.725 710.827 229.065 726.743 239.746C742.744 250.427 755.047 265.932 763.65 286.26C772.253 306.502 776.511 331.051 776.425 359.906C776.425 388.934 772.124 413.741 763.521 434.328C755.004 454.914 742.787 470.634 726.872 481.487C710.956 492.341 691.9 497.767 669.704 497.767ZM669.704 451.383C684.846 451.383 696.933 443.76 705.966 428.514C714.999 413.268 719.473 390.398 719.387 359.906C719.387 339.836 717.322 323.126 713.193 309.775C709.149 296.424 703.385 286.389 695.901 279.67C688.502 272.952 679.77 269.592 669.704 269.592C654.649 269.592 642.605 277.129 633.572 292.203C624.538 307.277 619.979 329.845 619.893 359.906C619.893 380.234 621.915 397.203 625.958 410.813C630.087 424.336 635.895 434.5 643.379 441.305C650.864 448.023 659.639 451.383 669.704 451.383Z" fill="#0C0A0A"/>
<path d="M812.268 445.439V401.381L922.602 227.343H960.541V288.327H938.087L868.531 398.538V400.606H1025.32V445.439H812.268ZM939.119 491.953V432.002L940.152 412.492V227.343H992.544V491.953H939.119Z" fill="#0C0A0A"/>
<path d="M568.373 161.778C563.425 161.778 558.937 160.629 554.908 158.331C550.879 155.982 547.691 152.74 545.345 148.603C543.05 144.416 541.902 139.692 541.902 134.433C541.902 129.173 543.05 124.475 545.345 120.339C547.691 116.151 550.879 112.909 554.908 110.611C558.937 108.262 563.425 107.087 568.373 107.087C573.371 107.087 577.885 108.262 581.914 110.611C585.943 112.909 589.105 116.151 591.4 120.339C593.695 124.475 594.843 129.173 594.843 134.433C594.843 139.692 593.695 144.416 591.4 148.603C589.105 152.74 585.943 155.982 581.914 158.331C577.885 160.629 573.371 161.778 568.373 161.778ZM568.373 157.106C572.351 157.106 575.921 156.186 579.083 154.348C582.245 152.51 584.744 149.88 586.581 146.458C588.417 142.986 589.335 138.977 589.335 134.433C589.335 129.888 588.417 125.905 586.581 122.483C584.744 119.062 582.245 116.432 579.083 114.594C575.921 112.755 572.351 111.836 568.373 111.836C564.394 111.836 560.824 112.755 557.662 114.594C554.5 116.432 552.001 119.062 550.165 122.483C548.329 125.905 547.411 129.888 547.411 134.433C547.411 138.977 548.329 142.986 550.165 146.458C552.001 149.88 554.5 152.51 557.662 154.348C560.824 156.186 564.394 157.106 568.373 157.106Z" fill="#0C0A0A"/>
<path d="M628.664 161.778C623.717 161.778 619.229 160.629 615.2 158.331C611.17 155.982 607.983 152.74 605.637 148.603C603.341 144.416 602.194 139.692 602.194 134.433C602.194 129.173 603.341 124.475 605.637 120.339C607.983 116.151 611.17 112.909 615.2 110.611C619.229 108.262 623.717 107.087 628.664 107.087C633.662 107.087 638.176 108.262 642.205 110.611C646.235 112.909 649.397 116.151 651.692 120.339C653.987 124.475 655.134 129.173 655.134 134.433C655.134 139.692 653.987 144.416 651.692 148.603C649.397 152.74 646.235 155.982 642.205 158.331C638.176 160.629 633.662 161.778 628.664 161.778ZM628.664 157.106C632.642 157.106 636.213 156.186 639.375 154.348C642.537 152.51 645.036 149.88 646.872 146.458C648.708 142.986 649.626 138.977 649.626 134.433C649.626 129.888 648.708 125.905 646.872 122.483C645.036 119.062 642.537 116.432 639.375 114.594C636.213 112.755 632.642 111.836 628.664 111.836C624.686 111.836 621.116 112.755 617.954 114.594C614.791 116.432 612.292 119.062 610.456 122.483C608.62 125.905 607.702 129.888 607.702 134.433C607.702 138.977 608.62 142.986 610.456 146.458C612.292 149.88 614.791 152.51 617.954 154.348C621.116 156.186 624.686 157.106 628.664 157.106Z" fill="#0C0A0A"/>
<path d="M699.131 123.096C699.131 127.692 697.626 131.394 694.617 134.203C691.608 137.011 687.094 138.416 681.076 138.416H670.289V161.242H664.934V107.7H681.076C687.043 107.7 691.531 109.104 694.54 111.913C697.601 114.721 699.131 118.449 699.131 123.096ZM681.076 133.82C689.44 133.82 693.622 130.245 693.622 123.096C693.622 119.522 692.628 116.815 690.639 114.977C688.65 113.138 685.462 112.219 681.076 112.219H670.289V133.82H681.076Z" fill="#0C0A0A"/>
<path d="M724.335 161.778C720.816 161.778 717.705 161.165 715.002 159.94C712.35 158.714 710.258 157.003 708.728 154.808C707.198 152.612 706.382 150.161 706.28 147.454H711.941C712.197 150.059 713.344 152.357 715.384 154.348C717.424 156.289 720.408 157.259 724.335 157.259C727.956 157.259 730.812 156.34 732.904 154.501C735.046 152.612 736.117 150.237 736.117 147.378C736.117 145.08 735.53 143.241 734.357 141.863C733.184 140.433 731.73 139.386 729.996 138.722C728.262 138.007 725.865 137.241 722.805 136.424C719.235 135.454 716.404 134.509 714.313 133.59C712.222 132.671 710.437 131.241 708.958 129.301C707.479 127.36 706.739 124.73 706.739 121.411C706.739 118.653 707.453 116.202 708.881 114.058C710.309 111.862 712.324 110.151 714.925 108.926C717.526 107.7 720.51 107.087 723.876 107.087C728.823 107.087 732.802 108.313 735.811 110.764C738.871 113.164 740.63 116.279 741.089 120.109H735.275C734.918 117.913 733.72 115.973 731.679 114.287C729.639 112.551 726.885 111.683 723.417 111.683C720.204 111.683 717.526 112.551 715.384 114.287C713.242 115.973 712.171 118.296 712.171 121.258C712.171 123.505 712.758 125.317 713.931 126.696C715.104 128.075 716.557 129.122 718.291 129.837C720.076 130.552 722.474 131.318 725.483 132.135C728.951 133.105 731.756 134.075 733.898 135.045C736.04 135.965 737.851 137.394 739.33 139.335C740.809 141.275 741.548 143.88 741.548 147.148C741.548 149.65 740.885 152.025 739.559 154.271C738.233 156.518 736.27 158.331 733.669 159.71C731.067 161.089 727.956 161.778 724.335 161.778Z" fill="#0C0A0A"/>
<path d="M773.809 161.625C772.686 161.625 771.743 161.242 770.978 160.476C770.264 159.71 769.907 158.765 769.907 157.642C769.907 156.518 770.264 155.599 770.978 154.884C771.743 154.118 772.686 153.735 773.809 153.735C774.88 153.735 775.772 154.118 776.486 154.884C777.251 155.599 777.634 156.518 777.634 157.642C777.634 158.765 777.251 159.71 776.486 160.476C775.772 161.242 774.88 161.625 773.809 161.625Z" fill="#0C0A0A"/>
<path d="M787.705 161.625C786.583 161.625 785.639 161.242 784.874 160.476C784.16 159.71 783.803 158.765 783.803 157.642C783.803 156.518 784.16 155.599 784.874 154.884C785.639 154.118 786.583 153.735 787.705 153.735C788.776 153.735 789.668 154.118 790.382 154.884C791.147 155.599 791.53 156.518 791.53 157.642C791.53 158.765 791.147 159.71 790.382 160.476C789.668 161.242 788.776 161.625 787.705 161.625Z" fill="#0C0A0A"/>
<path d="M801.601 161.625C800.479 161.625 799.535 161.242 798.77 160.476C798.056 159.71 797.699 158.765 797.699 157.642C797.699 156.518 798.056 155.599 798.77 154.884C799.535 154.118 800.479 153.735 801.601 153.735C802.672 153.735 803.565 154.118 804.279 154.884C805.044 155.599 805.426 156.518 805.426 157.642C805.426 158.765 805.044 159.71 804.279 160.476C803.565 161.242 802.672 161.625 801.601 161.625Z" fill="#0C0A0A"/>
<path d="M13.3715 386.177C13.3715 386.177 4.08595 380.43 1.76457 388.093C-0.588189 395.726 -0.588189 406.907 1.76457 407.786C4.11732 408.666 17.6064 407.786 17.6064 407.786C17.6064 407.786 22.3747 390.763 13.3715 386.177Z" fill="#E02828"/>
<path d="M242.908 390.732C242.908 390.732 222.078 376.032 217.027 399.589C217.027 399.589 221.921 412.686 224.399 436.62C233.089 438.41 241.653 440.451 249.997 442.744C249.997 420.57 248.272 400.311 242.908 390.732Z" fill="#C87843"/>
<path d="M257.028 535.557L244.261 529.903C244.261 529.903 250.001 483.136 250.001 442.713C241.625 440.42 233.093 438.378 224.403 436.588C226.568 457.506 226.913 486.685 220.576 522.679C220.576 522.679 212.389 544.697 221.423 553.868C230.489 563.039 238.551 559.867 249.97 564.453C261.389 569.038 280.556 570.075 288.304 557.04C296.021 544.037 280.242 521.831 257.028 535.557Z" fill="#F68A0A"/>
<path d="M116.513 375.844C116.513 375.844 95.6834 360.422 90.6328 385.141C90.6328 385.141 96.9696 403.044 98.8831 435.332C107.008 433.479 115.258 432.065 123.603 431.092C123.634 407.598 121.909 386.052 116.513 375.844Z" fill="#C87843"/>
<path d="M130.634 527.956L117.866 522.051C117.866 522.051 123.544 473.462 123.607 431.154C115.262 432.128 106.981 433.542 98.8871 435.395C100.111 456.124 99.4832 482.759 94.1816 514.45C94.1816 514.45 85.994 537.567 95.0286 547.209C104.095 556.82 112.157 553.491 123.575 558.297C134.994 563.102 154.161 564.201 161.91 550.539C169.627 536.845 153.816 513.508 130.634 527.956Z" fill="#F68A0A"/>
<path d="M208.752 142.069C217.567 126.208 221.08 106.798 214.022 89.1459C213.489 88.0152 212.924 86.9473 212.297 85.9737C176.786 98.2859 124.147 131.108 98.0469 218.549C142.467 207.085 182.872 184.188 208.752 142.069Z" fill="#C87843"/>
<path d="M262.461 64.7729C262.492 66.9087 262.932 68.7932 262.932 68.7932C262.932 68.7932 262.806 67.2542 262.461 64.7729Z" fill="#F68A0A"/>
<path d="M277.19 91.9728C277.19 91.9728 297.706 93.6374 295.165 84.9373C292.656 76.2057 284.562 78.5927 284.562 78.5927C284.562 78.5927 305.737 61.6635 293.126 54.2825C280.515 46.87 272.453 69.8925 272.453 69.8925C272.453 69.8925 273.457 59.3078 266.901 58.8053C263.105 58.4912 262.352 61.9147 262.384 64.8357C262.729 67.317 262.854 68.8561 262.854 68.8561C262.854 68.8561 262.415 66.9715 262.384 64.8357C260.909 54.094 255.576 25.6064 240.425 28.4017C221.759 31.8253 249.24 72.2796 249.24 72.2796C249.24 72.2796 243.687 67.7882 241.679 72.5309C239.672 77.2736 248.236 78.6241 248.236 78.6241C248.236 78.6241 233.209 78.7497 212.223 86.0365C212.85 87.0102 213.415 88.0781 213.948 89.2088C221.006 106.86 217.462 126.24 208.678 142.132C182.798 184.251 142.393 207.148 97.973 218.612C93.3617 234.003 89.5972 251.057 86.868 269.997C86.868 269.997 73.6612 377.917 76.7983 383.131C83.1977 393.873 155.286 407.127 235.782 404.175C243.279 403.892 249.867 398.866 252.439 391.485L290.868 291.857C303.667 258.69 310.85 223.386 311.509 187.612C312.231 149.231 305.768 107.112 277.19 91.9728Z" fill="#F68A0A"/>
<path d="M141.443 223.92C138.275 217.67 131.154 212.362 115.406 214.655C93.1647 217.921 75.0642 248.482 65.4336 268.583C94.9842 259.475 122.245 245.278 141.443 223.92Z" fill="#F68A0A"/>
<path d="M73.0938 288.465C85.4536 266.825 109.985 250.618 137.214 250.492C139.41 248.513 141.826 245.121 143.488 239.216C143.488 239.216 144.994 230.956 141.449 223.92C122.282 245.278 95.0215 259.475 65.4395 268.583C60.5771 278.728 57.8793 286.204 57.8793 286.204C57.8793 286.204 45.8332 284.79 43.1667 300.243C43.1667 300.243 41.8178 307.97 46.5233 310.765C46.5233 310.765 0.346605 378.105 10.385 404.771C10.385 404.771 8.59693 412.969 16.4081 415.764C16.4081 415.764 21.5214 426.977 29.1129 423.02C29.1129 423.02 22.8703 438.441 30.901 441.488C38.9318 444.535 47.8409 443.372 50.9779 430.275C51.7621 426.946 53.3934 415.607 56.3735 400.091C49.2525 362.589 51.9504 323.329 73.0938 288.465Z" fill="#F68A0A"/>
<path d="M73.0939 288.465C51.9504 323.329 49.2526 362.589 56.3109 400.06C65.0631 354.549 85.5164 273.138 131.442 253.256C131.442 253.256 134.14 253.224 137.214 250.492C109.985 250.586 85.4537 266.793 73.0939 288.465Z" fill="#C87843"/>
<path d="M96.4141 224.14C96.4141 224.14 124.365 202.374 141.461 223.92C141.461 223.92 130.043 208.97 96.4141 224.14Z" fill="#C87843"/>
<path d="M240.492 28.3388C240.492 28.3388 258.059 20.9577 262.702 67.5053C262.702 67.5053 259.785 57.643 266.969 58.7423C274.152 59.8416 272.521 69.8296 272.521 69.8296C272.521 69.8296 277.477 48.4717 291.688 53.4657C305.867 58.4911 289.147 75.2318 284.63 78.5297C284.63 78.5297 294.417 76.8023 295.421 85.9422C295.421 85.9422 289.931 76.9908 282.089 80.9797C282.089 80.9797 299.782 59.5904 290.026 57.6116C280.238 55.6329 272.082 74.3524 272.082 74.3524C272.082 74.3524 270.67 61.5063 266.467 63.328C262.263 65.1497 262.953 74.0069 262.953 74.0069C262.953 74.0069 254.703 30.0348 240.492 28.3388Z" fill="#C87843"/>
<path d="M68.6423 404.551C60.1724 394.563 47.7185 395.443 47.7185 395.443C42.8875 408.98 43.7659 420.287 43.7659 420.287C43.7659 420.287 -4.23036 510.241 20.4265 497.018C39.2172 486.936 60.4861 494.035 69.5207 497.961C70.9324 498.589 72.4381 498.149 73.4106 497.144C57.1609 468.091 52.4867 433.447 68.6423 404.551Z" fill="#E02828"/>
<path d="M76.3642 429.553C76.2074 417.429 72.9449 409.608 68.6786 404.551C52.523 433.447 57.1971 468.091 73.4468 497.144C73.9801 496.579 74.3252 495.856 74.3879 495.008C75.1094 484.141 76.7093 457.349 76.3642 429.553Z" fill="#ED3E3E"/>
<path d="M225.619 186.073C223.204 191.883 222.953 197.317 225.054 198.259C227.188 199.202 230.858 195.244 233.273 189.434C235.689 183.623 235.94 178.189 233.838 177.247C231.736 176.336 228.066 180.294 225.619 186.073Z" fill="#0C0A0A"/>
<path d="M274.027 197.757C272.05 203.725 272.207 209.19 274.372 209.944C276.568 210.697 279.924 206.489 281.9 200.521C283.877 194.553 283.72 189.088 281.524 188.334C279.391 187.581 276.003 191.789 274.027 197.757Z" fill="#0C0A0A"/>
<path d="M263.226 162.485C261.25 168.453 261.406 173.918 263.571 174.672C265.767 175.425 269.123 171.217 271.1 165.249C273.076 159.281 272.919 153.816 270.723 153.062C268.59 152.309 265.202 156.517 263.226 162.485Z" fill="#0C0A0A"/>
<path d="M247.236 248.231C241.683 243.237 234.405 240.567 226.971 241.132C226.845 241.132 226.751 241.164 226.625 241.164C214.893 242.137 211.254 224.234 226.845 220.56C242.436 216.885 260.631 225.334 265.211 237.96C269.257 248.984 258.027 257.936 247.236 248.231Z" fill="#0C0A0A"/>
<mask id="mask0_445_4659" style="mask-type:luminance" maskUnits="userSpaceOnUse" x="216" y="219" width="51" height="34">
<path d="M247.232 248.231C241.679 243.237 234.401 240.567 226.967 241.132C226.841 241.132 226.747 241.164 226.622 241.164C214.889 242.137 211.25 224.234 226.841 220.56C242.432 216.885 260.627 225.334 265.207 237.96C269.253 248.984 258.023 257.936 247.232 248.231Z" fill="white"/>
</mask>
<g mask="url(#mask0_445_4659)">
<path d="M258.548 252.785C256.446 258.156 246.188 259.161 235.617 255.015C225.045 250.869 218.175 243.174 220.277 237.803C222.378 232.432 232.636 231.427 243.208 235.573C253.78 239.719 260.65 247.414 258.548 252.785Z" fill="#D04642"/>
</g>
<path d="M323.341 286.8C335.607 235.353 301.131 214.121 301.131 214.121L297.398 224.863L280.866 272.604C275.094 306.651 254.609 288.811 254.609 288.811C252.947 283.565 250.939 288.811 250.939 288.811C250.939 288.811 250.939 268.112 250.939 254.607C250.939 241.101 247.583 235.479 241.246 238.996C234.878 242.514 236.885 270.217 236.885 270.217C232.368 263.37 228.698 270.405 228.698 270.405C228.698 270.405 227.349 267.421 224.18 267.767C221.012 268.112 220.824 271.63 220.824 271.63C219.82 269.871 215.46 264.249 211.444 271.63C207.429 278.98 218.471 318.963 236.572 330.898C240.148 333.254 245.23 335.013 251.127 335.892C280.96 329.171 307.719 313.184 323.341 286.8Z" fill="#F68A0A"/>
<path d="M251.156 335.892C269.916 338.719 297.207 332.877 313.049 310.231C317.441 303.949 320.986 296.443 323.182 287.397C323.245 287.177 323.276 286.989 323.307 286.769C307.716 313.184 280.958 329.171 251.156 335.892Z" fill="#C87843"/>
<path d="M285.126 295.501C285.126 295.501 267.276 301.468 250.933 288.811C250.933 288.811 256.83 237.803 244.251 238.023C244.251 238.023 233.397 235.604 236.785 268.238C236.785 268.238 231.703 264.971 228.691 270.436C228.691 270.436 223.264 264.186 220.912 271.127C220.912 271.127 213.226 264.092 210.654 272.886C210.654 272.886 200.835 324.585 256.203 336.583C256.203 336.583 210.308 325.464 212.065 274.08C212.065 274.08 212.504 271.002 215.798 270.813C219.092 270.656 220.974 274.52 220.974 274.52C220.974 274.52 222.072 269.463 224.613 270.06C227.154 270.656 228.911 274.205 228.911 274.205C228.911 274.205 229.789 268.489 233.585 269.4C237.381 270.342 237.506 274.739 237.506 274.739C237.506 274.739 235.53 238.023 243.906 239.342C252.282 240.661 249.741 291.574 249.741 291.574C249.741 291.574 268.845 307.624 285.126 295.501Z" fill="#C87843"/>
<path d="M308.627 223.92C308.627 223.92 302.102 261.988 286.668 295.501C286.668 295.501 308.125 261.234 308.627 223.92Z" fill="#C87843"/>
<path d="M74.4133 496.359C74.4133 507.414 60.736 516.397 43.8903 516.397C27.0445 516.397 13.3672 507.414 13.3672 496.359C13.3672 485.303 27.0445 476.32 43.8903 476.32C60.7674 476.32 74.4133 485.271 74.4133 496.359Z" fill="#C91F1F"/>
<path d="M38.4648 497.113V538.572L47.9386 498.495C48.2837 497.05 47.6249 495.542 46.276 494.82C45.0212 494.16 43.2645 493.564 41.2882 493.846C39.6569 494.066 38.4648 495.479 38.4648 497.113Z" fill="#EAC71B"/>
<path d="M46.8403 532.478C46.8403 536.75 43.3896 540.205 39.1233 540.205C34.857 540.205 31.4062 536.75 31.4062 532.478C31.4062 528.207 34.857 524.752 39.1233 524.752C43.3896 524.783 46.8403 528.238 46.8403 532.478Z" fill="#EAC71B"/>
<path d="M1007.28 170.4C998.994 164.212 988.955 159.25 976.878 157.208C952.284 153.031 935.501 161.323 925.148 170.054C952.535 172.599 979.983 173.101 1007.28 170.4Z" fill="#C87843"/>
<path d="M1007.28 170.4C979.985 173.101 952.504 172.598 925.181 170.023C916.021 177.749 911.912 185.759 911.912 185.759C911.912 185.759 889.764 201.086 890.643 207.776C891.521 214.498 895.599 212.142 895.599 212.142C895.599 218.706 899.081 217.387 899.081 217.387C899.081 217.387 893.968 243.205 900.963 243.488C907.959 243.77 913.135 222.664 913.135 222.664C913.135 222.664 912.853 227.909 921.291 226.339C929.698 224.737 928.82 205.578 928.82 205.578C937.572 180.765 963.202 183.843 963.202 183.843C987.168 185.947 1005.21 207.588 1017.97 231.427C1022.71 217.764 1025.69 203.567 1025.85 189.434C1021.08 182.901 1014.93 176.116 1007.28 170.4Z" fill="#F68A0A"/>
<path d="M1039.83 215.534C1039.83 215.534 1035.69 203.002 1025.84 189.465C1025.69 203.599 1022.71 217.827 1017.97 231.458C1034.53 262.396 1042.19 296.945 1042.19 296.945C1046.26 246.754 1039.83 215.534 1039.83 215.534Z" fill="#C87843"/>
<path d="M1223.47 211.168C1223.47 211.168 1213.56 236.672 1225.8 267.61C1225.8 267.61 1229.78 268.112 1235.21 270.813C1237.94 254.01 1242.2 237.489 1247.79 221.282C1240.76 216.979 1232.73 213.524 1223.47 211.168Z" fill="#C87843"/>
<path d="M1257.57 228.443C1263.97 263.935 1274.32 300.463 1291.54 333.191C1292.86 299.992 1288.12 254.575 1257.57 228.443Z" fill="#C87843"/>
<path d="M1257.58 228.443C1254.57 225.868 1251.31 223.449 1247.76 221.282C1242.18 237.489 1237.91 254.01 1235.18 270.813C1250.02 278.163 1275.68 301.814 1260.75 376.158C1260.75 376.158 1245.5 387.842 1245.54 397.013C1245.54 406.216 1250.56 408.603 1250.56 408.603C1250.56 408.603 1246.63 417.806 1254.48 417.806C1262.35 417.806 1268.91 419.564 1271.07 420.664C1273.27 421.763 1278.94 419.125 1281.99 420.664C1285.06 422.203 1292.25 422.203 1294.88 419.784C1297.52 417.366 1295.76 384.104 1286.57 374.053C1286.57 374.053 1290.55 356.716 1291.49 333.222C1274.33 300.463 1263.98 263.935 1257.58 228.443Z" fill="#F68A0A"/>
<path d="M1092.66 520.669C1092.66 520.669 1088.93 514.481 1085.35 518.376C1085.35 518.376 1059.09 501.29 1046.61 529.715C1034.12 558.171 1090.09 559.459 1103.86 546.079C1117.63 532.73 1121.93 532.29 1121.93 532.29C1121.93 532.29 1127.51 523.245 1121.93 519.35C1117.79 516.492 1106.56 474.153 1104.17 428.924C1096.42 429.741 1088.71 430.872 1081.08 432.348L1092.66 520.669Z" fill="#F68A0A"/>
<path d="M1105.55 381.874C1105.55 381.874 1080.14 359.448 1073.27 372.829L1081.08 432.411C1088.7 430.903 1096.39 429.804 1104.17 428.987C1103.32 413.094 1103.54 396.888 1105.55 381.874Z" fill="#C87843"/>
<path d="M1190.21 507.634C1190.21 507.634 1193.94 501.447 1197.52 505.341C1197.52 505.341 1223.77 488.255 1236.26 516.68C1248.74 545.136 1192.78 546.424 1179.01 533.044C1165.24 519.695 1160.94 519.255 1160.94 519.255C1160.94 519.255 1155.35 510.21 1160.94 506.315C1165.08 503.457 1176.31 461.118 1178.69 415.89C1186.44 416.706 1194.16 417.837 1201.78 419.345L1190.21 507.634Z" fill="#F68A0A"/>
<path d="M1177.32 368.84C1177.32 368.84 1202.73 346.414 1209.6 359.794L1201.79 419.376C1194.16 417.868 1186.48 416.769 1178.7 415.921C1179.54 400.06 1179.32 383.853 1177.32 368.84Z" fill="#C87843"/>
<path d="M1107.22 56.3551C1107.56 57.2038 1107.91 57.7067 1107.91 57.7067C1107.91 57.7067 1107.66 57.2352 1107.22 56.3551Z" fill="#F68A0A"/>
<path d="M1208.86 178.283C1215.7 182.492 1222.7 186.261 1229.82 189.653C1223.98 145.807 1210.68 104.159 1183.45 79.6604C1178.34 75.0433 1172.73 71.0858 1166.58 67.7879C1153.24 105.133 1175.14 157.994 1208.86 178.283Z" fill="#C87843"/>
<path d="M1208.86 178.284C1175.11 158.025 1153.24 105.133 1166.57 67.7881C1161.74 65.1811 1156.6 63.014 1151.08 61.3179C1151.08 61.3179 1193.99 20.2354 1169.02 2.99207C1144.05 -14.2513 1128.55 53.4343 1128.55 53.4343C1128.55 53.4343 1120.8 36.191 1111.77 43.1009C1105.03 48.2519 1106.19 53.8741 1107.22 56.4182C1107.66 57.2976 1107.91 57.7687 1107.91 57.7687C1107.91 57.7687 1107.57 57.2662 1107.22 56.4182C1102.89 47.9692 1078.64 3.0235 1057.97 15.5241C1035.16 29.3125 1089.4 70.2694 1089.4 70.2694C1089.4 70.2694 1075.79 80.1317 1061.83 105.447C1039.43 146.121 1016.19 226.747 1047.37 370.442C1083.41 378.294 1121.49 377.98 1159.61 369.499C1190.32 362.652 1214.29 343.305 1230.73 318.209C1233.8 284.57 1235.96 235.918 1229.85 189.716C1222.69 186.261 1215.7 182.492 1208.86 178.284Z" fill="#F68A0A"/>
<path d="M1159.57 369.436C1121.46 377.917 1083.37 378.231 1047.33 370.379C1048.36 375.153 1049.46 379.958 1050.59 384.858C1050.59 384.858 1075.56 390.04 1141.44 384.858C1207.32 379.676 1225.38 361.144 1225.38 361.144C1225.38 361.144 1228.3 344.121 1230.69 318.115C1214.28 343.242 1190.28 362.621 1159.57 369.436Z" fill="#C87843"/>
<path d="M1125.79 139.682C1126.01 145.085 1127.8 149.419 1129.78 149.356C1131.75 149.293 1133.19 144.896 1132.98 139.494C1132.76 134.092 1130.97 129.757 1128.99 129.82C1127.02 129.883 1125.57 134.312 1125.79 139.682Z" fill="#0C0A0A"/>
<path d="M1097.31 177.216C1097.53 182.618 1099.32 186.952 1101.3 186.89C1103.27 186.827 1104.71 182.429 1104.49 177.027C1104.28 171.625 1102.49 167.291 1100.51 167.353C1098.53 167.385 1097.09 171.813 1097.31 177.216Z" fill="#0C0A0A"/>
<path d="M1159.33 167.353C1157.35 167.416 1155.91 171.813 1156.13 177.216C1156.35 182.618 1158.14 186.952 1160.11 186.89C1162.09 186.827 1163.53 182.429 1163.31 177.027C1163.09 171.625 1161.3 167.291 1159.33 167.353Z" fill="#0C0A0A"/>
<path d="M1105.56 215.126C1105.56 215.126 1128.55 199.233 1159.7 211.734C1159.7 211.734 1130.22 193.548 1105.56 215.126Z" fill="#0C0A0A"/>
<path d="M1100.88 211.074C1100.88 211.074 1108.04 211.702 1107.53 221.031C1107.53 221.031 1106.34 214.592 1100.88 211.074Z" fill="#0C0A0A"/>
<path d="M1158.45 218.549C1158.45 218.549 1159.64 212.111 1165.1 208.593C1165.1 208.561 1157.95 209.221 1158.45 218.549Z" fill="#0C0A0A"/>
<path d="M1122.28 218.549C1122.28 218.549 1132.35 214.529 1143.71 218.549C1143.71 218.549 1132.88 211.263 1122.28 218.549Z" fill="#0C0A0A"/>
<path d="M1057.95 15.4926C1057.95 15.4926 1080 -2.22191 1107.89 57.7372C1107.89 57.7057 1085.65 15.8695 1057.95 15.4926Z" fill="#0C0A0A"/>
<path d="M1173.79 30.2546C1179.6 19.6385 1177.93 -3.10131 1158.83 0.353638C1139.76 3.80859 1128.53 53.4028 1128.53 53.4028C1120.75 39.2061 1115.32 38.6407 1109.48 45.1109C1103.62 51.5497 1107.88 57.7372 1107.88 57.7372C1107.79 49.6338 1113.85 47.2781 1113.85 47.2781C1125.61 46.2416 1129.91 67.1598 1129.91 67.1598C1129.91 67.1598 1142.39 9.61918 1159.21 5.63029C1176.05 1.64139 1173.79 30.2546 1173.79 30.2546Z" fill="#0C0A0A"/>
</svg>
